<?xml version="1.0" encoding="UTF-8"?>
<svg id="Layer_1" xmlns="http://www.w3.org/2000/svg" version="1.1" viewBox="0 0 128 128">
  <!-- Generator: Adobe Illustrator 30.0.0, SVG Export Plug-In . SVG Version: 2.1.1 Build 123)  -->
  <defs>
    <style>
      .st0 {
        fill-rule: evenodd;
      }
    </style>
  </defs>
  <path class="st0" d="M126.92,30.39l-13.14,19.84c-.39.59-1.04.95-1.75.95-8.21.04-58.87.3-69.8.09-1.16-.02-2.08-.97-2.08-2.12v-.91h0v-22.26h0v-1.45c0-1.17.95-2.12,2.12-2.12h82.87c1.17,0,2.12.95,2.12,2.12v4.7c0,.42-.12.82-.35,1.17ZM46.02,68.25c-.54-3.88-3.59-8.12-5.5-10.46-.59-.72-.08-1.8.86-1.8h62.56c.93,0,1.45,1.07.86,1.8-1.91,2.34-4.95,6.58-5.5,10.46-.6,4.31,4.37,11.55,6.88,14.88.55.73.03,1.77-.88,1.77H40.02c-.91,0-1.43-1.04-.88-1.77,2.5-3.33,7.48-10.57,6.88-14.88ZM.73,25.98h33.84v22.26l-26.32-10.98c-4.55-1.9-7.52-6.35-7.52-11.28ZM31.8,90.23c.25-.39.68-.63,1.14-.63h76.86c.46,0,.9.24,1.14.63l8.36,13.32c.56.89-.08,2.05-1.14,2.05h-25.79v-10.03h-39.99v10.03h-27.8c-1.06,0-1.7-1.16-1.14-2.05l8.36-13.32Z"/>
</svg>