<?xml version="1.0" encoding="UTF-8"?>
<svg id="Layer_1" xmlns="http://www.w3.org/2000/svg" version="1.1" viewBox="0 0 128 128">
  <!-- Generator: Adobe Illustrator 30.0.0, SVG Export Plug-In . SVG Version: 2.1.1 Build 123)  -->
  <defs>
    <style>
      .st0 {
        fill-rule: evenodd;
      }
    </style>
  </defs>
  <path class="st0" d="M115.13,54.13l-44.5,33.07-14.39-13.91-13.91-14.39,15.44-20.78c2.39-4.28,1.43-7.67-5.34-9.69-13.26-3.68-24.8-4.11-24.8-4.11,0,0,21.14-10.83,35.53-12.79,24.25-3.29,39.51,1.55,44.82,3.71l.56.03c.44.09,5.62,5.27,5.71,5.71l1.68,29.93c.27,1.27-.02,2.47-.79,3.21ZM31.69,56.79l41.05,41.06c1.82,1.82,1.82,4.78,0,6.6l-9.28,9.29c-1.82,1.82-4.78,1.82-6.6,0L15.81,72.68c-1.82-1.82-1.82-4.78,0-6.6l9.28-9.29c1.82-1.82,4.78-1.82,6.6,0ZM25.25,90.06l14.23,14.23c1.82,1.82,1.82,4.78,0,6.6l-5.31,5.31c-1.82,1.82-4.78,1.82-6.6,0l-14.23-14.23c-1.82-1.82-1.82-4.78,0-6.6l5.31-5.31c1.82-1.82,4.78-1.82,6.6,0Z"/>
</svg>