<?xml version="1.0" encoding="UTF-8"?>
<svg id="Layer_1" xmlns="http://www.w3.org/2000/svg" version="1.1" viewBox="0 0 128 128">
  <!-- Generator: Adobe Illustrator 30.0.0, SVG Export Plug-In . SVG Version: 2.1.1 Build 123)  -->
  <defs>
    <style>
      .st0 {
        fill-rule: evenodd;
      }
    </style>
  </defs>
  <path class="st0" d="M115.11,52.68l-44.57,33.12-14.41-13.93-13.93-14.41L75.32,12.89c.74-.78,1.94-1.07,3.21-.8l29.98,1.68c.44.1,5.62,5.28,5.72,5.72l1.68,29.98c.27,1.27-.02,2.47-.8,3.21ZM72.31,103.42l-8.6,8.6c-2.02,2.02-5.29,2.02-7.31,0L15.98,71.6c-2.02-2.02-2.02-5.29,0-7.31l8.6-8.6c2.02-2.02,5.29-2.02,7.31,0l40.42,40.42c2.02,2.02,2.02,5.29,0,7.31ZM25.44,89.02l13.55,13.55c2.02,2.02,2.02,5.29,0,7.31l-4.62,4.62c-2.02,2.02-5.29,2.02-7.31,0l-13.55-13.55c-2.02-2.02-2.02-5.29,0-7.31l4.62-4.62c2.02-2.02,5.29-2.02,7.31,0Z"/>
</svg>