<?xml version="1.0" encoding="UTF-8"?>
<svg id="Layer_1" xmlns="http://www.w3.org/2000/svg" version="1.1" viewBox="0 0 128 128">
  <!-- Generator: Adobe Illustrator 30.0.0, SVG Export Plug-In . SVG Version: 2.1.1 Build 123)  -->
  <path d="M81.93,18.89l1.95-3.38c.71-1.24.29-2.81-.94-3.53l-14.95-8.63c-1.23-.71-2.81-.29-3.52.95l-22.03,38.18c-.71,1.24-.29,2.81.94,3.53l14.95,8.63c1.23.71,2.81.29,3.52-.95l1.84-3.2,13.41,7.87c-4.41,10.77-18.19,10.19-18.19,10.19l4.21,33s15.92-.27,31.45-10.91c15.53-10.64,32-45.33,32-45.33l-44.64-26.42ZM11.31,101.21l14.97,8.64,29.35-50.88-14.97-8.64-29.35,50.88ZM24.11,114.06l-15.36-8.86c-1.14-.66-2.6-.26-3.26.88l-3.73,6.46c-.66,1.14-.27,2.6.87,3.26l15.36,8.86c1.14.66,2.6.27,3.26-.88l3.73-6.46c.66-1.14.27-2.6-.87-3.26Z"/>
</svg>