<?xml version="1.0" encoding="UTF-8"?>
<svg id="Layer_1" xmlns="http://www.w3.org/2000/svg" version="1.1" viewBox="0 0 128 128">
  <!-- Generator: Adobe Illustrator 30.0.0, SVG Export Plug-In . SVG Version: 2.1.1 Build 123)  -->
  <defs>
    <style>
      .st0 {
        fill-rule: evenodd;
      }
    </style>
  </defs>
  <path class="st0" d="M107.19,88.59c-10.46,0-18.97-6.24-18.97-13.91,0-.22.02-.44.04-.65l.02-.2c.04-.55.53-.98,1.11-.98h2.46c0-.25.04-.5.16-.74l13.69-27.85c.03-.06.09-.1.12-.16.06-.1.13-.19.21-.27.08-.08.17-.14.27-.21.06-.04.1-.09.16-.13.03-.02.07-.01.1-.03.11-.04.21-.06.33-.09.1-.02.2-.04.31-.04.1,0,.2.02.3.04.12.02.23.04.33.09.03.01.07.01.1.03.06.03.1.08.16.12.1.06.19.13.27.21.08.08.14.17.21.27.04.06.09.1.12.16l13.69,27.85c.12.24.16.49.16.74h2.46c.58,0,1.06.43,1.11.98l.02.18c.02.22.04.45.04.68,0,7.67-8.51,13.91-18.97,13.91ZM107.19,48.77l-11.83,24.06h23.66l-11.83-24.06ZM113.27,40.31c-4.44.57-23.27,2.44-36.7-4.6-1.38-.73-3.07-.79-4.45-.07-2,1.06-3.38,3.18-3.38,5.62v53.4h-9.49v-53.4c0-2.44-1.37-4.56-3.38-5.62-1.38-.73-3.07-.66-4.45.07-13.43,7.04-32.26,5.17-36.7,4.6-.55-.07-.97-.54-.97-1.1v-4.86c0-.61.49-1.11,1.11-1.11,3.61,0,15.22-.14,22.49-1.76,10.89-2.44,17.5-13.53,20.14-18.95.37-.76,1.15-1.24,1.99-1.24h4.51s4.51,0,4.51,0c.85,0,1.62.48,1.99,1.24,2.64,5.42,9.25,16.52,20.14,18.95,7.27,1.63,18.89,1.76,22.49,1.76.61,0,1.11.5,1.11,1.11v4.86c0,.56-.41,1.03-.97,1.1ZM19.44,44.09c.06-.1.12-.19.21-.27.08-.08.17-.15.27-.21.06-.04.1-.09.16-.12.03-.02.07-.01.1-.03.11-.04.21-.07.33-.09.1-.02.2-.04.31-.04.1,0,.2.02.3.04.12.02.23.04.34.09.03.01.07.01.1.03.06.03.1.08.16.12.1.06.19.13.27.21.08.08.14.17.21.27.04.06.09.1.12.16l13.69,27.85c.12.24.16.49.16.74h2.46c.58,0,1.06.43,1.11.98l.02.18c.02.22.04.45.04.68,0,7.67-8.51,13.91-18.97,13.91S1.84,82.35,1.84,74.68c0-.22.02-.44.04-.65l.02-.2c.04-.55.53-.98,1.11-.98h2.46c0-.25.04-.5.16-.74l13.69-27.85c.03-.06.09-.1.12-.16ZM32.64,72.84l-11.83-24.07-11.83,24.07h23.66ZM48.31,108.54v-7.78c0-1.2.97-2.17,2.17-2.17h27.04c1.2,0,2.17.97,2.17,2.17v7.78l4,6.16c.57.87-.06,2.02-1.1,2.02h-37.2c-1.04,0-1.66-1.15-1.1-2.02l4-6.16Z"/>
</svg>