<?xml version="1.0" encoding="UTF-8"?>
<svg id="Layer_1" xmlns="http://www.w3.org/2000/svg" version="1.1" viewBox="0 0 128 128">
  <!-- Generator: Adobe Illustrator 30.0.0, SVG Export Plug-In . SVG Version: 2.1.1 Build 123)  -->
  <defs>
    <style>
      .st0 {
        fill-rule: evenodd;
      }
    </style>
  </defs>
  <path class="st0" d="M120.6,112H7.4c-.77,0-1.39-.62-1.39-1.38v-8.73c0-.76.62-1.38,1.39-1.38h11.61v-39.94c0-2.23,1.8-4.04,4.02-4.04h9.95c2.22,0,4.02,1.81,4.02,4.04v39.94h18.01v-39.94c0-2.23,1.8-4.04,4.02-4.04h9.95c2.22,0,4.02,1.81,4.02,4.04v39.94h17.51v-39.94c0-2.23,1.8-4.04,4.02-4.04h9.95c2.22,0,4.02,1.81,4.02,4.04v39.94h12.11c.77,0,1.39.62,1.39,1.38v8.73c0,.76-.62,1.38-1.39,1.38ZM115.62,50.5H11.88c-.77,0-1.39-.62-1.39-1.39v-10.49c0-.57.34-1.08.87-1.29l51.86-21.22c.34-.14.71-.14,1.05,0l51.86,21.22c.52.21.87.72.87,1.29v10.49c0,.77-.62,1.39-1.39,1.39ZM63.74,27.01c-4.56,0-8.25,3.69-8.25,8.25s3.69,8.25,8.25,8.25,8.25-3.69,8.25-8.25-3.69-8.25-8.25-8.25Z"/>
</svg>