<?xml version="1.0" encoding="UTF-8"?>
<svg id="Layer_1" xmlns="http://www.w3.org/2000/svg" version="1.1" viewBox="0 0 128 128">
  <!-- Generator: Adobe Illustrator 30.0.0, SVG Export Plug-In . SVG Version: 2.1.1 Build 123)  -->
  <defs>
    <style>
      .st0 {
        fill-rule: evenodd;
      }
    </style>
  </defs>
  <path class="st0" d="M115.97,59.11l.08.08-.82.82s0,0,0,0c0,0,0,0,0,0l-55.16,55.16c-7.16,7.16-23.54,2.39-36.58-10.66-13.04-13.04-17.81-29.42-10.66-36.58L67.98,12.78s0,0,0,0c0,0,0,0,0,0l.82-.82.08.08c3.58-2.85,8.99-3.22,15.01-1.51-1.29.6-2.49,1.39-3.51,2.41-6.66,6.66-4.29,19.82,5.28,29.4,9.58,9.58,22.74,11.94,29.4,5.28,1.02-1.02,1.81-2.22,2.41-3.51,1.71,6.02,1.33,11.43-1.51,15.01ZM47.34,60.06l2.31,13.19-20.77,8.24,36.6,1.65-.82-12.69,18.64-9.52-35.95-.87ZM92.43,35.57c-4.51-4.51-5.32-11-1.81-14.51,3.51-3.51,10-2.69,14.51,1.81,4.51,4.51,5.32,11,1.81,14.51-3.51,3.51-10,2.69-14.51-1.81Z"/>
</svg>