<?xml version="1.0" encoding="UTF-8"?>
<svg id="Layer_1" xmlns="http://www.w3.org/2000/svg" version="1.1" viewBox="0 0 128 128">
  <!-- Generator: Adobe Illustrator 30.0.0, SVG Export Plug-In . SVG Version: 2.1.1 Build 123)  -->
  <defs>
    <style>
      .st0 {
        fill-rule: evenodd;
      }
    </style>
  </defs>
  <path class="st0" d="M113.26,83.56c-12.25,5.87-34.01,6.8-34.01,6.8,0,0,3.4-3.3,3.4-11.9s-3.4-11.9-3.4-11.9c0,0,11.65-.3,17-1.7,5.7-1.49,11.54-2.82,13.6-5.1,2.07-2.28,4.46-7.7,0-8.5-6.69-1.2-2.53,2.95-6.8,5.1-6.33,3.19-18.71,3.4-18.71,3.4h-40.77s-12.35-.21-18.67-3.4c-4.26-2.15-.11-6.3-6.79-5.1-4.45.8-2.06,6.23,0,8.5,2.06,2.28,7.89,3.61,13.58,5.1,5.34,1.4,16.98,1.7,16.98,1.7,0,0-3.4,3.3-3.4,11.9s3.4,11.9,3.4,11.9c0,0-21.72-.93-33.95-6.8-12.23-5.87-12.14-16.59-11.88-20.41.37-5.55,2.83-20.74,15.28-23.81,10.53-2.6,28.95-3.23,42.43-3.37v-.03c1.07,0,2.22,0,3.4,0,1.18,0,2.33,0,3.4,0v.03c13.5.13,31.96.77,42.51,3.37,12.47,3.07,14.93,18.25,15.3,23.81.26,3.81.35,14.53-11.9,20.41ZM63.95,64.85c7.51,0,13.6,6.09,13.6,13.6s-6.09,13.6-13.6,13.6-13.6-6.09-13.6-13.6,6.09-13.6,13.6-13.6Z"/>
</svg>