<?xml version="1.0" encoding="UTF-8"?>
<svg id="Layer_1" xmlns="http://www.w3.org/2000/svg" version="1.1" viewBox="0 0 128 128">
  <!-- Generator: Adobe Illustrator 30.0.0, SVG Export Plug-In . SVG Version: 2.1.1 Build 123)  -->
  <path d="M112.61,24.96l-2.13-10.54c-.22-1.08-1.27-1.78-2.36-1.56l-25.38,5.13-3.81-7.86c-1.06-2.19-4.2-3.41-7.06-2.83l-25.77,5.21c-2.85.58-5.27,2.92-5.4,5.35l-.46,8.72-23.28,4.71c-1.08.22-1.78,1.27-1.56,2.36l2.13,10.54c.22,1.08,1.27,1.78,2.36,1.56l91.16-18.43c1.08-.22,1.78-1.27,1.56-2.36Z"/>
  <path d="M105.49,50.85H26.31c-.77,0-1.42.61-1.39,1.3l2.73,58.1c.24,5.97,4.97,10.58,10.97,10.58l54.37.02c6.09,0,10.89-4.61,11.13-10.59l2.77-58.11c.03-.7-.63-1.3-1.41-1.3ZM50.91,108.84h-8v-44h8v44ZM69.91,108.84h-8v-44h8v44ZM88.91,108.84h-8v-44h8v44Z"/>
</svg>