<?xml version="1.0" encoding="UTF-8"?>
<svg id="Layer_1" xmlns="http://www.w3.org/2000/svg" version="1.1" viewBox="0 0 128 128">
  <!-- Generator: Adobe Illustrator 30.0.0, SVG Export Plug-In . SVG Version: 2.1.1 Build 123)  -->
  <defs>
    <style>
      .st0 {
        fill-rule: evenodd;
      }
    </style>
  </defs>
  <path class="st0" d="M114.4,23.15l5.74,10.25-9.45-2.99-5.92,11.61-2.42-7.46c-2.49,2.92-6.38,4.51-10.11,4.63-8.64.31-14.22-5.22-19.14-10.08-4.49-4.43-8.73-8.61-14.94-8.61-5.21,0-6.6,4.27-6.6,6.79v5.59h11.38c.63,0,1.14.52,1.14,1.15v8.2c15.44,6.16,26.36,21.3,26.36,39.02,0,23.18-18.69,41.97-41.75,41.97S6.96,104.42,6.96,81.24c0-17.71,10.92-32.85,26.36-39.02v-8.2c0-.64.51-1.15,1.14-1.15h11.38v-5.59c0-6.24,4.23-12.55,12.32-12.55,8.55,0,14.07,5.45,18.95,10.26,4.69,4.63,8.7,8.66,14.95,8.43,2.89-.09,6.05-1.69,6.96-4.5l-11.64.55,11.73-8.64-2.78-16.05,10.84,11.02,13.86-2.07-6.64,9.42Z"/>
</svg>