<?xml version="1.0" encoding="UTF-8"?>
<svg id="Layer_1" xmlns="http://www.w3.org/2000/svg" version="1.1" viewBox="0 0 128 128">
  <!-- Generator: Adobe Illustrator 30.0.0, SVG Export Plug-In . SVG Version: 2.1.1 Build 123)  -->
  <defs>
    <style>
      .st0 {
        fill-rule: evenodd;
      }
    </style>
  </defs>
  <path class="st0" d="M106.52,114.5H21.48c-1.92,0-3.48-1.57-3.48-3.5v-60.55h92.01v60.55c0,1.93-1.56,3.5-3.48,3.5ZM86.51,75.59l-12.75-3.83-7.58-11.08c-1.04-1.52-3.29-1.52-4.33,0l-7.58,11.08-12.75,3.83c-1.83.55-2.48,2.81-1.22,4.24l8.19,9.36-.88,13.46c-.13,1.96,1.87,3.37,3.67,2.57l12.74-5.6,12.74,5.6c1.8.79,3.8-.61,3.67-2.57l-.88-13.46,8.19-9.36c1.26-1.44.61-3.69-1.22-4.24ZM18,26.57c0-1.93,1.56-3.5,3.48-3.5h14.04v-8.57c0-.55.45-1,1-1h9.27c.55,0,1,.45,1,1v8.57h34.45v-8.57c0-.55.45-1,1-1h9.27c.55,0,1,.45,1,1v8.57h14.04c1.92,0,3.48,1.57,3.48,3.5v17.01H18v-17.01Z"/>
</svg>