<?xml version="1.0" encoding="UTF-8"?>
<svg id="Layer_1" xmlns="http://www.w3.org/2000/svg" version="1.1" viewBox="0 0 128 128">
  <!-- Generator: Adobe Illustrator 30.0.0, SVG Export Plug-In . SVG Version: 2.1.1 Build 123)  -->
  <defs>
    <style>
      .st0 {
        fill-rule: evenodd;
      }
    </style>
  </defs>
  <path class="st0" d="M106.52,114.5H21.48c-1.92,0-3.48-1.57-3.48-3.5v-58.55h92.01v58.55c0,1.93-1.56,3.5-3.48,3.5ZM40.19,62.98c-3.71,0-6.71,3.02-6.71,6.74s3,6.74,6.71,6.74,6.71-3.02,6.71-6.74-3-6.74-6.71-6.74ZM40.19,84.94c-3.71,0-6.71,3.02-6.71,6.74s3,6.74,6.71,6.74,6.71-3.02,6.71-6.74-3-6.74-6.71-6.74ZM64,62.98c-3.71,0-6.71,3.02-6.71,6.74s3,6.74,6.71,6.74,6.71-3.02,6.71-6.74-3-6.74-6.71-6.74ZM64,84.94c-3.71,0-6.71,3.02-6.71,6.74s3,6.74,6.71,6.74,6.71-3.02,6.71-6.74-3-6.74-6.71-6.74ZM87.81,62.98c-3.71,0-6.71,3.02-6.71,6.74s3,6.74,6.71,6.74,6.71-3.02,6.71-6.74-3-6.74-6.71-6.74ZM18,26.57c0-1.93,1.56-3.5,3.48-3.5h14.04v-8.57c0-.55.45-1,1-1h9.27c.55,0,1,.45,1,1v8.57h34.45v-8.57c0-.55.45-1,1-1h9.27c.55,0,1,.45,1,1v8.57h14.04c1.92,0,3.48,1.57,3.48,3.5v19.01H18v-19.01Z"/>
</svg>