<?xml version="1.0" encoding="UTF-8"?>
<svg id="Layer_1" xmlns="http://www.w3.org/2000/svg" version="1.1" viewBox="0 0 128 128">
  <!-- Generator: Adobe Illustrator 30.0.0, SVG Export Plug-In . SVG Version: 2.1.1 Build 123)  -->
  <defs>
    <style>
      .st0 {
        fill-rule: evenodd;
      }
    </style>
  </defs>
  <path class="st0" d="M106.52,114.5H21.48c-1.92,0-3.48-1.57-3.48-3.5v-60.55h92.01v60.55c0,1.93-1.56,3.5-3.48,3.5ZM72.54,61.23l-14.33,24.18-8.96-7.16-8.95,12.54,18.81,13.43,29.55-30.45-16.12-12.54ZM18,26.57c0-1.93,1.56-3.5,3.48-3.5h14.04v-8.57c0-.55.45-1,1-1h9.27c.55,0,1,.45,1,1v8.57h34.45v-8.57c0-.55.45-1,1-1h9.27c.55,0,1,.45,1,1v8.57h14.04c1.92,0,3.48,1.57,3.48,3.5v17.01H18v-17.01Z"/>
</svg>