<?xml version="1.0" encoding="UTF-8"?>
<svg id="Layer_1" xmlns="http://www.w3.org/2000/svg" version="1.1" viewBox="0 0 128 128">
  <!-- Generator: Adobe Illustrator 30.0.0, SVG Export Plug-In . SVG Version: 2.1.1 Build 123)  -->
  <defs>
    <style>
      .st0 {
        fill-rule: evenodd;
      }
    </style>
  </defs>
  <path class="st0" d="M114.9,107.3H13.1c-2.98,0-5.39-2.44-5.39-5.44v-55.18c0-2.49,1.67-4.66,4.06-5.27l5.05-1.3v-6.34c0-1.08.87-1.96,1.94-1.96h8.2c1.07,0,1.94.88,1.94,1.96v3.23l7.17-1.84,2.79-11.95c.34-1.46,1.63-2.49,3.12-2.49h44.08c1.49,0,2.78,1.03,3.12,2.49l2.79,11.95,24.29,6.25c2.39.61,4.06,2.79,4.06,5.27v55.18c0,3.01-2.42,5.44-5.39,5.44ZM63.04,48.48c-12.74,0-23.07,10.42-23.07,23.27s10.33,23.27,23.07,23.27,23.07-10.42,23.07-23.27-10.33-23.27-23.07-23.27ZM112.62,51.04c0-1.41-1.13-2.56-2.53-2.56h-5.87c-1.4,0-2.53,1.14-2.53,2.56v5.92c0,1.41,1.13,2.56,2.53,2.56h5.87c1.4,0,2.53-1.14,2.53-2.56v-5.92ZM63.04,87.4c-8.56,0-15.5-7-15.5-15.64s6.94-15.64,15.5-15.64,15.5,7,15.5,15.64-6.94,15.64-15.5,15.64Z"/>
</svg>