<?xml version="1.0" encoding="UTF-8"?>
<svg id="Layer_1" xmlns="http://www.w3.org/2000/svg" version="1.1" viewBox="0 0 128 128">
  <!-- Generator: Adobe Illustrator 30.0.0, SVG Export Plug-In . SVG Version: 2.1.1 Build 123)  -->
  <defs>
    <style>
      .st0 {
        fill-rule: evenodd;
      }
    </style>
  </defs>
  <path class="st0" d="M120.96,24.95l-13.82,85.14c-.53,3.27-3.61,5.49-6.88,4.96l-61.44-9.98c-3.27-.53-5.49-3.61-4.96-6.88L47.67,13.05c.53-3.27,3.61-5.49,6.88-4.96l61.44,9.98c3.27.53,5.49,3.61,4.96,6.88ZM33.66,110.72l28.12,4.56-38.23,4.66c-3.29.4-6.28-1.94-6.68-5.23L7.01,33.87c-.4-3.29,1.94-6.28,5.23-6.68l27.42-3.34-12.61,77.69c-.71,4.36,2.25,8.47,6.61,9.18Z"/>
</svg>