<?xml version="1.0" encoding="UTF-8"?>
<svg id="Layer_1" xmlns="http://www.w3.org/2000/svg" version="1.1" viewBox="0 0 128 128">
  <!-- Generator: Adobe Illustrator 30.0.0, SVG Export Plug-In . SVG Version: 2.1.1 Build 123)  -->
  <path d="M109.24,30.21H38.45l-2.59-12.95c-.34-1.71-1.65-3.06-3.35-3.45l-15.86-3.69c-2.38-.56-4.78.93-5.33,3.32-.56,2.39.93,4.78,3.32,5.33l13.07,3.04,1.68,8.41h-.04l3.95,42.22c-.13,4.53,1.38,8.96,4.34,12.49,3.55,4.23,8.75,6.66,14.27,6.66h52.37c2.45,0,4.44-1.99,4.44-4.44s-1.99-4.44-4.44-4.44h-52.37c-2.89,0-5.6-1.27-7.46-3.48-1.41-1.68-2.19-3.76-2.26-5.91h57.53c2.11,0,4-1.28,4.78-3.24l11.77-29.51c1.98-4.96-1.68-10.35-7.01-10.35ZM40.76,97.33c-5.71,0-10.34,4.63-10.34,10.34s4.63,10.34,10.34,10.34,10.34-4.63,10.34-10.34-4.63-10.34-10.34-10.34ZM99.26,97.33c-5.71,0-10.34,4.63-10.34,10.34s4.63,10.34,10.34,10.34,10.34-4.63,10.34-10.34-4.63-10.34-10.34-10.34Z"/>
</svg>