<?xml version="1.0" encoding="UTF-8"?>
<svg id="Layer_1" xmlns="http://www.w3.org/2000/svg" version="1.1" viewBox="0 0 128 128">
  <!-- Generator: Adobe Illustrator 30.0.0, SVG Export Plug-In . SVG Version: 2.1.1 Build 123)  -->
  <defs>
    <style>
      .st0 {
        fill-rule: evenodd;
      }
    </style>
  </defs>
  <path class="st0" d="M98.6,83.45c2.01-4.74,3.12-9.95,3.12-15.42v-3.65c0-21.89-17.81-39.71-39.71-39.71h-21.67c6.18-7.25,15.38-11.85,25.65-11.85h27.2c18.62,0,33.71,15.09,33.71,33.71v3.65c0,16.77-12.25,30.68-28.3,33.27ZM95.71,64.38v3.65c0,18.14-14.33,32.93-32.29,33.67v13.46s-20.53,1.16-24.87-13.42h-3.74c-18.62,0-33.71-15.09-33.71-33.71v-3.65c0-18.62,15.09-33.71,33.71-33.71h27.2c18.62,0,33.71,15.09,33.71,33.71Z"/>
</svg>