<?xml version="1.0" encoding="UTF-8"?>
<svg id="Layer_1" xmlns="http://www.w3.org/2000/svg" version="1.1" viewBox="0 0 128 128">
  <!-- Generator: Adobe Illustrator 30.0.0, SVG Export Plug-In . SVG Version: 2.1.1 Build 123)  -->
  <defs>
    <style>
      .st0 {
        fill-rule: evenodd;
      }
    </style>
  </defs>
  <path class="st0" d="M121.22,47.37l-8.93,4.69c0,.06,0,.12-.01.18,3.24.49,6.43,3.13,8.06,7.07,2.24,5.42.66,11.22-3.54,12.96-1.98.82-4.18.58-6.19-.46,3.65,22.26-16.27,46.75-44.22,47.66-24.82.8-35.14-15.28-37.76-20.34-.59.12-1.18.21-1.79.25-8.35.63-15.63-5.62-16.26-13.97-.28-3.67.78-7.13,2.75-9.92-3.91-1.02-6.92-4.41-7.24-8.66-.36-4.73,2.73-8.91,7.14-10.11-3.39-7.64-2.04-14.29-.82-17.77.42-1.2,1.97-1.48,2.79-.51,5.16,6.16,21.58,23.9,38.57,22.71,16.69-1.16,25.89-14.03,28.75-18.82-4.32-.26-7.89-3.66-8.23-8.09-.37-4.84,3.26-9.05,8.09-9.42.1,0,.2,0,.3,0-.42-1.08-.69-2.23-.78-3.44-.5-6.59,4.44-12.35,11.03-12.85,6.59-.5,12.35,4.44,12.85,11.03.02.25.02.49.02.74,1.08-.66,2.32-1.08,3.66-1.19,4.55-.35,8.51,3.06,8.86,7.61.32,4.22-2.59,7.93-6.64,8.72.35,1.47.62,3.1.8,4.96.04.37.06.77.09,1.19l8.52,3.26c1.1.42,1.19,1.95.15,2.5ZM99.8,37.65c-2.54.19-4.45,2.41-4.25,4.95.19,2.54,2.41,4.45,4.95,4.25,2.54-.19,4.45-2.41,4.25-4.95-.19-2.54-2.41-4.45-4.95-4.25Z"/>
</svg>