<?xml version="1.0" encoding="UTF-8"?>
<svg id="Layer_1" xmlns="http://www.w3.org/2000/svg" version="1.1" viewBox="0 0 128 128">
  <!-- Generator: Adobe Illustrator 30.0.0, SVG Export Plug-In . SVG Version: 2.1.1 Build 123)  -->
  <defs>
    <style>
      .st0 {
        fill-rule: evenodd;
      }
    </style>
  </defs>
  <path class="st0" d="M112.53,100.39c-6.45,1.85-22.28,5.85-39.27,6.13-1.73.03-3.24-1.14-3.57-2.8-.9-4.53-2.78-13.62-4.1-20.61-.63-3.33-2.75-3.27-3.21.02-.97,7.05-3.19,16.07-4.09,20.6-.33,1.66-1.84,2.83-3.57,2.8-17.05-.28-32.93-4.33-39.29-6.16-1.8-.52-3.36-2.09-3.2-3.91,2.29-26.72,5.07-48.89,8.02-57.54.71-2.07,2.69-3.46,4.93-3.46h34.66c-.29.59-.46,1.24-.46,1.95v22.75c0,2.48,2.01,4.49,4.49,4.49s4.49-2.01,4.49-4.49v-22.75c0-.7-.17-1.35-.46-1.95h34.91c2.26,0,4.26,1.42,4.95,3.52,2.76,8.44,5.59,30.42,7.96,57.37.17,1.88-1.36,3.52-3.22,4.05ZM103.26,30.37H24.52c-2.39,0-2.36-2.05-2.29-3.57-.06-.75.03-1.53.03-2.09,0-2.89,4.67-3.24,6.78-3.24h69.7c2.11,0,6.78.34,6.78,3.24,0,.56.08,1.34.03,2.09.07,1.52.1,3.57-2.29,3.57ZM45.29,21.47h-10.27v8.89h10.27v-8.89ZM92.77,21.47h-10.27v8.89h10.27v-8.89Z"/>
</svg>