<?xml version="1.0" encoding="UTF-8"?>
<svg id="Layer_1" xmlns="http://www.w3.org/2000/svg" version="1.1" viewBox="0 0 128 128">
  <!-- Generator: Adobe Illustrator 30.0.0, SVG Export Plug-In . SVG Version: 2.1.1 Build 123)  -->
  <defs>
    <style>
      .st0 {
        fill-rule: evenodd;
      }
    </style>
  </defs>
  <path class="st0" d="M123.81,64.23c-2.93,2.95-9.74,8.54-21.5,11.55h-1.32c1.95,5.89,3.71,12.98,4.54,20.92.53,5.05-.41,6.42-3.51,7.02-20.94,4.09-74.85,1.24-77.99.01-2.94-1.16-4.04-1.97-3.51-7.01.86-8.18,2.7-15.45,4.73-21.45-.45-.12-11.62-3.2-20.72-10.21-1.37-1.05-1.66-3.02-.66-4.44,4.44-6.31,16.54-22.96,25.04-29.48.99-.76,1.92-1.44,2.78-2.05.96-.67,2.24-.39,2.86.61,4.37,7.13,11.62,13.92,25.8,15.08,1.02.08,2.01.13,2.98.12,16.3-.13,25.18-12.04,27.86-16.47.56-.93,1.71-1.25,2.67-.77,2.56,1.3,5.21,2.96,7.57,5.1,6.98,6.32,18.34,20.92,22.73,27.39.87,1.27.73,2.98-.35,4.07ZM63.36,39.21c-.83,0-1.68-.03-2.57-.11-12.6-1.03-18.59-7.19-21.06-10.84-.9-1.32-.31-3.16,1.17-3.74l1.71-.67,2.43-1.02c1.03-.43,2.2-.09,2.91.79,1.62,2.03,5.48,5.35,13.59,6.02,8.55.71,13.43-3.94,15.46-6.55.73-.94,2.02-1.19,3.07-.64l3.95,2.1c1.36.72,1.75,2.5.83,3.75-2.83,3.88-9.61,10.92-21.5,10.92Z"/>
</svg>