<?xml version="1.0" encoding="UTF-8"?>
<svg id="Layer_1" xmlns="http://www.w3.org/2000/svg" version="1.1" viewBox="0 0 128 128">
  <!-- Generator: Adobe Illustrator 30.0.0, SVG Export Plug-In . SVG Version: 2.1.1 Build 123)  -->
  <defs>
    <style>
      .st0 {
        fill-rule: evenodd;
      }
    </style>
  </defs>
  <path class="st0" d="M103.43,46.73c-3.47,8.08-11.38,11.06-14.01,13.56-2.46,2.34-18.35,12.5-24.2,18.33l-23.93-11.78c2.52-4.75,5.63-10.62,7.34-16.03,2.97-9.39,5.55-16.76,12.42-29.31,6.87-12.55,12.84-18.2,22.02-19.77,9.18-1.57,18.86,4.58,21.88,10.75,8.12,16.6,1.94,26.17-1.52,34.25ZM59.64,84.05l-5.31,7.49-18.42-14.67,2.09-3.9c.54-1.01,1.79-1.41,2.82-.9l18.03,8.88c1.17.58,1.55,2.06.79,3.12ZM51.24,95.91l-3.42,4.83-20.93-7,6.47-12.08,17.89,14.25ZM40.82,110.61c-.61.86-1.77,1.15-2.71.66l-14.26-7.3c-1.06-.54-1.46-1.84-.9-2.88l1.38-2.57,20.26,6.78-3.76,5.31ZM22.96,109.14l13.25,6.78c-3.23,4.76-5.73,8.41-6.12,8.87-1.2,1.43-2.3,1.91-3.66,1.65-1.35-.26-5-2.78-6.42-3.79-1.42-1.01-1-4.84-.53-6.02.47-1.18,1.35-5.38,3.45-7.46.01-.01.02-.03.03-.04Z"/>
</svg>