<?xml version="1.0" encoding="UTF-8"?>
<svg id="Layer_1" xmlns="http://www.w3.org/2000/svg" version="1.1" viewBox="0 0 128 128">
  <!-- Generator: Adobe Illustrator 30.0.0, SVG Export Plug-In . SVG Version: 2.1.1 Build 123)  -->
  <defs>
    <style>
      .st0 {
        fill-rule: evenodd;
      }
    </style>
  </defs>
  <path class="st0" d="M64,116c-28.72,0-52-23.28-52-52S35.28,12,64,12s52,23.28,52,52-23.28,52-52,52ZM64,23.97c-22.11,0-40.03,17.92-40.03,40.03s17.92,40.03,40.03,40.03,40.03-17.92,40.03-40.03-17.92-40.03-40.03-40.03ZM64,96.44c-17.91,0-32.44-14.52-32.44-32.44s14.52-32.44,32.44-32.44,32.44,14.52,32.44,32.44-14.52,32.44-32.44,32.44ZM74.51,53.49c-4.5-7.06-7.69-11.28-9.3-13.3-.62-.77-1.8-.77-2.41,0-1.61,2.01-4.8,6.23-9.3,13.3-7.06,4.5-11.28,7.69-13.3,9.3-.77.62-.77,1.8,0,2.41,2.01,1.61,6.23,4.8,13.3,9.3,4.5,7.06,7.69,11.28,9.3,13.3.62.77,1.8.77,2.41,0,1.61-2.01,4.8-6.23,9.3-13.3,7.06-4.5,11.28-7.69,13.3-9.3.77-.62.77-1.8,0-2.41-2.01-1.61-6.23-4.8-13.3-9.3Z"/>
</svg>