<?xml version="1.0" encoding="UTF-8"?>
<svg id="Layer_1" xmlns="http://www.w3.org/2000/svg" version="1.1" viewBox="0 0 128 128">
  <!-- Generator: Adobe Illustrator 30.0.0, SVG Export Plug-In . SVG Version: 2.1.1 Build 123)  -->
  <defs>
    <style>
      .st0 {
        fill-rule: evenodd;
      }
    </style>
  </defs>
  <path class="st0" d="M110.55,71.51c0,25.61-20.84,46.37-46.55,46.37s-46.55-20.76-46.55-46.37c0-22,15.4-40.42,36.04-45.16l-3.04-7.57c-.13-.31-.19-.65-.19-.99v-5c0-1.47,1.19-2.66,2.67-2.66h22.15c1.47,0,2.67,1.19,2.67,2.66v5c0,.34-.06.67-.19.99l-3.04,7.57c20.64,4.75,36.04,23.16,36.04,45.16ZM64,34.76c-20.38,0-36.9,16.45-36.9,36.75s16.52,36.75,36.9,36.75,36.9-16.45,36.9-36.75-16.52-36.75-36.9-36.75ZM74.85,81.61c-.13.32-.39.58-.71.71l-32.49,13.13c-1.06.43-2.12-.62-1.68-1.68l13.18-32.36c.13-.32.39-.58.71-.71l32.49-13.13c1.06-.43,2.11.62,1.69,1.68l-13.18,32.36ZM64,65.51c-3.33,0-6.02,2.69-6.02,6s2.7,6,6.02,6,6.02-2.69,6.02-6-2.7-6-6.02-6Z"/>
</svg>