<?xml version="1.0" encoding="UTF-8"?>
<svg id="Layer_1" xmlns="http://www.w3.org/2000/svg" version="1.1" viewBox="0 0 128 128">
  <!-- Generator: Adobe Illustrator 30.0.0, SVG Export Plug-In . SVG Version: 2.1.1 Build 123)  -->
  <path d="M77.61,25.75c-2.21-4.94-7.15-8.38-12.9-8.38s-10.7,3.44-12.9,8.38H14.42v11.51h37.38c2.21,4.94,7.15,8.38,12.9,8.38s10.7-3.44,12.9-8.38h37.38v-11.51h-37.38ZM90.76,82.36c-5.76,0-10.7,3.44-12.9,8.38H14.42v11.51h63.43c2.21,4.94,7.15,8.38,12.9,8.38s10.7-3.44,12.9-8.38h11.33v-11.51h-11.33c-2.21-4.94-7.15-8.38-12.9-8.38ZM27.15,49.86c-7.81,0-14.14,6.33-14.14,14.14s6.33,14.14,14.14,14.14c5.76,0,10.7-3.44,12.9-8.38h74.94v-11.51H40.05c-2.21-4.94-7.15-8.38-12.9-8.38Z"/>
</svg>