<?xml version="1.0" encoding="UTF-8"?>
<svg id="Layer_1" xmlns="http://www.w3.org/2000/svg" version="1.1" viewBox="0 0 128 128">
  <!-- Generator: Adobe Illustrator 30.0.0, SVG Export Plug-In . SVG Version: 2.1.1 Build 123)  -->
  <defs>
    <style>
      .st0 {
        fill-rule: evenodd;
      }
    </style>
  </defs>
  <path class="st0" d="M125.91,100.1l-2.33,6.98c-.24.71-.9,1.19-1.66,1.19H6.07c-.75,0-1.42-.48-1.66-1.19l-2.33-6.98c-.38-1.13.46-2.3,1.66-2.3h120.51c1.19,0,2.03,1.17,1.65,2.3ZM115.94,91.53H10.35c-.98,0-1.79-.81-1.76-1.79.94-29.32,25-52.79,54.55-52.79s53.61,23.48,54.55,52.79c.03.98-.78,1.79-1.76,1.79ZM73.06,32.54c-3.23-.53-6.54-.82-9.92-.82s-6.68.29-9.9.82l-.51-.85c-1.85-3.08-1.21-7.15,1.68-9.28,2.02-1.5,4.87-2.73,8.75-2.69,3.63-.04,6.35,1.04,8.34,2.4,3.12,2.14,4.02,6.34,2.07,9.58l-.5.84Z"/>
</svg>