<?xml version="1.0" encoding="UTF-8"?>
<svg id="Layer_1" xmlns="http://www.w3.org/2000/svg" version="1.1" viewBox="0 0 128 128">
  <!-- Generator: Adobe Illustrator 30.0.0, SVG Export Plug-In . SVG Version: 2.1.1 Build 123)  -->
  <path d="M109.05,96.29H18.95c-1.73,0-3.13,1.39-3.13,3.11v6.1c0,1.72,1.4,3.11,3.13,3.11h90.1c1.73,0,3.13-1.39,3.13-3.11v-6.1c0-1.72-1.4-3.11-3.13-3.11Z"/>
  <path d="M117.5,25.97l-15.76,9.94c-1.64,1.03-2.52,2.93-2.24,4.84l3.02,20.73h-12.75l-23.97-41.06c-.8-1.37-2.8-1.37-3.6,0l-23.97,41.06h-12.75l3.02-20.73c.28-1.91-.6-3.81-2.24-4.84l-15.76-9.94c-1.4-.88-3.2.26-2.98,1.9l7.54,55.86c.43,3.22,3.2,5.63,6.47,5.63h84.93c3.27,0,6.04-2.4,6.47-5.63l7.54-55.86c.22-1.63-1.58-2.78-2.98-1.9Z"/>
</svg>