<?xml version="1.0" encoding="UTF-8"?>
<svg id="Layer_1" xmlns="http://www.w3.org/2000/svg" version="1.1" viewBox="0 0 128 128">
  <!-- Generator: Adobe Illustrator 30.0.0, SVG Export Plug-In . SVG Version: 2.1.1 Build 123)  -->
  <defs>
    <style>
      .st0 {
        fill-rule: evenodd;
      }
    </style>
  </defs>
  <path class="st0" d="M37.6,114.39l-9.73-5.54c-3.01-1.71-6.84-.67-8.56,2.33-1.72,3-.67,6.83,2.34,8.54l9.73,5.54c3.01,1.71,6.84.67,8.56-2.33,1.72-3,.67-6.83-2.34-8.54ZM108.77,2.45c-3.67-1.19-13.54-.5-17.34,3.12-1.65,1.58-2.81,4.6-3.23,7.62-.31,2.21-2.11,3.81-4.88,4.19-4.56.64-11.28,2.32-14.14,6.69-2.62,4-3.01,9.51-2.79,13.89.2,3.96-2.51,7.38-6.92,8.62-5.75,1.62-13.41,4.44-17.45,8.7-3.66,3.86-5.8,7.51-7.05,10.3l34.45,19.89c1.66-4.95,4.77-10.5,10.58-12.89,0,0,11.82-2.12,15.62-12.98,2.32-6.64.36-13.59-1.73-18.31-1.46-3.29-.31-6.31,2.54-7.43,3.02-1.19,6.33-3.32,7.77-7.12,2.68-7.11-.82-14.27-.82-14.27,0,0,1.32-6.99,5.92-8.92.47-.2.15-.9-.52-1.11ZM21.79,65.16c-2.49,4.3-1.01,9.81,3.29,12.29l13.07,7.54-10.93,18.93,14.99,8.66,10.93-18.93,13.07,7.54c4.3,2.49,9.81,1.01,12.29-3.29l.75-1.3L22.54,63.86l-.75,1.3Z"/>
</svg>