<?xml version="1.0" encoding="UTF-8"?>
<svg id="Layer_1" xmlns="http://www.w3.org/2000/svg" version="1.1" viewBox="0 0 128 128">
  <!-- Generator: Adobe Illustrator 30.0.0, SVG Export Plug-In . SVG Version: 2.1.1 Build 123)  -->
  <path d="M44.68,113.41l-10.02-5.71c-3.1-1.76-7.04-.69-8.81,2.4-1.77,3.09-.69,7.02,2.41,8.79l10.02,5.71c3.1,1.76,7.04.69,8.8-2.4,1.77-3.09.69-7.02-2.41-8.79ZM28.12,66.12c-2.21,3.83-.9,8.72,2.93,10.93l13.28,7.67-10.35,17.92,15.43,8.91,10.35-17.92,14.35,8.29c3.83,2.21,8.72.9,10.93-2.93l1.46-2.53L29.59,63.58l-1.46,2.53ZM99.59,3.14l-59.04,58.28c-.94.93-.74,2.5.41,3.16l14.34,8.28,15.82-19.58c.72-.89,2.12-.08,1.71.99l-9.05,23.49,15.26,8.81c1.14.66,2.6.05,2.94-1.23L102.93,5.07c.51-1.97-1.89-3.36-3.34-1.93Z"/>
</svg>