<?xml version="1.0" encoding="UTF-8"?>
<svg id="Layer_1" xmlns="http://www.w3.org/2000/svg" version="1.1" viewBox="0 0 128 128">
  <!-- Generator: Adobe Illustrator 30.0.0, SVG Export Plug-In . SVG Version: 2.1.1 Build 123)  -->
  <defs>
    <style>
      .st0 {
        fill-rule: evenodd;
      }
    </style>
  </defs>
  <path class="st0" d="M118.61,64.97l-29.92,29.93v-38.95c0-9.49-7.69-17.18-17.18-17.18h-36.8l28.85-28.85c5.17-5.17,13.56-5.17,18.74,0l36.31,36.31c5.17,5.17,5.17,13.57,0,18.74ZM78.1,21.8c-2.86-2.86-7.49-2.86-10.35,0-2.86,2.86-2.86,7.49,0,10.35,2.86,2.86,7.49,2.86,10.35,0s2.86-7.49,0-10.35ZM105.93,49.42c-2.86-2.86-7.49-2.86-10.35,0-2.86,2.86-2.86,7.49,0,10.35,2.86,2.86,7.49,2.86,10.35,0,2.86-2.86,2.86-7.49,0-10.35ZM83.36,57.36v51.35c0,7.32-5.93,13.25-13.25,13.25H18.76c-7.32,0-13.25-5.93-13.25-13.25v-51.35c0-7.32,5.93-13.25,13.25-13.25h51.35c7.32,0,13.25,5.93,13.25,13.25ZM33.02,96.77c-2.86-2.86-7.49-2.86-10.35,0-2.86,2.86-2.86,7.49,0,10.35,2.86,2.86,7.49,2.86,10.35,0,2.86-2.86,2.86-7.49,0-10.35ZM50.41,79.39c-2.86-2.86-7.49-2.86-10.35,0-2.86,2.86-2.86,7.49,0,10.35,2.86,2.86,7.49,2.86,10.35,0,2.86-2.86,2.86-7.49,0-10.35ZM67.79,62.01c-2.86-2.86-7.49-2.86-10.35,0-2.86,2.86-2.86,7.49,0,10.35,2.86,2.86,7.49,2.86,10.35,0s2.86-7.49,0-10.35Z"/>
</svg>