<?xml version="1.0" encoding="UTF-8"?>
<svg id="Layer_1" xmlns="http://www.w3.org/2000/svg" version="1.1" viewBox="0 0 128 128">
  <!-- Generator: Adobe Illustrator 30.0.0, SVG Export Plug-In . SVG Version: 2.1.1 Build 123)  -->
  <defs>
    <style>
      .st0 {
        fill-rule: evenodd;
      }
    </style>
  </defs>
  <path class="st0" d="M111.48,107.77l3.28,9.3-1.41,6.96c-.2,1-1.53,1.2-2.02.31l-23.53-42.67c-7.01,4.09-15.17,6.44-23.87,6.44s-16.78-2.32-23.77-6.38l-23.5,42.6c-.49.89-1.82.68-2.02-.31l-1.41-6.96,3.28-9.3-1.13-2.59c-.91-2.07-.82-4.44.24-6.44l32.5-61.54c.65-1.23,1.92-2,3.31-2h3.06c-4.7-3.14-7.8-8.5-7.8-14.59,0-9.68,7.82-17.53,17.46-17.53s17.46,7.85,17.46,17.53c0,6.09-3.1,11.45-7.8,14.59h2.77c1.39,0,2.66.77,3.31,2l13.72,25.99c.09-1.99,1.16-3.9,3.02-4.95,2.88-1.64,6.54-.62,8.18,2.26l1.27,2.25c1.64,2.88.62,6.54-2.26,8.18-2.03,1.15-4.43.97-6.26-.23l14.82,28.06c1.05,2,1.14,4.37.24,6.44l-1.13,2.59ZM64.15,14.04c-3.61,0-6.54,2.94-6.54,6.57s2.93,6.57,6.54,6.57,6.54-2.94,6.54-6.57-2.93-6.57-6.54-6.57ZM64,38.53l-17.91,32.48c5.23,3.09,11.33,4.86,17.84,4.86s12.69-1.8,17.94-4.93l-17.88-32.41Z"/>
</svg>