<?xml version="1.0" encoding="UTF-8"?>
<svg id="Layer_1" xmlns="http://www.w3.org/2000/svg" version="1.1" viewBox="0 0 128 128">
  <!-- Generator: Adobe Illustrator 30.0.0, SVG Export Plug-In . SVG Version: 2.1.1 Build 123)  -->
  <path d="M64,12c-28.72,0-52,23.28-52,52s23.28,52,52,52,52-23.28,52-52S92.72,12,64,12ZM64.75,56.19l2.85.8c13.14,3.61,19.68,9.44,19.68,18.88s-7.04,17.28-17.63,19.15v7.66h-10.15v-7.48c-6.77-.89-13.45-3.74-18.79-8.28l8.82-11.22c4.45,3.87,9.48,5.83,14.61,5.79,5.21.04,8.24-2,8.19-5.25.05-2.72-1.96-4.14-8.46-5.7l-2.76-.71c-11.84-2.89-18.3-9.26-18.26-18.26-.04-9.04,6.72-16.21,16.65-18.44v-7.75h10.15v7.3c6.32.8,12.38,3.47,17.63,7.66l-8.64,11.31c-4.32-3.47-8.42-5.12-12.73-5.08-4.63-.04-8.06,2-8.1,4.9.04,2.09,2,3.34,6.95,4.72Z"/>
</svg>