<?xml version="1.0" encoding="UTF-8"?>
<svg id="Layer_1" xmlns="http://www.w3.org/2000/svg" version="1.1" viewBox="0 0 128 128">
  <!-- Generator: Adobe Illustrator 30.0.0, SVG Export Plug-In . SVG Version: 2.1.1 Build 123)  -->
  <defs>
    <style>
      .st0 {
        fill-rule: evenodd;
      }
    </style>
  </defs>
  <path class="st0" d="M118.16,34.35c0,9.27-7.86,16.78-17.57,16.78s-17.57-7.51-17.57-16.78c0-1.47.22-2.88.59-4.24h-.02c2.95-11.48,12.51-22.01,15.85-25.4.63-.64,1.68-.64,2.31,0,3.34,3.39,12.9,13.92,15.85,25.4h-.02c.37,1.36.59,2.77.59,4.24ZM93.53,83.07c.68,2.62,1.04,5.37,1.04,8.21,0,17.94-14.47,32.49-32.31,32.49s-32.31-14.55-32.31-32.49c0-2.84.36-5.59,1.04-8.21h0c5.42-22.23,23-42.61,29.15-49.17,1.15-1.23,3.09-1.23,4.25,0,6.14,6.56,23.72,26.94,29.15,49.17h0ZM21.71,63.62c-6.55,0-11.86-5.3-11.86-11.85,0-1.04.15-2.04.4-2.99h-.02c1.99-8.11,8.45-15.54,10.7-17.93.42-.45,1.14-.45,1.56,0,2.26,2.39,8.71,9.82,10.7,17.93h-.02c.25.96.4,1.96.4,2.99,0,6.54-5.31,11.85-11.86,11.85Z"/>
</svg>