<?xml version="1.0" encoding="UTF-8"?>
<svg id="Layer_1" xmlns="http://www.w3.org/2000/svg" version="1.1" viewBox="0 0 128 128">
  <!-- Generator: Adobe Illustrator 30.0.0, SVG Export Plug-In . SVG Version: 2.1.1 Build 123)  -->
  <defs>
    <style>
      .st0 {
        fill-rule: evenodd;
      }
    </style>
  </defs>
  <path class="st0" d="M117.25,41.73s0,0,0,0l-43.96,79.91c-2.1,4.89-11.76,5.4-21.59,1.13-9.83-4.27-16.09-11.69-14-16.58L81.88,25.86h.03c1.31-2.37,4.54-3.6,8.73-3.6,2.86,0,6.15.57,9.56,1.72.48-1.89.77-3.94.64-5.96-.37-5.67-9.09-9.34-12.57-9.59-4.11-.29-7.26-.13-10.4,4.74-.32.49-.82,1.43-1.41,2.52-3.97,7.41-13.63,25.39-31.35,27.81l11.65,6.71-16.92-1.03-3.15,21.03-5.98-21.47-14,5.83,8.24-10.74-14.6-2.11,15.42-4.59-8.55-11.57,13,4.94,2.82-17.43,5.45,18.09,13.47-3.75-8.7,10.22c15.4-1.46,24-17.48,27.93-24.81.67-1.26,1.21-2.25,1.66-2.95,4.9-7.58,10.75-7.82,15.84-7.46,5.06.36,17.47,5.26,18.11,15.2.2,3.06-.31,6.07-1.05,8.73,8.36,4.36,13.42,10.92,11.51,15.38ZM104.44,30.19c-1.14,2.84-2.28,4.73-2.39,4.89-.77,1.13-2.64.77-3.91.26-.95-.38-1.96-2.2-1.18-3.41.02-.03,1.01-1.69,1.99-4.14-2.91-.98-5.79-1.52-8.31-1.52-3.39,0-5.03.96-5.3,1.6-.76,1.78,3.29,7.56,11.92,11.31,3.81,1.66,7.74,2.57,11.04,2.57s5.03-.96,5.3-1.6c.67-1.57-2.43-6.29-9.15-9.95Z"/>
</svg>