<?xml version="1.0" encoding="UTF-8"?>
<svg id="Layer_1" xmlns="http://www.w3.org/2000/svg" version="1.1" viewBox="0 0 128 128">
  <!-- Generator: Adobe Illustrator 30.0.0, SVG Export Plug-In . SVG Version: 2.1.1 Build 123)  -->
  <defs>
    <style>
      .st0 {
        fill-rule: evenodd;
      }
    </style>
  </defs>
  <path class="st0" d="M64,116.16c-28.76,0-52.16-23.4-52.16-52.16S35.24,11.84,64,11.84s52.16,23.4,52.16,52.16-23.4,52.16-52.16,52.16ZM21.18,61.16c1.18-1.24,2.5-2.51,3.46-3.12,2.22-1.4,5.15-1.75,8.07-1.29,2.92.47,13.33,2.69,15.09,4.44,1.75,1.75,3.04,4.56,2.57,8.07s-5.85,8.19-6.32,9.47.12,3.51,1.4,4.91c1.29,1.4,1.99,3.51,3.51,3.98,1.52.47,7.02-.58,9.24,0,2.22.58,7.02,3.98,8.3,6.08,1.29,2.11-.47,6.78-.7,7.95-.14.7-.53,3.27-.82,5.23,23.21-.53,41.93-19.56,41.93-42.9,0-.18-.01-.36-.01-.55-.95.51-2.34,1.21-4.13,1.96-3.63,1.53-6.9.7-9.36-1.17-2.46-1.87-5.61-1.05-7.25-.7-1.64.35-4.56,1.75-6.32,1.87-1.75.12-7.6-1.87-9.94-4.56-2.34-2.69.82-7.25,1.05-8.77.23-1.52-.35-6.9.47-10.06.82-3.16,6.32-3.28,9.47-4.21,3.16-.94,2.57-4.33,2.34-7.14-.12-1.5.12-3.39.37-4.83-5.88-3.04-12.55-4.76-19.61-4.76-22.71,0-41.35,17.74-42.82,40.08Z"/>
</svg>