<?xml version="1.0" encoding="UTF-8"?>
<svg id="Layer_1" xmlns="http://www.w3.org/2000/svg" version="1.1" viewBox="0 0 128 128">
  <!-- Generator: Adobe Illustrator 30.0.0, SVG Export Plug-In . SVG Version: 2.1.1 Build 123)  -->
  <defs>
    <style>
      .st0 {
        fill-rule: evenodd;
      }
    </style>
  </defs>
  <path class="st0" d="M64,118.08c-29.87,0-54.08-24.21-54.08-54.08S34.13,9.92,64,9.92s54.08,24.21,54.08,54.08-24.21,54.08-54.08,54.08ZM64,19.48c-24.59,0-44.52,19.93-44.52,44.52s19.93,44.52,44.52,44.52,44.52-19.93,44.52-44.52-19.93-44.52-44.52-44.52ZM64,95.33c-17.28,0-31.33-14.06-31.33-31.33h10c0,11.76,9.57,21.33,21.33,21.33s21.33-9.57,21.33-21.33h10c0,17.28-14.06,31.33-31.33,31.33ZM74.97,60.89c-3.71,0-6.71-5.49-6.71-12.26s3.01-12.26,6.71-12.26,6.71,5.49,6.71,12.26-3.01,12.26-6.71,12.26ZM52.77,60.89c-3.71,0-6.71-5.49-6.71-12.26s3.01-12.26,6.71-12.26,6.71,5.49,6.71,12.26-3.01,12.26-6.71,12.26Z"/>
</svg>