<?xml version="1.0" encoding="UTF-8"?>
<svg id="Layer_1" xmlns="http://www.w3.org/2000/svg" version="1.1" viewBox="0 0 128 128">
  <!-- Generator: Adobe Illustrator 30.0.0, SVG Export Plug-In . SVG Version: 2.1.1 Build 123)  -->
  <defs>
    <style>
      .st0 {
        fill-rule: evenodd;
      }
    </style>
  </defs>
  <path class="st0" d="M64,116c-28.72,0-52-23.28-52-52S35.28,12,64,12s52,23.28,52,52-23.28,52-52,52ZM52.77,36.37c-3.71,0-6.71,5.49-6.71,12.26s3.01,12.26,6.71,12.26,6.71-5.49,6.71-12.26-3.01-12.26-6.71-12.26ZM74.97,36.37c-3.71,0-6.71,5.49-6.71,12.26s3.01,12.26,6.71,12.26,6.71-5.49,6.71-12.26-3.01-12.26-6.71-12.26ZM85.33,64c0,11.76-9.57,21.33-21.33,21.33s-21.33-9.57-21.33-21.33h-10c0,17.28,14.06,31.33,31.33,31.33s31.33-14.06,31.33-31.33h-10Z"/>
</svg>