<?xml version="1.0" encoding="UTF-8"?>
<svg id="Layer_1" xmlns="http://www.w3.org/2000/svg" version="1.1" viewBox="0 0 128 128">
  <!-- Generator: Adobe Illustrator 30.0.0, SVG Export Plug-In . SVG Version: 2.1.1 Build 123)  -->
  <defs>
    <style>
      .st0 {
        fill-rule: evenodd;
      }
    </style>
  </defs>
  <path class="st0" d="M116.66,87.64c-.19,2.28-2.03,4.13-4.31,4.31-12.08.99-24.21.99-36.29,0-2.28-.19-4.12-2.03-4.31-4.31-.99-12.08-.99-24.23,0-36.31.19-2.28,2.03-4.13,4.31-4.31,12.08-.99,24.21-.99,36.29,0,2.28.19,4.12,2.03,4.31,4.31.99,12.08.99,24.23,0,36.31ZM63.85,116c-8.72.88-29.82,2.5-50.5.08-2.12-.25-3.36-2.44-2.44-4.32,3.77-7.72,13.15-25.93,24.99-41.73,1.28-1.71,3.9-1.68,5.09.09,5.57,8.21,19.25,28.79,25.36,41.62.89,1.88-.39,4.05-2.49,4.26ZM39.35,58.75c-13.28,0-24.05-10.77-24.05-24.05s10.77-24.05,24.05-24.05,24.05,10.77,24.05,24.05-10.77,24.05-24.05,24.05Z"/>
</svg>