<?xml version="1.0" encoding="UTF-8"?>
<svg id="Layer_1" xmlns="http://www.w3.org/2000/svg" version="1.1" viewBox="0 0 128 128">
  <!-- Generator: Adobe Illustrator 30.0.0, SVG Export Plug-In . SVG Version: 2.1.1 Build 123)  -->
  <path d="M30.56,30.18h39.64V14H20.88c-3.22,0-5.82,2.62-5.82,5.84v88.31c0,3.23,2.61,5.84,5.82,5.84h49.32v-16.18H30.56V30.18ZM112.55,63.21l-27.42-21.25c-.66-.51-1.61-.04-1.61.79v12.34h-33.26c-.55,0-1,.45-1,1v15.81c0,.55.45,1,1,1h33.26v12.34c0,.83.95,1.3,1.61.79l27.42-21.25c.52-.4.52-1.18,0-1.58Z"/>
</svg>