<?xml version="1.0" encoding="UTF-8"?>
<svg id="Layer_1" xmlns="http://www.w3.org/2000/svg" version="1.1" viewBox="0 0 128 128">
  <!-- Generator: Adobe Illustrator 30.0.0, SVG Export Plug-In . SVG Version: 2.1.1 Build 123)  -->
  <defs>
    <style>
      .st0 {
        fill-rule: evenodd;
      }
    </style>
  </defs>
  <path class="st0" d="M100.59,116.93H27.41c-3.07,0-5.57-2.49-5.57-5.57V28.05c0-3.07,2.49-5.57,5.57-5.57h5.77v8.85c0,2.31,1.87,4.18,4.18,4.18h53.27c2.31,0,4.18-1.87,4.18-4.18v-8.85h5.8c3.07,0,5.57,2.49,5.57,5.57v83.32c0,3.07-2.49,5.57-5.57,5.57ZM74.62,49.91l-17.2,29.02-10.75-8.6-10.75,15.05,22.57,16.12,35.47-36.55-19.35-15.05ZM83.92,28.98h-39.84c-1.54,0-2.78-1.25-2.78-2.78v-8.57c0-3.62,2.94-6.56,6.56-6.56h32.29c3.62,0,6.56,2.94,6.56,6.56v8.57c0,1.54-1.25,2.78-2.78,2.78Z"/>
</svg>