<?xml version="1.0" encoding="UTF-8"?>
<svg id="Layer_1" xmlns="http://www.w3.org/2000/svg" version="1.1" viewBox="0 0 128 128">
  <!-- Generator: Adobe Illustrator 30.0.0, SVG Export Plug-In . SVG Version: 2.1.1 Build 123)  -->
  <defs>
    <style>
      .st0 {
        fill-rule: evenodd;
      }
    </style>
  </defs>
  <path class="st0" d="M102.26,44.49s-3.74,8.2-10.56,7.92c0,0,3.63-31.47-26.39-36.95-13.9-2.53-21.92,4-23.75,6.6,0,0,9.81,6.21,9.24,18.47-.58,12.27-9.24,14.51-9.24,14.51,0,0-8.29-5.13-7.92-15.83,0,0-18.47,3.69-18.47,31.67s25.19,42.22,48.82,42.22,48.17-13.28,48.82-40.9c.54-22.93-10.56-27.71-10.56-27.71ZM67.54,104.24c-12.43,1.04-19.25-5.91-21.55-12.07-3.66-9.81,1.22-20.12,8.79-25.91,7.57-5.8,10.54-12.62,10.54-12.62,4.86,1.01,20.26,16.14,20.62,30.57.36,14.42-10.85,19.41-18.39,20.03Z"/>
</svg>