<?xml version="1.0" encoding="UTF-8"?>
<svg id="Layer_1" xmlns="http://www.w3.org/2000/svg" version="1.1" viewBox="0 0 128 128">
  <!-- Generator: Adobe Illustrator 30.0.0, SVG Export Plug-In . SVG Version: 2.1.1 Build 123)  -->
  <defs>
    <style>
      .st0 {
        fill-rule: evenodd;
      }
    </style>
  </defs>
  <path class="st0" d="M117,64.43h-.03c6.18,5.67,8.96,12.45,6.23,15.6-2.91,3.34-10.94,1.32-17.95-4.53-1.18-.98-2.25-2.01-3.2-3.06-7.37,11.81-19.74,20.66-34.51,23.98,3.41,3.62,4.84,7.5,3.22,9.83-2.23,3.22-9.39,2.29-15.99-2.09-3.03-2.01-5.4-4.39-6.88-6.69-20.65-2.34-37.82-15.4-44.59-33.12-.74-1.95-.52-4.14.65-5.88,9.24-13.64,23.55-25.4,42.59-27.77,1.96-3.17,5.89-6.36,10.98-8.52,8.56-3.64,17.08-2.99,19.04,1.45,1.21,2.74-.37,6.29-3.78,9.46,12.58,3.99,22.25,11.91,29.35,21.63.82-.96,1.69-1.91,2.68-2.83,7.11-6.64,15.6-9.21,18.97-5.75,3.37,3.46.34,11.65-6.77,18.28ZM23.9,54.87c-3.41.09-6.1,2.86-6.01,6.2.09,3.34,2.92,5.97,6.33,5.89,3.41-.09,6.1-2.86,6.01-6.2-.09-3.34-2.92-5.97-6.32-5.89ZM41.27,45.16c-.61-.73-1.77-.01-1.4.86,2.37,5.65,3.8,12.28,3.92,19.4.13,7.11-1.06,13.79-3.23,19.52-.33.88.85,1.56,1.43.81,3.81-4.9,6.16-12.24,6.01-20.41-.15-8.17-2.76-15.42-6.74-20.19Z"/>
</svg>