<?xml version="1.0" encoding="UTF-8"?>
<svg id="Layer_1" xmlns="http://www.w3.org/2000/svg" version="1.1" viewBox="0 0 128 128">
  <!-- Generator: Adobe Illustrator 30.0.0, SVG Export Plug-In . SVG Version: 2.1.1 Build 123)  -->
  <defs>
    <style>
      .st0 {
        fill-rule: evenodd;
      }
    </style>
  </defs>
  <path class="st0" d="M107.95,69.99c-11.28,11.28-28.26,13.36-41.62,6.26l-30.69,36.79c-5.54,6.64-15.57,7.1-21.67,1h0c-6.1-6.1-5.64-16.14,1-21.67l36.79-30.69c-7.11-13.36-5.02-30.34,6.26-41.62,10.11-10.11,24.79-12.83,37.35-8.17l-19.16,19.16,20.76,20.76,19.16-19.16c4.66,12.56,1.94,27.24-8.17,37.35ZM30,98c-2.76-2.76-7.23-2.75-9.99.01-2.76,2.76-2.77,7.24-.01,9.99,2.76,2.76,7.23,2.75,9.99-.01,2.76-2.76,2.77-7.24.01-9.99Z"/>
</svg>