<?xml version="1.0" encoding="UTF-8"?>
<svg id="Layer_1" xmlns="http://www.w3.org/2000/svg" version="1.1" viewBox="0 0 128 128">
  <!-- Generator: Adobe Illustrator 30.0.0, SVG Export Plug-In . SVG Version: 2.1.1 Build 123)  -->
  <defs>
    <style>
      .st0 {
        fill-rule: evenodd;
      }
    </style>
  </defs>
  <path class="st0" d="M91.1,16.46l-8.74,56.81,15.29-46.36c16.24-1.02,21.62-6.21,21.62-6.21l-10.4,60.03c-13.19,4.07-29.42,4.32-29.42,4.32l2.03-11.45s-14.71-4.07-33.73-6.36c-8.48-1.02-15.73-.32-21.19.77l-6.8,45.25c-.46,3.04-3.28,5.13-6.31,4.67-3.03-.46-5.11-3.29-4.66-6.33L22.72,18.95c.07-.43.19-.84.35-1.23l.6-4.4s6.85-3.05,23.08-3.31c16.23-.25,44.63,5.34,44.63,5.34l-.17,1.12h-.1Z"/>
</svg>