<?xml version="1.0" encoding="UTF-8"?>
<svg id="Layer_1" xmlns="http://www.w3.org/2000/svg" version="1.1" viewBox="0 0 128 128">
  <!-- Generator: Adobe Illustrator 30.0.0, SVG Export Plug-In . SVG Version: 2.1.1 Build 123)  -->
  <defs>
    <style>
      .st0 {
        fill-rule: evenodd;
      }
    </style>
  </defs>
  <path class="st0" d="M115.37,76.95c0,12.79-10.4,23.15-23.23,23.15-2.64,0-5.16-.46-7.52-1.27-3.18,9.01-11.77,15.49-21.9,15.49-12.01,0-21.88-9.08-23.1-20.73-1.23.2-2.48.33-3.76.33-12.83,0-23.23-10.36-23.23-23.15,0-10.36,6.83-19.12,16.24-22.08-2.09-3.48-3.32-7.53-3.32-11.87,0-12.79,10.4-23.15,23.23-23.15,8.34,0,15.63,4.4,19.73,10.98,4.26-4.83,10.48-7.89,17.44-7.89,12.83,0,23.23,10.36,23.23,23.15,0,6.36-2.58,12.12-6.75,16.31,7.66,3.78,12.94,11.63,12.94,20.73ZM65.11,46.45c-9,0-16.29,7.29-16.29,16.29s7.29,16.29,16.29,16.29,16.29-7.29,16.29-16.29-7.29-16.29-16.29-16.29Z"/>
</svg>