<?xml version="1.0" encoding="UTF-8"?>
<svg id="Layer_1" xmlns="http://www.w3.org/2000/svg" version="1.1" viewBox="0 0 128 128">
  <!-- Generator: Adobe Illustrator 30.0.0, SVG Export Plug-In . SVG Version: 2.1.1 Build 123)  -->
  <path d="M107.12,27.18c.25-.57.38-1.19.38-1.82v-9.49c0-1.25-1.01-2.26-2.26-2.26h-15.41c-1.25,0-2.26,1.01-2.26,2.26v10.44h-14.34v-10.44c0-1.25-1.01-2.26-2.26-2.26h-13.9c-1.25,0-2.26,1.01-2.26,2.26v10.44h-14.34v-10.44c0-1.25-1.01-2.26-2.26-2.26h-15.41c-1.25,0-2.26,1.01-2.26,2.26v9.49c0,.63.13,1.24.38,1.82l8.83,18.26v39.01l-8.44,10.58c-.5.75-.77,1.63-.77,2.53v14.33c0,1.66,1.34,3,3,3h80.93c1.66,0,3-1.34,3-3v-14.33c0-.9-.27-1.78-.77-2.53l-8.44-10.58v-39.01l8.83-18.26ZM75.06,73.43c0,1.4-1.13,2.53-2.53,2.53h-16.97c-1.4,0-2.53-1.13-2.53-2.53v-19.21c0-.9.48-1.73,1.26-2.19l8.48-4.96c.79-.46,1.77-.46,2.56,0l8.48,4.96c.78.45,1.26,1.29,1.26,2.19v19.21Z"/>
</svg>