<?xml version="1.0" encoding="UTF-8"?>
<svg id="Layer_1" xmlns="http://www.w3.org/2000/svg" version="1.1" viewBox="0 0 128 128">
  <!-- Generator: Adobe Illustrator 30.0.0, SVG Export Plug-In . SVG Version: 2.1.1 Build 123)  -->
  <defs>
    <style>
      .st0 {
        fill-rule: evenodd;
      }
    </style>
  </defs>
  <path class="st0" d="M78.86,79.74c-18.5,0-33.5-15-33.5-33.5S60.36,12.75,78.86,12.75s33.5,15,33.5,33.5-15,33.5-33.5,33.5ZM51.88,74.28c-2.03,4.2-3.83,8.35-5.36,12.29-1.37.22-2.76.36-4.19.36-14.73,0-26.67-11.94-26.67-26.67s11.8-26.52,26.41-26.66c-1.36,3.97-2.11,8.22-2.11,12.65,0,11.01,4.58,20.95,11.94,28.03ZM24.28,87.32c5.16,3.45,11.37,5.47,18.05,5.47.65,0,1.3-.03,1.94-.07-2.22,6.47-3.71,12.16-4.48,16.4-.68,2.76-.92,4.27-.04,6.09h-18.91c-3.27,0-4.64-3.02-3.94-6.37.91-4.95,3.34-12.99,7.38-21.52ZM57.03,78.47c6.22,4.22,13.73,6.69,21.82,6.69s15.09-2.31,21.18-6.28c5.51,10.17,10.36,21.12,10.75,28.37.68,4.41-1.83,8-5.94,8h-52.97c-4.11,0-5.82-3.64-4.94-8,1.2-6.56,4.51-17.42,10.11-28.78Z"/>
</svg>