<?xml version="1.0" encoding="UTF-8"?>
<svg id="Layer_1" xmlns="http://www.w3.org/2000/svg" version="1.1" viewBox="0 0 128 128">
  <!-- Generator: Adobe Illustrator 30.0.0, SVG Export Plug-In . SVG Version: 2.1.1 Build 123)  -->
  <defs>
    <style>
      .st0 {
        fill-rule: evenodd;
      }
    </style>
  </defs>
  <path class="st0" d="M119.36,50.42h0s0,0,0,0h0ZM92.98,57.83l-26.72-19.42V11.83l50.41,36.62-23.68,9.37ZM79.4,92.46h-31.92l-9.86-30.36,25.83-18.76,25.83,18.76-9.86,30.36ZM10.21,48.46L60.61,11.83v26.58l-26.72,19.42-23.68-9.37ZM42.28,94.71l-14.45,18.24L8.64,53.9l23.39,9.26,10.25,31.55ZM28.87,116.17h0s0,0,0,0h0ZM80.08,98.1l14.32,18.07h-61.94l14.32-18.07h33.29ZM94.85,63.16l23.39-9.26-19.19,59.05-14.45-18.24,10.25-31.55Z"/>
</svg>