<?xml version="1.0" encoding="UTF-8"?>
<svg id="Layer_1" xmlns="http://www.w3.org/2000/svg" version="1.1" viewBox="0 0 128 128">
  <!-- Generator: Adobe Illustrator 30.0.0, SVG Export Plug-In . SVG Version: 2.1.1 Build 123)  -->
  <defs>
    <style>
      .st0 {
        fill-rule: evenodd;
      }
    </style>
  </defs>
  <path class="st0" d="M111.47,91.41h0s0,0,0,0h0ZM92.2,50.98l19.27-11.13v48.3l-19.27-11.13v-26.05ZM111.47,36.59h0s0,0,0,0h0ZM66.82,33.07V10.81l41.83,24.15-19.27,11.13-22.56-13.02ZM86.56,52.52v22.95l-1.34,2.32-19.88,11.48h-2.68l-19.88-11.48-1.34-2.32v-22.95l1.34-2.32,19.88-11.48h2.68l19.88,11.48,1.34,2.32ZM64,9.19h0s0,0,0,0h0ZM19.35,34.97L61.18,10.81v22.25l-22.56,13.02-19.27-11.13ZM35.8,50.97v26.05l-19.27,11.12v-48.3l19.27,11.12ZM61.18,94.93v22.25l-41.83-24.15,19.27-11.13,22.56,13.02ZM64,118.81h0s0,0,0,0h0ZM108.65,93.04l-41.83,24.15v-22.25l22.56-13.02,19.27,11.13Z"/>
</svg>