<?xml version="1.0" encoding="UTF-8"?>
<svg id="Layer_1" xmlns="http://www.w3.org/2000/svg" version="1.1" viewBox="0 0 128 128">
  <!-- Generator: Adobe Illustrator 30.0.0, SVG Export Plug-In . SVG Version: 2.1.1 Build 123)  -->
  <defs>
    <style>
      .st0 {
        fill-rule: evenodd;
      }
    </style>
  </defs>
  <path class="st0" d="M107.5,65.19h-35.44v-18h-15.98v18H20.5c-1.03,0-1.87-.85-1.87-1.89v-19.85c0-1.04.84-1.89,1.87-1.89h19.76c-3.48-2.19-5.06-5.23-5.77-7.43-2.01-6.27-.47-12.63,4.01-16.61,4.17-3.7,10.11-4.53,15.12-2.12,5.49,2.64,8.61,8.15,10.38,13.13,1.77-4.98,4.89-10.49,10.38-13.13,5.01-2.41,10.95-1.58,15.12,2.12,4.48,3.97,6.02,10.34,4.01,16.61-.7,2.2-2.28,5.24-5.77,7.43h19.76c1.03,0,1.87.85,1.87,1.89v19.85c0,1.04-.84,1.89-1.87,1.89ZM50.24,22.59c-.84-.41-1.73-.61-2.61-.61-1.42,0-2.81.52-3.94,1.52-2.15,1.9-2.77,4.88-1.71,8.18,1.86,5.79,10.88,4.96,15.87,4.02-.97-4.55-3.24-11.02-7.6-13.12ZM84.32,23.51c-1.84-1.63-4.34-1.98-6.55-.92-4.36,2.1-6.63,8.57-7.6,13.12,4.98.94,14.01,1.78,15.87-4.02,1.06-3.3.43-6.28-1.71-8.18ZM56.08,113.96h-30.18c-1.03,0-1.87-.85-1.87-1.89v-41.3h32.05v43.19ZM104.14,112.07c0,1.04-.84,1.89-1.87,1.89h-30.21v-43.19h32.08v41.3Z"/>
</svg>