<?xml version="1.0" encoding="UTF-8"?>
<svg id="Layer_1" xmlns="http://www.w3.org/2000/svg" version="1.1" viewBox="0 0 128 128">
  <!-- Generator: Adobe Illustrator 30.0.0, SVG Export Plug-In . SVG Version: 2.1.1 Build 123)  -->
  <path d="M36.29,55.45h-16.86c-3.56,0-6.45,2.89-6.45,6.45v49.06c0,1.55,1.25,2.8,2.8,2.8h24.17c1.55,0,2.8-1.25,2.8-2.8v-49.06c0-3.56-2.89-6.45-6.45-6.45ZM72.43,14.25h-16.86c-3.56,0-6.45,2.89-6.45,6.45v90.26c0,1.55,1.25,2.8,2.8,2.8h24.17c1.54,0,2.8-1.25,2.8-2.8V20.69c0-3.56-2.89-6.45-6.45-6.45ZM108.57,37.98h-16.86c-3.56,0-6.45,2.89-6.45,6.45v66.53c0,1.55,1.25,2.8,2.8,2.8h24.17c1.54,0,2.8-1.25,2.8-2.8V44.43c0-3.56-2.89-6.45-6.45-6.45Z"/>
</svg>