<?xml version="1.0" encoding="UTF-8"?>
<svg id="Layer_1" xmlns="http://www.w3.org/2000/svg" version="1.1" viewBox="0 0 128 128">
  <!-- Generator: Adobe Illustrator 30.0.0, SVG Export Plug-In . SVG Version: 2.1.1 Build 123)  -->
  <defs>
    <style>
      .st0 {
        fill-rule: evenodd;
      }
    </style>
  </defs>
  <path class="st0" d="M107.11,19.9h-35.01V7.84c0-.55-.45-1-1-1h-14.2c-.55,0-1,.45-1,1v12.05H20.89c-.55,0-1,.45-1,1v8.13c0,.55.45,1,1,1h86.22c.55,0,1-.45,1-1v-8.13c0-.55-.45-1-1-1ZM64,36.19H27.89l-2.7,72.99,38.81-23.95,38.81,23.95-2.7-72.99h-36.11ZM55.98,97.98v23.17h16.05v-23.17l-8.02-5.32-8.02,5.32Z"/>
</svg>