<?xml version="1.0" encoding="UTF-8"?>
<svg id="Layer_1" xmlns="http://www.w3.org/2000/svg" version="1.1" viewBox="0 0 128 128">
  <!-- Generator: Adobe Illustrator 30.0.0, SVG Export Plug-In . SVG Version: 2.1.1 Build 123)  -->
  <defs>
    <style>
      .st0 {
        fill-rule: evenodd;
      }
    </style>
  </defs>
  <path class="st0" d="M114.49,47.65l-19.95,34.56c-.31.53-.95.76-1.52.55l-12.22-4.47c-.73-.27-1.05-1.13-.65-1.81l22.19-38.44c.39-.68,1.3-.84,1.89-.34l9.98,8.35c.47.39.59,1.06.28,1.59ZM77.58,72.19c-.35.6-1.12.81-1.72.46l-8.41-4.85-2.01,3.48c-.35.6-1.12.81-1.72.46l-22.85-13.19c-.6-.35-.81-1.12-.46-1.72l2.01-3.48-8.41-4.85c-.6-.35-.81-1.12-.46-1.72L53.32,12.57c.35-.6,1.12-.81,1.72-.46l8.41,4.85,2.01-3.48c.35-.6,1.12-.81,1.72-.46l22.85,13.19c.6.35.81,1.12.46,1.72l-2.01,3.48,8.41,4.85c.6.35.81,1.12.46,1.72l-19.75,34.21ZM28.57,46.71c-.39.68-1.3.84-1.89.34l-9.98-8.35c-.47-.39-.59-1.06-.28-1.59L36.37,2.55c.31-.53.95-.76,1.52-.55l12.22,4.47c.73.27,1.05,1.13.65,1.81l-22.19,38.44ZM45.47,65.71l9.76,5.63c.6.35.81,1.12.46,1.72l-30.24,52.38c-.23.39-.64.63-1.09.63l-6.49-.02c-.44,0-.86-.24-1.08-.62l-3.26-5.61c-.23-.39-.23-.87,0-1.26l30.24-52.38c.35-.6,1.12-.81,1.72-.46Z"/>
</svg>