<?xml version="1.0" encoding="UTF-8"?>
<svg id="Layer_1" xmlns="http://www.w3.org/2000/svg" version="1.1" viewBox="0 0 128 128">
  <!-- Generator: Adobe Illustrator 30.0.0, SVG Export Plug-In . SVG Version: 2.1.1 Build 123)  -->
  <defs>
    <style>
      .st0 {
        fill-rule: evenodd;
      }
    </style>
  </defs>
  <path class="st0" d="M113.71,42.11l-11.19,20.85c-1.37,2.55-4.56,3.48-7.1,2.07l-2.99-1.66c-1.97-1.1-2.73-3.55-1.72-5.56l11.49-22.83c1.06-2.1,3.63-2.92,5.72-1.82l3.62,1.91c2.55,1.35,3.52,4.51,2.16,7.04ZM82.34,62.12c-1.14,2.09-3.83,2.76-5.83,1.45l-31.84-20.92c-1.35-.88-2.18-2.35-2.27-3.96-.13-2.34-.77-5.61-3.24-6.4-2.44-.78-5.61,1.55-7.66,3.44-1.36,1.25-3.32,1.57-4.99.78-2.06-.97-3.09-3.31-2.39-5.47.94-2.93,3.07-7.35,7.82-12.94,4.29-5.04,10.19-8.47,15.18-10.67,5.84-2.58,12.45-2.78,18.42-.49,11.95,4.58,26.79,12.22,33.53,15.79,2.01,1.06,2.76,3.56,1.67,5.55l-18.41,33.83ZM67.96,64.26l-28.21,55.45c-1.39,2.75-4.82,3.76-7.51,2.2l-15.84-9.15c-2.69-1.55-3.54-5.03-1.85-7.61l34.63-53.25,18.79,12.35Z"/>
</svg>