<?xml version="1.0" encoding="UTF-8"?>
<svg id="Layer_1" xmlns="http://www.w3.org/2000/svg" version="1.1" viewBox="0 0 128 128">
  <!-- Generator: Adobe Illustrator 30.0.0, SVG Export Plug-In . SVG Version: 2.1.1 Build 123)  -->
  <defs>
    <style>
      .st0 {
        fill-rule: evenodd;
      }
    </style>
  </defs>
  <path class="st0" d="M120,110.22h-3.1s-.09-.1-.24-.26H11.35c-.16.17-.24.26-.24.26h-3.1c-5.27,0-8.62-5.67-6.05-10.26,11.45-20.45,37.23-34.25,46.73-38.8v-2.22c0-4.62,3.75-8.37,8.37-8.37h1.31c.34-5.55,2.46-8.08,5.73-10.2,3.37-2.2,5.08-4.43,5.2-5.08.29-1.48.38-3.53-.81-4.83-1.22-1.34-3.66-1.93-6.57-1.58-3.23.39-3.88,6.45-3.88,6.51-.11,1.44-.77,2.77-1.87,3.73-1.1.95-2.5,1.41-3.93,1.3-1.44-.11-2.75-.79-3.69-1.91-.94-1.12-1.39-2.54-1.29-4,.05-.6.35-3.75,1.8-7.17,2.32-5.42,6.42-8.75,11.57-9.38,6.4-.78,12.15,1.05,15.77,5.01,3.34,3.66,4.58,8.77,3.5,14.41-1.09,5.7-6.72,10.11-9.98,12.23-.35.23-.54.37-.65.45-.02.1-.05.27-.08.5h1.54c4.62,0,8.37,3.75,8.37,8.37v2.12c9.33,4.45,35.41,18.3,46.94,38.9,2.57,4.6-.78,10.26-6.05,10.26ZM64,79.22c-18.34,3.26-34.37,14.5-43.84,22.5h87.68c-9.47-8.01-25.5-19.24-43.83-22.5Z"/>
</svg>