<?xml version="1.0" encoding="UTF-8"?>
<svg id="Layer_1" xmlns="http://www.w3.org/2000/svg" version="1.1" viewBox="0 0 128 128">
  <!-- Generator: Adobe Illustrator 30.0.0, SVG Export Plug-In . SVG Version: 2.1.1 Build 123)  -->
  <defs>
    <style>
      .st0 {
        fill-rule: evenodd;
      }
    </style>
  </defs>
  <path class="st0" d="M109.53,107.8h-34.05c-3.59-6.67.44-14.72.44-14.72,5.97,1.2,14.34-1.56,14.34-12.05,0-9.1-6.78-11.17-11.59-11.56-1.25-.1-2.5.11-3.68.61l-11,4.6-11-4.6c-1.18-.49-2.43-.71-3.68-.61-4.81.39-11.59,2.46-11.59,11.56,0,10.5,8.37,13.25,14.34,12.05,0,0,4.03,8.05.44,14.72H18.47s-3.23-29.34,1.55-45.26c3.2-10.66,16.43-20.4,29.62-24.93l.63,13.87c.11,2.65,2.26,4.72,4.91,4.72h17.65c2.64,0,4.8-2.07,4.91-4.72l.62-13.87c13.19,4.53,26.42,14.27,29.62,24.93,4.77,15.93,1.55,45.26,1.55,45.26ZM71.26,50.73h-14.51c-.75,0-1.36-.59-1.39-1.33l-1.28-27.75c-.03-.79.6-1.45,1.39-1.45h17.07c.79,0,1.42.66,1.39,1.45l-1.28,27.75c-.03.75-.64,1.33-1.39,1.33Z"/>
</svg>