<?xml version="1.0" encoding="UTF-8"?>
<svg id="Layer_1" xmlns="http://www.w3.org/2000/svg" version="1.1" viewBox="0 0 128 128">
  <!-- Generator: Adobe Illustrator 30.0.0, SVG Export Plug-In . SVG Version: 2.1.1 Build 123)  -->
  <path d="M64,117.82c-.61,0-1.23-.11-1.84-.33-20.73-7.68-44.9-34.06-53.11-49.59-.03-.05-.05-.1-.08-.15-7.37-15.13-7.11-29.83.74-41.39,7.26-10.7,20.26-17.01,33.09-16.08,8.48.61,15.88,4.33,21.2,10.47,5.32-6.14,12.72-9.86,21.2-10.47,12.84-.93,25.83,5.38,33.09,16.08,7.85,11.56,8.11,26.26.74,41.39-.03.05-.05.1-.08.15-8.2,15.53-32.38,41.91-53.11,49.59-.59.22-1.19.32-1.78.33-.02,0-.04,0-.06,0ZM18.44,63.06c6.87,12.95,28.08,36.3,45.56,43.82,17.48-7.52,38.69-30.86,45.56-43.81,5.61-11.57,5.61-22.5-.02-30.79-5.1-7.52-14.57-12.14-23.58-11.48-7.61.55-13.69,4.68-17.13,11.64-1.09,2.59-4.05,3.89-6.71,2.9-1.59-.59-2.73-1.86-3.2-3.36-3.48-6.68-9.45-10.64-16.89-11.17-9-.65-18.48,3.96-23.58,11.48-5.63,8.29-5.63,19.22-.02,30.79Z"/>
</svg>