<?xml version="1.0" encoding="UTF-8"?>
<svg id="Layer_1" xmlns="http://www.w3.org/2000/svg" version="1.1" viewBox="0 0 128 128">
  <!-- Generator: Adobe Illustrator 30.0.0, SVG Export Plug-In . SVG Version: 2.1.1 Build 123)  -->
  <defs>
    <style>
      .st0 {
        fill-rule: evenodd;
      }
    </style>
  </defs>
  <path class="st0" d="M124,37.16c-.09.53-.55.92-1.09.92h-46.45c-.53,0-.99-.39-1.09-.92l-2.3-13.1c-.12-.68.4-1.3,1.09-1.3h51.06c.69,0,1.21.62,1.09,1.3l-2.3,13.1ZM77.33,44.16h43.17c-3.35,39.2-30.64,61.95-71.35,61.05-7.28-.16-13.73-1.47-19.36-3.4l5.81-17.44c.81-.02,1.6-.05,2.37-.11,40.75-3.1,39.36-40.1,39.36-40.1ZM24.64,99.79c-11.77-5.23-19.19-12.87-22.22-16.46-.96-1.13-.98-2.78-.08-3.95.89-1.15,2.45-1.55,3.75-.92,5.18,2.5,14.79,5.01,23.75,5.72l-5.2,15.61Z"/>
</svg>