<?xml version="1.0" encoding="UTF-8"?>
<svg id="Layer_1" xmlns="http://www.w3.org/2000/svg" version="1.1" viewBox="0 0 128 128">
  <!-- Generator: Adobe Illustrator 30.0.0, SVG Export Plug-In . SVG Version: 2.1.1 Build 123)  -->
  <defs>
    <style>
      .st0 {
        fill-rule: evenodd;
      }
    </style>
  </defs>
  <path class="st0" d="M111.06,76.28h0s.06.02.06.05v41.97c0,.73-.59,1.32-1.33,1.32h-30.47c0-1.13,0-1.94,0-1.94v-12.84c0-8.44-6.64-15.71-15.13-15.84-8.6-.13-15.62,6.76-15.62,15.29v13.39s0,.82,0,1.94h-30.37c-.73,0-1.33-.59-1.33-1.32v-41.97s.02-.05.06-.05h0s-.06-.02-.06-.06v-8.79c0-.73.59-1.32,1.33-1.32h20.16c.73,0,1.33.59,1.33,1.32v8.79s-.02.05-.06.05h13.01s-.06-.02-.06-.06v-8.78c0-.73.59-1.32,1.33-1.32h20.16c.73,0,1.33.59,1.33,1.32v8.78s-.02.06-.06.06h13s-.06-.02-.06-.05v-8.79c0-.73.59-1.32,1.33-1.32h20.16c.73,0,1.33.59,1.33,1.32v8.79s-.02.06-.06.06ZM99.43,49.29c-.95.56-2.17,1.28-3.46,2.01.19,2.24.5,5.82.86,10.04h-7.19c-3.38,0-6.13,2.73-6.13,6.1v4.07h-3.29v-4.07c0-3.36-2.75-6.1-6.13-6.1h-20.16c-3.38,0-6.13,2.73-6.13,6.1v4.07h-3.3v-4.07c0-3.36-2.75-6.1-6.13-6.1h-3.83c.36-4.22.67-7.8.86-10.04-1.31-.74-2.54-1.46-3.49-2.03-1.21-.72-1.9-2.03-1.81-3.42.23-3.62.79-9.76,1.05-12.57.08-.89.78-1.59,1.67-1.67,3.83-.34,12.65-.08,15.29.08.9.06,1.61.74,1.7,1.62.24,2.46.4,5.15.52,7.74h5.5c.24-2.93.52-5.99.69-7.75.08-.9.82-1.59,1.73-1.63,2.94-.14,11.92-.14,14.86,0,.91.04,1.65.74,1.73,1.63.17,1.77.45,4.82.69,7.75h5.5c.12-2.59.29-5.28.52-7.74.09-.88.8-1.57,1.7-1.62,2.64-.16,11.46-.42,15.29-.08.89.08,1.59.79,1.67,1.67.26,2.8.82,8.9,1.05,12.53.09,1.41-.61,2.75-1.83,3.47ZM85.63,20.17l-21.28,7.55c-1.43.51-2.93-.55-2.93-2.06v-15.1c0-1.51,1.5-2.56,2.93-2.06l21.28,7.55c1.94.69,1.94,3.43,0,4.11Z"/>
</svg>