<?xml version="1.0" encoding="UTF-8"?>
<svg id="Layer_1" xmlns="http://www.w3.org/2000/svg" version="1.1" viewBox="0 0 128 128">
  <!-- Generator: Adobe Illustrator 30.0.0, SVG Export Plug-In . SVG Version: 2.1.1 Build 123)  -->
  <defs>
    <style>
      .st0 {
        fill-rule: evenodd;
      }
    </style>
  </defs>
  <path class="st0" d="M111.55,30.02c-2.65-5.65-3.03-10.94-.93-17.09-6.14,2.1-10.97,1.81-17.05-.93,1.67,6.02-.15,14.12-2.25,20.27,6.14-2.1,14.23-3.93,20.23-2.26ZM36.68,32.27c-2.1-6.15-3.92-14.26-2.25-20.27-6.08,2.74-10.91,3.03-17.05.93,2.1,6.15,1.72,11.44-.93,17.09,6-1.67,14.09.15,20.23,2.26ZM116,64c-22.19-11.68-40.32-29.81-52-52h0c-11.68,22.19-29.81,40.32-52,52h0s0,0,0,0c22.19,11.68,40.32,29.81,52,52h0c11.68-22.19,29.81-40.32,52-52h0ZM64,83.65c-5.53-7.2-11.72-13.78-18.47-19.65,6.75-5.87,12.94-12.45,18.47-19.65,5.53,7.2,11.72,13.77,18.47,19.65-6.75,5.87-12.94,12.45-18.47,19.65ZM91.32,95.73c2.1,6.15,3.92,14.26,2.25,20.27,6.08-2.74,10.91-3.03,17.05-.93-2.1-6.15-1.72-11.44.93-17.09-6,1.67-14.09-.15-20.23-2.26ZM16.45,97.98c2.65,5.65,3.03,10.94.93,17.09,6.14-2.1,10.97-1.81,17.05.93-1.67-6.02.15-14.12,2.25-20.27-6.14,2.1-14.23,3.93-20.23,2.26Z"/>
</svg>