<?xml version="1.0" encoding="UTF-8"?>
<svg id="Layer_1" xmlns="http://www.w3.org/2000/svg" version="1.1" viewBox="0 0 128 128">
  <!-- Generator: Adobe Illustrator 30.0.0, SVG Export Plug-In . SVG Version: 2.1.1 Build 123)  -->
  <path d="M103.42,49.37h-12.43v-8.42c0-14.71-11.53-27.14-26.23-27.54s-27.75,11.82-27.75,26.98v8.98h-12.43c-3.05,0-5.52,2.47-5.52,5.52v56.19c0,1.94,1.57,3.52,3.52,3.52h82.83c1.94,0,3.52-1.57,3.52-3.52v-56.19c0-3.05-2.47-5.52-5.52-5.52ZM55.03,40.32c0-4.92,3.99-8.9,8.9-8.9h.14c4.92,0,8.9,3.99,8.9,8.9v9.05h-17.94v-9.05ZM86.75,85.21c-6.14,7.6-13.04,14.51-20.64,20.65-1.23.99-2.99.99-4.22,0-7.6-6.14-14.51-13.04-20.64-20.65-.99-1.23-.99-2.99,0-4.22,6.14-7.6,13.04-14.51,20.64-20.65,1.23-.99,2.99-.99,4.22,0,7.6,6.14,14.51,13.04,20.64,20.65.99,1.23.99,2.99,0,4.22ZM77.3,83.06c-3.87-4.99-8.34-9.45-13.33-13.31-4.99,3.87-9.45,8.33-13.33,13.31,3.87,4.99,8.34,9.45,13.33,13.31,4.99-3.87,9.45-8.33,13.33-13.31Z"/>
</svg>