<?xml version="1.0" encoding="UTF-8"?>
<svg id="Layer_1" xmlns="http://www.w3.org/2000/svg" version="1.1" viewBox="0 0 128 128">
  <!-- Generator: Adobe Illustrator 30.0.0, SVG Export Plug-In . SVG Version: 2.1.1 Build 123)  -->
  <path d="M98.56,64l13.29-24.93c.94-1.76-.29-3.88-2.29-3.95l-28.28-.98-14.99-23.95c-1.06-1.69-3.52-1.69-4.57,0l-14.99,23.95-28.29.98c-1.99.07-3.22,2.2-2.29,3.95l13.29,24.93-13.29,24.93c-.94,1.76.29,3.88,2.29,3.95l28.29.98,14.99,23.95c1.06,1.69,3.52,1.69,4.57,0l14.99-23.95,28.28-.98c1.99-.07,3.22-2.2,2.29-3.95l-13.29-24.93ZM89.08,78.45l-16.39.57-8.69,13.88-8.69-13.88-16.39-.57,7.7-14.45-7.7-14.45,16.39-.57,8.69-13.88,8.69,13.88,16.39.57-7.7,14.45,7.7,14.45Z"/>
</svg>