<?xml version="1.0" encoding="UTF-8"?>
<svg id="Layer_1" xmlns="http://www.w3.org/2000/svg" version="1.1" viewBox="0 0 128 128">
  <!-- Generator: Adobe Illustrator 30.0.0, SVG Export Plug-In . SVG Version: 2.1.1 Build 123)  -->
  <defs>
    <style>
      .st0 {
        fill-rule: evenodd;
      }
    </style>
  </defs>
  <path class="st0" d="M64,110.75C28.86,110.75.38,99.72.38,86.11c0-8.45,10.99-15.91,27.74-20.35,2.14-6.36,4.25-13.24,5.11-17.98,4.93-1.32,8.9-2.65,8.9-2.65-4.93-1.58-12.41-4.92-12.57-4.99-4.91-2.95-11.67-8.08-11.32-10.99.44-3.68,21.61-12.16,37.38-11.89,15.77.28,26.87,7.25,31.98,14.35,3.24,4.5,9.87,22.15,14.38,34.73,15.56,4.49,25.63,11.67,25.63,19.77,0,13.61-28.48,24.64-63.62,24.64ZM102.34,67.37c-8.54,3.69-21.58,6.07-36.29,6.07-15.87,0-29.79-2.78-38.21-6.98l.1.13-5.42,12.63c6.71,6.09,23.64,10.42,43.53,10.42,17.78,0,33.23-3.46,41.1-8.54l-4.81-13.73Z"/>
</svg>