<?xml version="1.0" encoding="UTF-8"?>
<svg id="Layer_1" xmlns="http://www.w3.org/2000/svg" version="1.1" viewBox="0 0 128 128">
  <!-- Generator: Adobe Illustrator 30.0.0, SVG Export Plug-In . SVG Version: 2.1.1 Build 123)  -->
  <defs>
    <style>
      .st0 {
        fill-rule: evenodd;
      }
    </style>
  </defs>
  <path class="st0" d="M64,96.08c23.2,0,42-18.81,42-42.01S87.2,12.06,64,12.06,22,30.87,22,54.07s18.81,42.01,42,42.01ZM93.9,45.3c0-4.13-.66-8.11-1.86-11.84,3.97,5.67,6.32,12.57,6.32,20.02,0,19.31-15.65,34.96-34.95,34.96-7.45,0-14.34-2.35-20.02-6.33,3.73,1.2,7.71,1.86,11.84,1.86,21.36,0,38.67-17.32,38.67-38.68ZM36.96,36.08l6.56-3.51c.73-.39,1.32-.99,1.71-1.73l3.45-6.66c.53-1.01,1.96-1.01,2.48,0l3.45,6.66c.38.74.98,1.35,1.71,1.73l6.56,3.51c1,.53,1,1.99,0,2.52l-6.56,3.51c-.73.39-1.32.99-1.71,1.73l-3.45,6.66c-.53,1.02-1.96,1.02-2.48,0l-3.45-6.66c-.38-.74-.98-1.35-1.71-1.73l-6.56-3.51c-1-.53-1-1.99,0-2.52ZM93.39,92.17c-8.13,6.28-18.32,10.02-29.39,10.02s-22.25-4.11-30.56-10.95l-6.49,16.7c-.22.31-.37.62-.37.95,0,3.89,16.41,7.05,36.66,7.05s36.66-3.16,36.66-7.05c0-.32-.15-.63-.37-.95l-6.13-15.78Z"/>
</svg>