<?xml version="1.0" encoding="UTF-8"?>
<svg id="Layer_1" xmlns="http://www.w3.org/2000/svg" version="1.1" viewBox="0 0 128 128">
  <!-- Generator: Adobe Illustrator 30.0.0, SVG Export Plug-In . SVG Version: 2.1.1 Build 123)  -->
  <defs>
    <style>
      .st0 {
        fill-rule: evenodd;
      }
    </style>
  </defs>
  <path class="st0" d="M107.32,99.6h-28.8v-21.13c0-.34-.05-.67-.1-.99,1.72-2.65,2.73-5.8,2.73-9.18,0-1.4-.19-2.75-.51-4.05l34.42-31.09c.37.94.58,1.96.58,3.03v55.15c0,4.57-3.73,8.27-8.32,8.27ZM64.04,51.29c-5.42,0-10.24,2.52-13.38,6.43L18.13,28.34c.83-.27,1.71-.43,2.63-.43h86.56c.92,0,1.8.15,2.63.43l-32.53,29.39c-3.14-3.91-7.96-6.43-13.38-6.43ZM46.93,68.29c0,3.38,1.01,6.53,2.73,9.18-.05.33-.1.65-.1.99v21.13h-28.8c-4.6,0-8.32-3.7-8.32-8.27v-55.15c0-1.07.21-2.09.58-3.03l34.42,31.09c-.32,1.3-.51,2.66-.51,4.05ZM64.04,57.76c5.85,0,10.6,4.71,10.6,10.53s-4.74,10.53-10.6,10.53-10.6-4.71-10.6-10.53,4.74-10.53,10.6-10.53ZM72,83.33v21.25l-7.97-5.97-7.97,5.97v-21.25c2.38,1.25,5.09,1.97,7.97,1.97s5.59-.72,7.97-1.97Z"/>
</svg>