<?xml version="1.0" encoding="UTF-8"?>
<svg id="Layer_1" xmlns="http://www.w3.org/2000/svg" version="1.1" viewBox="0 0 128 128">
  <!-- Generator: Adobe Illustrator 30.0.0, SVG Export Plug-In . SVG Version: 2.1.1 Build 123)  -->
  <defs>
    <style>
      .st0 {
        fill-rule: evenodd;
      }
    </style>
  </defs>
  <path class="st0" d="M83.84,61.56l31.17-28.15c.37.94.58,1.96.58,3.03v55.13c0,.95-.17,1.86-.47,2.72l-31.29-32.72ZM18.09,28.6c.83-.27,1.71-.43,2.63-.43h86.56c.92,0,1.8.15,2.63.43l-45.91,41.46L18.09,28.6ZM12.87,94.28c-.3-.85-.47-1.76-.47-2.72v-55.13c0-1.07.21-2.09.58-3.03l31.17,28.15-31.29,32.72ZM61.64,77.34c.67.6,1.51.91,2.36.91s1.69-.3,2.36-.91l12.29-11.1,31.59,33.04c-.92.35-1.92.55-2.96.55H20.72c-1.04,0-2.04-.2-2.96-.55l31.59-33.04,12.29,11.1Z"/>
</svg>