<?xml version="1.0" encoding="UTF-8"?>
<svg id="Layer_1" xmlns="http://www.w3.org/2000/svg" version="1.1" viewBox="0 0 128 128">
  <!-- Generator: Adobe Illustrator 30.0.0, SVG Export Plug-In . SVG Version: 2.1.1 Build 123)  -->
  <defs>
    <style>
      .st0 {
        fill-rule: evenodd;
      }
    </style>
  </defs>
  <path class="st0" d="M106.42,88.49c-.52,4.4-4.13,7.8-8.06,7.82-3.94.03-6.79-2.21-8.11-7.28-.13-.5-.29-1.03-.46-1.57,1.13,13.95,2.26,30.02,2.26,30.02h-21.4v-13.62h-13.12v13.62h-21.4s1.17-16.67,2.33-30.8c-.27.81-.51,1.6-.71,2.34-1.32,5.07-4.17,7.31-8.11,7.28-3.94-.03-7.54-3.43-8.06-7.82-.52-4.4-.58-10.27,3.63-16.92,4.2-6.65,13.55-14.49,15.97-15.83.23-.13.53-.16.87-.14-3.82-4.75-6.11-10.79-6.11-17.36,0-15.32,12.42-27.73,27.73-27.73s27.73,12.42,27.73,27.73c0,6.64-2.33,12.72-6.22,17.5.68-.18,1.25-.22,1.64,0,2.42,1.34,11.77,9.18,15.97,15.83,4.2,6.65,4.15,12.52,3.63,16.92Z"/>
</svg>