<?xml version="1.0" encoding="UTF-8"?>
<svg id="Layer_1" xmlns="http://www.w3.org/2000/svg" version="1.1" viewBox="0 0 128 128">
  <!-- Generator: Adobe Illustrator 30.0.0, SVG Export Plug-In . SVG Version: 2.1.1 Build 123)  -->
  <defs>
    <style>
      .st0 {
        fill-rule: evenodd;
      }
    </style>
  </defs>
  <path class="st0" d="M111.98,99.33l-17.77,10.76c-1.16.71-2.56.94-3.89.64l-54.72-12.03-18.53,11.22c-.91.55-2.08-.1-2.08-1.17V30.49c0-.75.39-1.44,1.03-1.83l17.77-10.76c1.16-.71,2.56-.94,3.89-.64l54.72,12.03,18.53-11.22c.91-.55,2.08.1,2.08,1.17v78.26c0,.75-.39,1.44-1.03,1.83ZM87.24,85.91c.15.02.3.03.44.03,1.58,0,2.96-1.16,3.18-2.77.1-.7.17-1.43.23-2.17.13-1.77-1.2-3.31-2.97-3.43-1.77-.13-3.31,1.2-3.44,2.97-.04.6-.11,1.19-.18,1.76-.24,1.76.98,3.38,2.74,3.62ZM79.33,95.97s.09,0,.13,0c.94-.04,1.84-.18,2.69-.42,1.71-.48,2.7-2.25,2.22-3.96-.48-1.71-2.26-2.7-3.97-2.22-.37.1-.77.16-1.21.18-1.77.07-3.15,1.57-3.08,3.34.07,1.73,1.49,3.08,3.21,3.08ZM27.42,48.34c-1.72-.44-3.47.6-3.91,2.32-.18.71-.34,1.45-.46,2.19-.3,1.75.88,3.41,2.63,3.7.18.03.36.05.54.05,1.54,0,2.9-1.11,3.17-2.67.1-.57.22-1.14.35-1.68.44-1.72-.6-3.47-2.32-3.9ZM37.82,38.92c-.79-1.59-2.72-2.23-4.31-1.43-.72.36-1.42.77-2.07,1.22-1.47,1-1.85,2.99-.85,4.46.62.91,1.63,1.4,2.66,1.4.62,0,1.25-.18,1.81-.56.42-.29.87-.55,1.33-.78,1.59-.79,2.23-2.72,1.44-4.31ZM49.86,35.96c-.65-.19-1.33-.33-2.02-.41-.16-.02-.31-.04-.47-.05-1.77-.19-3.35,1.08-3.54,2.85-.19,1.76,1.09,3.35,2.85,3.54.13.01.26.03.39.04.35.04.68.11,1,.2.3.09.6.13.9.13,1.39,0,2.67-.91,3.08-2.31.5-1.7-.48-3.48-2.19-3.98ZM60.17,49.22c-.18-.72-.38-1.42-.59-2.08-.54-1.69-2.35-2.63-4.04-2.09-1.69.54-2.63,2.34-2.09,4.03.17.54.34,1.12.49,1.72.37,1.45,1.68,2.42,3.11,2.42.26,0,.53-.03.8-.1,1.72-.44,2.76-2.18,2.32-3.9ZM62.03,61.98c-.14-1.77-1.69-3.09-3.46-2.95-1.77.14-3.09,1.69-2.95,3.45.05.65.1,1.3.14,1.94.12,1.69,1.53,2.99,3.2,2.99.08,0,.15,0,.23,0,1.77-.12,3.11-1.66,2.98-3.43-.05-.67-.1-1.34-.15-2ZM63.28,78.06c-.08-.6-.16-1.22-.23-1.86-.19-1.76-1.77-3.04-3.54-2.85-1.76.19-3.04,1.77-2.85,3.53.08.73.16,1.43.25,2.07.23,1.61,1.6,2.77,3.18,2.77.15,0,.3-.01.45-.03,1.76-.25,2.98-1.87,2.74-3.62ZM68.93,87.2c-.49-.26-.95-.54-1.38-.84-1.46-1.01-3.46-.64-4.47.81-1.01,1.46-.64,3.46.82,4.47.63.43,1.3.84,2,1.22.48.26,1,.38,1.52.38,1.15,0,2.25-.61,2.83-1.69.84-1.56.25-3.51-1.31-4.35ZM101.9,51.56c0-7.09-5.78-12.83-12.91-12.83s-12.91,5.75-12.91,12.83c0,.49.03.97.09,1.45h-.09c1.87,11.38,12.91,22.09,12.91,22.09,0,0,11.04-10.7,12.91-22.09h-.09c.05-.48.09-.96.09-1.45ZM88.98,55.96c-2.44,0-4.43-1.97-4.43-4.4s1.98-4.4,4.43-4.4,4.43,1.97,4.43,4.4-1.98,4.4-4.43,4.4Z"/>
</svg>