<?xml version="1.0" encoding="UTF-8"?>
<svg id="Layer_1" xmlns="http://www.w3.org/2000/svg" version="1.1" viewBox="0 0 128 128">
  <!-- Generator: Adobe Illustrator 30.0.0, SVG Export Plug-In . SVG Version: 2.1.1 Build 123)  -->
  <defs>
    <style>
      .st0 {
        fill-rule: evenodd;
      }
    </style>
  </defs>
  <path class="st0" d="M109.96,103.26l-26.83,10.85c-1.63.66-3.46.66-5.09,0l-29.34-11.86c-.83-.33-1.75-.33-2.57,0l-25.14,10.16c-3.23,1.31-6.75-1.09-6.75-4.59V30.41c0-2.49,1.51-4.74,3.8-5.67l26.83-10.85c1.63-.66,3.46-.66,5.09,0l29.34,11.86c.83.33,1.75.33,2.57,0l25.14-10.17c3.23-1.31,6.75,1.09,6.75,4.59v77.41c0,2.49-1.51,4.74-3.8,5.67ZM24.66,72.95c-.44,2.57.06,4.99,1.19,7h0s7.52,15.35,7.52,15.35c.65,1.32,2.52,1.32,3.17,0l7.52-15.35h0c.86-1.52,1.35-3.28,1.35-5.16,0-6.2-5.35-11.15-11.66-10.43-4.53.51-8.3,4.08-9.08,8.59ZM32.5,58.89h4.98v-4.99h-4.98v4.99ZM35.35,40.96c-1.38,2.11-2.27,4.45-2.65,6.94l4.92.75c.27-1.78.91-3.44,1.89-4.95l-4.16-2.74ZM46.64,33.36c-2.46.47-4.75,1.45-6.8,2.92l2.88,4.08c1.46-1.05,3.1-1.75,4.85-2.08l-.93-4.91ZM53.11,33.34l-.91,4.92c1.76.33,3.39,1.02,4.86,2.06l2.86-4.09c-2.06-1.45-4.35-2.42-6.82-2.88ZM64.44,40.89l-4.15,2.76c.99,1.5,1.63,3.17,1.91,4.94l4.92-.78c-.39-2.49-1.29-4.82-2.68-6.93ZM67.34,53.81h-4.98v6.42h4.98v-6.42ZM67.34,65.85h-4.98v6.42h4.98v-6.42ZM67.35,77.78l-4.97.21c.11,2.52.74,4.94,1.87,7.19l4.44-2.27c-.81-1.6-1.26-3.33-1.33-5.13ZM71.52,86.59l-3.31,3.74c1.88,1.68,4.05,2.91,6.44,3.65l1.46-4.78c-1.71-.53-3.26-1.41-4.6-2.61ZM93.17,88.44c1.61-1.94,2.76-4.16,3.42-6.59l-4.8-1.32c-.47,1.73-1.29,3.32-2.44,4.7l3.82,3.2ZM97.2,75.57v-4.99h-4.98v4.99h4.98ZM80.72,89.71l.37,4.99c2.51-.19,4.89-.9,7.09-2.12l-2.4-4.38c-1.57.87-3.27,1.38-5.06,1.51ZM105.27,48.02c.64-.66.61-1.72-.05-2.36l-2.74-2.65c-.66-.64-1.71-.62-2.35.05l-4.77,4.99-4.96-4.8c-.66-.64-1.71-.62-2.35.05l-2.64,2.76c-.64.66-.61,1.72.05,2.36l4.96,4.8-4.78,4.99c-.64.66-.61,1.72.05,2.36l2.74,2.65c.66.64,1.71.62,2.35-.04l4.77-4.99,4.96,4.8c.66.64,1.71.62,2.35-.04l2.64-2.76c.64-.66.62-1.72-.05-2.36l-4.96-4.8,4.77-4.99ZM39.18,74.32c0,2.35-1.89,4.25-4.23,4.25s-4.23-1.9-4.23-4.25,1.89-4.25,4.23-4.25,4.23,1.9,4.23,4.25Z"/>
</svg>