<?xml version="1.0" encoding="UTF-8"?>
<svg id="Layer_1" xmlns="http://www.w3.org/2000/svg" version="1.1" viewBox="0 0 128 128">
  <!-- Generator: Adobe Illustrator 30.0.0, SVG Export Plug-In . SVG Version: 2.1.1 Build 123)  -->
  <defs>
    <style>
      .st0 {
        fill-rule: evenodd;
      }
    </style>
  </defs>
  <path class="st0" d="M94.97,105.76c-2.26,0-4.41-1.18-6.38-3.31-5.53-3.95-24.89-17.42-33.74-19.21h-.09l3.84,28.4h-22.5l-3.84-28.4h-6.98s-9.15-7.28-9.15-22.52,9.15-22.52,9.15-22.52h29.56c8.42-1.7,27.57-14.5,34.49-19.27,1.76-1.65,3.66-2.55,5.63-2.55,9.33,0,16.89,20.01,16.89,44.7s-7.56,44.7-16.89,44.7ZM95.95,24.33c-4.08,0-7.55,9.96-8.88,23.92,6.3.87,11.16,6.26,11.16,12.8s-4.83,11.9-11.1,12.8c1.36,13.67,4.8,23.38,8.82,23.38,5.22,0,9.45-16.32,9.45-36.45s-4.23-36.45-9.45-36.45Z"/>
</svg>