<?xml version="1.0" encoding="UTF-8"?>
<svg id="Layer_1" xmlns="http://www.w3.org/2000/svg" version="1.1" viewBox="0 0 128 128">
  <!-- Generator: Adobe Illustrator 30.0.0, SVG Export Plug-In . SVG Version: 2.1.1 Build 123)  -->
  <defs>
    <style>
      .st0 {
        fill-rule: evenodd;
      }
    </style>
  </defs>
  <path class="st0" d="M80.32,95.88h-3v14.85s-22.72,1.29-27.52-14.85h-2.12c-21.71,0-39.32-17.6-39.32-39.32S25.96,17.24,47.68,17.24h32.64c21.71,0,39.32,17.6,39.32,39.32s-17.6,39.32-39.32,39.32ZM39.77,49.04c-5.24,0-9.49,4.25-9.49,9.49s4.25,9.49,9.49,9.49,9.49-4.25,9.49-9.49-4.25-9.49-9.49-9.49ZM64.45,49.04c-5.24,0-9.49,4.25-9.49,9.49s4.25,9.49,9.49,9.49,9.49-4.25,9.49-9.49-4.25-9.49-9.49-9.49ZM89.13,49.04c-5.24,0-9.49,4.25-9.49,9.49s4.25,9.49,9.49,9.49,9.49-4.25,9.49-9.49-4.25-9.49-9.49-9.49Z"/>
</svg>