<?xml version="1.0" encoding="UTF-8"?>
<svg id="Layer_1" xmlns="http://www.w3.org/2000/svg" version="1.1" viewBox="0 0 128 128">
  <!-- Generator: Adobe Illustrator 30.0.0, SVG Export Plug-In . SVG Version: 2.1.1 Build 123)  -->
  <defs>
    <style>
      .st0 {
        fill-rule: evenodd;
      }
    </style>
  </defs>
  <path class="st0" d="M98,75.23c-6.21,0-11.23-5.03-11.23-11.23s5.03-11.23,11.23-11.23,11.23,5.03,11.23,11.23-5.03,11.23-11.23,11.23ZM64,75.23c-6.21,0-11.23-5.03-11.23-11.23s5.03-11.23,11.23-11.23,11.23,5.03,11.23,11.23-5.03,11.23-11.23,11.23ZM30,75.23c-6.2,0-11.23-5.03-11.23-11.23s5.03-11.23,11.23-11.23,11.23,5.03,11.23,11.23-5.03,11.23-11.23,11.23Z"/>
</svg>