<?xml version="1.0" encoding="UTF-8"?>
<svg id="Layer_1" xmlns="http://www.w3.org/2000/svg" version="1.1" viewBox="0 0 128 128">
  <!-- Generator: Adobe Illustrator 30.0.0, SVG Export Plug-In . SVG Version: 2.1.1 Build 123)  -->
  <defs>
    <style>
      .st0 {
        fill-rule: evenodd;
      }
    </style>
  </defs>
  <path class="st0" d="M121.96,88.41l-76.17,20.41c-2.41.65-4.88-.78-5.53-3.19l-2.25-8.91c-.32-1.2.39-2.44,1.59-2.76l82.71-22.17c1.2-.32,2.44.39,2.76,1.6l1.67,6.73c.97,3.61-1.18,7.32-4.79,8.29ZM37.32,89.98c-1.93-6.3-10.73-35.14-14.35-48.42-.69-2.54.69-5.18,3.18-6.09l44.22-16.14c2.59-.95,5.48.3,6.53,2.83l8.82,21.13s14.34.49,22.79,6.53c6.94,4.96,10.4,13.36,11.73,17.4l-81.68,21.89c-.52.14-.94.46-1.24.86ZM32.76,92.67c-.38.53-.54,1.22-.36,1.9l1,3.95c-.04.29-.02.59.06.89l1.56,6.18c-9.72,1.22-21.96,2.63-30.17,3.12-5.22.31-4.34-2.76-1.85-4.84,5.49-4.58,13.85-10.28,21.11-15-4.49.29-8.95.56-12.68.74-5.92.29-5.55-2.63-2.15-4.88,5.04-3.33,11.87-7.49,17.73-10.98,2.58,8.59,4.87,16.07,5.74,18.93Z"/>
</svg>