<?xml version="1.0" encoding="UTF-8"?>
<svg id="Layer_1" xmlns="http://www.w3.org/2000/svg" version="1.1" viewBox="0 0 128 128">
  <!-- Generator: Adobe Illustrator 30.0.0, SVG Export Plug-In . SVG Version: 2.1.1 Build 123)  -->
  <defs>
    <style>
      .st0 {
        fill-rule: evenodd;
      }
    </style>
  </defs>
  <path class="st0" d="M111.2,82.54c-.3,10.23-8.87,18.52-19.19,18.52-5.44,0-10.65-2.31-14.3-6.33-3.69-4.08-5.4-9.35-4.81-14.85.91-8.44,7.7-15.48,16.14-16.75,3.74-.56,7.51-.05,10.9,1.49.47.21.87.02,1.01-.07.15-.09.49-.37.49-.9v-25.16c0-.18-.1-.28-.16-.33-.06-.05-.19-.12-.36-.07l-44.34,11.34c-.82.21-1.39.94-1.39,1.78v47.26c0,.08,0,.16-.02.23-.3,10.23-8.87,18.52-19.19,18.52-5.44,0-10.65-2.31-14.3-6.33-3.69-4.08-5.4-9.35-4.81-14.85.91-8.44,7.7-15.48,16.14-16.75,3.74-.56,7.51-.05,10.9,1.49.47.21.87.02,1.01-.07.15-.09.49-.37.49-.9V31.43c0-3,2.04-5.62,4.97-6.37l55.28-14.15c1.33-.34,2.73-.06,3.82.78,1.09.84,1.72,2.11,1.72,3.48v67.13c0,.08,0,.16-.02.24Z"/>
</svg>