<?xml version="1.0" encoding="UTF-8"?>
<svg id="Layer_1" xmlns="http://www.w3.org/2000/svg" version="1.1" viewBox="0 0 128 128">
  <!-- Generator: Adobe Illustrator 30.0.0, SVG Export Plug-In . SVG Version: 2.1.1 Build 123)  -->
  <defs>
    <style>
      .st0 {
        fill-rule: evenodd;
      }
    </style>
  </defs>
  <path class="st0" d="M112,111.8H16c-1.66,0-3-1.34-3-3V34.8c0-1.66,1.34-3,3-3h21.51v7.12c0,1.1.9,2,2,2h47.22c1.1,0,2-.9,2-2v-7.12h23.27c1.66,0,3,1.34,3,3v74c0,1.66-1.34,3-3,3ZM42,56.01c-7.61,0-13.77,6.11-13.77,13.66,0,4.61,2.31,8.68,5.84,11.15-2.93,5.32-4.64,10.66-5.2,13.72-.76,1.5.34,3.26,2.03,3.26h22.19c1.69,0,2.79-1.76,2.03-3.26-.18-3.42-2.83-8.86-5.51-13.5,3.71-2.45,6.15-6.63,6.15-11.37,0-7.54-6.17-13.66-13.77-13.66ZM103.09,61.12c0-1.1-.9-2-2-2h-30.49c-1.1,0-2,.9-2,2v4.83c0,1.1.9,2,2,2h30.49c1.1,0,2-.9,2-2v-4.83ZM103.09,80.78c0-1.1-.9-2-2-2h-30.49c-1.1,0-2,.9-2,2v4.83c0,1.1.9,2,2,2h30.49c1.1,0,2-.9,2-2v-4.83ZM77.43,33.86h-28.62c-.39,0-.7-.32-.7-.7v-13.96c0-1.66,1.34-3,3-3h24.03c1.66,0,3,1.34,3,3v13.96c0,.39-.32.7-.7.7Z"/>
</svg>