<?xml version="1.0" encoding="UTF-8"?>
<svg id="Layer_1" xmlns="http://www.w3.org/2000/svg" version="1.1" viewBox="0 0 128 128">
  <!-- Generator: Adobe Illustrator 30.0.0, SVG Export Plug-In . SVG Version: 2.1.1 Build 123)  -->
  <defs>
    <style>
      .st0 {
        fill-rule: evenodd;
      }
    </style>
  </defs>
  <path class="st0" d="M126.25,72.53c-.49,1.37-1.69,2.28-3.03,2.47-.58.08-1.18.03-1.77-.18l-12.38-4.38c-1.96-.69-2.98-2.84-2.29-4.8.69-1.96,2.84-2.98,4.8-2.29l12.38,4.38c1.96.69,2.98,2.84,2.29,4.8ZM115.97,50.71l-9.84,3.69c-.27.1-.54.17-.81.21-1.7.24-3.4-.73-4.03-2.4-.73-1.94.26-4.11,2.2-4.84l9.84-3.69c1.94-.73,4.11.25,4.84,2.2.73,1.94-.26,4.11-2.2,4.84ZM100.89,37.55c-.6,1.07-1.64,1.74-2.77,1.89-.78.11-1.6-.03-2.34-.44-1.81-1.01-2.47-3.3-1.45-5.11l6.74-12.08c1.01-1.81,3.3-2.46,5.12-1.45,1.81,1.01,2.47,3.3,1.45,5.11l-6.74,12.08ZM98.68,93.43c-5.23.19-13.55.44-22.97.51l.08,6.42c.03,2.54-.94,4.93-2.75,6.72-1.45,1.44-3.28,2.34-5.27,2.62-.49.07-.98.1-1.48.09l-15.1-.29c-5-.09-9.12-3.75-9.81-8.7l-1.09-7.89c-1.77-.15-3.5-.31-5.16-.5,0,0-6.43-13.02-12-29.08,0,0,20.87-25.85,50.31-44.52,2.16-1.37,5.03-.34,5.85,2.08l22.98,67.31c.86,2.51-.95,5.14-3.6,5.23ZM68.19,93.96c-6.68-.03-13.63-.18-20.23-.53l.88,6.34c.17,1.26,1.23,2.19,2.5,2.22l15.1.29c.66,0,1.1-.32,1.3-.52.2-.2.54-.63.53-1.3l-.08-6.5ZM20.95,102.85c-1.57,1.8-4.46,1.49-5.6-.61-2.98-5.48-8.31-15.88-13.56-29.08-.82-2.07.5-4.37,2.72-4.68l13.79-1.91s6.29,18.05,11.24,26.45l-8.58,9.83Z"/>
</svg>