<?xml version="1.0" encoding="UTF-8"?>
<svg id="Layer_1" xmlns="http://www.w3.org/2000/svg" version="1.1" viewBox="0 0 128 128">
  <!-- Generator: Adobe Illustrator 30.0.0, SVG Export Plug-In . SVG Version: 2.1.1 Build 123)  -->
  <defs>
    <style>
      .st0 {
        fill-rule: evenodd;
      }
    </style>
  </defs>
  <path class="st0" d="M108.49,96.41H19.51c-1.62,0-2.65-1.72-1.89-3.13l8.68-16.11s-2.43-16.91,1.43-29.07c5.73-18.06,17.71-24.37,26.95-26.54-.02-.27-.04-.53-.04-.81,0-4.92,3.99-8.91,8.91-8.91s8.91,3.99,8.91,8.91c0,.2-.02.4-.03.61,9.35,1.97,21.92,8.1,27.84,26.74,3.86,12.16,1.43,29.07,1.43,29.07l8.68,16.11c.76,1.42-.27,3.13-1.89,3.13ZM63.55,116.16c-8.59,0-15.76-6.11-17.39-14.22h34.79c-1.63,8.11-8.8,14.22-17.39,14.22Z"/>
</svg>