<?xml version="1.0" encoding="UTF-8"?>
<svg id="Layer_1" xmlns="http://www.w3.org/2000/svg" version="1.1" viewBox="0 0 128 128">
  <!-- Generator: Adobe Illustrator 30.0.0, SVG Export Plug-In . SVG Version: 2.1.1 Build 123)  -->
  <defs>
    <style>
      .st0 {
        fill-rule: evenodd;
      }
    </style>
  </defs>
  <path class="st0" d="M109.65,96.24L41.4,27.96c4.55-3.51,9.39-5.41,13.65-6.41-.02-.27-.04-.53-.04-.81,0-4.92,3.99-8.91,8.91-8.91s8.91,3.99,8.91,8.91c0,.2-.02.4-.03.61,9.35,1.97,21.92,8.1,27.84,26.74,3.86,12.16,1.43,29.07,1.43,29.07l8.68,16.11c.63,1.16.04,2.51-1.09,2.96ZM106.51,112.52L15.38,21.37l6.11-6.11,91.13,91.15-6.11,6.11ZM26.66,77.16s-2.43-16.91,1.43-29.07c.56-1.77,1.2-3.4,1.87-4.95l53.25,53.26H19.87c-1.62,0-2.65-1.72-1.89-3.13l8.68-16.11ZM63.91,116.16c-8.59,0-15.76-6.11-17.39-14.22h34.79c-1.63,8.11-8.8,14.22-17.39,14.22Z"/>
</svg>