<?xml version="1.0" encoding="UTF-8"?>
<svg id="Layer_1" xmlns="http://www.w3.org/2000/svg" version="1.1" viewBox="0 0 128 128">
  <!-- Generator: Adobe Illustrator 30.0.0, SVG Export Plug-In . SVG Version: 2.1.1 Build 123)  -->
  <defs>
    <style>
      .st0 {
        fill-rule: evenodd;
      }
    </style>
  </defs>
  <path class="st0" d="M64,116c-28.72,0-52-23.28-52-52S35.28,12,64,12s52,23.28,52,52-23.28,52-52,52ZM72.79,26.9c-6.38-3.52-14.37-2.77-19.86,2.03-3.57,3.12-6.78,7.84-7.54,14.88,0,0-.85,19.55,18.27,33.47,0,0,10.5-5.72,13.78-13.46,0,0-.94-1.61-2.34-3.65-3.08-4.47-9.82-4.6-12.82-.08-.21.31-.38.63-.53.95,0,0-5.03-10.7,6.79-20.45,0,0,15.92,5.69,21.95,23.61,0,0-7.42,20.42-27.62,25.41,0,0-26.87-10.54-31.84-39.6,0,0-2.88,3.43-5.44,7.63-1.79,2.92-2.13,6.52-.84,9.69,3.39,8.39,12.96,25.6,37.39,37.82,1.06.53,2.3.54,3.36,0,6.61-3.36,30.95-16.98,38.47-38.58.42-1.2.36-2.51-.14-3.68-2.61-6.04-12.23-25.63-31.03-36Z"/>
</svg>