<?xml version="1.0" encoding="UTF-8"?>
<svg id="Layer_1" xmlns="http://www.w3.org/2000/svg" version="1.1" viewBox="0 0 128 128">
  <!-- Generator: Adobe Illustrator 30.0.0, SVG Export Plug-In . SVG Version: 2.1.1 Build 123)  -->
  <defs>
    <style>
      .st0 {
        fill-rule: evenodd;
      }
    </style>
  </defs>
  <path class="st0" d="M117.95,72.05c-1.93,3.96-7.34,8.42-11.95,11.71-.78.55-.07,1.75.79,1.34,2.33-1.12,4.79-2.45,6.88-3.86,1.32-.89,3.06.4,2.56,1.91-.89,2.74-2.99,6.5-7.84,10.61-9.67,8.18-22.42,15.99-22.42,15.99,0,0-2.86,3.34-5.5,6.47-.79.93-2.29.15-1.97-1.03,2-7.51,4.59-21.37.2-32.03-.31-.74-.21-1.58.31-2.2,4.37-5.21,24.46-29.41,29.6-39.73.49-.98,1.76-1.26,2.59-.55,2.09,1.77,4.97,5.85,2.93,14.25-.99,4.08-7.69,12.59-12.26,18.03-.6.72.35,1.69,1.08,1.11,3.67-2.88,8.48-7.16,12.02-12.13.7-.99,2.19-.96,2.81.08,1.22,2.01,2.37,5.49.15,10.04ZM88.71,45.69h-15.39v62.72l-8.29,13.53c-.47.77-1.6.77-2.07,0l-8.29-13.53v-62.72h-15.39c-.45,0-.82-.33-.88-.78l-.91-7.07c-.07-.53.35-1,.88-1h51.26c.54,0,.95.47.88,1l-.91,7.07c-.06.44-.44.78-.88.78ZM61.02,45.69l2.34,24.2c.08.78,1.21.78,1.29,0l2.34-24.2h-5.96ZM68.28,20.7v13.15h-8.56v-13.15l-4.32-4.32c-.9-.9-.9-2.35,0-3.25l6.97-6.98c.9-.9,2.35-.9,3.25,0l6.97,6.98c.9.9.9,2.35,0,3.25l-4.32,4.32ZM49.29,83.15c-4.38,10.67-1.8,24.52.2,32.03.31,1.18-1.19,1.96-1.97,1.03-2.64-3.13-5.5-6.47-5.5-6.47,0,0-12.75-7.8-22.42-15.99-4.84-4.1-6.95-7.87-7.84-10.61-.49-1.51,1.25-2.81,2.56-1.91,2.09,1.42,4.55,2.74,6.88,3.86.86.41,1.57-.78.79-1.34-4.62-3.29-10.02-7.74-11.95-11.71-2.22-4.55-1.07-8.03.15-10.04.63-1.03,2.11-1.06,2.81-.08,3.54,4.97,8.35,9.25,12.02,12.13.74.58,1.69-.39,1.08-1.11-4.57-5.45-11.27-13.95-12.26-18.03-2.04-8.4.85-12.49,2.93-14.25.83-.7,2.1-.42,2.59.55,5.14,10.32,25.24,34.52,29.6,39.73.52.61.61,1.46.31,2.2Z"/>
</svg>