<?xml version="1.0" encoding="UTF-8"?>
<svg id="Layer_1" xmlns="http://www.w3.org/2000/svg" version="1.1" viewBox="0 0 128 128">
  <!-- Generator: Adobe Illustrator 30.0.0, SVG Export Plug-In . SVG Version: 2.1.1 Build 123)  -->
  <defs>
    <style>
      .st0 {
        fill-rule: evenodd;
      }
    </style>
  </defs>
  <path class="st0" d="M113.12,53.4c-1.05,7.74-6.96,13.37-14.16,14.26-7.2.9-14.24-1.06-17.48-.98-3.24.08-7.85,1.79-10.6,7.09-1.22,2.35-2.02,6.93,2.1,11.33,4.13,4.4,9.95,9.13,11,14.34,1.05,5.22-3.17,14.18-13.92,15.81-10.76,1.63-33.04-1.8-48.71-26.57-4.69-7.42-9.47-24.13-4.61-40.02,4.86-15.89,21.41-34.2,44.34-36.11,10.76-.9,31.14,1.63,43.29,15.4,5.83,6.6,9.79,17.69,8.74,25.43ZM26.08,65.73c0,4.45,3.58,8.06,8,8.06s8-3.61,8-8.06-3.58-8.06-8-8.06-8,3.61-8,8.06ZM43.19,33.97c-4.42,0-8,3.61-8,8.06s3.58,8.06,8,8.06,8-3.61,8-8.06-3.58-8.06-8-8.06ZM51.89,97.92c0,4.45,3.58,8.06,8,8.06s8-3.61,8-8.06-3.58-8.06-8-8.06-8,3.61-8,8.06ZM68.76,24.27c-4.42,0-8,3.61-8,8.06s3.58,8.06,8,8.06,8-3.61,8-8.06-3.58-8.06-8-8.06ZM92.43,36.3c-4.42,0-8,3.61-8,8.06s3.58,8.06,8,8.06,8-3.61,8-8.06-3.58-8.06-8-8.06Z"/>
</svg>