<?xml version="1.0" encoding="UTF-8"?>
<svg id="Layer_1" xmlns="http://www.w3.org/2000/svg" version="1.1" viewBox="0 0 128 128">
  <!-- Generator: Adobe Illustrator 30.0.0, SVG Export Plug-In . SVG Version: 2.1.1 Build 123)  -->
  <defs>
    <style>
      .st0 {
        fill-rule: evenodd;
      }
    </style>
  </defs>
  <path class="st0" d="M123.71,26.38c-1.39,11.58-6.3,36.62-23.27,48.64-4.91,3.48-10.29,5.78-15.51,7.28-1.3.38-2.63-.55-2.7-1.9-.3-5.66-1.09-10.82-2.26-15.54,7.02-11.94,26.22-30.33,26.22-30.33-16.77,8.25-26.32,18.25-29.05,21.38-2.24-5.7-5.05-10.62-8.18-14.84-.57-.77-.59-1.83.03-2.57,13.17-15.95,37.67-18.23,49.09-18.38,3.39-.04,6.03,2.9,5.63,6.25ZM73.59,104.51c-.32,2.09-2.28,3.55-4.39,3.35l-11.15-1.04c-2.87-.27-4.56-3.35-3.23-5.9,2.27-4.37,5.49-10.67,7.91-15.87-8.36-.06-23.17-1.53-35.17-10.03C10.59,63,5.68,37.97,4.29,26.39c-.4-3.36,2.25-6.31,5.64-6.26,11.83.15,36.97,3.11,50.43,20.09,10.39,13.12,17.99,33.3,13.23,64.29Z"/>
</svg>