<?xml version="1.0" encoding="UTF-8"?>
<svg id="Layer_1" xmlns="http://www.w3.org/2000/svg" version="1.1" viewBox="0 0 128 128">
  <!-- Generator: Adobe Illustrator 30.0.0, SVG Export Plug-In . SVG Version: 2.1.1 Build 123)  -->
  <path d="M20.59,80.9c2.43,3.52,8.65,4.75,17.07,3.34,9.47-1.57,20.56-6.15,31.2-12.91,18.16-11.52,34.4-30.53,28.94-39.59-10.56-11.63-26.12-17.11-41.68-14.68-25.32,3.96-42.72,27.62-38.78,52.75.6,3.84,1.66,7.47,3.25,11.09ZM122.96,26.33c-2.66-4.13-9.64-5.06-19.21-3.26-2.39.45-3.32,3.34-1.69,5.15.01.01.02.03.04.04l.27.35c7.16,11.13-6.25,31.93-30.52,47.34-11.26,7.15-23.08,12.01-33.27,13.7-.16.03-.32.05-.48.08-10.78,1.68-18.67-.45-22.26-6.03l-.2-.37c-.04-.08-.07-.16-.11-.24-.96-2.21-3.96-2.57-5.37-.61-5.67,7.89-7.77,14.58-5.11,18.71,6.42,9.97,38.02,1.31,70.58-19.36,32.56-20.67,53.76-45.51,47.34-55.49ZM78.59,86.44c-13.18,8.36-26.58,15.06-38.58,19.31,9.11,4.84,19.83,6.88,30.84,5.16,25.27-3.95,43.04-26.31,41.59-51.14-8.93,9.03-20.67,18.3-33.85,26.67Z"/>
</svg>