<?xml version="1.0" encoding="UTF-8"?>
<svg id="Layer_1" xmlns="http://www.w3.org/2000/svg" version="1.1" viewBox="0 0 128 128">
  <!-- Generator: Adobe Illustrator 30.0.0, SVG Export Plug-In . SVG Version: 2.1.1 Build 123)  -->
  <defs>
    <style>
      .st0 {
        fill-rule: evenodd;
      }
    </style>
  </defs>
  <path class="st0" d="M116.82,95.01c0,9.21-7.38,16.67-16.55,16.84h0s-.14,0-.14,0c-.06,0-.12,0-.18,0s-.12,0-.18,0H30.43c-.06,0-.12,0-.18,0-10.53,0-19.07-8.54-19.07-19.07,0-8.55,5.62-15.78,13.37-18.2-2.71-2.96-4.37-6.89-4.37-11.22,0-9.2,7.45-16.65,16.65-16.65,1.74,0,3.41.27,4.99.76-.14-4.33.18-32.34,32.9-31.33,0,0-.91,8.25-.91,10.79s1.55,4.96,5.93,6.74c3.82,1.55,10.04,7.91,9.72,14.6-.01-.2.04.62-.12,1.2.35-.02.7-.05,1.06-.05,9.94,0,18,8.06,18,18,0,4.3-1.51,8.23-4.02,11.33,7.18,1.93,12.47,8.47,12.47,16.26Z"/>
</svg>