<?xml version="1.0" encoding="UTF-8"?>
<svg id="Layer_1" xmlns="http://www.w3.org/2000/svg" version="1.1" viewBox="0 0 128 128">
  <!-- Generator: Adobe Illustrator 30.0.0, SVG Export Plug-In . SVG Version: 2.1.1 Build 123)  -->
  <path d="M107.31,54.71c-5.71-4.88-17.25-8.75-22.78-10.41v-4.86c2.5-2.03,6.6-6.14,6.6-11.28,0-6.67-5.05-10.91-13.26-11.28l1.57-9.8c.29-1.83-1.12-3.48-2.98-3.48h-24.94c-1.86,0-3.27,1.66-2.98,3.48l1.57,9.79c-4.22.21-13.26,1.78-13.26,11.28,0,5.15,4.11,9.26,6.6,11.28v4.86c-5.53,1.66-17.07,5.53-22.78,10.41-9.2,7.86-2.78,26.27,1.87,36.54,5.35,11.81,17.21,23.32,31.73,30.8,3.04,1.56,6.37,2.35,9.71,2.35s6.67-.78,9.71-2.35c14.52-7.47,26.38-18.98,31.73-30.8,4.65-10.27,11.08-28.68,1.87-36.54ZM98.25,88.02c-4.57,10.1-15.36,20.46-28.16,27.05-3.81,1.96-8.37,1.96-12.18,0-12.8-6.59-23.59-16.95-28.16-27.04-5.99-13.24-7.57-24.23-3.93-27.34,4.98-4.25,18.01-8.39,22.62-9.62l2.92-.78v-14.93s-1.79-1.16-1.79-1.16c-1.94-1.27-4.82-4.07-4.82-6.02,0-1.03,0-3.46,6.53-3.46h25.44c6.53,0,6.53,2.6,6.53,3.46,0,1.95-2.87,4.75-4.81,6.01l-1.8,1.16v14.94l2.92.78c4.6,1.23,17.62,5.36,22.61,9.62,3.65,3.11,2.07,14.1-3.93,27.34ZM79.58,80.65c-9.53-.48-14.91-5.94-24.79-12.04-9.88-6.1-19.93-.96-19.93-.96-.35,32.91,29.3,41.25,29.3,41.25,25.83-5.94,27.39-30.66,27.39-30.66,0,0-2.43,2.89-11.96,2.41Z"/>
</svg>