<?xml version="1.0" encoding="UTF-8"?>
<svg id="Layer_1" xmlns="http://www.w3.org/2000/svg" version="1.1" viewBox="0 0 128 128">
  <!-- Generator: Adobe Illustrator 30.0.0, SVG Export Plug-In . SVG Version: 2.1.1 Build 123)  -->
  <path d="M86.16,82.91c-.8.69-3.14,2.15-8.84,2.37-7.49.29-12.08-3.63-20.23-7.73-3.76-1.89-7.38-1.9-10.2-1.36l-19.82,26.39c-2.09,2.78-.11,6.76,3.35,6.76h67.16c3.47,0,5.44-3.98,3.35-6.76l-14.77-19.67ZM115.79,94.82l-31.31-41.68v-12.61c2.49-2.03,6.58-6.15,6.58-11.3,0-6.68-5.04-10.93-13.22-11.3l1.57-9.82c.29-1.83-1.12-3.49-2.97-3.49h-24.87c-1.85,0-3.26,1.66-2.97,3.49l1.57,9.81c-4.21.21-13.22,1.78-13.22,11.3,0,5.15,4.09,9.27,6.58,11.3v12.61l-31.31,41.68c-4.08,5.43-4.74,12.59-1.72,18.68,3.02,6.09,9.11,9.87,15.88,9.87h75.25c6.78,0,12.86-3.78,15.88-9.87,3.02-6.09,2.36-13.25-1.72-18.68ZM110.46,109.97c-1.71,3.44-5.01,5.49-8.84,5.49H26.38c-3.83,0-7.13-2.05-8.84-5.49-1.71-3.44-1.35-7.33.96-10.39l32.88-43.77v-19.39s-1.77-1.17-1.77-1.17c-1.94-1.28-4.8-4.08-4.8-6.03,0-1.04,0-3.46,6.51-3.46h25.38c6.51,0,6.51,2.6,6.51,3.46,0,1.95-2.87,4.75-4.79,6.02l-1.79,1.16v19.39l32.89,43.78c2.3,3.07,2.66,6.95.95,10.39Z"/>
</svg>