<?xml version="1.0" encoding="UTF-8"?>
<svg id="Layer_1" xmlns="http://www.w3.org/2000/svg" version="1.1" viewBox="0 0 128 128">
  <!-- Generator: Adobe Illustrator 30.0.0, SVG Export Plug-In . SVG Version: 2.1.1 Build 123)  -->
  <path d="M84.58,41.86v-4.75c2.5-2.02,6.62-4.23,6.62-9.37,0-6.66-5.06-10.9-13.29-11.27l1.58-9.79c.29-1.83-1.13-3.48-2.99-3.48h-25c-1.86,0-3.28,1.65-2.99,3.48l1.58,9.78c-4.23.21-13.29,1.78-13.29,11.27,0,5.14,4.12,7.35,6.62,9.37v4.75c-14.01,7.39-23.59,22.06-23.59,38.93,0,24.27,19.82,44.01,44.17,44.01s44.17-19.74,44.17-44.01c0-16.87-9.58-31.54-23.59-38.93ZM64,116.91c-19.99,0-36.26-16.21-36.26-36.13,0-15.47,9.82-28.7,23.57-33.83v-12.04s-1.78-1.16-1.78-1.16c-1.95-1.27-4.83-4.07-4.83-6.02,0-1.03,0-3.45,6.54-3.45h25.51c6.54,0,6.54,2.6,6.54,3.45,0,1.95-2.88,4.74-4.82,6.01l-1.8,1.16v12.05c13.76,5.13,23.58,18.36,23.58,33.84,0,19.92-16.27,36.13-36.26,36.13ZM93.46,78.18c-1.51.98-4.72,2.34-11,2.58-9.94.38-16.03-4.77-26.85-10.18-8.41-4.2-16.29-1.37-19.4.1-1.15,3.15-1.78,6.55-1.78,10.1,0,16.28,13.24,29.47,29.58,29.47s29.58-13.19,29.58-29.47c0-.88-.05-1.74-.12-2.6Z"/>
</svg>