<?xml version="1.0" encoding="UTF-8"?>
<svg id="Layer_1" xmlns="http://www.w3.org/2000/svg" version="1.1" viewBox="0 0 128 128">
  <!-- Generator: Adobe Illustrator 30.0.0, SVG Export Plug-In . SVG Version: 2.1.1 Build 123)  -->
  <path d="M116.78,82.53c-5.85-12.85-26.73-5.49-27.34-5.01-3.3-2.82-10.39-7.43-21.54-7.43-.59,0-1.19.01-1.79.04-8.95.39-15.38,3.7-19.49,6.79,1.03-14.26,1.01-25.65.88-31.69l4.87,2.43.83.41.91-.17c15.99-2.98,23.87-15.17,24.2-15.68l.76-1.21-.54-1.32c-4.5-11.11-12.42-19.11-12.76-19.45l-1.08-1.08-1.49.33c-14.52,3.27-31.1,11.65-31.79,12.01l-.77.39-.41.77c-.45.84-11.13,20.86-17.4,43.29-6.37,22.79-2.78,40.32-2.62,41.05l.24,1.14.99.62c13.11,8.3,32.03,10.04,45.59,10.04,19.54,0,38.49-3.39,46.46-5.89,11.3-3.55,19.58-16.63,13.3-30.4Z"/>
</svg>