<?xml version="1.0" encoding="UTF-8"?>
<svg id="Layer_1" xmlns="http://www.w3.org/2000/svg" version="1.1" viewBox="0 0 128 128">
  <!-- Generator: Adobe Illustrator 30.0.0, SVG Export Plug-In . SVG Version: 2.1.1 Build 123)  -->
  <defs>
    <style>
      .st0 {
        fill-rule: evenodd;
      }
    </style>
  </defs>
  <path class="st0" d="M107.09,65.33l-15.25-11.18-17.1,17.17,4.1,50.13c.11,1.38-.97,2.57-2.36,2.57h-24.11c-1.38,0-2.47-1.19-2.36-2.57l4.1-50.13-17.46-17.53-15.74,11.54c-1.27.93-3.05.02-3.05-1.56v-29.43c0-1.58,1.78-2.48,3.05-1.56l15.74,11.54,22.36-22.45-10.79-14.83c-.93-1.27-.02-3.06,1.55-3.06h29.31c1.57,0,2.47,1.79,1.55,3.06l-10.79,14.83,22,22.09,15.25-11.18c1.27-.93,3.05-.02,3.05,1.56v29.43c0,1.58-1.78,2.48-3.05,1.56ZM64.43,37.52l-11.5,11.55,11.5,11.55,11.5-11.55-11.5-11.55Z"/>
</svg>