<?xml version="1.0" encoding="UTF-8"?>
<svg id="Layer_1" xmlns="http://www.w3.org/2000/svg" version="1.1" viewBox="0 0 128 128">
  <!-- Generator: Adobe Illustrator 30.0.0, SVG Export Plug-In . SVG Version: 2.1.1 Build 123)  -->
  <defs>
    <style>
      .st0 {
        fill-rule: evenodd;
      }
    </style>
  </defs>
  <path class="st0" d="M83.28,106.42c-4.97,4.2-11.4,6.64-19.38,6.64s-14.35-2.42-19.3-6.57c-13.2,5.03-38.72-12.95-34.34-40.89,4.25-27.08,17.12-34.76,29.36-37.14,9.2-1.78,13.53,1.02,15.12,2.52,2.91-1.11,5.98-1.71,9.17-1.71s6.4.63,9.37,1.79c1.52-1.48,5.83-4.41,15.19-2.6,12.24,2.38,25.56,9.99,29.36,37.14,3.97,28.37-21.41,46.11-34.54,40.81ZM53.84,65.28c-1.76-6.76-4.89-12.94-6.88-16-.79-1.22-3.17-1.18-4.34.05-5.16,5.42-9.15,10.78-10.89,13.75-.66,1.12-.19,2.58,1,3.1,7.45,3.25,13.95,3.68,17.9,3.51,2.23-.09,3.78-2.25,3.22-4.41ZM96.58,63.08c-1.74-2.97-5.73-8.33-10.89-13.75-1.17-1.23-3.55-1.27-4.34-.05-2,3.06-5.13,9.25-6.88,16-.56,2.16.99,4.32,3.22,4.41,3.95.17,10.45-.26,17.9-3.51,1.19-.52,1.66-1.98,1-3.1ZM96.38,75.27c-2.15,1-6.72,2.72-14.91,4.21l.51,4.05c.08.61-.33,1.18-.93,1.31l-6.94,1.45c-.57.12-1.14-.2-1.35-.74l-1.73-4.58c-2.21.24-4.59.46-7.14.65-2.36-.17-4.57-.37-6.64-.59l-1.71,4.52c-.21.55-.78.86-1.35.74l-6.94-1.45c-.6-.13-1.01-.69-.93-1.31l.5-3.96c-8.52-1.51-13.22-3.28-15.42-4.3-.74-.34-1.59.22-1.53,1.03,1.52,19.42,30.29,22.01,34.01,22.07,3.72-.06,32.49-2.65,34.01-22.07.06-.81-.79-1.37-1.53-1.03ZM63.73,25.17c-2.39,0-4.73.22-7.02.63-.64-2.14-1.3-4.47-1.48-5.73-.39-2.68,1.65-4.25,4.03-4.79,2.38-.54,8.88-.38,10.63,0,1.75.38,3.34,1.76,3.3,4.05-.02,1.14-.57,4.07-1.11,6.73-2.7-.58-5.49-.9-8.35-.9Z"/>
</svg>