<?xml version="1.0" encoding="UTF-8"?>
<svg id="Layer_1" xmlns="http://www.w3.org/2000/svg" version="1.1" viewBox="0 0 128 128">
  <!-- Generator: Adobe Illustrator 30.0.0, SVG Export Plug-In . SVG Version: 2.1.1 Build 123)  -->
  <path d="M64,12.26c-28.72,0-52,23.16-52,51.74s23.28,51.74,52,51.74,52-23.16,52-51.74S92.72,12.26,64,12.26ZM62.98,104.67c-5.88,0-10.65-4.74-10.65-10.6s4.77-10.6,10.65-10.6,10.65,4.74,10.65,10.6-4.77,10.6-10.65,10.6ZM71.97,67.51l-.78.17-.11,10.7c0,.5-.36.6-.66.6h-14.76c-.55,0-.66-.22-.66-.6l-.31-19.24c0-.5.22-.6.55-.6h3.12c9.64,0,14.53-3.52,14.53-10.45,0-5.13-3.58-8.44-9.12-8.44-4.41,0-7.7,2.01-9.79,5.98-.51.64-.79.64-1.11.57l-14.37-3.29c-.66-.21-.56-.53-.51-.7,4.11-10.79,14.1-17.23,26.71-17.23,15.19,0,25.4,8.48,25.4,21.09,0,10.7-6.95,18.91-18.13,21.42Z"/>
</svg>