<?xml version="1.0" encoding="UTF-8"?>
<svg id="Layer_1" xmlns="http://www.w3.org/2000/svg" version="1.1" viewBox="0 0 128 128">
  <!-- Generator: Adobe Illustrator 30.0.0, SVG Export Plug-In . SVG Version: 2.1.1 Build 123)  -->
  <defs>
    <style>
      .st0 {
        fill-rule: evenodd;
      }
    </style>
  </defs>
  <path class="st0" d="M57.61,58.65l-12.77-14.3c4.41-4.37,10.48-7.08,17.19-7.08,9.15,0,17.12,5.04,21.32,12.48l24.21-4.95c-7.55-15.7-23.61-26.54-42.2-26.54-12.52,0-23.88,4.92-32.27,12.93l-12.22-13.69c-.55-.62-1.57-.34-1.73.48l-8.64,44.7c-.13.65.4,1.24,1.06,1.19l45.39-3.54c.82-.06,1.22-1.05.67-1.66ZM116.44,64.15l-45.39,3.54c-.83.06-1.22,1.05-.67,1.66l12.77,14.3c-4.41,4.37-10.48,7.08-17.19,7.08-9.15,0-17.12-5.04-21.32-12.48l-24.21,4.95c7.55,15.7,23.61,26.54,42.2,26.54,12.52,0,23.88-4.92,32.27-12.93l12.22,13.69c.55.62,1.57.34,1.73-.48l8.64-44.7c.13-.65-.4-1.24-1.06-1.19Z"/>
</svg>