<?xml version="1.0" encoding="UTF-8"?>
<svg id="Layer_1" xmlns="http://www.w3.org/2000/svg" version="1.1" viewBox="0 0 128 128">
  <!-- Generator: Adobe Illustrator 30.0.0, SVG Export Plug-In . SVG Version: 2.1.1 Build 123)  -->
  <defs>
    <style>
      .st0 {
        fill-rule: evenodd;
      }
    </style>
  </defs>
  <path class="st0" d="M57.66,67.26c-13.28,10.12-21.33,11.55-27,13l-4.24,10.7c-3.24,4.88-1.1,11.43,4.43,13.59l11.19,4.37c5.53,2.16,11.7-1.17,12.77-6.89l6.85-34.83c-.21-.02-3.78.09-4,.07ZM51.49,63.97c-5.68-3.6-9.22-9.92-9.22-17.86s3.34-13.88,8.72-17.52c-19-11.68-26.02-10.08-26.02-10.08-9.61,0-17.4,12.61-17.4,28.17s7.79,28.17,17.4,28.17c0,0,10.1-.13,26.51-10.88ZM79.21,46.24c0-9.3-6.57-15.59-15.58-15.59s-15.58,6.28-15.58,15.59,6.57,15.59,15.58,15.59,15.58-6.28,15.58-15.59ZM103.02,18.5s-7.16-1.64-26.6,10.43c5.09,3.69,8.24,9.7,8.24,17.18s-3.33,13.86-8.7,17.51c16.74,11.1,27.06,11.24,27.06,11.24,9.62,0,17.41-12.61,17.41-28.17s-7.8-28.17-17.41-28.17ZM98.87,80.21c-5.71-1.43-13.82-2.86-27.18-12.89-.21.02-3.81-.09-4.02-.07l6.89,34.53c1.08,5.67,7.29,8.97,12.86,6.83l11.27-4.33c5.57-2.14,7.71-8.64,4.46-13.47l-4.27-10.6Z"/>
</svg>