<?xml version="1.0" encoding="UTF-8"?>
<svg id="Layer_1" xmlns="http://www.w3.org/2000/svg" version="1.1" viewBox="0 0 128 128">
  <!-- Generator: Adobe Illustrator 30.0.0, SVG Export Plug-In . SVG Version: 2.1.1 Build 123)  -->
  <defs>
    <style>
      .st0 {
        fill-rule: evenodd;
      }
    </style>
  </defs>
  <path class="st0" d="M64,112.6c-27.55,0-49.88-20.04-49.88-44.76,0-15.17,8.43-28.55,21.29-36.65-.15,1.12-.34,2.23-.34,3.4,0,14.56,11.81,26.37,26.37,26.37s26.37-11.81,26.37-26.37c0-2.25-.37-4.4-.9-6.48,16.01,7.45,26.96,22.43,26.96,39.73,0,24.72-22.33,44.76-49.88,44.76ZM64,62.77c-18.36,0-33.24,7-33.24,15.65s14.88,15.64,33.24,15.64,33.24-7,33.24-15.64-14.88-15.65-33.24-15.65ZM61.44,53.77c-10.59,0-19.18-8.59-19.18-19.18s8.59-19.18,19.18-19.18,19.18,8.59,19.18,19.18-8.59,19.18-19.18,19.18Z"/>
</svg>