<?xml version="1.0" encoding="UTF-8"?>
<svg id="Layer_1" xmlns="http://www.w3.org/2000/svg" version="1.1" viewBox="0 0 128 128">
  <!-- Generator: Adobe Illustrator 30.0.0, SVG Export Plug-In . SVG Version: 2.1.1 Build 123)  -->
  <defs>
    <style>
      .st0 {
        fill-rule: evenodd;
      }
    </style>
  </defs>
  <path class="st0" d="M109.96,105.04h-3.77v5.66c0,1.34-1.09,2.43-2.45,2.43h-12.44c-.94,0-1.8-.54-2.21-1.38l-3.23-6.71h-43.74l-3.23,6.71c-.41.84-1.26,1.38-2.21,1.38h-12.44c-1.35,0-2.45-1.09-2.45-2.43v-5.66h-3.77c-3.96,0-7.17-3.19-7.17-7.13V21.99c0-3.94,3.21-7.13,7.17-7.13h91.93c3.96,0,7.17,3.19,7.17,7.13v75.92c0,3.94-3.21,7.13-7.17,7.13ZM101.61,31.63c0-1.76-1.44-3.19-3.21-3.19H29.6c-1.77,0-3.21,1.43-3.21,3.19v2.5h-6.5v13.26h6.5v24.93h-6.5v13.26h6.5v2.68c0,1.76,1.44,3.19,3.21,3.19h68.81c1.77,0,3.21-1.43,3.21-3.19V31.63ZM32.2,34.23h63.6v51.45h-63.6v-51.45ZM47.53,60.5c0,1.1.9,2,2,2h4.26c.93,4.41,4.35,7.9,8.74,8.91v4.09c0,1.1.9,2,2,2h1c1.1,0,2-.9,2-2v-4.04c4.49-.94,8.01-4.48,8.95-8.96h4.05c1.1,0,2-.9,2-2v-1c0-1.1-.9-2-2-2h-4.1c-1.01-4.38-4.49-7.81-8.9-8.74v-4.26c0-1.1-.9-2-2-2h-1c-1.1,0-2,.9-2,2v4.32c-4.31.99-7.69,4.38-8.69,8.68h-4.31c-1.1,0-2,.9-2,2v1Z"/>
</svg>