<?xml version="1.0" encoding="UTF-8"?>
<svg id="Layer_1" xmlns="http://www.w3.org/2000/svg" version="1.1" viewBox="0 0 128 128">
  <!-- Generator: Adobe Illustrator 30.0.0, SVG Export Plug-In . SVG Version: 2.1.1 Build 123)  -->
  <defs>
    <style>
      .st0 {
        fill-rule: evenodd;
      }
    </style>
  </defs>
  <path class="st0" d="M96.59,93.65v7.99h7.95c1.11,0,2,.9,2,2v8.67c0,1.1-.9,2-2,2H23.46c-1.11,0-2-.9-2-2v-8.67c0-1.1.9-2,2-2h7.95v-7.99c0-8.52,6.33-19.28,21.59-29.65-15.26-10.37-21.59-21.13-21.59-29.65v-7.99h-7.95c-1.11,0-2-.9-2-2v-8.67c0-1.1.9-2,2-2h81.08c1.11,0,2,.9,2,2v8.67c0,1.1-.9,2-2,2h-7.95v7.99c0,8.52-6.33,19.28-21.59,29.65,15.26,10.37,21.59,21.13,21.59,29.65ZM86.5,41.07c.37-2.03.57-6.25.67-9.63h-46.33c.1,3.37.29,7.6.67,9.63,1.11,6.02,8.65,12.76,14.13,16.22,4.05,2.55,8.36,3.65,8.36,3.65,0,0,4.31-1.09,8.36-3.65,5.48-3.45,13.02-10.2,14.13-16.22ZM72.36,89.85c-4.05-1.98-8.36-2.83-8.36-2.83,0,0-4.31.85-8.36,2.83-5.17,2.53-12.17,7.33-13.88,11.79h44.48c-1.71-4.46-8.71-9.26-13.88-11.79Z"/>
</svg>