<?xml version="1.0" encoding="UTF-8"?>
<svg id="Layer_1" xmlns="http://www.w3.org/2000/svg" version="1.1" viewBox="0 0 128 128">
  <!-- Generator: Adobe Illustrator 30.0.0, SVG Export Plug-In . SVG Version: 2.1.1 Build 123)  -->
  <path d="M73.68,96.17l-43.55-26.6c-1.27-.78-2.93-.21-3.46,1.18l-12.18,32.02c-.41,1.09.02,2.31,1.03,2.9l34.53,20.08c1,.58,2.28.36,3.02-.54l21.2-25.5c.93-1.11.65-2.79-.59-3.55ZM58.25,98.57l-7.65,11.15c-.3.43-.88.57-1.34.32l-22.88-12.55c-.47-.26-.66-.82-.45-1.31l5.37-12.21c.24-.55.9-.77,1.43-.49l25.16,13.61c.54.29.7.98.36,1.48ZM113.46,22.6l-5.67-9.89-23.68-10.64c-.71-.32-1.54-.1-2,.53l-46.1,62.94c-.59.8-.33,1.94.55,2.41l34.74,18.63,11.21-3.33c.89-.26,1.34-1.25.95-2.1l-4.79-10.45,11.03-2.82c.91-.23,1.4-1.22,1.02-2.08l-4.23-9.74,11.26-1.83c.98-.16,1.55-1.19,1.16-2.11l-4.96-11.56,11.71-.49c1.09-.05,1.78-1.18,1.32-2.17l-5.66-12.14,10.93-.89c1.11-.09,1.75-1.31,1.2-2.28Z"/>
</svg>