<?xml version="1.0" encoding="UTF-8"?>
<svg id="Layer_1" xmlns="http://www.w3.org/2000/svg" version="1.1" viewBox="0 0 128 128">
  <!-- Generator: Adobe Illustrator 30.0.0, SVG Export Plug-In . SVG Version: 2.1.1 Build 123)  -->
  <defs>
    <style>
      .st0 {
        fill-rule: evenodd;
      }
    </style>
  </defs>
  <path class="st0" d="M111.74,116.22c-1.89,0-3.42-1.53-3.42-3.42v-17.24c0-1.89,1.53-3.42,3.42-3.42s3.42,1.53,3.42,3.42v17.24c0,1.89-1.53,3.42-3.42,3.42ZM111.74,35.86c-1.89,0-3.42-1.53-3.42-3.42V15.2c0-1.89,1.53-3.42,3.42-3.42s3.42,1.53,3.42,3.42v17.24c0,1.89-1.53,3.42-3.42,3.42ZM104.43,111.34H23.08c-.54,0-.97-.43-.97-.97v-12.37c0-.54.43-.97.97-.97h81.34c.54,0,.97.43.97.97v12.37c0,.54-.43.97-.97.97ZM100.04,35.45c.54,0,.97.43.97.97v55.16c0,.54-.43.97-.97.97H27.48c-.54,0-.97-.43-.97-.97v-55.16c0-.54.43-.97.97-.97h72.56ZM104.43,30.98H23.08c-.54,0-.97-.43-.97-.97v-12.37c0-.54.43-.97.97-.97h81.34c.54,0,.97.43.97.97v12.37c0,.54-.43.97-.97.97ZM16.26,116.22c-1.89,0-3.42-1.53-3.42-3.42v-17.24c0-1.89,1.53-3.42,3.42-3.42s3.42,1.53,3.42,3.42v17.24c0,1.89-1.53,3.42-3.42,3.42ZM16.26,35.86c-1.89,0-3.42-1.53-3.42-3.42V15.2c0-1.89,1.53-3.42,3.42-3.42s3.42,1.53,3.42,3.42v17.24c0,1.89-1.53,3.42-3.42,3.42Z"/>
</svg>