<?xml version="1.0" encoding="UTF-8"?>
<svg id="Layer_1" xmlns="http://www.w3.org/2000/svg" version="1.1" viewBox="0 0 128 128">
  <!-- Generator: Adobe Illustrator 30.0.0, SVG Export Plug-In . SVG Version: 2.1.1 Build 123)  -->
  <defs>
    <style>
      .st0 {
        fill-rule: evenodd;
      }
    </style>
  </defs>
  <path class="st0" d="M107.5,28.18c-1.12,6.62-4.7,9.15-7.46,10.11-4.49-15.5.81-18.02,1.03-18.11.97-.32,1.52-1.36,1.22-2.34-.3-1-1.36-1.57-2.37-1.27-.24.07-2.38.78-3.91,3.63-2.34,4.35-2.1,11.17.7,20.28.01.04.04.07.06.11.54,4.76,2.21,14.76,3.7,20.64.62,2.44,6.19,22.36,6.18,35.31,0,9.33-2.99,13.78-6.06,15.9-.79-.11-9.4-1.52-10.72-11.36-1.09-8.21,2.57-11.7,2.71-11.83.59-.52.8-1.35.52-2.09-.28-.74-.99-1.22-1.78-1.22H31.81c.74-6.56-1.3-17.41-3.65-24.36-2.6-7.67-7.91-21.49-8.03-31.25-.12-9.76,7.48-15.43,7.48-15.43,0,0,19.09.6,33.55.14,14.46-.46,42.96-1.42,42.96-1.42,0,0,5.18,3.89,3.38,14.54ZM26.69,89.74h61.02c-1.23,2.46-2.34,6.35-1.61,11.85.9,6.78,4.73,10.7,8.48,12.76-.34,0-.54-.02-.54-.02-21.26-3.72-66.5-1.51-66.5-1.51,0,0-6.06-3.14-6.18-13.24-.06-5.25,2.68-8.2,5.33-9.84Z"/>
</svg>