<?xml version="1.0" encoding="UTF-8"?>
<svg id="Layer_1" xmlns="http://www.w3.org/2000/svg" version="1.1" viewBox="0 0 128 128">
  <!-- Generator: Adobe Illustrator 30.0.0, SVG Export Plug-In . SVG Version: 2.1.1 Build 123)  -->
  <defs>
    <style>
      .st0 {
        fill-rule: evenodd;
      }
    </style>
  </defs>
  <path class="st0" d="M125.35,89.73c-3.95,11.18-12.42,20.24-22.11,23.63-3.15,1.1-5.85,1.65-8.1,1.65-1.96,0-3.56-.42-4.81-1.26-.74-.5-1.32-1.14-1.73-1.88-2.33-3.04-13.58-17.41-25.25-27.78v-2.16c-.02-.66.07-16.17,16.6-22.91l3.16-1.29c16.25,7.9,28.99,13.33,39.33,16.29h0c-.51-.16-1.07-.26-1.66-.32,1.37.32,2.56.9,3.52,1.8,2.94,2.76,3.32,7.82,1.05,14.23ZM121.71,78.26c-1.69-1.59-5.22-1.41-9.67.5-7.96,3.4-14.39,13.16-16.89,17.39l-13.75-2.95,10.14,10.14v.15s-.1,1.68.09,5.49c.05,1.01.49,1.41.81,1.63.58.39,2.96,1.47,9.54-.83,6.76-2.37,15.52-9.21,19.79-21.32,1.71-4.84,1.68-8.56-.07-10.21ZM102.07,102.48l-3.33-4c1.96-9.11,11.02-13.27,11.02-13.27l7.56,2.21c-11.26,2.19-15.26,15.06-15.26,15.06ZM59.26,81.05l-11.23-7.12s-1.21-3.69,2.53-13.52c3.74-9.83,15.66-12.4,15.66-12.4,3.31,3.16,11.95,7.2,11.95,7.2-18.35,7.49-18.91,25.85-18.91,25.85ZM46.89,58.96c-2.16,5.68-2.9,9.68-3.07,12.38-13.54-6.91-27.56-12.29-39.43-12.38,0,0-6.41-15.56-1.09-27.86,1.93-4.46,4.98-8.2,8.65-11.11l13.05,3.69-4.86-8.43c4.62-1.84,9.58-2.61,14.25-2.1,0,0,8.76,19.5,26.21,32.33-4.62,2.07-10.9,6.11-13.7,13.48ZM22.35,93.52c15.68-5.75,21.01-12.84,22.75-16.23l11.28,7.14c-8.59,18.78-22.19,20.14-22.19,20.14,1.68-3.29,1.64-8.81,1.64-8.81-7.97.57-13.48-2.24-13.48-2.24Z"/>
</svg>