<?xml version="1.0" encoding="UTF-8"?>
<svg id="Layer_1" xmlns="http://www.w3.org/2000/svg" version="1.1" viewBox="0 0 128 128">
  <!-- Generator: Adobe Illustrator 30.0.0, SVG Export Plug-In . SVG Version: 2.1.1 Build 123)  -->
  <defs>
    <style>
      .st0 {
        fill-rule: evenodd;
      }
    </style>
  </defs>
  <path class="st0" d="M115.87,29.62c4.22,8.66,2.73,19.38-4.51,26.57-6.72,6.68-16.5,8.43-24.85,5.29l-50.54,50.23c-3.75,3.73-9.84,3.73-13.59,0-3.75-3.73-3.75-9.77,0-13.5l50.54-50.23c-3.16-8.29-1.39-18.01,5.33-24.69,7.24-7.19,18.03-8.67,26.75-4.48l-16.19,16.08,10.88,10.8,16.19-16.08ZM30.86,42.33l.05-.05-11.21-2.85-9.91-16.06,9.95-9.89,16.17,9.84,2.86,11.14.05-.05,19.11,18.99-7.97,7.92-19.11-18.99ZM106.49,93.1c4.9,4.9,4.9,12.84,0,17.74-4.9,4.9-12.85,4.9-17.75,0l-21.57-21.56,17.75-17.74,21.57,21.56Z"/>
</svg>