<?xml version="1.0" encoding="UTF-8"?>
<svg id="Layer_1" xmlns="http://www.w3.org/2000/svg" version="1.1" viewBox="0 0 128 128">
  <!-- Generator: Adobe Illustrator 30.0.0, SVG Export Plug-In . SVG Version: 2.1.1 Build 123)  -->
  <path d="M72.2,50.27c1.35,13.47-3.27,22.82-5.25,26.12-.32.53.12,1.19.74,1.11l42.47-5.54c.37-.05.64-.35.65-.72.09-5.42-.93-43.93-47.22-50.59-.65-.09-1.1.65-.7,1.17,2.38,3.17,7.65,11.88,9.32,28.44ZM30.14,77.01c11.73-2.6,22.85-.57,26.02.12.47.1.9-.25.9-.72v-42.39c0-.66-.81-1-1.27-.53-13.85,13.98-24.08,36.81-26.51,42.53-.24.56.26,1.13.85,1ZM31.84,20.72l24.04,7.49c.71.22,1.43-.31,1.43-1.04v-14.99c0-.74-.72-1.27-1.43-1.04l-24.04,7.49c-1.03.32-1.03,1.77,0,2.09ZM111.27,83.6l-94.55.34c-1.62,0-2.68,1.69-1.98,3.14l13.88,28.59c.37.76,1.14,1.24,1.98,1.24h64.13c.79,0,1.52-.42,1.92-1.11l16.54-28.93c.84-1.46-.23-3.28-1.92-3.27Z"/>
</svg>