<?xml version="1.0" encoding="UTF-8"?>
<svg id="Layer_1" xmlns="http://www.w3.org/2000/svg" version="1.1" viewBox="0 0 128 128">
  <!-- Generator: Adobe Illustrator 30.0.0, SVG Export Plug-In . SVG Version: 2.1.1 Build 123)  -->
  <defs>
    <style>
      .st0 {
        fill-rule: evenodd;
      }
    </style>
  </defs>
  <path class="st0" d="M105.87,118.28H22.13c-5.76,0-10.27-4.98-9.68-10.7l6.64-65.41c.13-1.24,1.17-2.18,2.42-2.18h15.28v9.58c-.95,1.44-1.51,3.17-1.51,5.03,0,5.07,4.12,9.18,9.19,9.18s9.19-4.11,9.19-9.18c0-1.86-.56-3.58-1.51-5.03v-9.58h23.68v9.58c-.95,1.44-1.51,3.17-1.51,5.03,0,5.07,4.12,9.18,9.19,9.18s9.19-4.11,9.19-9.18c0-1.86-.56-3.58-1.51-5.03v-9.58h15.28c1.25,0,2.29.94,2.42,2.18l6.64,65.41c.58,5.73-3.92,10.7-9.69,10.7ZM83.53,57.39c-1.89,0-3.42-1.53-3.42-3.41v-21.34c0-8.87-7.23-16.09-16.11-16.09s-16.11,7.22-16.11,16.09v21.34c0,1.88-1.53,3.41-3.42,3.41s-3.42-1.53-3.42-3.41v-21.34c0-12.64,10.29-22.91,22.94-22.91s22.94,10.28,22.94,22.91v21.34c0,1.88-1.53,3.41-3.42,3.41Z"/>
</svg>