<?xml version="1.0" encoding="UTF-8"?>
<svg id="Layer_1" xmlns="http://www.w3.org/2000/svg" version="1.1" viewBox="0 0 128 128">
  <!-- Generator: Adobe Illustrator 30.0.0, SVG Export Plug-In . SVG Version: 2.1.1 Build 123)  -->
  <defs>
    <style>
      .st0 {
        fill-rule: evenodd;
      }
    </style>
  </defs>
  <path class="st0" d="M92.29,101.38c.04.58.07,1.17.07,1.77,0,8.12-4.19,14.7-9.35,14.7-4.17,0-7.7-4.3-8.91-10.24-.3.05-.61.09-.92.14-1.23,5.86-4.73,10.1-8.87,10.1s-7.6-4.19-8.85-10c-.38-.05-.75-.1-1.13-.16-1.22,5.9-4.73,10.16-8.89,10.16-5.16,0-9.35-6.58-9.35-14.7,0-.52.02-1.03.05-1.54-16.04-8.57-26.81-24.3-26.81-42.31,0-27.15,24.46-49.17,54.64-49.17s54.64,22.01,54.64,49.17c0,17.83-10.55,33.45-26.35,42.07ZM53.87,57.15c-2.51-2.04-6.55-3.86-13.04-4.08-5.93-.2-9.82,1.14-12.36,2.86-3.44,2.34-4.95,6.82-3.84,10.96,1.47,5.45,5.37,14.12,15.46,15.12.63.06,1.27.05,1.89-.02,3.15-.38,11.84-2.51,15.04-14.48,1.01-3.79-.18-7.95-3.15-10.36ZM65.98,78.64c-1.02-.62-2.3-.62-3.33,0-1.95,1.18-5.11,3.67-6.57,8.08-.46,1.38.63,2.79,2.06,2.65l6.17-.6,6.17.6c1.43.14,2.52-1.27,2.06-2.65-1.47-4.41-4.62-6.9-6.57-8.08ZM100.08,55.93c-2.54-1.73-6.43-3.06-12.36-2.86-6.07.2-10,1.81-12.53,3.69-3.43,2.54-4.72,7.1-3.5,11.31,3.32,11.49,11.79,13.55,14.88,13.92.63.08,1.27.08,1.89.02,10.09-1,13.99-9.67,15.46-15.12,1.11-4.14-.39-8.62-3.84-10.96Z"/>
</svg>