<?xml version="1.0" encoding="UTF-8"?>
<svg id="Layer_1" xmlns="http://www.w3.org/2000/svg" version="1.1" viewBox="0 0 128 128">
  <!-- Generator: Adobe Illustrator 30.0.0, SVG Export Plug-In . SVG Version: 2.1.1 Build 123)  -->
  <defs>
    <style>
      .st0 {
        fill-rule: evenodd;
      }
    </style>
  </defs>
  <path class="st0" d="M101.68,89.87c1.35,5.62,2.93,13.75,1.71,16.74-1.95,4.74-12.77,4.35-16.08,1.61-3.31-2.74-6.11-10.53-6.43-17.68,0,0-4.56-1.19-4.82,1.61-.26,2.79.57,15.14,0,17.68-.57,2.54-6.03,4.82-11.25,4.82-.35,0-.67-.15-.95-.41-.28.26-.59.41-.94.41-5.13,0-10.49-2.28-11.04-4.82-.56-2.54.26-14.89,0-17.68-.26-2.79-4.73-1.61-4.73-1.61-.32,7.15-3.07,14.94-6.31,17.68-3.24,2.74-13.86,3.14-15.77-1.61-1.19-2.95.32-10.92,1.63-16.53-12.1-6.65-19.76-16.97-19.76-30.09,0-23.97,20.51-46.62,57.08-46.62s57.08,22.65,57.08,46.62c0,12.99-7.5,23.23-19.39,29.89ZM60.01,54.83c-2.93-10.54-12.27-17.14-20.87-14.75-8.59,2.39-13.18,12.87-10.25,23.41,2.93,10.54,12.27,17.14,20.87,14.75,8.59-2.39,13.18-12.87,10.25-23.41ZM90.86,40.08c-8.59-2.39-17.94,4.22-20.87,14.75-2.93,10.54,1.66,21.02,10.25,23.41,8.59,2.39,17.93-4.22,20.87-14.75,2.93-10.54-1.66-21.02-10.25-23.41Z"/>
</svg>