<?xml version="1.0" encoding="UTF-8"?>
<svg id="Layer_1" xmlns="http://www.w3.org/2000/svg" version="1.1" viewBox="0 0 128 128">
  <!-- Generator: Adobe Illustrator 30.0.0, SVG Export Plug-In . SVG Version: 2.1.1 Build 123)  -->
  <defs>
    <style>
      .st0 {
        fill-rule: evenodd;
      }
    </style>
  </defs>
  <path class="st0" d="M88.09,96.85l1.06,13.98c.2,2.7-1.94,5.01-4.65,5.01h-9.04l-.61-14.4c-.06-1.39-1.24-2.47-2.63-2.41l-.51.02c-1.39.06-2.48,1.24-2.42,2.63l.6,14.17h-11.87l.6-14.17c.06-1.39-1.02-2.57-2.42-2.63l-.51-.02c-1.39-.06-2.57,1.02-2.63,2.41l-.61,14.4h-8.95c-2.71,0-4.85-2.31-4.65-5.01l1.04-13.79c-29.01-4.28-31.41-20.36-31.73-37-.33-17.02,6.45-33.13,17.32-39.8,16.64-10.21,58.58-11.28,77.01-.02,10.88,6.65,17.67,22.73,17.34,39.71-.32,16.6-2.72,32.65-31.75,36.92ZM39.45,43.42c-9.8,0-17.74,7.93-17.74,17.72s7.94,17.72,17.74,17.72,17.74-7.93,17.74-17.72-7.94-17.72-17.74-17.72ZM64.3,71.9v-.15s-.1.03-.25.07c-.15-.04-.25-.07-.25-.07v.15c-.66.21-1.81.66-2.53,1.36-1.05,1.02-4.4,5.22-5.56,7.07-1.16,1.85-.93,5.07,2.53,5.55,2.83.4,5.09-2.23,5.82-3.19.75.99,2.97,3.53,5.72,3.14,3.41-.48,3.64-3.69,2.49-5.54-1.15-1.84-4.45-6.03-5.48-7.04-.71-.7-1.84-1.14-2.49-1.36ZM89.57,43.42c-9.8,0-17.74,7.93-17.74,17.72s7.94,17.72,17.74,17.72,17.74-7.93,17.74-17.72-7.94-17.72-17.74-17.72Z"/>
</svg>