<?xml version="1.0" encoding="UTF-8"?>
<svg id="Layer_1" xmlns="http://www.w3.org/2000/svg" version="1.1" viewBox="0 0 128 128">
  <!-- Generator: Adobe Illustrator 30.0.0, SVG Export Plug-In . SVG Version: 2.1.1 Build 123)  -->
  <defs>
    <style>
      .st0 {
        fill-rule: evenodd;
      }
    </style>
  </defs>
  <path class="st0" d="M122.1,65.39c-3.06,2.59-9.93,7.63-14.81,10.41-1.88,1.07-2.75.93-4.49.02-2.25-1.18-6-3.1-10.09-6.09l-5.78,1.35,7.08,18.78c.75,1.99-1.19,3.93-3.18,3.18l-19.5-7.35-1.62,6.96c2.97,4.1,4.89,7.85,6.06,10.11.91,1.74,1.05,2.61-.02,4.5-2.77,4.89-7.78,11.77-10.36,14.84-.92,1.09-1.78,1.31-2.76,0-2.37-3.18-7.56-9.79-10.27-14.71-1.19-2.15-1-2.77-.22-4.4,1.09-2.26,3.1-6.1,6.17-10.33l-1.58-6.81-19.11,7.21c-1.99.75-3.93-1.19-3.18-3.18l7.06-18.74-6.15-1.43c-4.1,2.97-7.85,4.89-10.11,6.06-1.74.91-2.61,1.05-4.5-.02-4.89-2.77-11.77-7.78-14.84-10.36-1.09-.92-1.32-1.78,0-2.76,3.18-2.37,9.79-7.56,14.71-10.27,2.15-1.19,2.77-1,4.4-.22,2.26,1.09,6.1,3.1,10.33,6.17l6.66-1.55-7.58-20.1c-.75-1.99,1.19-3.93,3.18-3.18l19.38,7.31,1.28-5.48c-3.09-4.23-5.11-8.06-6.2-10.32-.79-1.63-.98-2.24.22-4.39,2.73-4.91,7.94-11.52,10.33-14.69.98-1.31,1.85-1.08,2.78,0,2.59,3.06,7.63,9.93,10.41,14.81,1.07,1.88.93,2.75.02,4.49-1.18,2.25-3.11,6-6.09,10.09l1.32,5.63,19.77-7.45c1.99-.75,3.93,1.19,3.18,3.18l-7.59,20.14,6.3,1.47c4.23-3.09,8.06-5.11,10.32-6.2,1.63-.79,2.24-.98,4.39.22,4.91,2.73,11.52,7.94,14.69,10.33,1.31.98,1.08,1.86,0,2.78ZM75.57,50.56l-11.34,4.28-11.34-4.28c-.85-.32-1.68.51-1.36,1.36l4.28,11.34-4.28,11.34c-.32.85.51,1.68,1.36,1.36l11.34-4.28,11.34,4.28c.85.32,1.68-.51,1.36-1.36l-4.28-11.34,4.28-11.34c.32-.85-.51-1.68-1.36-1.36Z"/>
</svg>