<?xml version="1.0" encoding="UTF-8"?>
<svg id="Layer_1" xmlns="http://www.w3.org/2000/svg" version="1.1" viewBox="0 0 128 128">
  <!-- Generator: Adobe Illustrator 30.0.0, SVG Export Plug-In . SVG Version: 2.1.1 Build 123)  -->
  <path d="M95.15,49.91l9.56-5.7c3.21-1.92,4.32-6.17,2.46-9.49-1.86-3.32-5.97-4.46-9.18-2.54l-9.56,5.7c-3.21,1.92-4.32,6.17-2.46,9.49,1.86,3.32,5.97,4.46,9.18,2.54ZM104.72,83.8l-9.56-5.7c-3.21-1.92-7.32-.78-9.18,2.54-1.86,3.32-.75,7.57,2.46,9.49l9.56,5.7c3.21,1.92,7.32.78,9.18-2.54,1.86-3.32.75-7.57-2.46-9.49ZM114.23,57.45h-18.93c-3.8,0-6.88,2.93-6.88,6.55s3.08,6.55,6.88,6.55h18.93c3.8,0,6.88-2.93,6.88-6.55s-3.08-6.55-6.88-6.55ZM65.98,11.5l-29.86,28.03H9.88c-1.66,0-3,1.34-3,3v42.92c0,1.66,1.34,3,3,3h26.24l29.86,28.03c3.19,3,8.42.73,8.42-3.65V15.15c0-4.38-5.23-6.64-8.42-3.65Z"/>
</svg>