<?xml version="1.0" encoding="UTF-8"?>
<svg id="Layer_1" xmlns="http://www.w3.org/2000/svg" version="1.1" viewBox="0 0 128 128">
  <!-- Generator: Adobe Illustrator 30.0.0, SVG Export Plug-In . SVG Version: 2.1.1 Build 123)  -->
  <defs>
    <style>
      .st0 {
        fill-rule: evenodd;
      }
    </style>
  </defs>
  <path class="st0" d="M64,118.45c-28.49,0-51.58-23.09-51.58-51.58,0-23.29,15.43-42.96,36.63-49.37l4.74,10.29c-17.34,4.53-30.18,20.33-30.18,39.07,0,22.27,18.12,40.38,40.38,40.38s40.38-18.12,40.38-40.38c0-18.74-12.84-34.54-30.18-39.07l4.74-10.29c21.19,6.41,36.63,26.08,36.63,49.37,0,28.49-23.09,51.58-51.58,51.58ZM58.02,36.99c1.09,2.36,3.38,3.83,5.98,3.83h0c2.6,0,4.89-1.47,5.97-3.83l1.82-3.96c2.34.54,4.59,1.31,6.73,2.3l-9,19.88c-1.68-.8-3.55-1.26-5.52-1.26s-3.85.46-5.52,1.26l-9-19.88c2.13-.99,4.39-1.76,6.73-2.3l1.82,3.96ZM29.26,66.88c0-5.07,1.1-9.89,3.07-14.24l19.87,9c-.72,1.6-1.12,3.38-1.12,5.24,0,2.02.48,3.93,1.31,5.63l-19.88,9c-2.08-4.45-3.24-9.41-3.24-14.63ZM64,74.16c-4.02,0-7.29-3.27-7.29-7.29s3.27-7.29,7.29-7.29,7.29,3.27,7.29,7.29-3.27,7.29-7.29,7.29ZM49.65,98.5l9-19.88c1.63.75,3.44,1.17,5.35,1.17s3.72-.43,5.35-1.17l9,19.88c-4.38,1.99-9.23,3.11-14.35,3.11s-9.97-1.12-14.35-3.11ZM95.68,52.63c1.96,4.35,3.07,9.17,3.07,14.24s-1.17,10.18-3.24,14.63l-19.88-9c.83-1.7,1.31-3.61,1.31-5.63,0-1.87-.41-3.64-1.12-5.24l19.87-9ZM65.71,35.02c-.67,1.46-2.74,1.46-3.41,0l-10.51-22.8c-.57-1.25.34-2.67,1.71-2.67h21.01c1.37,0,2.28,1.42,1.71,2.67l-10.51,22.8Z"/>
</svg>