<?xml version="1.0" encoding="UTF-8"?>
<svg id="Layer_1" xmlns="http://www.w3.org/2000/svg" version="1.1" viewBox="0 0 128 128">
  <!-- Generator: Adobe Illustrator 30.0.0, SVG Export Plug-In . SVG Version: 2.1.1 Build 123)  -->
  <path d="M34.37,118.44c-2.15,0-4.28-.66-6.12-1.95-3.09-2.17-4.78-5.71-4.54-9.48l1.76-26.85-16.19-18.54c-2.41-2.76-3.24-6.5-2.23-10.02,1.01-3.52,3.7-6.25,7.2-7.3l25.65-7.72,15.27-22.34c2-2.92,5.3-4.66,8.83-4.66s6.83,1.74,8.83,4.66l15.27,22.34,25.65,7.72c3.5,1.05,6.19,3.78,7.2,7.3,1.01,3.52.18,7.27-2.23,10.02l-16.19,18.54,1.76,26.85c.25,3.77-1.45,7.31-4.54,9.48-3.09,2.17-6.99,2.55-10.44,1.04l-25.31-11.14-25.31,11.14c-1.39.61-2.86.92-4.32.92ZM64,95.76c.69,0,1.39.14,2.04.43l27.35,12.03c.08.04.29.13.55-.05.26-.18.24-.41.24-.5l-1.9-28.95c-.09-1.34.36-2.66,1.24-3.68l17.57-20.12c.06-.06.2-.23.12-.53-.09-.3-.3-.36-.38-.39l-27.36-8.24c-1.11-.33-2.07-1.04-2.72-1.99l-16.28-23.81c-.04-.06-.17-.25-.47-.25s-.43.19-.47.25l-16.28,23.81c-.65.96-1.61,1.66-2.72,1.99l-27.36,8.24c-.08.02-.3.09-.38.39-.09.3.06.47.12.53l17.57,20.12c.88,1.01,1.33,2.33,1.24,3.68l-1.9,28.95c0,.09-.02.32.24.5.26.18.47.09.55.05l27.35-12.03c.65-.29,1.34-.43,2.04-.43Z"/>
</svg>