<?xml version="1.0" encoding="UTF-8"?>
<svg id="Layer_1" xmlns="http://www.w3.org/2000/svg" version="1.1" viewBox="0 0 128 128">
  <!-- Generator: Adobe Illustrator 30.0.0, SVG Export Plug-In . SVG Version: 2.1.1 Build 123)  -->
  <path d="M62.74,10.41c-25.29,0-47.7,16.62-47.7,43.86s24.63,38.06,41.62,37.09c13.26-.75,26.58-10.59,26.58-27.86,0-7.73-4.98-23.24-22.26-23.24s-16.57,19.47-16.57,19.47c0,0,.32,2.92,2,3,1.68.08,2.4-.92,2.64-1.92.24-1,2.1-6.75,5.2-8.39,7.93-4.19,14.33,2.89,14.41,9.39.04,3.16-2.33,13.51-15.45,14.08-15.15.66-22.3-12.11-21.93-23.16.36-10.62,11.55-24.39,29.27-24.83,19.66-.49,37.88,15.29,37.88,36.94s-16.54,40.57-37.88,40.84c-24.39.31-38.73-14.96-45-21.59h0s-.78-.59-1.51-.22c-.74.37-.97,1.33-.68,2.03,3.01,7.41,15.15,30.5,49.65,31.69,14.94.51,51.16-9.87,51.76-52.69.24-17.3-13.93-54.48-52.02-54.48Z"/>
</svg>