<?xml version="1.0" encoding="UTF-8"?>
<svg id="Layer_1" xmlns="http://www.w3.org/2000/svg" version="1.1" viewBox="0 0 128 128">
  <!-- Generator: Adobe Illustrator 30.0.0, SVG Export Plug-In . SVG Version: 2.1.1 Build 123)  -->
  <defs>
    <style>
      .st0 {
        fill-rule: evenodd;
      }
    </style>
  </defs>
  <path class="st0" d="M116.74,66.83l-3.76,23.56c-.07.42-.34.77-.72.95-7.73,3.5-50.79,23.87-51.23,24.07-.17.08-.36.12-.54.12-.32,0-.64-.12-.88-.36-8.98-8.79-46.46-51.93-48.05-53.76-.35-.4-.4-.97-.15-1.43,4.37-7.79,31.01-45.32,32.14-46.92.23-.32.6-.52,1-.53,4.97-.1,38.24,0,38.57,0,.45,0,.86.24,1.09.63,4.12,7.19,20.28,33.06,20.45,33.32.23.37.26.83.06,1.22-2.5,4.99-16.28,27.88-16.86,28.86-.21.35-.58.58-1,.61-4.8.31-23.34.01-24.12,0-.42,0-.81-.22-1.04-.57-2.11-3.27-9.39-18.98-9.7-19.65-.24-.52-.1-1.13.34-1.49,3.11-2.57,15.4-8.46,15.93-8.71.42-.2.93-.15,1.3.13.38.28.56.75.48,1.22l-2.3,13.1,13.67-6.14-3.13-18.66-28.27-3.63-14.06,27.97,27.52,33.07,34.38-13.34,14.63-35.47c.22-.53.76-.86,1.35-.76.57.09,1.01.55,1.06,1.13l1.88,21.16c0,.1,0,.21,0,.31Z"/>
</svg>