<?xml version="1.0" encoding="UTF-8"?>
<svg id="Layer_1" xmlns="http://www.w3.org/2000/svg" version="1.1" viewBox="0 0 128 128">
  <!-- Generator: Adobe Illustrator 30.0.0, SVG Export Plug-In . SVG Version: 2.1.1 Build 123)  -->
  <defs>
    <style>
      .st0 {
        fill-rule: evenodd;
      }
    </style>
  </defs>
  <path class="st0" d="M117.13,73.71l-9.43.94c-3.93,16.31-16.74,29.16-33.04,33.12l-.95,9.37c-.19,2.06-1.92,3.64-3.99,3.64h-11.44c-2.07,0-3.8-1.58-3.99-3.64l-.95-9.37c-16.29-3.96-29.1-16.8-33.04-33.1l-9.44-.96c-2.06-.19-3.64-1.92-3.64-3.99v-11.44c0-2.07,1.58-3.8,3.64-3.99l9.48-.96c3.99-16.22,16.76-28.96,32.99-32.91l.95-9.55c.19-2.06,1.92-3.64,3.99-3.64h11.43c2.07,0,3.8,1.58,3.99,3.64l.95,9.55c16.24,3.95,29.02,16.71,33,32.93l9.47.94c2.06.19,3.64,1.92,3.64,3.99v11.43c0,2.07-1.58,3.8-3.64,3.99ZM64,32.34c-17.53,0-31.75,14.21-31.75,31.75s14.21,31.75,31.75,31.75,31.75-14.21,31.75-31.75-14.21-31.75-31.75-31.75Z"/>
</svg>