<?xml version="1.0" encoding="UTF-8"?>
<svg id="Layer_1" xmlns="http://www.w3.org/2000/svg" version="1.1" viewBox="0 0 128 128">
  <!-- Generator: Adobe Illustrator 30.0.0, SVG Export Plug-In . SVG Version: 2.1.1 Build 123)  -->
  <defs>
    <style>
      .st0 {
        fill-rule: evenodd;
      }
    </style>
  </defs>
  <path class="st0" d="M118.73,73.63l-5.61-.61c-3.72,20.38-19.78,36.45-40.15,40.15l.59,5.58c.16,1.56-1,2.93-2.49,2.93h-14.21c-1.5,0-2.66-1.38-2.49-2.94l.61-5.57c-20.52-3.74-36.66-20.02-40.22-40.62l-5.47.54c-1.59.16-2.98-.95-2.98-2.36v-13.45c0-1.42,1.4-2.52,2.99-2.36l5.44.55c3.56-20.78,19.93-37.18,40.69-40.76l-.53-5.41c-.16-1.59.95-2.98,2.36-2.98h13.45c1.42,0,2.52,1.4,2.36,2.99l-.55,5.4c20.61,3.56,36.89,19.75,40.61,40.31l5.61-.59c1.56-.17,2.93,1,2.93,2.49v14.21c0,1.5-1.37,2.66-2.94,2.49ZM71.2,27.81l-1.48,14.52c-.14,1.35-1.15,2.38-2.36,2.38h-6.84c-1.21,0-2.23-1.03-2.36-2.39l-1.42-14.5c-14.57,2.91-26.05,14.39-28.93,28.98l14.53,1.48c1.35.14,2.38,1.15,2.38,2.36v6.84c0,1.21-1.03,2.23-2.39,2.36l-14.5,1.42c2.89,14.44,14.2,25.81,28.59,28.83l1.51-13.86c.15-1.33,1.22-2.34,2.49-2.34h7.23c1.28,0,2.35,1.01,2.49,2.35l1.46,13.84c14.26-3,25.5-14.22,28.49-28.49l-13.86-1.51c-1.33-.15-2.34-1.22-2.34-2.49v-7.23c0-1.28,1.01-2.35,2.35-2.49l13.85-1.46c-3.01-14.41-14.43-25.72-28.89-28.59Z"/>
</svg>