<?xml version="1.0" encoding="UTF-8"?>
<svg id="Layer_1" xmlns="http://www.w3.org/2000/svg" version="1.1" viewBox="0 0 128 128">
  <!-- Generator: Adobe Illustrator 30.0.0, SVG Export Plug-In . SVG Version: 2.1.1 Build 123)  -->
  <defs>
    <style>
      .st0 {
        fill-rule: evenodd;
      }
    </style>
  </defs>
  <path class="st0" d="M112.45,29.66l-3.79,3.88c-2.53,2.49-4.53,4.26-5.57,5.15-.49.42-1.14.63-1.79.56l-6.6-.64-27.98,27.98c-1.57,1.57-4.12,1.57-5.69,0s-1.57-4.12,0-5.69l28.1-28.1-.58-5.92c-.09-.91.17-1.82.74-2.55.92-1.17,2.57-3.15,4.88-5.5l3.9-3.69c.43-.38.88-.77,1.34-1.15,1.33-1.12,3.37-.45,3.77,1.23l1.49,6.27,1.66,1.66,5.64,1.33c1.94.46,2.66,2.83,1.31,4.29-.27.3-.55.59-.81.87ZM64.05,77.27c6.31,0,11.59-4.43,12.93-10.33h14.51c-1.47,13.85-13.22,24.67-27.45,24.67-15.22,0-27.61-12.39-27.61-27.61s12.39-27.61,27.61-27.61c4.09,0,7.96.92,11.46,2.52l-11.83,11.83c-7.15.2-12.9,6.06-12.9,13.25s5.95,13.27,13.27,13.27ZM83.25,27.41l.33,3.42-1.76,1.76c-5.25-2.98-11.32-4.7-17.78-4.7-19.91,0-36.1,16.2-36.1,36.1s16.2,36.1,36.1,36.1,34.47-14.63,35.97-33.16h14.91c-1.52,26.78-23.72,48.03-50.88,48.03S13.07,92.15,13.07,64,35.89,13.03,64.05,13.03c8.33,0,16.17,2.02,23.11,5.56-.85.98-1.54,1.82-2.06,2.48-1.42,1.8-2.07,4.05-1.85,6.34Z"/>
</svg>