<?xml version="1.0" encoding="UTF-8"?>
<svg id="Layer_1" xmlns="http://www.w3.org/2000/svg" version="1.1" viewBox="0 0 128 128">
  <!-- Generator: Adobe Illustrator 30.0.0, SVG Export Plug-In . SVG Version: 2.1.1 Build 123)  -->
  <path d="M117.41,57.11c-.58-5.29-3.22-10.82-11.51-10.82h-31.64v-17.03c0-7.11-5.84-13.44-15.86-15.03-2.48-.39-4.73,1.48-4.73,3.99v18.41l-13.15,19.4c-.57.84-.79,1.87-.61,2.87l8.67,48.22c.43,2.37,2.37,4.16,4.76,4.4,7.54.74,24.22,1.95,37.9,0,6.27-.9,11.21-5.81,12.31-12.05l5-28.54s9.91-4.18,8.86-13.81ZM31.63,56.42h-15.07c-1.21,0-2.21.93-2.29,2.14l-3.74,52.81c-.09,1.33.96,2.46,2.3,2.46l23.79-.1c1.35,0,2.41-1.17,2.28-2.51l-4.97-52.71c-.11-1.18-1.1-2.08-2.29-2.08Z"/>
</svg>