<?xml version="1.0" encoding="UTF-8"?>
<svg id="Layer_1" xmlns="http://www.w3.org/2000/svg" version="1.1" viewBox="0 0 128 128">
  <!-- Generator: Adobe Illustrator 30.0.0, SVG Export Plug-In . SVG Version: 2.1.1 Build 123)  -->
  <defs>
    <style>
      .st0 {
        fill-rule: evenodd;
      }
    </style>
  </defs>
  <path class="st0" d="M125.75,63.96l-11.88,13.3v.26l11.88,13.3-11.88,13.3v.49H14.87v-.42l-.38.42-12.25-13.71,12-13.43-12-13.43,12-13.43-12-13.43,12.32-13.79.3.34v-.11h98.43l.2-.23.2.23h.16v.18l11.88,13.3-11.88,13.3v.26l11.88,13.3ZM14.87,50.47l-.05.06.05.06v-.12ZM14.87,77.33l-.05.06.05.06v-.12ZM69.68,41.45l-5.94-5.92c-.52-.52-1.37-.52-1.89,0l-5.94,5.92c-.25.25-.39.59-.39.95s.14.7.39.95l5.94,5.92c.26.26.6.39.94.39s.68-.13.94-.39l5.94-5.92c.25-.25.39-.59.39-.95s-.14-.7-.39-.95ZM92.83,54.37c-.41-.27-.94-.3-1.38-.06l-15.49,8.38-12.17-8.96c-.47-.35-1.12-.35-1.59,0l-12.17,8.96-15.49-8.38c-.44-.23-.97-.21-1.38.06-.41.28-.64.76-.59,1.25l3.38,32.45c.07.68.65,1.2,1.33,1.2h51.43c.69,0,1.26-.52,1.33-1.2l3.38-32.45c.05-.49-.17-.97-.59-1.25Z"/>
</svg>