<?xml version="1.0" encoding="UTF-8"?>
<svg id="Layer_1" xmlns="http://www.w3.org/2000/svg" version="1.1" viewBox="0 0 128 128">
  <!-- Generator: Adobe Illustrator 30.0.0, SVG Export Plug-In . SVG Version: 2.1.1 Build 123)  -->
  <defs>
    <style>
      .st0 {
        fill-rule: evenodd;
      }
    </style>
  </defs>
  <path class="st0" d="M105.85,104.7H22.23c-.97-6.11-6.02-10.84-12.27-11.33v-57.66c6.62-.52,11.89-5.79,12.41-12.41h83.36c.52,6.62,5.79,11.89,12.41,12.41v57.66c-6.25.49-11.3,5.23-12.27,11.33ZM74.21,55.55l-13.6-4.09-8.09-11.82c-1.11-1.62-3.51-1.62-4.62,0l-8.09,11.82-13.6,4.09c-1.95.59-2.64,2.99-1.3,4.53l8.74,9.98-.94,14.37c-.14,2.1,2,3.59,3.92,2.75l13.6-5.97,13.6,5.97c1.92.85,4.06-.65,3.92-2.75l-.94-14.37,8.74-9.98c1.34-1.53.65-3.94-1.3-4.53ZM94.32,27.28h-5.08v11.17h5.08v-11.17ZM94.32,47.58h-5.08v11.17h5.08v-11.17ZM94.32,67.88h-5.08v11.17h5.08v-11.17ZM94.32,88.18h-5.08v11.17h5.08v-11.17Z"/>
</svg>