<?xml version="1.0" encoding="UTF-8"?>
<svg id="Layer_1" xmlns="http://www.w3.org/2000/svg" version="1.1" viewBox="0 0 128 128">
  <!-- Generator: Adobe Illustrator 30.0.0, SVG Export Plug-In . SVG Version: 2.1.1 Build 123)  -->
  <defs>
    <style>
      .st0 {
        fill-rule: evenodd;
      }
    </style>
  </defs>
  <path class="st0" d="M101.09,64c0,2.28,1.85,4.14,4.14,4.14h9.51c-2,24.82-21.78,44.6-46.6,46.6v-9.51c0-2.28-1.85-4.14-4.14-4.14s-4.14,1.85-4.14,4.14v9.51c-24.82-2-44.6-21.78-46.6-46.6h9.51c2.28,0,4.14-1.85,4.14-4.14s-1.85-4.14-4.14-4.14h-9.51c2-24.82,21.78-44.6,46.6-46.6v9.51c0,2.28,1.85,4.14,4.14,4.14s4.14-1.85,4.14-4.14v-9.51c24.82,2,44.6,21.78,46.6,46.6h-9.51c-2.28,0-4.14,1.85-4.14,4.14ZM99.51,34.71c-1.59-1.77-4.31-1.92-6.08-.33l-26.3,23.57c-.96-.43-2.02-.67-3.13-.67-.97,0-1.89.19-2.74.51l-13.95-13.75c-1.69-1.67-4.42-1.65-6.09.04-1.67,1.69-1.65,4.42.04,6.09l15.04,14.83c.01,4.24,3.45,7.67,7.7,7.67s7.43-3.2,7.67-7.23l27.5-24.66c1.77-1.59,1.92-4.31.33-6.08Z"/>
</svg>