<?xml version="1.0" encoding="UTF-8"?>
<svg id="Layer_1" xmlns="http://www.w3.org/2000/svg" version="1.1" viewBox="0 0 128 128">
  <!-- Generator: Adobe Illustrator 30.0.0, SVG Export Plug-In . SVG Version: 2.1.1 Build 123)  -->
  <defs>
    <style>
      .st0 {
        fill-rule: evenodd;
      }
    </style>
  </defs>
  <path class="st0" d="M64,116c-10.57,0-20.39-3.16-28.59-8.57-14.1-9.3-23.41-25.27-23.41-43.43,0-28.72,23.28-52,52-52,11.54,0,22.2,3.77,30.83,10.13,12.84,9.47,21.17,24.7,21.17,41.87,0,28.72-23.28,52-52,52ZM62.62,107.94h2.77c8.4,0,16.22-2.44,22.82-6.64-.58-4.89-3.38-11.57-6.77-18.11-4.9,3.53-10.91,5.61-17.42,5.61s-12.82-2.18-17.79-5.87c-3.31,7.2-5.38,13.91-6.32,18.45,6.57,4.16,14.36,6.57,22.71,6.57ZM64.01,33.56c-14.01,0-25.38,11.36-25.38,25.38s11.36,25.38,25.38,25.38,25.38-11.36,25.38-25.38-11.36-25.38-25.38-25.38Z"/>
</svg>