<?xml version="1.0" encoding="UTF-8"?>
<svg id="Layer_1" xmlns="http://www.w3.org/2000/svg" version="1.1" viewBox="0 0 128 128">
  <!-- Generator: Adobe Illustrator 30.0.0, SVG Export Plug-In . SVG Version: 2.1.1 Build 123)  -->
  <defs>
    <style>
      .st0 {
        fill-rule: evenodd;
      }
    </style>
  </defs>
  <path class="st0" d="M90.95,117.77c-13.27,0-23.67-7.17-23.67-16.33,0-.93.13-1.83.34-2.71h-7.23c.21.88.34,1.78.34,2.71,0,9.16-10.4,16.33-23.67,16.33s-23.67-7.17-23.67-16.33v-33.81c0-5.22,3.38-9.78,8.73-12.75v-15.19h0c0-3.83,2.38-7.2,6.17-9.48v-10.53h.12c-.07-.37-.12-.74-.12-1.13,0-4.66,5.29-8.31,12.03-8.31s12.03,3.65,12.03,8.31c0,.38-.05.76-.12,1.13h.12v10.55c3.78,2.28,6.14,5.65,6.15,9.46h0v11.61h11v-11.61h0c0-3.83,2.38-7.2,6.17-9.48v-10.53h.12c-.07-.37-.12-.74-.12-1.13,0-4.66,5.29-8.31,12.03-8.31s12.03,3.65,12.03,8.31c0,.38-.05.76-.12,1.13h.12v10.55c3.78,2.28,6.14,5.65,6.15,9.46h0v15.22c5.35,2.97,8.73,7.52,8.73,12.73v33.81c0,9.16-10.4,16.33-23.67,16.33ZM37.05,91.77c-8.95,0-16.51,4.43-16.51,9.67s7.56,9.67,16.51,9.67,16.51-4.43,16.51-9.67-7.56-9.67-16.51-9.67ZM90.95,91.77c-8.95,0-16.51,4.43-16.51,9.67s7.56,9.67,16.51,9.67,16.51-4.43,16.51-9.67-7.56-9.67-16.51-9.67Z"/>
</svg>