<?xml version="1.0" encoding="UTF-8"?>
<svg id="Layer_1" xmlns="http://www.w3.org/2000/svg" version="1.1" viewBox="0 0 128 128">
  <!-- Generator: Adobe Illustrator 30.0.0, SVG Export Plug-In . SVG Version: 2.1.1 Build 123)  -->
  <defs>
    <style>
      .st0 {
        fill-rule: evenodd;
      }
    </style>
  </defs>
  <path class="st0" d="M106.1,91.51l-16.42-16.42c1.39-3.33,2.16-6.99,2.16-10.83,0-15.46-12.47-28-27.85-28-3.87,0-7.55.8-10.9,2.23l-12.84-12.84c6.76-2.64,14.62-4.3,23.74-4.3,46.61,0,60.64,42.91,60.64,42.91,0,0-4.91,14.99-18.54,27.25ZM78.54,63.94l-14.3-14.3c7.82.13,14.13,6.45,14.3,14.3ZM111.03,118.04L9.78,16.75l6.79-6.79,101.25,101.28-6.79,6.79ZM63.91,78.89c-7.94-.05-14.36-6.49-14.45-14.46l14.45,14.46ZM21.97,36.94l16.38,16.39c-1.42,3.36-2.2,7.05-2.2,10.93,0,15.46,12.47,28,27.85,28,3.91,0,7.62-.82,11-2.28l12.84,12.85c-6.79,2.67-14.67,4.34-23.84,4.34-46.61,0-60.64-42.91-60.64-42.91,0,0,4.92-15.05,18.61-27.32Z"/>
</svg>