<?xml version="1.0" encoding="UTF-8"?>
<svg id="Layer_1" xmlns="http://www.w3.org/2000/svg" version="1.1" viewBox="0 0 128 128">
  <!-- Generator: Adobe Illustrator 30.0.0, SVG Export Plug-In . SVG Version: 2.1.1 Build 123)  -->
  <defs>
    <style>
      .st0 {
        fill-rule: evenodd;
      }
    </style>
  </defs>
  <path class="st0" d="M109.2,31.81l-15.16,6.94-2.53,13.94c-.26,1.41-2.1,1.8-2.91.62l-11.39-16.61-18.75-1.14c-1.41-.09-2.03-1.82-.99-2.78l12.31-11.33-2.01-14.73c-.17-1.25,1.1-2.19,2.25-1.68l15.67,6.97,11.22-7.1c1.14-.72,2.61.2,2.46,1.53l-1.47,13.02,11.67,9.66c.91.75.72,2.2-.36,2.69ZM67.05,64.45l-35.48,55.47c-2.23,3.48-6.87,4.48-10.34,2.22-3.48-2.27-4.42-6.94-2.09-10.37l36.54-53.89,11.37,6.56ZM67.33,40.7l10.35,7.13-7.83,12.23-11.25-6.49,8.73-12.87Z"/>
</svg>