<?xml version="1.0" encoding="UTF-8"?>
<svg id="Layer_1" xmlns="http://www.w3.org/2000/svg" version="1.1" viewBox="0 0 128 128">
  <!-- Generator: Adobe Illustrator 30.0.0, SVG Export Plug-In . SVG Version: 2.1.1 Build 123)  -->
  <defs>
    <style>
      .st0 {
        fill-rule: evenodd;
      }
    </style>
  </defs>
  <path class="st0" d="M113.83,111.79H14.17c-1.79,0-3.12-1.65-2.74-3.4l14.18-66.25c.28-1.3,1.42-2.22,2.74-2.22h16.09c-.23-1.22-.36-2.47-.36-3.75,0-11.01,8.94-19.97,19.93-19.97s19.93,8.96,19.93,19.97c0,1.28-.13,2.53-.36,3.75h16.09c1.32,0,2.47.93,2.74,2.22l14.18,66.25c.37,1.75-.96,3.4-2.74,3.4ZM64,26.52c-5.31,0-9.64,4.33-9.64,9.65s4.32,9.65,9.64,9.65,9.64-4.33,9.64-9.65-4.32-9.65-9.64-9.65Z"/>
</svg>