<?xml version="1.0" encoding="UTF-8"?>
<svg id="Layer_1" xmlns="http://www.w3.org/2000/svg" version="1.1" viewBox="0 0 128 128">
  <!-- Generator: Adobe Illustrator 30.0.0, SVG Export Plug-In . SVG Version: 2.1.1 Build 123)  -->
  <path d="M64,75.24c-10.94,0-19.81,8.84-19.81,19.75s8.87,19.75,19.81,19.75,19.81-8.84,19.81-19.75-8.87-19.75-19.81-19.75ZM25.9,57.19l12.95,15.56c1.46,1.75,4.08,1.96,5.79.45,5.15-4.56,11.93-7.33,19.36-7.33s14.21,2.77,19.36,7.32c1.71,1.51,4.33,1.3,5.79-.45l12.96-15.56c-10.3-7.69-23.59-12.35-38.1-12.35s-27.8,4.65-38.1,12.35ZM117.03,32.67c-14.29-12.1-32.8-19.41-53.03-19.41s-38.73,7.31-53.03,19.41c-1.78,1.51-2.03,4.15-.53,5.94l9.01,10.82c12.05-9.15,27.6-14.67,44.55-14.67s32.5,5.52,44.55,14.67l9.01-10.82c1.49-1.79,1.24-4.44-.53-5.94Z"/>
</svg>