<?xml version="1.0" encoding="UTF-8"?>
<svg id="Layer_1" xmlns="http://www.w3.org/2000/svg" version="1.1" viewBox="0 0 128 128">
  <!-- Generator: Adobe Illustrator 30.0.0, SVG Export Plug-In . SVG Version: 2.1.1 Build 123)  -->
  <defs>
    <style>
      .st0 {
        fill-rule: evenodd;
      }
    </style>
  </defs>
  <path class="st0" d="M113.63,79.52c-8.56,27.37-37.79,42.67-65.15,34.11C21.11,105.07,5.81,75.84,14.37,48.48,22.93,21.11,52.16,5.81,79.52,14.37c27.37,8.56,42.67,37.79,34.11,65.15ZM55.69,90.56c3.07.96,6.34-.75,7.3-3.82.96-3.07-.75-6.34-3.82-7.3-3.07-.96-6.34.75-7.3,3.82-.96,3.07.75,6.34,3.82,7.3ZM77.13,22.01c-23.19-7.25-47.87,5.67-55.13,28.86-7.25,23.19,5.67,47.87,28.86,55.13-11.6-3.63-18.06-15.97-14.43-27.56,3.63-11.6,15.97-18.06,27.56-14.43,11.6,3.63,23.94-2.83,27.56-14.43,3.63-11.6-2.83-23.94-14.43-27.56ZM68.83,48.57c-3.07-.96-4.78-4.23-3.82-7.3.96-3.07,4.23-4.78,7.3-3.82,3.07.96,4.78,4.23,3.82,7.3-.96,3.07-4.23,4.78-7.3,3.82Z"/>
</svg>