<?xml version="1.0" encoding="UTF-8"?>
<svg id="Layer_1" xmlns="http://www.w3.org/2000/svg" version="1.1" viewBox="0 0 128 128">
  <!-- Generator: Adobe Illustrator 30.0.0, SVG Export Plug-In . SVG Version: 2.1.1 Build 123)  -->
  <path d="M56.81,17.12c0-1.1-.9-2-2-2h-27.63c-1.1,0-2,.9-2,2v43.98h-8.21c-5.39.41-8.09,6.85-4.67,11.13,8.59,10.71,22.83,28.11,35.39,41.8,3.28,3.57,9.13,1.19,9.13-3.71l-.02-93.2ZM115.69,55.77c-8.59-10.71-22.83-28.11-35.39-41.8-3.28-3.57-9.13-1.19-9.13,3.71l-.03,93.2c0,1.1.9,2,2,2h27.63c1.1,0,2-.9,2-2v-43.98h8.25c5.39-.42,8.1-6.85,4.67-11.13Z"/>
</svg>