<?xml version="1.0" encoding="UTF-8"?>
<svg id="Layer_1" xmlns="http://www.w3.org/2000/svg" version="1.1" viewBox="0 0 128 128">
  <!-- Generator: Adobe Illustrator 30.0.0, SVG Export Plug-In . SVG Version: 2.1.1 Build 123)  -->
  <defs>
    <style>
      .st0 {
        fill-rule: evenodd;
      }
    </style>
  </defs>
  <path class="st0" d="M122.68,77.57c-1.47-.17-3.63-.51-6.6-1.21-3.21,15.41-12.26,26.58-26.99,33.24-6.17,2.79-12.25,4.23-16.89,4.98l-6.22,6.21c-1.1,1.1-2.88,1.1-3.98,0l-6.22-6.21c-4.62-.75-10.66-2.18-16.81-4.95-14.77-6.66-23.83-17.84-27.05-33.27-2.97.7-5.13,1.04-6.6,1.21-1.29.15-2.32-1.07-1.95-2.32,1.85-6.17,5.26-13.2,7.88-18.17.57-1.07,1.91-1.47,2.97-.87,4.89,2.76,11.54,6.83,16.43,11.02.99.85.78,2.43-.39,3.01-1.38.67-3.47,1.58-6.45,2.63.71,2.64,2.31,6.98,5.8,11.49,6.18,7.99,14.92,12.07,23.22,14.08l2.61-43.55h-6.95c-1.58,0-2.85-1.28-2.85-2.85v-3.99c0-1.18.73-2.25,1.84-2.66l8.72-3.29.02-.31c-6.38-2.94-10.83-9.37-10.83-16.85,0-10.25,8.33-18.56,18.6-18.56s18.6,8.31,18.6,18.56c0,7.48-4.44,13.91-10.83,16.85l.02.31,8.72,3.29c1.11.42,1.84,1.48,1.84,2.66v3.99c0,1.57-1.28,2.85-2.85,2.85h-6.95l2.61,43.55c8.3-2.01,17.04-6.09,23.22-14.08,3.49-4.51,5.08-8.85,5.8-11.49-2.99-1.05-5.08-1.96-6.45-2.63-1.17-.57-1.38-2.16-.39-3.01,4.89-4.18,11.55-8.25,16.43-11.02,1.06-.6,2.4-.21,2.97.87,2.62,4.97,6.03,12,7.88,18.17.37,1.25-.65,2.46-1.95,2.32ZM64,17.48c-4.13,0-7.48,3.34-7.48,7.46s3.35,7.47,7.48,7.47,7.48-3.34,7.48-7.47-3.35-7.46-7.48-7.46Z"/>
</svg>