<?xml version="1.0" encoding="UTF-8"?>
<svg id="Layer_1" xmlns="http://www.w3.org/2000/svg" version="1.1" viewBox="0 0 128 128">
  <!-- Generator: Adobe Illustrator 30.0.0, SVG Export Plug-In . SVG Version: 2.1.1 Build 123)  -->
  <defs>
    <style>
      .st0 {
        fill-rule: evenodd;
      }
    </style>
  </defs>
  <path class="st0" d="M113.96,68.84c-1.8,23.86-17.22,43.53-27.36,48.02-10.14,4.49-22.82-.86-22.82-.86-2.75,2.57-15.63,5.56-23.87.86-8.24-4.71-23.87-22.03-25.77-42.78-1.9-20.75,8.45-35.08,24.93-36.36,16.48-1.28,24.72,4.92,24.72,4.92,0,0,8.03-5.13,23.45-5.09,11.21.03,28.41,8.84,26.72,31.3ZM70.49,35.14c-.54,0-.98-.46-.93-1,.39-4.71,3.17-24.35,22.32-25.48.44-.03.84.26.94.69,1.05,4.2,4.94,25.29-22.33,25.79ZM57.88,36.11c.38-6.24-1.6-10.86-2.78-13-.48-.87-.31-1.98.41-2.65,1.48-1.37,3.01-2.12,4-2.5.73-.28,1.55-.11,2.16.38,6.86,5.56,3.59,20.66,3.59,20.66l-7.39-2.89Z"/>
</svg>