<?xml version="1.0" encoding="UTF-8"?>
<svg id="Layer_1" xmlns="http://www.w3.org/2000/svg" version="1.1" viewBox="0 0 128 128">
  <!-- Generator: Adobe Illustrator 30.0.0, SVG Export Plug-In . SVG Version: 2.1.1 Build 123)  -->
  <defs>
    <style>
      .st0 {
        fill-rule: evenodd;
      }
    </style>
  </defs>
  <path class="st0" d="M90.96,37.2l-2.86-2.85c-10.63-10.6-26.17-14.37-39.72-9.6-5.69,2-10.85,4.06-14.07,5.37-6.71,2.74-13.69,1.82-17.32.6-.54-.18-1.13-.07-1.52.32l-1.49,1.49c-.63.63-.51,1.69.23,2.27,2.3,1.8,4.96,2.78,7.73,3.24l2.26,35.57,5.71-.36-2.22-34.88c3.93-.15,7.68-.92,10.5-1.49,3.42-.69,9.75-.51,15.05-.18,5.6.35,10.98,2.79,15.04,6.85l5.9,5.89-30.58,30.58-1.45-.74-9.54-1.21c-.61-.08-1.22.13-1.65.56l-11.79,11.77c-.87.87-.46,2.35.74,2.65l11.88,2.91,2.92,11.85c.29,1.19,1.78,1.61,2.65.74l11.79-11.77c.43-.43.64-1.04.56-1.65l-1.21-9.52-.23-.44,30.82-30.82,5.49,5.48c4.07,4.06,6.52,9.42,6.87,15.01.33,5.29.51,11.6-.18,15.01-.64,3.14-1.53,7.43-1.53,11.82l-34.48-1.75-.29,5.71,35.41,1.8c.54,2.26,1.46,4.43,2.97,6.34.58.74,1.64.85,2.27.22l1.49-1.49c.39-.39.51-.97.32-1.51-1.22-3.62-2.14-10.58.61-17.27,1.32-3.21,3.38-8.36,5.38-14.04,4.78-13.52,1-29.02-9.62-39.62l-2.86-2.85ZM113.38,13.65l-21.41,6.58c-.43.13-.67.59-.52,1.02l3.71,11.12c.08.24.27.43.51.51l11.12,3.71c.43.14.89-.09,1.02-.53l6.58-21.41c.19-.61-.39-1.19-1-1Z"/>
</svg>