<?xml version="1.0" encoding="UTF-8"?>
<svg id="Layer_1" xmlns="http://www.w3.org/2000/svg" version="1.1" viewBox="0 0 128 128">
  <!-- Generator: Adobe Illustrator 30.0.0, SVG Export Plug-In . SVG Version: 2.1.1 Build 123)  -->
  <defs>
    <style>
      .st0 {
        fill-rule: evenodd;
      }
    </style>
  </defs>
  <path class="st0" d="M106.46,81.24c-.95,1.65-2.04,3.18-3.23,4.6-5.02-13.19-16.77-26.57-33.18-36.04-16.4-9.47-33.87-12.95-47.8-10.71.63-1.75,1.42-3.45,2.37-5.1,10-17.31,34.25-22.28,55.85-12.16l1.88-5.92c.59-1.86,1.97-3.32,3.8-4.02,1.82-.7,3.84-.54,5.54.44,1.7.98,2.85,2.65,3.15,4.57.31,1.93-.27,3.86-1.58,5.3l-4.19,4.59c19.56,13.64,27.39,37.13,17.39,54.44ZM66.37,56.18c14.48,8.36,25.14,20.27,29.71,31.66-6.92,9.4-30.37,36.64-63.27,26.46-25.27-23.41-13.39-57.33-8.72-68.01,12.15-1.73,27.79,1.53,42.27,9.89Z"/>
</svg>