<?xml version="1.0" encoding="UTF-8"?>
<svg id="Layer_1" xmlns="http://www.w3.org/2000/svg" version="1.1" viewBox="0 0 128 128">
  <!-- Generator: Adobe Illustrator 30.0.0, SVG Export Plug-In . SVG Version: 2.1.1 Build 123)  -->
  <defs>
    <style>
      .st0 {
        fill-rule: evenodd;
      }
    </style>
  </defs>
  <path class="st0" d="M121.33,51.38h-22.34c-4.02,0-7.28-3.23-7.28-7.22v-19.35c0-1.42,1.16-2.57,2.59-2.57h7.55c12.19,0,22.07,9.8,22.07,21.9v4.67c0,1.42-1.16,2.57-2.59,2.57ZM103.21,56.17l.02,6.44c0,.67-.07,1.34-.19,2,0,.02.01.04.01.07.21,9.46-2.94,11.59-4.77,12.04l-32.57,8.39c-.52.13-1.07.13-1.6,0l-32.57-8.39c-1.83-.45-4.98-2.58-4.77-12.04,0,0,0-.01,0-.02-.12-.67-.19-1.36-.19-2.05l.02-6.44h3.62c6.09,0,11.03-4.94,11.03-11.03v-14.44h2.22v-1.11c0-3.14,2.56-5.68,5.73-5.68h29.59c3.16,0,5.73,2.54,5.73,5.68v1.11h2.22v14.44c0,6.09,4.94,11.03,11.03,11.03h5.44ZM76.26,30.81h-24.52c-.88,0-1.57.77-1.46,1.63.81,6.81,6.65,12.08,13.72,12.08s12.91-5.28,13.72-12.08c.1-.87-.59-1.63-1.46-1.63ZM103.23,62.61s0-.02,0-.03v.03ZM26.58,62.58s0,.02,0,.03v.91s0-.94,0-.94ZM29.01,51.38H6.67c-1.43,0-2.59-1.15-2.59-2.57v-4.67c0-12.09,9.88-21.9,22.07-21.9h7.55c1.43,0,2.59,1.15,2.59,2.57v19.35c0,3.99-3.26,7.22-7.28,7.22ZM29.02,85.22c.32-1.23,1.56-1.97,2.79-1.67l32.41,8.53,33.81-8.53c1.23-.3,2.47.44,2.79,1.67l2.04,7.78c.33,1.25-.42,2.53-1.66,2.85l-37.34,9.9-35.21-9.9c-1.25-.32-1.99-1.6-1.66-2.85l2.04-7.78Z"/>
</svg>