<?xml version="1.0" encoding="UTF-8"?>
<svg id="Layer_1" xmlns="http://www.w3.org/2000/svg" version="1.1" viewBox="0 0 128 128">
  <!-- Generator: Adobe Illustrator 30.0.0, SVG Export Plug-In . SVG Version: 2.1.1 Build 123)  -->
  <defs>
    <style>
      .st0 {
        fill-rule: evenodd;
      }
    </style>
  </defs>
  <path class="st0" d="M122.1,88.04l-13.82,2.21-1.77,5.61c-.32,1.02-1.41,1.59-2.44,1.27l-11.04-3.48c-1.02-.32-1.59-1.41-1.27-2.44l1.79-5.67-9.96-9.63c-.6-.58-.61-1.55-.01-2.13l29.68-29.27c.85-.84,2.3-.39,2.51.79l7.56,40.99c.15.82-.4,1.61-1.23,1.74ZM84.45,50.38l-12.68,6.34v6.09c0,1.1-.89,1.99-1.99,1.99h-11.84c-1.1,0-1.99-.89-1.99-1.99v-6.02s-12.81-6.41-12.81-6.41c-.77-.38-1.07-1.32-.67-2.08L62.44,10.61c.57-1.08,2.12-1.08,2.7,0l19.97,37.69c.4.76.1,1.7-.67,2.08ZM44.24,76.15l-9.92,9.59,1.78,5.65c.32,1.02-.25,2.11-1.26,2.43l-10.99,3.46c-1.02.32-2.11-.25-2.43-1.26l-1.76-5.59-13.77-2.2c-.82-.13-1.38-.92-1.23-1.74l7.53-40.82c.22-1.17,1.65-1.62,2.5-.79l29.55,29.14c.59.59.59,1.55-.01,2.13ZM68.61,118.2h-9.49v-48.84h9.49v48.84ZM41.32,118.2h-9.68l-5.94-17.88,8.81-2.77,6.82,20.66ZM93.03,97.39l8.85,2.79-5.64,18.02h-9.72l6.52-20.81Z"/>
</svg>