<?xml version="1.0" encoding="UTF-8"?>
<svg id="Layer_1" xmlns="http://www.w3.org/2000/svg" version="1.1" viewBox="0 0 128 128">
  <!-- Generator: Adobe Illustrator 30.0.0, SVG Export Plug-In . SVG Version: 2.1.1 Build 123)  -->
  <defs>
    <style>
      .st0 {
        fill-rule: evenodd;
      }
    </style>
  </defs>
  <path class="st0" d="M103.98,24.65l.06-.02v14.32c-2,5.17-12.3,10.38-27.32,12.32-1.61-5.52-6.7-9.57-12.72-9.57s-11.11,4.05-12.72,9.57c-15.02-1.94-25.31-7.14-27.32-12.32v-14.33l.06.02c-.07-.33-.12-.67-.12-1.01,0-7.45,17.95-13.49,40.1-13.49s40.1,6.04,40.1,13.49c0,.34-.05.68-.12,1.01ZM88.57,19.04c-6.76-1.96-15.48-3.04-24.57-3.04s-17.81,1.08-24.57,3.04c-6.02,1.75-8.67,3.68-9.49,4.6.82.92,3.47,2.85,9.49,4.6,6.76,1.96,15.48,3.04,24.57,3.04s17.81-1.08,24.57-3.04c6.02-1.75,8.67-3.68,9.49-4.6-.82-.92-3.47-2.85-9.49-4.6ZM56.58,54.99c0-4.1,3.33-7.44,7.42-7.44s7.42,3.34,7.42,7.44-3.33,7.44-7.42,7.44-7.42-3.34-7.42-7.44ZM64,68.28c6.58,0,12.05-4.84,13.07-11.15,11.59-1.43,21.09-4.74,26.9-9.24-1.03,17.2-15.21,30.84-32.6,30.97.89,6.34,2.96,14.86,7.72,21.13,1.01,1.33.4,3.26-1.19,3.77-2.91.93-6.85,1.69-13.91,1.69s-11-.76-13.91-1.69c-1.59-.51-2.2-2.44-1.19-3.77,4.77-6.27,6.83-14.79,7.72-21.13-17.39-.13-31.56-13.77-32.6-30.97,5.81,4.5,15.31,7.81,26.9,9.24,1.03,6.31,6.49,11.15,13.07,11.15ZM43.75,101.55c0,.68.1,1.37.31,2.04.69,2.2,2.41,3.93,4.6,4.63,3.52,1.13,8.8,1.79,15.25,1.91.03,0,.06,0,.09,0s.06,0,.09,0c6.45-.12,11.73-.78,15.25-1.91,2.19-.7,3.91-2.43,4.6-4.63.21-.67.3-1.35.31-2.04,7.4,2.38,12.14,5.8,12.14,8.85,0,5.33-14.5,7.46-32.39,7.46s-32.39-2.13-32.39-7.46c0-3.04,4.74-6.47,12.13-8.85Z"/>
</svg>