<?xml version="1.0" encoding="UTF-8"?>
<svg id="Layer_1" xmlns="http://www.w3.org/2000/svg" version="1.1" viewBox="0 0 128 128">
  <!-- Generator: Adobe Illustrator 30.0.0, SVG Export Plug-In . SVG Version: 2.1.1 Build 123)  -->
  <path d="M115.8,83.85c-5.15-4.66-8.95-10.66-10.89-17.36-2.77-9.54-5.04-18.52-6.5-24.59-1.21-5.02-4.05-9.47-8.1-12.68-8.07-6.39-19.21-15.42-23.98-19.29-1.36-1.1-3.29-1.1-4.65,0-4.78,3.88-15.92,12.91-23.99,19.3-4.04,3.2-6.87,7.64-8.08,12.64-1.46,6.07-3.73,15.06-6.51,24.61-1.95,6.7-5.74,12.7-10.89,17.36-1.2,1.08-1.13,2.98.13,3.99l38.04,30.63c1.58,1.28,3.76-.59,2.74-2.35l-13.03-22.41c-1.06-1.83-3.11-2.86-5.21-2.62l-3.32.37c-.95.11-1.59-.94-1.07-1.74l9.51-14.48c.07.13.16.25.25.36l8.57,9.6c.42.47,1.02.74,1.64.74h.01c.63,0,1.23-.28,1.65-.75l6.27-7.16c.5-.57.67-1.35.45-2.07-.22-.73-.78-1.28-1.51-1.49l-13.85-3.95c-.11-.03-.23-.05-.34-.07l12.08-18.39,7.78-12.11c.46-.71,1.5-.71,1.96,0l7.78,12.11,12.08,18.39c-.11.01-.23.04-.34.07h0l-13.85,3.95c-.73.21-1.3.77-1.51,1.5-.21.73-.04,1.5.46,2.07l6.27,7.16c.42.47,1.02.75,1.65.75h0c.63,0,1.23-.27,1.64-.74l8.57-9.6c.1-.11.18-.23.25-.36l9.51,14.48c.52.8-.12,1.85-1.07,1.74l-3.32-.37c-2.1-.23-4.15.8-5.21,2.62l-13.03,22.41c-1.02,1.76,1.15,3.62,2.74,2.35l38.04-30.63c1.26-1.01,1.33-2.91.13-3.99Z"/>
</svg>