<?xml version="1.0" encoding="UTF-8"?>
<svg id="Layer_1" xmlns="http://www.w3.org/2000/svg" version="1.1" viewBox="0 0 128 128">
  <!-- Generator: Adobe Illustrator 30.0.0, SVG Export Plug-In . SVG Version: 2.1.1 Build 123)  -->
  <defs>
    <style>
      .st0 {
        fill-rule: evenodd;
      }
    </style>
  </defs>
  <path class="st0" d="M87.67,99.09c-2.18,1.6-5.33.53-6.09-2.11-.74-2.57-1.69-5.06-2.8-7.47,9.57-8.17,28.8-27.93,31.48-56.42,3.07.19,5.79.31,7.97.41,2.08.1,3.76,1.84,3.77,3.94.17,32.81-23.9,54.02-34.32,61.65ZM77.1,26.53c8.91,3.78,19.39,5.4,28.16,6.19-2.46,25.9-19.6,44.15-28.83,52.22-11.5-20.37-33.23-33.81-33.23-33.81-2.88-1.7-6.08-2.71-9.34-2.98-2.19-.18-3.46-2.61-2.38-4.52l15.97-28.18c1.03-1.82,3.45-2.25,5.09-.9l4.58,3.78,4.4-7.77c1.02-1.79,3.28-2.4,5.06-1.36l12.03,7.1c1.78,1.04,2.39,3.34,1.38,5.14l-2.89,5.09ZM54.24,66.79l-24.7,49.58c-1.38,2.79-4.84,3.78-7.57,2.18l-13.18-7.78c-2.73-1.61-3.62-5.15-1.94-7.76l31.46-49.17c2.8,1.89,9.15,6.42,15.92,12.96Z"/>
</svg>