<?xml version="1.0" encoding="UTF-8"?>
<svg id="Layer_1" xmlns="http://www.w3.org/2000/svg" version="1.1" viewBox="0 0 128 128">
  <!-- Generator: Adobe Illustrator 30.0.0, SVG Export Plug-In . SVG Version: 2.1.1 Build 123)  -->
  <defs>
    <style>
      .st0 {
        fill-rule: evenodd;
      }
    </style>
  </defs>
  <path class="st0" d="M91.02,117.02h-52.15c-14.16,0-24.66-11.99-22.75-25.56l7.22-51.45c.36-2.57,1.9-4.78,4.07-6.19v13.79c0,13.84,11.22,25.06,25.06,25.06h.93c0,5.32,4.32,9.64,9.64,9.64h1.93c5.32,0,9.64-4.32,9.64-9.64h2.93c13.84,0,25.06-11.22,25.06-25.06v-13.72c2.11,1.41,3.6,3.59,3.96,6.12l5.3,51.45c1.91,13.57-6.66,25.56-20.82,25.56ZM90.03,91.95c0-1.06-.86-1.93-1.93-1.93h-48.2c-1.06,0-1.93.86-1.93,1.93v3.86c0,5.32,4.32,9.64,9.64,9.64h32.77c5.32,0,9.64-4.32,9.64-9.64v-3.86ZM77.53,66.89h-25.06c-10.65,0-19.28-8.63-19.28-19.28v-15.42c0-2.13,1.73-3.86,3.86-3.86h55.91c2.13,0,3.86,1.73,3.86,3.86v15.42c0,10.65-8.63,19.28-19.28,19.28ZM90.97,22.55h-13.5c-1.06,0-1.93-.86-1.93-1.93v-7.71c0-1.06.86-1.93,1.93-1.93h13.5c1.06,0,1.93.86,1.93,1.93v7.71c0,1.06-.86,1.93-1.93,1.93ZM52.41,22.55h-13.5c-1.06,0-1.93-.86-1.93-1.93v-7.71c0-1.06.86-1.93,1.93-1.93h13.5c1.06,0,1.93.86,1.93,1.93v7.71c0,1.06-.86,1.93-1.93,1.93Z"/>
</svg>