<?xml version="1.0" encoding="UTF-8"?>
<svg id="Layer_1" xmlns="http://www.w3.org/2000/svg" version="1.1" viewBox="0 0 128 128">
  <!-- Generator: Adobe Illustrator 30.0.0, SVG Export Plug-In . SVG Version: 2.1.1 Build 123)  -->
  <defs>
    <style>
      .st0 {
        fill-rule: evenodd;
      }
    </style>
  </defs>
  <path class="st0" d="M118.81,103.48c-.72.03-1.42.06-2.13.09,1.4-2.91,2.04-6.12,1.82-9.39h0c-.73-10.98-1.77-20.97-2.89-29.7h3.58c1.11,0,2.07.73,2.3,1.75.9,4.12,3.08,15.2,4.08,30.19.25,3.71-2.81,6.89-6.77,7.07ZM98.7,109.25c-29.48,1.3-54.53.7-69.45.04-8.2-.36-14.52-6.95-14.02-14.63,2.1-32.69,6.57-54.7,8.46-62.92.48-2.1,2.47-3.59,4.76-3.59h1.98v21.56c0,12.87,9.65,23.51,22.09,25.14v6.61c0,3.96,3.22,7.18,7.18,7.18h8.61c3.96,0,7.18-3.22,7.18-7.18v-6.5c12.85-1.23,22.94-12.09,22.94-25.25v-21.56h1.09c2.31,0,4.31,1.52,4.77,3.64,1.88,8.56,6.41,31.61,8.48,62.76.51,7.72-5.84,14.33-14.07,14.69ZM68.31,61.33c.79,0,1.44.64,1.44,1.44v18.7c0,.79-.64,1.44-1.44,1.44h-8.61c-.79,0-1.44-.64-1.44-1.44v-18.7c0-.79.64-1.44,1.44-1.44h8.61ZM75.48,69.18v-6.41c0-3.96-3.22-7.18-7.18-7.18h-8.61c-3.96,0-7.18,3.22-7.18,7.18v6.28c-9.28-1.57-16.35-9.62-16.35-19.34v-26.2c0-3.06,2.48-5.53,5.53-5.53h45.45c3.06,0,5.53,2.48,5.53,5.53v26.2c0,10.02-7.51,18.26-17.2,19.47ZM11.29,103.58c-.74-.03-1.46-.06-2.13-.09-3.95-.17-6.98-3.34-6.75-7.04,1.01-15.72,3.16-26.31,4.07-30.26.23-1.01,1.19-1.73,2.29-1.73h3.51c-1.08,8.63-2.08,18.61-2.8,29.82-.21,3.24.42,6.41,1.8,9.29Z"/>
</svg>