<?xml version="1.0" encoding="UTF-8"?>
<svg id="Layer_1" xmlns="http://www.w3.org/2000/svg" version="1.1" viewBox="0 0 128 128">
  <!-- Generator: Adobe Illustrator 30.0.0, SVG Export Plug-In . SVG Version: 2.1.1 Build 123)  -->
  <path d="M76.43,54.23l-2.76-2.76c-3.35-3.35-6.47-6.23-9.26-8.55-.85-.7-1.85-1.05-2.86-1.05-1.07,0-2.13.39-3.02,1.17-.61.53-1.12.98-1.62,1.4-1.74,1.5-3.25,2.79-7.88,7.43-4.63,4.63-5.92,6.14-7.42,7.88-.43.5-.87,1.01-1.41,1.62-1.52,1.72-1.57,4.14-.12,5.88,2.32,2.79,5.19,5.9,8.55,9.26l2.76,2.76c3.35,3.35,6.47,6.23,9.26,8.55,1.74,1.45,4.16,1.4,5.88-.12.61-.53,1.12-.98,1.62-1.4,1.74-1.5,3.25-2.79,7.88-7.43,4.63-4.63,5.92-6.14,7.42-7.88.43-.5.87-1.01,1.41-1.62,1.52-1.72,1.57-4.14.12-5.88-2.32-2.79-5.19-5.9-8.55-9.26ZM110.37,17.41c-3.19-3.19-25.69-21.58-49.29,2.03L19.45,61.08c-23.61,23.61-5.22,46.12-2.03,49.31,3.19,3.19,25.22,22.05,49.3-2.03l41.63-41.64c24.07-24.08,5.22-46.11,2.03-49.3ZM90.34,26.29c1.44-1.44,3.78-1.44,5.22,0,1.44,1.44,1.44,3.78,0,5.22-1.44,1.44-3.78,1.44-5.22,0-1.44-1.44-1.44-3.78,0-5.22ZM85.12,38.47c1.44-1.44,3.78-1.44,5.22,0,1.44,1.44,1.44,3.78,0,5.22-1.44,1.44-3.78,1.44-5.22,0-1.44-1.44-1.44-3.78,0-5.22ZM76.42,29.77c1.44-1.44,3.78-1.44,5.22,0,1.44,1.44,1.44,3.78,0,5.22-1.44,1.44-3.78,1.44-5.22,0-1.44-1.44-1.44-3.78,0-5.22ZM26.39,77.14c1.44-1.44,3.78-1.44,5.22,0,1.44,1.44,1.44,3.78,0,5.22-1.44,1.44-3.78,1.44-5.22,0-1.44-1.44-1.44-3.78,0-5.22ZM28.13,96.28c-1.44,1.44-3.78,1.44-5.22,0-1.44-1.44-1.44-3.78,0-5.22,1.44-1.44,3.78-1.44,5.22,0,1.44,1.44,1.44,3.78,0,5.22ZM36.83,104.98c-1.44,1.44-3.78,1.44-5.22,0-1.44-1.44-1.44-3.78,0-5.22,1.44-1.44,3.78-1.44,5.22,0,1.44,1.44,1.44,3.78,0,5.22ZM40.31,91.06c-1.44,1.44-3.78,1.44-5.22,0-1.44-1.44-1.44-3.78,0-5.22,1.44-1.44,3.78-1.44,5.22,0,1.44,1.44,1.44,3.78,0,5.22ZM49,99.76c-1.44,1.44-3.78,1.44-5.22,0-1.44-1.44-1.44-3.78,0-5.22,1.44-1.44,3.78-1.44,5.22,0,1.44,1.44,1.44,3.78,0,5.22ZM89.36,73.34c-.52.58-.94,1.08-1.36,1.56-1.58,1.83-2.94,3.42-7.73,8.21-4.79,4.79-6.38,6.15-8.21,7.73-.48.41-.98.84-1.56,1.36-2.01,1.77-4.5,2.66-6.99,2.66s-4.74-.81-6.69-2.43c-2.93-2.44-6.18-5.44-9.67-8.92l-2.76-2.76c-3.49-3.49-6.49-6.74-8.92-9.67-3.33-4-3.23-9.76.23-13.68.52-.59.94-1.08,1.36-1.56,1.58-1.84,2.94-3.42,7.73-8.21,4.79-4.79,6.38-6.15,8.21-7.73.48-.41.98-.84,1.56-1.36,3.92-3.46,9.68-3.56,13.68-.23,2.93,2.44,6.18,5.44,9.67,8.92l2.76,2.76c3.49,3.49,6.49,6.74,8.92,9.67,3.33,4,3.23,9.76-.23,13.68ZM99.04,52.39c-1.44,1.44-3.78,1.44-5.22,0-1.44-1.44-1.44-3.78,0-5.22,1.44-1.44,3.78-1.44,5.22,0,1.44,1.44,1.44,3.78,0,5.22ZM104.26,40.21c-1.44,1.44-3.78,1.44-5.22,0-1.44-1.44-1.44-3.78,0-5.22,1.44-1.44,3.78-1.44,5.22,0,1.44,1.44,1.44,3.78,0,5.22Z"/>
</svg>