<?xml version="1.0" encoding="UTF-8"?>
<svg id="Layer_1" xmlns="http://www.w3.org/2000/svg" version="1.1" viewBox="0 0 128 128">
  <!-- Generator: Adobe Illustrator 30.0.0, SVG Export Plug-In . SVG Version: 2.1.1 Build 123)  -->
  <defs>
    <style>
      .st0 {
        fill-rule: evenodd;
      }
    </style>
  </defs>
  <path class="st0" d="M116.86,63.18c-.18,1.69-1.61,2.98-3.32,2.98H14.46c-1.71,0-3.14-1.28-3.32-2.98l-1.58-14.98c-.21-1.96,1.34-3.67,3.32-3.67h9.38c-.04.39-.06.79-.06,1.19,0,6.86,5.56,12.41,12.41,12.41s12.41-5.56,12.41-12.41c0-.4-.02-.79-.06-1.19h34.34c-.04.4-.06.81-.06,1.22,0,6.87,5.53,12.44,12.36,12.44s12.36-5.57,12.36-12.44c0-.41-.02-.82-.06-1.22h9.23c1.98,0,3.52,1.71,3.32,3.67l-1.58,14.98ZM93.6,53.92c-4.48,0-8.11-3.66-8.11-8.17,0-1.01.19-1.97.52-2.86l-11.63-21.11c-.82-1.58,0-3.68,1.83-4.74l.66-.38c1.82-1.06,4.04-.73,4.99.78l12.63,20.19c4.07.44,7.23,3.91,7.23,8.12,0,4.51-3.63,8.17-8.11,8.17ZM42.24,42.86c.33.89.52,1.84.52,2.85,0,4.5-3.65,8.15-8.15,8.15s-8.15-3.65-8.15-8.15c0-4.2,3.18-7.66,7.26-8.1l12.68-20.14c.96-1.5,3.19-1.83,5.01-.77l.66.38c1.83,1.05,2.66,3.15,1.84,4.73l-11.69,21.06ZM104.92,102.42c-1.11,5.54-5.97,9.53-11.63,9.53h-58.56c-5.65,0-10.52-3.99-11.63-9.53l-6.09-30.47h94l-6.09,30.47Z"/>
</svg>