<?xml version="1.0" encoding="UTF-8"?>
<svg id="Layer_1" xmlns="http://www.w3.org/2000/svg" version="1.1" viewBox="0 0 128 128">
  <!-- Generator: Adobe Illustrator 30.0.0, SVG Export Plug-In . SVG Version: 2.1.1 Build 123)  -->
  <defs>
    <style>
      .st0 {
        fill-rule: evenodd;
      }
    </style>
  </defs>
  <path class="st0" d="M115.95,69.84l-11.5,11.5,11.36,11.36c1.71,1.71,1.68,4.5-.06,6.24l-8.42,8.42c-1.74,1.74-4.53,1.76-6.24.06l-11.36-11.36-11.5,11.5c-2.66,2.66-6.94,2.7-9.55.09-2.61-2.61-2.57-6.89.09-9.56l5.35-5.35L30.37,44.12c-.94-1.04-1.52-2.32-1.63-3.61l-1.75-19.33c-.14-1.59,1.03-2.76,2.62-2.62l19.32,1.75c1.28.12,2.57.7,3.61,1.63l48.61,43.77,5.35-5.35c2.66-2.66,6.94-2.7,9.55-.09,2.61,2.61,2.57,6.89-.09,9.56ZM97.5,43.9l-5.38,5.97-24.14-21.24,7.5-6.75c1.04-.94,2.32-1.52,3.61-1.64l19.28-1.82c1.59-.15,2.75,1.01,2.6,2.6l-1.82,19.27c-.12,1.28-.71,2.56-1.64,3.6ZM59.93,85.59l-6.27,6.96,5.31,5.31c2.65,2.64,2.67,6.91.05,9.52-2.62,2.62-6.88,2.59-9.53-.05l-11.43-11.42-11.37,11.37c-1.71,1.71-4.49,1.69-6.22-.03l-8.37-8.36c-1.73-1.73-1.74-4.51-.03-6.22l11.37-11.37-11.43-11.42c-2.65-2.64-2.67-6.91-.05-9.52,2.62-2.62,6.88-2.59,9.53.05l5.32,5.31,8.73-7.86,24.39,27.74Z"/>
</svg>