<?xml version="1.0" encoding="UTF-8"?>
<svg id="Layer_1" xmlns="http://www.w3.org/2000/svg" version="1.1" viewBox="0 0 128 128">
  <!-- Generator: Adobe Illustrator 30.0.0, SVG Export Plug-In . SVG Version: 2.1.1 Build 123)  -->
  <defs>
    <style>
      .st0 {
        fill-rule: evenodd;
      }
    </style>
  </defs>
  <path class="st0" d="M110.5,39.39H17.5c-1.1,0-2-.9-2-2v-10.76c0-1.1.9-2,2-2h23.75l2.18-8.46c.61-2.36,3.44-4.18,6.36-4.18h26.29c2.91,0,5.75,1.81,6.36,4.18l2.18,8.46h25.89c1.1,0,2,.9,2,2v10.76c0,1.1-.9,2-2,2ZM23.9,46h79.17c.78,0,1.44.61,1.41,1.3l-2.77,58.11c-.25,5.98-5.05,10.59-11.13,10.59l-54.37-.02c-6,0-10.73-4.61-10.97-10.58l-2.73-58.1c-.03-.7.62-1.3,1.39-1.3ZM78.5,103.99h8v-44h-8v44ZM59.5,103.99h8v-44h-8v44ZM40.5,103.99h8v-44h-8v44Z"/>
</svg>