<?xml version="1.0" encoding="UTF-8"?>
<svg id="Layer_1" xmlns="http://www.w3.org/2000/svg" version="1.1" viewBox="0 0 128 128">
  <!-- Generator: Adobe Illustrator 30.0.0, SVG Export Plug-In . SVG Version: 2.1.1 Build 123)  -->
  <path d="M64,11.97c-28.72,0-52,23.3-52,52.03s23.28,52.03,52,52.03,52-23.3,52-52.03S92.72,11.97,64,11.97ZM64,28.86c6.15,0,11.92,1.58,16.94,4.36l-47.71,47.74c-2.77-5.03-4.36-10.81-4.36-16.95,0-19.41,15.72-35.14,35.12-35.14ZM64,99.14c-6.15,0-11.92-1.58-16.94-4.36l47.71-47.74c2.77,5.03,4.36,10.81,4.36,16.95,0,19.41-15.72,35.14-35.12,35.14Z"/>
</svg>