<?xml version="1.0" encoding="UTF-8"?>
<svg id="Layer_1" xmlns="http://www.w3.org/2000/svg" version="1.1" viewBox="0 0 128 128">
  <!-- Generator: Adobe Illustrator 30.0.0, SVG Export Plug-In . SVG Version: 2.1.1 Build 123)  -->
  <defs>
    <style>
      .st0 {
        fill-rule: evenodd;
      }
    </style>
  </defs>
  <path class="st0" d="M114.4,23.15l5.74,10.25-9.45-2.99-5.92,11.61-2.42-7.46c-2.49,2.92-6.38,4.51-10.11,4.63-8.64.31-14.22-5.22-19.14-10.08-4.49-4.43-8.73-8.61-14.94-8.61-5.21,0-6.6,4.27-6.6,6.79v5.59h11.38c.63,0,1.14.52,1.14,1.15v8.2c15.44,6.16,26.36,21.3,26.36,39.02,0,23.18-18.69,41.97-41.75,41.97S6.96,104.42,6.96,81.24c0-17.71,10.92-32.85,26.36-39.02v-8.2c0-.64.51-1.15,1.14-1.15h11.38v-5.59c0-6.24,4.23-12.55,12.32-12.55,8.55,0,14.07,5.45,18.95,10.26,4.69,4.63,8.7,8.66,14.95,8.43,2.89-.09,6.05-1.69,6.96-4.5l-11.64.55,11.73-8.64-2.78-16.05,10.84,11.02,13.86-2.07-6.64,9.42ZM48.72,59.28c-13.62,0-24.67,9.99-24.67,22.31,0,8.05,4.71,15.1,11.78,19.02-.02.29-.04.58-.04.87,0,3.68,1.89,6.67,4.22,6.67,1.89,0,3.48-1.96,4.02-4.66.16.03.32.05.48.07.55,2.66,2.14,4.59,4.01,4.59s3.43-1.9,3.99-4.53c.15-.02.29-.04.44-.06.55,2.67,2.14,4.59,4.01,4.59,2.33,0,4.22-2.99,4.22-6.67,0-.21,0-.43-.02-.64,7.31-3.87,12.22-11.04,12.22-19.26,0-12.32-11.04-22.31-24.67-22.31ZM59.42,91.88c-.28.03-.57.02-.85,0-1.4-.17-5.22-1.11-6.72-6.32-.55-1.91.04-3.98,1.58-5.13,1.14-.85,2.92-1.58,5.66-1.67,2.68-.09,4.43.52,5.58,1.3,1.55,1.06,2.23,3.1,1.73,4.97-.66,2.47-2.42,6.41-6.98,6.86ZM51.31,95.22l-2.79-.27-2.79.27c-.65.06-1.14-.58-.93-1.2.66-2,2.09-3.13,2.97-3.67.46-.28,1.04-.28,1.5,0,.88.53,2.31,1.67,2.97,3.67.21.63-.28,1.27-.93,1.2ZM38.44,91.87c-.28.03-.57.04-.85,0-4.55-.45-6.32-4.39-6.98-6.86-.5-1.88.18-3.91,1.73-4.97,1.15-.78,2.9-1.39,5.58-1.3,2.93.1,4.75.93,5.89,1.85,1.34,1.1,1.88,2.98,1.42,4.7-1.44,5.43-5.37,6.4-6.79,6.57Z"/>
</svg>