<?xml version="1.0" encoding="UTF-8"?>
<svg id="Layer_1" xmlns="http://www.w3.org/2000/svg" version="1.1" viewBox="0 0 128 128">
  <!-- Generator: Adobe Illustrator 30.0.0, SVG Export Plug-In . SVG Version: 2.1.1 Build 123)  -->
  <path d="M52.56,95.21l43.18-48.39s9.93,2.1,13.84-1.4c3.91-3.5,4.74-8.63,2.83-13.27-1.91-4.64-5.89-6.41-8.48-6.92-2.6-.51-5.14-1.92-5.92-4.14-.78-2.22-1.76-7.27-6.62-7.81-4.86-.54-10.45,2.41-11.17,8.63-.71,6.22-1.79,14.15-1.79,14.15l-43.83,43.82s-6.79-.02-12.13,1.68c-5.35,1.7-8.32,6.7-7.8,11.54.39,3.66,2.99,6.25,8.7,7.84,4.98,1.38,8.42-.07,9.61,2.99,1.19,3.06.11,10.75,9.62,10.88,6.51.09,9.71-3.72,9.91-7.16.19-3.44.06-12.43.06-12.43Z"/>
</svg>