<?xml version="1.0" encoding="UTF-8"?>
<svg id="Layer_1" xmlns="http://www.w3.org/2000/svg" version="1.1" viewBox="0 0 128 128">
  <!-- Generator: Adobe Illustrator 30.0.0, SVG Export Plug-In . SVG Version: 2.1.1 Build 123)  -->
  <defs>
    <style>
      .st0 {
        fill-rule: evenodd;
      }
    </style>
  </defs>
  <path class="st0" d="M98.34,41.92l-22.67,22.76,20.94,20.42s6.52,1.07,11.64,1.8c5.12.73,7.43,5.42,6.87,9.42-.56,4-4.75,4.7-6.6,5.29-1.85.59-3.08,2.67-3.56,4.8-.48,2.13-2.03,5.38-5.91,6.85-3.88,1.47-8.09.67-10.9-2.63-2.8-3.31-.84-11.46-.84-11.46l-23.09-22.99-21.18,21.27s.91,8.43.67,11.26c-.24,2.83-2.97,5.91-8.34,5.69-7.85-.33-6.79-6.65-7.7-9.21-.91-2.55-3.78-1.43-7.87-2.69-4.68-1.44-6.77-3.64-7.01-6.67-.32-4.01,2.25-8.07,6.7-9.35,4.45-1.28,11.73.56,11.73.56l21.63-22.18-21.06-20.97s-8.43.91-11.26.67c-2.83-.24-5.91-2.97-5.69-8.34.33-7.85,6.65-6.79,9.21-7.7,2.55-.91,1.43-3.78,2.69-7.87,1.44-4.68,3.64-6.77,6.67-7.01,4.01-.32,8.07,2.25,9.35,6.7,1.28,4.45-.56,11.73-.56,11.73l21.85,21.3,20.21-20.73s1.07-6.52,1.8-11.64c.73-5.12,5.42-7.43,9.42-6.87,4,.56,4.7,4.75,5.29,6.6.59,1.85,2.67,3.08,4.8,3.56,2.13.48,5.38,2.03,6.85,5.91,1.47,3.88.67,8.09-2.63,10.9-3.31,2.8-11.46.84-11.46.84Z"/>
</svg>