<?xml version="1.0" encoding="UTF-8"?>
<svg id="Layer_1" xmlns="http://www.w3.org/2000/svg" version="1.1" viewBox="0 0 128 128">
  <!-- Generator: Adobe Illustrator 30.0.0, SVG Export Plug-In . SVG Version: 2.1.1 Build 123)  -->
  <defs>
    <style>
      .st0 {
        fill-rule: evenodd;
      }
    </style>
  </defs>
  <path class="st0" d="M104.77,108.6h-27.53c.59,4.02,1.26,8.43,1.88,11.94l-9.69-5.18-6.61,7.58s-1.71-5.33-2.89-14.33H27.64c-4.14,0-7.5-3.36-7.5-7.5V12.23c0-3.95,3.2-7.15,7.15-7.15h60.23c1.56,0,2.83,1.27,2.83,2.83v83.22c0,1.08-.87,1.95-1.95,1.95H31.68c-2.49,0-4.5,2.01-4.5,4.5h0c0,2.49,2.01,4.5,4.5,4.5h27.57c-.11-1.45-.21-2.96-.28-4.53h16.74s.24,1.82.61,4.53h23.54V15.44h-4.4v-6.21h9.58c1.56,0,2.83,1.27,2.83,2.83v93.44c0,1.7-1.38,3.09-3.09,3.09ZM56.45,82.2l24.04-33.36L56.45,15.47l-24.04,33.36,24.04,33.36ZM73.52,48.84l-17.07,23.12-17.07-23.12,17.07-23.12,17.07,23.12Z"/>
</svg>