<?xml version="1.0" encoding="UTF-8"?>
<svg id="Layer_1" xmlns="http://www.w3.org/2000/svg" version="1.1" viewBox="0 0 128 128">
  <!-- Generator: Adobe Illustrator 30.0.0, SVG Export Plug-In . SVG Version: 2.1.1 Build 123)  -->
  <defs>
    <style>
      .st0 {
        fill-rule: evenodd;
      }
    </style>
  </defs>
  <path class="st0" d="M123.63,106.5l-49.37-3.81-1.28,3.72c-.3.88-1.13,1.47-2.06,1.47h-13.83c-.93,0-1.76-.59-2.06-1.47l-1.28-3.72-49.37,3.81c-1.3.1-2.37-1.02-2.21-2.31l7.92-63.54c.14-1.1,1.08-1.93,2.19-1.93h1.32l-2.11,49.31c-.07,1.72.61,3.39,1.88,4.56,1.27,1.17,2.98,1.73,4.69,1.52,4.75-.57,29.11-2.89,42.46,6.96,1.04.77,2.27,1.16,3.49,1.16s2.45-.39,3.49-1.16c13.35-9.85,37.71-7.53,42.46-6.96,1.72.21,3.42-.35,4.69-1.52,1.27-1.17,1.95-2.83,1.88-4.56l-2.11-49.31h1.32c1.12,0,2.06.83,2.19,1.93l7.92,63.54c.16,1.29-.91,2.41-2.21,2.31ZM110.54,89.16c-5.47-.65-31.21-3.02-46.01,7.9-.32.23-.74.23-1.05,0-14.8-10.92-40.54-8.55-46.01-7.9-.55.07-1.02-.38-1-.92l2.88-67.26c.02-.58.57-.98,1.13-.82,1.71.48,5.39,1.4,10.65,2.08v34.39c0,.86.97,1.38,1.69.9l7.34-4.93,8.24,5.05c.72.44,1.65-.08,1.65-.92V23.67c7.81,1.37,11.86,4.85,13.32,6.39.35.37.94.37,1.29,0,1.81-1.92,7.64-6.85,19.73-6.97,12.01-.12,20.31-2.14,23.16-2.94.56-.16,1.11.25,1.13.82l2.88,67.26c.02.55-.45.99-1,.92Z"/>
</svg>