<?xml version="1.0" encoding="UTF-8"?>
<svg id="Layer_1" xmlns="http://www.w3.org/2000/svg" version="1.1" viewBox="0 0 128 128">
  <!-- Generator: Adobe Illustrator 30.0.0, SVG Export Plug-In . SVG Version: 2.1.1 Build 123)  -->
  <defs>
    <style>
      .st0 {
        fill-rule: evenodd;
      }
    </style>
  </defs>
  <path class="st0" d="M124.41,49.08c-2.2,14.39-11.33,21.86-16.27,24.91.28,1.9.43,3.83.43,5.79,0,12.4-5.82,20.49-15.5,25.22-1.14,4.29-3.32,7.62-6.22,9.41-1.53.94-3.19,1.42-4.83,1.42-.68,0-1.36-.08-2.02-.25-2.33-.78-4.15-2.45-5.25-4.73-.16-.32-.28-.67-.41-1.01-.64.07-1.27.14-1.92.2-.51,1.14-1.15,2.16-1.93,3.03-1.69,1.88-3.91,2.97-6.24,3.06-2.45-.09-4.67-1.18-6.37-3.06-.78-.87-1.42-1.9-1.93-3.04-.42-.03-.82-.08-1.23-.13-.12.32-.24.65-.38.95-1.09,2.28-2.92,3.95-5.13,4.7-.72.18-1.44.27-2.16.27-1.66,0-3.3-.48-4.81-1.41-2.82-1.74-4.97-4.93-6.12-9.05-10.16-4.68-16.31-12.88-16.31-25.58,0-1.81.14-3.59.38-5.35-4.78-2.89-14.34-10.43-16.59-25.37C.72,30.01,13.31,15.31,31.43,11.91c1.24-.23,2.22,1.05,1.62,2.17-1.87,3.54-4.7,10.03-3.98,15.83.89,7.09,8.74,13.03,11.3,14.79,6.76-3.97,14.88-6.31,23.91-6.31s16.84,2.26,23.5,6.1c2.91-2.03,10.13-7.7,10.99-14.41.73-5.75-2.12-12.2-4-15.7-.6-1.12.38-2.39,1.63-2.16,18.24,3.37,30.91,17.96,28.02,36.86ZM48.24,71.5c-7.02,0-12.71,5.69-12.71,12.71s5.69,12.71,12.71,12.71,12.71-5.69,12.71-12.71-5.69-12.71-12.71-12.71ZM80.14,71.5c-7.02,0-12.71,5.69-12.71,12.71s5.69,12.71,12.71,12.71,12.71-5.69,12.71-12.71-5.69-12.71-12.71-12.71Z"/>
</svg>