<?xml version="1.0" encoding="UTF-8"?>
<svg id="Layer_1" xmlns="http://www.w3.org/2000/svg" version="1.1" viewBox="0 0 128 128">
  <!-- Generator: Adobe Illustrator 30.0.0, SVG Export Plug-In . SVG Version: 2.1.1 Build 123)  -->
  <defs>
    <style>
      .st0 {
        fill-rule: evenodd;
      }
    </style>
  </defs>
  <path class="st0" d="M113.57,15.79l-8.8,28.65c-.18.58-.79.89-1.36.7l-9.45-3.15-2.95,2.95c-.59.59-1.54.59-2.12,0l-.51-.51-39.34,39.34h0l-16.53,16.53-1.5,1.5-4.72-4.72,57.38-57.38-.51-.51c-.59-.59-.59-1.54,0-2.12l2.92-2.92-3.18-9.55c-.19-.57.13-1.19.7-1.36l28.65-8.8c.82-.25,1.59.52,1.34,1.34ZM15.73,92.59c-1.34-.33-1.81-1.99-.83-2.96l13.21-13.18c.49-.48,1.17-.72,1.85-.63l10.68,1.36.55.28-17.17,17.17-8.3-2.03ZM50.89,87.4l1.36,10.66c.09.68-.15,1.36-.63,1.85l-2.03,2.03-4.36-3.27v7.63l-6.81,6.8c-.98.97-2.64.51-2.97-.83l-2.01-8.17,17.2-17.2.27.52Z"/>
</svg>