<?xml version="1.0" encoding="UTF-8"?>
<svg id="Layer_1" xmlns="http://www.w3.org/2000/svg" version="1.1" viewBox="0 0 128 128">
  <!-- Generator: Adobe Illustrator 30.0.0, SVG Export Plug-In . SVG Version: 2.1.1 Build 123)  -->
  <defs>
    <style>
      .st0 {
        fill-rule: evenodd;
      }
    </style>
  </defs>
  <path class="st0" d="M99.33,86.61c-8.69,10.13-18.21,15.87-27.75,18.17-10.34,2.49-32.69-9.88-44.35-19.96-10.54-9.1-13.92-25.23-11.09-40.01,2.49-12.99,12.05-24.47,26.58-28.47,3.35.58,10.54,2.49,13.3,6.16,4.25,5.64,3.31,12.55,3.08,13.88-.41,2.37-1.79,4.35-4.1,5.88-4.4,2.93-11.45,3.74-18.4,2.11-1.47-.34-2.94.57-3.29,2.05-.29,1.21.27,2.41,1.29,3,.23.13.47.23.74.29,2.17.51,4.33.81,6.45.92.32,2.49,1.56,7.71,6.37,11.88,3.3,2.86,7.57,6.01,12.16,8.66,4.35,2.51,8.99,4.57,13.38,5.52,7.22,1.56,17.54,2.49,23.81-7.47.81-1.28.43-2.98-.84-3.78-1.24-.79-2.97-.42-3.77.87-3.47,5.51-8.86,7.01-18.01,5.02-8.03-1.74-17.21-7.85-23.12-12.98-3.16-2.74-4.15-6.07-4.46-7.88,4.06-.46,7.77-1.68,10.72-3.64,3.57-2.37,5.81-5.67,6.48-9.53.42-2.42,1.37-10.87-4.1-18.12-2.24-2.97-5.87-4.94-9.27-6.22,2.6-2.19,7.59-5.1,15.04-4.07,11.5,1.6,34.45,11.53,43.93,29.27,7.5,14.05.72,35.08-10.76,48.45ZM18.36,83.27c1.57,2.1,3.32,4.03,5.28,5.72,3.72,3.21,9.98,7.77,17.08,11.86,7.77,4.49,16.54,8.41,24.09,9.45l-4.47,5.79c-2.12,2.75-5.74,3.9-9.03,2.83-19.18-6.26-29.58-15.08-34.41-20.32-2.23-2.41-2.77-5.93-1.42-8.94l2.88-6.4Z"/>
</svg>