<?xml version="1.0" encoding="UTF-8"?>
<svg id="Layer_1" xmlns="http://www.w3.org/2000/svg" version="1.1" viewBox="0 0 128 128">
  <!-- Generator: Adobe Illustrator 30.0.0, SVG Export Plug-In . SVG Version: 2.1.1 Build 123)  -->
  <defs>
    <style>
      .st0 {
        fill-rule: evenodd;
      }
    </style>
  </defs>
  <path class="st0" d="M96.65,72.28c-3.58,5.49-5.89,10.91-7.3,14.92h.36c3.33,0,6.03,2.72,6.03,6.07s-2.7,6.07-6.03,6.07h-9.31v6.92c0,4.59-3.7,8.32-8.26,8.33-.7,3.88-4.08,6.83-8.14,6.83s-7.44-2.95-8.14-6.83c-4.57,0-8.27-3.73-8.27-8.33v-6.92h-9.31c-3.33,0-6.03-2.72-6.03-6.07s2.7-6.07,6.03-6.07h.36c-1.41-4-3.72-9.43-7.3-14.92C10.93,40.32,27.55,7.75,64,6.59h0c36.45,1.16,53.07,33.73,32.65,65.69ZM82.14,48.15c-1.07-.9-2.59-1.03-3.79-.31-.14.08-14.12,8.3-28.76-.04-1.28-.73-2.89-.51-3.93.54-1.04,1.05-1.25,2.67-.52,3.95.09.16,8.72,15.56,9.35,34.89h6.54c-.36-12.52-3.74-23.37-6.52-30.27,7.89,2.17,15.05,1.08,20.04-.43-3.84,12.43-5.32,24.46-5.88,30.7h6.58c.68-7.27,2.62-21.87,7.82-35.34.51-1.31.13-2.8-.94-3.7Z"/>
</svg>