<?xml version="1.0" encoding="UTF-8"?>
<svg id="Layer_1" xmlns="http://www.w3.org/2000/svg" version="1.1" viewBox="0 0 128 128">
  <!-- Generator: Adobe Illustrator 30.0.0, SVG Export Plug-In . SVG Version: 2.1.1 Build 123)  -->
  <defs>
    <style>
      .st0 {
        fill-rule: evenodd;
      }
    </style>
  </defs>
  <path class="st0" d="M114.8,72.09c.03.84-.64,1.53-1.47,1.53h-34.42l-13.15,13.24c-.97.98-2.55.98-3.52,0l-13.15-13.24H14.67c-.83,0-1.5-.69-1.47-1.53.11-2.95.32-9.39.21-12.35-.03-.83.64-1.52,1.47-1.52h98.25c.83,0,1.5.69,1.47,1.52-.12,2.96.1,9.4.21,12.35ZM72.94,70.66l-7.12-7.16c-.75-.76-1.97-.76-2.72,0l-7.12,7.16c-.75.76-.75,1.99,0,2.74l7.12,7.16c.75.76,1.97.76,2.72,0l7.12-7.16c.75-.76.75-1.98,0-2.74ZM112,52.78c-2.55-.09-8.07-.11-14.48-.1v-31.03h0v-2.6c0-.82.66-1.48,1.47-1.48h13.05c.81,0,1.47.66,1.47,1.48v32.25c0,.84-.68,1.51-1.51,1.48ZM91.52,52.7c-13.23.06-27.52.23-27.52.23,0,0-14.26-.16-27.48-.23v-31.05h55v31.05ZM16,52.78c-.83.03-1.52-.64-1.52-1.48V19.05c0-.82.66-1.48,1.47-1.48h13.05c.81,0,1.47.66,1.47,1.48v2.6h.05v31.03c-6.43-.01-11.96,0-14.52.1ZM17.98,78.92h28.11l12.51,12.59c1.49,1.5,3.44,2.25,5.4,2.25s3.91-.75,5.4-2.25l12.52-12.59h28.11c.81,0,1.47.65,1.47,1.47v28.56c0,.82-.66,1.47-1.47,1.47H17.98c-.81,0-1.47-.66-1.47-3.03v-27.01c0-.82.66-1.47,1.47-1.47Z"/>
</svg>