<?xml version="1.0" encoding="UTF-8"?>
<svg id="Layer_1" xmlns="http://www.w3.org/2000/svg" version="1.1" viewBox="0 0 128 128">
  <!-- Generator: Adobe Illustrator 30.0.0, SVG Export Plug-In . SVG Version: 2.1.1 Build 123)  -->
  <defs>
    <style>
      .st0 {
        fill-rule: evenodd;
      }
    </style>
  </defs>
  <path class="st0" d="M108.8,56.74c-3.84,3.39-9.32,5.52-14.57,6.86,5.24,1.53,11.31,4.35,16.53,9.53,6.28,6.22,5.8,14.63,1.22,19.99-4.58,5.36-9.52,5.26-14.22,4.75,0,0,1.86,9.27-5.06,15.2-4.34,3.71-12.76,5.57-21.44-4.26-3.39-3.84-5.52-9.32-6.86-14.57-1.53,5.24-4.35,11.31-9.53,16.53-6.22,6.28-14.63,5.8-19.99,1.22-5.36-4.58-5.26-9.52-4.75-14.22,0,0-9.27,1.86-15.2-5.06-3.71-4.34-5.57-12.76,4.26-21.44,3.84-3.39,9.32-5.52,14.57-6.86-5.24-1.53-11.31-4.35-16.53-9.53-6.28-6.22-5.8-14.63-1.22-19.99,4.58-5.36,9.52-5.26,14.22-4.75,0,0-1.86-9.27,5.06-15.2,4.34-3.71,12.76-5.57,21.44,4.26,3.39,3.84,5.52,9.32,6.86,14.57,1.53-5.24,4.35-11.31,9.53-16.53,6.22-6.28,14.63-5.8,19.99-1.22,5.36,4.58,5.26,9.52,4.75,14.22,0,0,9.27-1.86,15.2,5.06,3.71,4.34,5.57,12.76-4.26,21.44ZM85.6,43.46c-.55-.55-1.42-.59-2.02-.1l-19.54,16.13-19.55-16.14c-.59-.49-1.47-.45-2.02.1-.55.55-.59,1.42-.1,2.02l16.14,19.55-16.14,19.55c-.49.6-.45,1.47.1,2.02.29.29.68.44,1.06.44.34,0,.68-.11.96-.34l19.55-16.14,19.54,16.13c.28.23.62.34.96.34.38,0,.77-.15,1.06-.44.55-.55.59-1.42.1-2.02l-16.13-19.54,16.13-19.54c.49-.6.45-1.47-.1-2.02Z"/>
</svg>