<?xml version="1.0" encoding="UTF-8"?>
<svg id="Layer_1" xmlns="http://www.w3.org/2000/svg" version="1.1" viewBox="0 0 128 128">
  <!-- Generator: Adobe Illustrator 30.0.0, SVG Export Plug-In . SVG Version: 2.1.1 Build 123)  -->
  <defs>
    <style>
      .st0 {
        fill-rule: evenodd;
      }
    </style>
  </defs>
  <path class="st0" d="M88.62,88.4c-7.09,0-13.72-.74-19.36-2.01,2.36-4.87,3.95-9.81,4.77-14.59,3.06.28,6.17.43,9.29.43,5.02,0,10.06-.37,14.82-1.11,11.19-1.25,21.28-4.42,26.71-9.41.62.99.95,2.03.95,3.09v9.83c0,7.6-16.65,13.77-37.18,13.77ZM83.32,67.38c-3,0-5.92-.14-8.71-.38.43-6.2-.43-12.01-2.52-16.91,3.67.42,7.45.63,11.24.63,14.52,0,29.15-3.09,36.73-9.08.3.7.45,1.42.45,2.15v9.83c0,7.6-16.65,13.77-37.18,13.77ZM83.32,45.87c-5.04,0-9.84-.37-14.22-1.04-2.12-2.89-4.83-5.25-8.1-6.87-.05-.03-.11-.05-.17-.07-3.55-1.94-10.31-5.18-13.23-6.56-.22-.12-.42-.25-.64-.36-.21-.1-.42-.19-.63-.29,1.93-6.93,17.75-12.34,36.98-12.34,20.53,0,37.18,6.16,37.18,13.77s-16.65,13.77-37.18,13.77ZM50.6,77.82c-8.74,17.54-25.5,26.94-37.44,20.99-11.94-5.95-14.53-24.99-5.79-42.53,8.74-17.54,25.5-26.94,37.44-20.99,11.94,5.95,14.53,24.99,5.79,42.53ZM54.94,79.98c6.91-13.86,7.44-28.33,2.41-38.4l1.49.71c11.94,5.95,14.53,24.99,5.79,42.53-8.74,17.54-25.5,26.94-37.44,20.99-.5-.25-.98-.53-1.44-.82,3.2-.61,6.46-1.82,9.69-3.63,7.91-4.44,14.83-12.02,19.49-21.37ZM88.62,93.24c11.85,0,23.77-2.06,31.88-6.08v8.74c0,7.6-16.65,13.77-37.18,13.77-11.44,0-21.67-1.91-28.49-4.92,4.64-3.66,8.76-8.44,12.07-13.98,6.6,1.64,14.17,2.48,21.72,2.48Z"/>
</svg>