<?xml version="1.0" encoding="UTF-8"?>
<svg id="Layer_1" xmlns="http://www.w3.org/2000/svg" version="1.1" viewBox="0 0 128 128">
  <!-- Generator: Adobe Illustrator 30.0.0, SVG Export Plug-In . SVG Version: 2.1.1 Build 123)  -->
  <defs>
    <style>
      .st0 {
        fill-rule: evenodd;
      }
    </style>
  </defs>
  <path class="st0" d="M85.59,112.28c-20.86,8.93-43.87,4.21-57.8-10.16,8.34,5.01,18.19,7.73,28.43,7.73,7.78,0,15.78-1.56,23.49-4.87,24.58-10.52,38.34-35.28,34.29-58.66.19.41.39.82.57,1.24,10.45,24.41-2.53,53.38-28.99,64.71ZM77.53,99.89c-25.56,10.94-54.36.95-64.32-22.32C3.25,54.3,15.9,26.57,41.47,15.63c25.56-10.94,54.36-.95,64.32,22.32,9.96,23.27-2.69,51-28.26,61.94ZM95.26,42.46c-7.69-17.98-29.94-25.7-49.69-17.25-19.75,8.45-29.52,29.88-21.83,47.85,7.69,17.98,29.94,25.7,49.69,17.25,19.75-8.45,29.52-29.88,21.83-47.85ZM71.28,85.28c-16.7,7.15-35.51.62-42.01-14.58-6.51-15.2,1.76-33.31,18.46-40.46,16.7-7.15,35.51-.62,42.01,14.58,6.51,15.2-1.76,33.32-18.46,40.46Z"/>
</svg>