<?xml version="1.0" encoding="UTF-8"?>
<svg id="Layer_1" xmlns="http://www.w3.org/2000/svg" version="1.1" viewBox="0 0 128 128">
  <!-- Generator: Adobe Illustrator 30.0.0, SVG Export Plug-In . SVG Version: 2.1.1 Build 123)  -->
  <defs>
    <style>
      .st0 {
        fill-rule: evenodd;
      }
    </style>
  </defs>
  <path class="st0" d="M95.46,109.62c-3.23.82-6.56,1.23-9.89,1.23-3.33,0-6.66-.41-9.89-1.23-1.69-.43-3.29-.95-4.81-1.54,2.86-2.19,5.31-4.64,7.37-7.25,2.4.58,4.86.87,7.32.87,2.59,0,5.18-.32,7.7-.95,18.67-4.74,23.57-22.26,21.59-31.48-3.91-18.17-19.75-33.6-26.36-39.37-1.67-1.46-4.17-1.46-5.84,0-2.19,1.91-5.4,4.91-8.85,8.69-1.62-2.44-3.3-4.78-5.01-7.02,5.05-5.75,9.86-10.24,13.03-13,2.14-1.87,5.36-1.87,7.5,0,8.49,7.42,28.85,27.24,33.88,50.59,2.55,11.85-3.75,34.37-27.74,40.46ZM52.32,109.62c-3.23.82-6.56,1.23-9.89,1.23-3.33,0-6.66-.41-9.89-1.23-23.99-6.09-30.29-28.61-27.74-40.46,5.03-23.35,25.38-43.17,33.88-50.59,2.14-1.87,5.36-1.87,7.5,0,8.49,7.42,28.85,27.24,33.88,50.59,2.55,11.85-3.75,34.37-27.74,40.46ZM27.94,44.46c-.93-.56-2.07-.34-2.71.53-6.47,8.87-10.66,17.56-12.44,25.83-.98,4.55.04,14.64,6.94,22.31.4.45.95.69,1.51.69.38,0,.77-.11,1.13-.33.87-.55,1.18-1.57.76-2.49-2.78-6.11-3.96-12.7-3.24-18.1,1.1-8.2,4.06-16.87,8.8-25.79.51-.96.2-2.07-.74-2.65Z"/>
</svg>