<?xml version="1.0" encoding="UTF-8"?>
<svg id="Layer_1" xmlns="http://www.w3.org/2000/svg" version="1.1" viewBox="0 0 128 128">
  <!-- Generator: Adobe Illustrator 30.0.0, SVG Export Plug-In . SVG Version: 2.1.1 Build 123)  -->
  <defs>
    <style>
      .st0 {
        fill-rule: evenodd;
      }
    </style>
  </defs>
  <path class="st0" d="M64,116c-28.72,0-52-23.28-52-52S35.28,12,64,12s52,23.28,52,52-23.28,52-52,52ZM64.01,21.4c-23.53,0-42.6,19.07-42.6,42.6s19.07,42.6,42.6,42.6,42.6-19.07,42.6-42.6-19.07-42.6-42.6-42.6ZM97.81,68.17c-2.01,0-3.64-1.64-3.64-3.66s1.63-3.65,3.64-3.65,3.64,1.64,3.64,3.65-1.63,3.66-3.64,3.66ZM76.47,75.65c-.15.37-.45.67-.82.82l-37.34,15.15c-1.22.49-2.43-.72-1.94-1.94l15.15-37.34c.15-.37.45-.67.82-.82l37.34-15.15c1.22-.49,2.43.72,1.94,1.94l-15.15,37.34ZM64,57.08c-3.82,0-6.92,3.1-6.92,6.92s3.1,6.92,6.92,6.92,6.92-3.1,6.92-6.92-3.1-6.92-6.92-6.92ZM64.01,33.71c-2.01,0-3.64-1.64-3.64-3.65s1.63-3.65,3.64-3.65,3.64,1.64,3.64,3.65-1.63,3.65-3.64,3.65ZM64.01,94.5c1.95,0,3.53,1.59,3.53,3.55s-1.58,3.55-3.53,3.55-3.53-1.59-3.53-3.55,1.58-3.55,3.53-3.55ZM30.1,68.07c-1.95,0-3.53-1.59-3.53-3.55s1.58-3.55,3.53-3.55,3.53,1.59,3.53,3.55-1.58,3.55-3.53,3.55Z"/>
</svg>