<?xml version="1.0" encoding="UTF-8"?>
<svg id="Layer_1" xmlns="http://www.w3.org/2000/svg" version="1.1" viewBox="0 0 128 128">
  <!-- Generator: Adobe Illustrator 30.0.0, SVG Export Plug-In . SVG Version: 2.1.1 Build 123)  -->
  <defs>
    <style>
      .st0 {
        fill-rule: evenodd;
      }
    </style>
  </defs>
  <path class="st0" d="M64,116.19c-28.78,0-52.19-23.41-52.19-52.19S35.22,11.81,64,11.81s52.19,23.41,52.19,52.19-23.41,52.19-52.19,52.19ZM64,21.12c-23.65,0-42.89,19.24-42.89,42.88s19.24,42.88,42.89,42.88,42.89-19.24,42.89-42.88-19.24-42.88-42.89-42.88ZM102.16,65.7l-19.4,8.08,4.36,10.58c.62,1.5-.88,3-2.38,2.38l-10.58-4.36-8.08,19.4c-.62,1.5-2.74,1.5-3.37,0l-8.08-19.4-10.58,4.36c-1.5.62-3-.88-2.38-2.38l4.36-10.58-19.4-8.08c-1.5-.62-1.5-2.74,0-3.37l19.4-8.08-4.36-10.58c-.62-1.5.88-3,2.38-2.38l10.58,4.36,8.08-19.4c.62-1.5,2.74-1.5,3.37,0l8.08,19.4,10.58-4.36c1.5-.62,3,.88,2.38,2.38l-4.36,10.58,19.4,8.08c1.5.62,1.5,2.74,0,3.37ZM64.41,55.53c-4.7,0-8.52,3.81-8.52,8.52s3.81,8.52,8.52,8.52,8.52-3.81,8.52-8.52-3.81-8.52-8.52-8.52Z"/>
</svg>