<?xml version="1.0" encoding="UTF-8"?>
<svg id="Layer_1" xmlns="http://www.w3.org/2000/svg" version="1.1" viewBox="0 0 128 128">
  <!-- Generator: Adobe Illustrator 30.0.0, SVG Export Plug-In . SVG Version: 2.1.1 Build 123)  -->
  <defs>
    <style>
      .st0 {
        fill-rule: evenodd;
      }
    </style>
  </defs>
  <path class="st0" d="M122.5,88.47l-27.04,29.26h-16.04l18.23-17.11-16.63-1.22,4.96-23.03-17.5,15.79-19.06-8.69,4.76,17.16-15.95,2.33,21.27,14.78h-17.83L5.7,100.43c-.69-.33-.63-1.33.1-1.57l22.72-7.58L5.33,54.17c-.44-.71.2-1.59,1.02-1.4l32.39,7.8L29.66,11.31c-.16-.85.88-1.38,1.49-.77l42.42,42.63,37.74-22.88c.79-.48,1.78.17,1.65,1.08l-7.49,51.81,16.39,3.32c.91.18,1.27,1.28.64,1.96Z"/>
</svg>