<?xml version="1.0" encoding="UTF-8"?>
<svg id="Layer_1" xmlns="http://www.w3.org/2000/svg" version="1.1" viewBox="0 0 128 128">
  <!-- Generator: Adobe Illustrator 30.0.0, SVG Export Plug-In . SVG Version: 2.1.1 Build 123)  -->
  <defs>
    <style>
      .st0 {
        fill-rule: evenodd;
      }
    </style>
  </defs>
  <path class="st0" d="M112.08,98.12s-10.44,14.54-48.1,14.87c-.05,0-.09.02-.14.03-.17,0-.32-.01-.48-.01-.17,0-.32.01-.49.01-.05,0-.09-.02-.14-.03-37.54-.33-46.84-14.87-46.84-14.87,0,0-10.79-49.14-6.93-50.82,3.87-1.67,27.72,16.17,27.72,16.17,0,0,15.76-38.31,24.72-46.82.64-1.08,1.32-1.69,2.03-1.69.15,0,.32.05.49.09.16-.04.33-.09.48-.09.7,0,1.36.6,1.99,1.65,8.98,8.42,24.84,46.86,24.84,46.86,0,0,23.93-17.84,27.8-16.17,3.88,1.67-6.95,50.82-6.95,50.82Z"/>
</svg>