<?xml version="1.0" encoding="UTF-8"?>
<svg id="Layer_1" xmlns="http://www.w3.org/2000/svg" version="1.1" viewBox="0 0 128 128">
  <!-- Generator: Adobe Illustrator 30.0.0, SVG Export Plug-In . SVG Version: 2.1.1 Build 123)  -->
  <defs>
    <style>
      .st0 {
        fill-rule: evenodd;
      }
    </style>
  </defs>
  <path class="st0" d="M116.64,57.39c.37,11.61-.67,21.97-1.53,28.39-.55,4.13-2.76,7.87-6.18,10.41-6.74,5-19.54,13.67-35.51,20.41-6.63,2.8-14.21,2.8-20.84,0-15.97-6.75-28.77-15.41-35.51-20.41-3.42-2.54-5.63-6.28-6.18-10.41-.85-6.4-1.89-16.71-1.53-28.26-.36-18.31.46-25.85.85-36.58.1-2.77,2.59-4.9,5.46-4.66,7.61.63,14.72,1.66,21.02,2.81,4.79-2.65,10.15-5.31,16-7.75,6.57-2.74,14.06-2.74,20.63,0,5.85,2.44,11.21,5.11,16,7.75,6.29-1.15,13.41-2.18,21.01-2.81,2.87-.24,5.36,1.89,5.46,4.66.39,10.7,1.2,18.23.85,36.45ZM100.14,39.55c-.07-1.79-1.8-3.16-3.79-3.01-4.83.38-9.35.97-13.44,1.63-3.66-2.23-8.27-4.74-13.82-6.94-3.55-1.41-7.6-1.41-11.15,0-5.54,2.2-10.16,4.71-13.82,6.94-4.08-.67-8.6-1.26-13.44-1.63-1.99-.15-3.72,1.22-3.79,3.01-.24,6.19-.72,20.19-.64,29.53-.04,1.65,0,3.17.08,4.59,0,.15,0,.28,0,.43h.02c.2,3.02.61,5.63.98,8.2.38,2.66,1.91,5.08,4.29,6.72,4.67,3.23,13.56,8.82,24.63,13.18,4.6,1.81,9.86,1.81,14.46,0,11.08-4.36,19.96-9.95,24.63-13.18,2.37-1.64,3.9-4.06,4.29-6.72.37-2.57.77-5.18.98-8.2h.07c.33-12.94-.27-27.33-.56-34.55ZM94.54,73.84c-.17,2.45-.48,4.6-.81,6.87l-.12.84c-.15,1.01-.77,1.95-1.76,2.62-4.17,2.86-12.77,8.29-23.47,12.47-1.57.61-3.31.94-5.04.94s-3.48-.32-5.04-.93c-10.69-4.17-19.29-9.6-23.47-12.47-.99-.68-1.62-1.61-1.76-2.62l-.12-.85c-.33-2.27-.64-4.41-.81-6.86l-.02-.28h0s0-.11,0-.11c-.08-1.31-.1-2.64-.07-4.07v-.1s0-.1,0-.1c-.07-8.3.31-20.3.53-26.15,3.38.32,6.87.77,10.4,1.34l2.2.36,1.9-1.15c4.32-2.62,8.55-4.73,12.93-6.45,1.05-.41,2.21-.63,3.37-.63s2.32.22,3.37.63c4.38,1.72,8.61,3.83,12.93,6.45l1.9,1.15,2.2-.36c3.53-.57,7.02-1.02,10.4-1.34.28,7.24.68,18.67.48,29.3l-.1,1.49Z"/>
</svg>