<?xml version="1.0" encoding="UTF-8"?>
<svg id="Layer_1" xmlns="http://www.w3.org/2000/svg" version="1.1" viewBox="0 0 128 128">
  <!-- Generator: Adobe Illustrator 30.0.0, SVG Export Plug-In . SVG Version: 2.1.1 Build 123)  -->
  <defs>
    <style>
      .st0 {
        fill-rule: evenodd;
      }
    </style>
  </defs>
  <path class="st0" d="M119.68,49.04l-52.54,62.47c-.14.18-.3.34-.48.5-.32.28-.69.51-1.07.67-.51.22-1.04.32-1.57.32h0c-.53,0-1.06-.1-1.56-.32-.39-.16-.75-.39-1.08-.68-.17-.15-.33-.32-.48-.49L8.35,49.04c-1.99-2.65,0-5.33.06-5.4l13.4-24.1s0,0,0-.01l.03-.05c-.32.58.66-1.79,3.11-2.04.01,0,.03,0,.04,0l26.97-2.42c.12-.01.24-.02.36-.02h23.85c.12,0,.25,0,.37.02l26.43,2.42c.14.01.28.03.41.05,1.58.29,2.38,1.37,2.61,1.7.08.11.15.23.21.35l13.41,24.11c.99,1.55,1.42,3.78.06,5.4ZM106.08,52.75l-12.92,2.94-12.84,27.7,25.77-30.64ZM64.01,99.46l20.03-43.2h-40.06l20.03,43.2ZM47.71,83.39l-12.84-27.7-12.92-2.94,25.77,30.64ZM34.87,47.49l4.31-17.85-11.87-3.47-9.68,17.4,17.24,3.92ZM80.94,31.12c-4.92.22-14.48.15-33.81-.19l-4.18,17.33h42.12l-4.13-17.14ZM100.71,26.16l-11.87,3.47,4.31,17.86,17.24-3.92-9.68-17.41Z"/>
</svg>