<?xml version="1.0" encoding="UTF-8"?>
<svg id="Layer_1" xmlns="http://www.w3.org/2000/svg" version="1.1" viewBox="0 0 128 128">
  <!-- Generator: Adobe Illustrator 30.0.0, SVG Export Plug-In . SVG Version: 2.1.1 Build 123)  -->
  <path d="M57.87,116.66v-10.19c-9.22-1.21-18.32-5.1-25.6-11.28l12.01-15.29c6.07,5.28,12.92,7.95,19.9,7.89,7.1.06,11.23-2.73,11.16-7.16.06-3.7-2.67-5.64-11.53-7.77l-3.76-.97c-16.14-3.94-24.94-12.62-24.88-24.88-.06-12.32,9.16-22.09,22.69-25.12v-10.56h13.83v9.95c8.62,1.09,16.87,4.73,24.03,10.44l-11.77,15.41c-5.88-4.73-11.47-6.98-17.35-6.92-6.31-.06-10.98,2.73-11.04,6.67.06,2.85,2.73,4.55,9.46,6.43l3.88,1.09c17.9,4.91,26.82,12.86,26.82,25.73s-9.59,23.54-24.03,26.09v10.44h-13.83Z"/>
</svg>