<?xml version="1.0" encoding="UTF-8"?>
<svg id="Layer_1" xmlns="http://www.w3.org/2000/svg" version="1.1" viewBox="0 0 128 128">
  <!-- Generator: Adobe Illustrator 30.0.0, SVG Export Plug-In . SVG Version: 2.1.1 Build 123)  -->
  <defs>
    <style>
      .st0 {
        fill-rule: evenodd;
      }
    </style>
  </defs>
  <path class="st0" d="M94.54,119.94v-14.26h24.36v14.26h-24.36ZM94.54,69.64c0-1.74-.16-3.43-.44-5.09h20.77c.01.44.03.87.03,1.31v34.26h-20.36v-30.47ZM84.35,46.81l16.04-16.11-1.69-1.7c8.35,7.67,14.1,18.15,15.73,29.96h-21.8c-1.75-4.71-4.62-8.86-8.28-12.16ZM69.92,39.55l10.07-6.41v-14.97c6.01,1.88,11.51,4.89,16.3,8.76l-16.45,16.51c-3.01-1.84-6.35-3.19-9.92-3.9ZM53.56,30.08V8.06h20.87v22.02l-10.44,6.64-10.44-6.64ZM45.91,44.96l-16.24-16.31c5.23-4.71,11.46-8.32,18.34-10.47v14.97l10.07,6.41c-4.49.89-8.62,2.77-12.17,5.4ZM25.76,32.61l15.99,16.06c-2.76,2.95-4.96,6.44-6.39,10.3H13.57c1.38-10.06,5.77-19.14,12.19-26.36ZM33.46,69.64v30.47H13.09v-34.26c0-.44.02-.87.03-1.31h20.77c-.28,1.66-.44,3.36-.44,5.09ZM33.46,119.94H9.09v-14.26h24.36v14.26ZM64,50.84c11.58,0,20.99,9.45,20.99,21.08v41.73h-41.98v-41.73c0-11.62,9.42-21.08,20.99-21.08Z"/>
</svg>