<?xml version="1.0" encoding="UTF-8"?>
<svg id="Layer_1" xmlns="http://www.w3.org/2000/svg" version="1.1" viewBox="0 0 128 128">
  <!-- Generator: Adobe Illustrator 30.0.0, SVG Export Plug-In . SVG Version: 2.1.1 Build 123)  -->
  <defs>
    <style>
      .st0 {
        fill-rule: evenodd;
      }
    </style>
  </defs>
  <path class="st0" d="M113.78,25.91c-1.41,5.27-5.7,9.36-10.92,10.41l-3.38.68c-.49.1-.89.48-1.02.97l-.7,2.62c1.71,1.99,2.44,4.74,1.71,7.46-.54,2-1.78,3.63-3.39,4.69,7.55,7.85,20.24,24.53,15.05,43.89-4.54,16.96-18.36,22.28-33.74,19.6,3.86-4.31,6.45-9.87,7.38-16.73,4.03-.73,7.27-3.33,8.61-8.31,2.43-9.09-4.48-16.78-7.33-19.49-.73-.69-1.72-.96-2.7-.72-.97.23-2.33.62-3.86,1.2-3.3-5.99-7.68-11.08-12.2-15.26,6.03-3.77,12.29-6.06,16.85-7.38-.86-1.73-1.12-3.75-.59-5.76.77-2.88,2.99-4.97,5.67-5.74l.64-2.37c1.04-3.88,4.19-6.89,8.03-7.66l3.38-.68c1.87-.38,3.41-1.84,3.91-3.72.73-2.73-.83-5.52-3.48-6.23l-.81-.22c-2.47-.66-5.03.87-5.71,3.4-.66,2.45-3.12,3.92-5.49,3.28-2.37-.64-3.77-3.14-3.11-5.59,1.99-7.43,9.48-11.9,16.68-9.97l.81.22c7.39,1.98,11.75,9.79,9.71,17.41ZM77.87,92.3c0,19.24-14.36,27.87-32.08,27.87s-32.08-8.63-32.08-27.87,16.58-32.87,25.9-38.5c-1.28-1.44-2.06-3.33-2.06-5.41,0-2.98,1.6-5.58,3.99-7.01v-2.46c0-4.01,2.27-7.74,5.78-9.48l3.09-1.54c1.71-.85,2.81-2.66,2.81-4.61,0-2.82-2.23-5.12-4.98-5.12h-.84c-2.55,0-4.63,2.14-4.63,4.77s-2,4.59-4.45,4.59-4.45-2.06-4.45-4.59c0-7.69,6.07-13.95,13.54-13.95h.84c7.65,0,13.88,6.42,13.88,14.3,0,5.46-3.08,10.52-7.85,12.89l-3.09,1.53c-.45.22-.74.7-.74,1.2v2.71c2.16,1.48,3.58,3.95,3.58,6.76,0,2.08-.78,3.96-2.06,5.41,9.32,5.63,25.9,18.46,25.9,38.5ZM47.19,73.14c-.89-.48-1.91-.48-2.79,0-3.46,1.87-12.13,7.52-12.13,16.92,0,8.11,6.06,11.75,13.52,11.75s13.52-3.64,13.52-11.75c0-9.41-8.67-15.05-12.13-16.92Z"/>
</svg>