<?xml version="1.0" encoding="UTF-8"?>
<svg id="Layer_1" xmlns="http://www.w3.org/2000/svg" version="1.1" viewBox="0 0 128 128">
  <!-- Generator: Adobe Illustrator 30.0.0, SVG Export Plug-In . SVG Version: 2.1.1 Build 123)  -->
  <defs>
    <style>
      .st0 {
        fill-rule: evenodd;
      }
    </style>
  </defs>
  <path class="st0" d="M116.42,106.09h-24.17c-1.07,0-1.94-.87-1.94-1.94v-14.15c0-1.07.87-1.94,1.94-1.94h12.92v-51.06h-12.92c-1.07,0-1.94-.87-1.94-1.94v-14.15c0-1.07.87-1.94,1.94-1.94h24.17c1.99,0,3.61,1.62,3.61,3.62v79.88c0,2-1.62,3.62-3.61,3.62ZM99.23,66.31l-49.11,42.86c-1.54,1.34-3.94.25-3.94-1.8v-21.27H10.61c-1.46,0-2.64-1.18-2.64-2.65v-36.84c0-1.46,1.18-2.65,2.64-2.65h35.57v-23.32c0-2.05,2.4-3.15,3.94-1.8l49.11,42.86c1.4,1.22,1.4,3.4,0,4.62Z"/>
</svg>