<?xml version="1.0" encoding="UTF-8"?>
<svg id="Layer_1" xmlns="http://www.w3.org/2000/svg" version="1.1" viewBox="0 0 128 128">
  <!-- Generator: Adobe Illustrator 30.0.0, SVG Export Plug-In . SVG Version: 2.1.1 Build 123)  -->
  <defs>
    <style>
      .st0 {
        fill-rule: evenodd;
      }
    </style>
  </defs>
  <path class="st0" d="M104,31.03c-3.39,5.23-9.65,18.84-11.47,22.85-.32.71-.96,1.22-1.72,1.37-3.43.71-13.15,2.7-15.78,2.99,0,0,4.75,7.81,1.42,10.11-3.33,2.3-16.96,4.86-16.96,4.86l1.83,7.9c.13.58-.11,1.17-.61,1.48-2.58,1.58-10.86,6.33-20.99,8.53-1.15.25-2.2.47-3.21.67,20.05-34.28,40.43-49.78,40.43-49.78,5.45-4.41,2.33-6.59-2.85-3.29-.41.29-1.1.88-1.9,1.65-1.2,1.15-2.42,2.27-3.67,3.36-6.64,5.75-29.1,27.07-48.13,67.24-.22.46-.61.81-1.1.97l-7.5,2.46c-.73.24-1.4-.52-1.06-1.21,1.71-3.48,5.81-11.53,11.66-21.33-3.56-4.4-11.66-17.18-3.59-34.92.2-.43.66-.69,1.12-.63l12.43,1.51s-1.33-8.46-1.07-12.92c.03-.56.51-.99,1.08-.98l13.76.3.38-7.85c.04-.8.37-1.56.94-2.12,5.36-5.33,34.39-31.7,69.38-15.42.65.3.68,1.21.06,1.56-3.02,1.72-9.84,5.93-12.9,10.65Z"/>
</svg>