<?xml version="1.0" encoding="UTF-8"?>
<svg id="Layer_1" xmlns="http://www.w3.org/2000/svg" version="1.1" viewBox="0 0 128 128">
  <!-- Generator: Adobe Illustrator 30.0.0, SVG Export Plug-In . SVG Version: 2.1.1 Build 123)  -->
  <defs>
    <style>
      .st0 {
        fill-rule: evenodd;
      }
    </style>
  </defs>
  <path class="st0" d="M116.92,42.4c1.84,1.13,2.96,2.76,2.74,4.44-.36,2.68-3.92,4.41-7.95,3.87-.06,0-.11-.02-.16-.03-3.35,7.39-9.96,17.42-20.17,21.53-4.13,1.66-8.63,2.78-13.25,3.53-6.51,11.17-17.45,13.93-20.84,12.85-4.63-1.47-3.35-7.08-1.33-11.72-6.86-.25-13.06-.92-17.64-1.48-9.26-1.13-12.76.32-12.8,6.18-.03,5.86,6.24,8.86,13.49,7.11,7.25-1.75,12.29-.44,10.25,6.56-2.05,7-9.07,9.15-9.07,9.15,3.03,5.52,3.26,17.75-11.58,8.12-19.25-12.49-20.33-34.84-20.33-34.84-.41-12.88,5.66-25.53,15.52-35.81-1.14-3.36-1.93-9.11,3.24-13.91,7.84-7.28,26.92-17.83,33.31-15.76,4.28,1.39,7.8,4.72,9.67,6.77,20.05-2.03,33.79,8.32,40.73,15.66.12-.04.24-.1.37-.14,3.88-1.22,7.69-.12,8.51,2.46.59,1.86-.55,3.97-2.68,5.47ZM70.34,48.66c-1.81-9.22,1.07-18.26,6.98-24.82-9.24,3.52-14.24,12.09-13.52,21.74.72,9.54,6.79,17.23,16.28,19.51-4.87-4.11-8.43-9.77-9.74-16.44ZM91.06,35.14c-2.68.19-4.69,2.51-4.49,5.18.2,2.67,2.53,4.68,5.21,4.49,2.68-.19,4.69-2.51,4.49-5.18-.2-2.67-2.53-4.68-5.21-4.49Z"/>
</svg>