<?xml version="1.0" encoding="UTF-8"?>
<svg id="Layer_1" xmlns="http://www.w3.org/2000/svg" version="1.1" viewBox="0 0 128 128">
  <!-- Generator: Adobe Illustrator 30.0.0, SVG Export Plug-In . SVG Version: 2.1.1 Build 123)  -->
  <defs>
    <style>
      .st0 {
        fill-rule: evenodd;
      }
    </style>
  </defs>
  <path class="st0" d="M56.07,60.94c1.86.13,8.32-.42,8.32-.42,0,0-2.22-2.23-3.03-4.53-.81-2.3-1.15-9.19,1.71-14.73,2.86-5.54,11.99-4.66,11.99-4.66,0,0,.94-9.51.97-11.69.03-2.18-1.05-3.63-3.22-4.06-2.17-.43-15.57-.56-19.44-.22-3.86.33-4.67,3.66-4.67,3.66,0,0,2.61,31.89,3.06,34.51.45,2.62,2.44,2.01,4.31,2.14ZM31.6,62.83c1.2-.03,8.74-.84,11.36-1.58,2.63-.75,3.21-3,3.03-4.09-.18-1.1-4.39-30.26-4.92-31.89-.53-1.63-2-1-3.07-.97-1.07.03-13.76,3.27-16.17,4.44-2.41,1.16-2.15,2.13-2.2,3.52-.07,1.79,6.82,25.31,8.36,28.03,1.54,2.72,2.42,2.57,3.62,2.55ZM107.09,44.52s-1.45-12.79-1.68-14.49c-.23-1.7-1.47-3.6-3.05-4.24-1.59-.64-14.15-2.1-15.78-2.12-1.62-.03-3.35,1.32-3.57,2.54-.22,1.22-.63,10.55-.63,10.55,13.88-.45,24.72,7.76,24.72,7.76ZM109.36,61c-.08-3.04.03-8.93-4.11-11.17-4.14-2.24-18.68-8.18-28.7-8.34-.81-.01-5.73-.55-7.39,2.36-1.66,2.91-1.68,9.77-1.48,11.28.2,1.51,1.88,2.71,3.36,3.1,1.48.39,14.18,3.44,14.18,3.44,0,0-13.3,2.03-15.91,8.63-2.6,6.59-1.95,11.08-1.95,11.08,0,0-5.06-6.62-3.54-13.63,0,0-5.06.14-7.64.26-2.58.12-3.89-.35-4.64-.95,0,0-8.83,2.79-12.11,3-3.28.21-8.16-.72-11.58-2.2-3.42-1.47-7.29-5.07-7.64-5.71-.35-.64-1.53.35-1.59,1.32-.05.97,2.11,15.53,3.18,17.33,1.07,1.81,4.38,5.05,6.18,5.36,0,0-.53,17.07-.64,18.56-.11,1.49.48,2.7,1.93,2.81,1.45.1,56.37.04,60.5-.31,4.13-.36,4.36-.48,4.36-1.8s-.76-14.26-.76-14.26c0,0,10.66-6.68,12.04-7.43,1.38-.76,2.89-3.73,3.32-7.24.43-3.51.7-12.42.62-15.47Z"/>
</svg>