<?xml version="1.0" encoding="UTF-8"?>
<svg id="Layer_1" xmlns="http://www.w3.org/2000/svg" version="1.1" viewBox="0 0 128 128">
  <!-- Generator: Adobe Illustrator 30.0.0, SVG Export Plug-In . SVG Version: 2.1.1 Build 123)  -->
  <defs>
    <style>
      .st0 {
        fill-rule: evenodd;
      }
    </style>
  </defs>
  <path class="st0" d="M117.06,85.33c-8.17,2.49-29.49,11-41.52,34.29-.45.88-1.35,1.45-2.34,1.45-1.54,0-2.76-1.31-2.62-2.84.09-1.03.23-2.34.44-3.84,0-.07-.02-.14-.01-.21,1.06-24.63-5.06-37.16-7.62-41.28-2.76,4.65-7.65,7.96-13.46,8.47-8.96.79-16.93-5.35-18.6-13.96-.9.23-1.83.41-2.79.49-9.58.84-18.02-6.22-18.86-15.77-.68-7.73,3.85-14.73,10.68-17.55-1.79-2.46-2.97-5.4-3.25-8.65-.84-9.55,6.25-17.97,15.83-18.81,6.23-.55,11.96,2.26,15.45,6.9,2.86-3.88,7.31-6.58,12.5-7.03,9.58-.84,18.02,6.22,18.86,15.77.42,4.75-1.13,9.22-3.97,12.62,5.97,2.32,10.42,7.84,11.02,14.63.84,9.55-6.25,17.97-15.83,18.81-.63.06-1.26.07-1.88.06,2.27,3.51,6.36,11.5,8.14,25.44,4.61-8.58,12.38-16.18,25.51-17.2,6.49-.5,11.85,2.59,14.9,4.91,1.22.93.89,2.84-.58,3.29ZM47.66,30.66s-2.87,5.35-11.07,9.75c0,0,5.43,5.83,5.76,13.71,5.61-2.59,14.63-1.28,14.63-1.28-.48-8.64,3.28-14.5,3.28-14.5-8.96-1.86-12.6-7.68-12.6-7.68ZM44.11,86.73c17.06-.45,21.26,18.57,22.21,24.19.16.95-.54,1.83-1.51,1.91-.62.05-1.18-.28-1.54-.79-8.44-12.13-20.66-16.28-26.67-17.64-1.68-.38-2.22-2.46-.97-3.64,1.99-1.87,4.98-3.94,8.47-4.03Z"/>
</svg>