<?xml version="1.0" encoding="UTF-8"?>
<svg id="Layer_1" xmlns="http://www.w3.org/2000/svg" version="1.1" viewBox="0 0 128 128">
  <!-- Generator: Adobe Illustrator 30.0.0, SVG Export Plug-In . SVG Version: 2.1.1 Build 123)  -->
  <defs>
    <style>
      .st0 {
        fill-rule: evenodd;
      }
    </style>
  </defs>
  <path class="st0" d="M34.28,85.5h59.43c1.39,0,2.48-1.2,2.34-2.59l-4.86-48.78c-.12-1.21-1.13-2.12-2.34-2.12h-49.71c-1.21,0-2.22.92-2.34,2.12l-4.86,48.78c-.14,1.39.95,2.59,2.34,2.59ZM56.82,49.45l6.18-6.89c.53-.6,1.47-.6,2,0l6.18,6.89c.22.25.35.57.35.9v24.14c0,.75-.6,1.35-1.35,1.35h-12.35c-.74,0-1.35-.61-1.35-1.35v-24.14c0-.33.12-.66.35-.9ZM98.36,6h-13.51c-.89,0-1.6.72-1.6,1.61v6.99h-10.88v-6.99c0-.89-.72-1.61-1.6-1.61h-13.51c-.89,0-1.6.72-1.6,1.61v6.99h-10.86v-6.99c0-.89-.72-1.61-1.6-1.61h-13.51c-.88,0-1.6.72-1.6,1.61v16.74c0,1.11.89,2,1.99,2h67.9c1.1,0,1.99-.9,1.99-2V7.61c.01-.89-.71-1.61-1.59-1.61ZM100.88,90.96H27.12c-.9,0-1.66.67-1.78,1.56l-3.69,27.43c-.15,1.08.69,2.05,1.78,2.05h81.15c1.09,0,1.93-.96,1.78-2.05l-3.69-27.43c-.12-.9-.88-1.56-1.78-1.56Z"/>
</svg>