<?xml version="1.0" encoding="UTF-8"?>
<svg id="Layer_1" xmlns="http://www.w3.org/2000/svg" version="1.1" viewBox="0 0 128 128">
  <!-- Generator: Adobe Illustrator 30.0.0, SVG Export Plug-In . SVG Version: 2.1.1 Build 123)  -->
  <defs>
    <style>
      .st0 {
        fill-rule: evenodd;
      }
    </style>
  </defs>
  <path class="st0" d="M108.64,86.55l-17.31-10.01v-25.08l17.31-10.01c3.42,6.78,5.35,14.43,5.35,22.55s-1.94,15.77-5.36,22.55ZM66.83,34.02V14c16.31.91,30.54,9.66,38.99,22.55l-17.31,10.01-21.68-12.54ZM85.68,76.54l-21.68,12.54-21.68-12.54v-25.08l21.68-12.54,21.68,12.54v25.08ZM22.18,36.55c8.45-12.89,22.67-21.63,38.99-22.55v20.02l-21.68,12.54-17.31-10.01ZM36.66,51.46v25.08l-17.31,10.01c-3.42-6.78-5.35-14.43-5.35-22.55s1.94-15.77,5.35-22.55l17.31,10.01ZM61.17,93.98v20.02c-16.32-.91-30.54-9.66-38.99-22.55l17.31-10.01,21.68,12.54ZM105.81,91.45c-8.45,12.89-22.67,21.63-38.98,22.54v-20.01l21.68-12.54,17.3,10.01Z"/>
</svg>