<?xml version="1.0" encoding="UTF-8"?>
<svg id="Layer_1" xmlns="http://www.w3.org/2000/svg" version="1.1" viewBox="0 0 128 128">
  <!-- Generator: Adobe Illustrator 30.0.0, SVG Export Plug-In . SVG Version: 2.1.1 Build 123)  -->
  <defs>
    <style>
      .st0 {
        fill-rule: evenodd;
      }
    </style>
  </defs>
  <path class="st0" d="M101.02,101.05c-10.21,10.21-23.61,15.32-37.02,15.32s-26.82-5.11-37.02-15.32c-20.41-20.43-20.41-53.67,0-74.09,20.42-20.43,53.63-20.43,74.05,0,20.41,20.43,20.41,53.67,0,74.09ZM105.26,69.35h-16.86c-.69,13.33-3.93,25.1-8.71,33.23,13.63-5.56,23.63-18.13,25.57-33.23ZM63.98,105.66c7.06,0,12.89-15.83,13.77-36.31h-27.53c.87,20.48,6.7,36.31,13.77,36.31ZM48.27,102.58c-4.78-8.14-8.02-19.91-8.71-33.23h-16.86c1.94,15.1,11.94,27.67,25.57,33.23ZM22.7,58.67h16.86c.69-13.33,3.93-25.1,8.71-33.23-13.63,5.56-23.63,18.13-25.57,33.23ZM63.98,22.36c-7.06,0-12.89,15.83-13.77,36.31h27.53c-.87-20.48-6.7-36.31-13.77-36.31ZM79.69,25.44c4.78,8.14,8.02,19.91,8.71,33.23h16.86c-1.94-15.1-11.94-27.67-25.57-33.23Z"/>
</svg>