<?xml version="1.0" encoding="UTF-8"?>
<svg id="Layer_1" xmlns="http://www.w3.org/2000/svg" version="1.1" viewBox="0 0 128 128">
  <!-- Generator: Adobe Illustrator 30.0.0, SVG Export Plug-In . SVG Version: 2.1.1 Build 123)  -->
  <defs>
    <style>
      .st0 {
        fill-rule: evenodd;
      }
    </style>
  </defs>
  <path class="st0" d="M107.57,62.35c.23,1.82.12,3.79-.44,5.99-.69,2.75-4.58,10.03-6.96,13.69-5.74,8.82-11.66,17.5-18.14,25.99-2.82,3.7-3.1,3.68-6.17,7.3-3.3,3.87-9.62,4.51-13.82,1.54-4.21-2.98-4.99-8.57-1.89-12.54,1.1-1.39,8.96-11.67,8.34-10.82,1.01-1.39.61-3.38-.89-4.43-.1-.07-.19-.13-.29-.2-1.5-1.06-3.52-.78-4.53.62-.54.75-5.33,7.23-7.49,10.08-2.95,3.9-3.32,4.11-6.4,7.98-3.46,4.31-9.95,5.19-14.35,2.02-4.41-3.18-5.3-9.3-2.03-13.69,2.03-2.71,13.84-18.76,13.35-18.1,1.01-1.4.66-3.37-.78-4.39-.09-.07-.18-.13-.28-.2-1.44-1.03-3.42-.72-4.44.67.67-.93-11.67,15.42-14.04,18.61-2.99,4.03-9.15,4.61-13.2,1.69-4.05-2.92-4.34-8.12-1.41-12.17,7.97-12.6,13.35-19.78,21.73-31.45-7.07-.32-12.04-1.75-16.53-5.37-.08-.07-.16-.13-.24-.2-6-4.95-2.34-13.34,4.65-15.62,6.55-2.91,17.48-6.04,31.49-5.48,1.37.21,2.89.43,4.57.73-.61-2.38-1.02-6.19,1.12-9.59,3.19-5.07,4.63-7.22,13.27-4.57,8.64,2.65,28.78,9.39,42.82,30.32,9.97,14.87-3.56,20.45-7.04,21.6ZM97.51,55.78c-.18.28-.37.56-.59.83-1.57,1.94-4.2,4.33-7.86,4.7-3.63.33-7.81-1.31-12.09-4.84-7.87-6.49-9.42-12.93-4.65-19.17l-4.07-2.99c-5.17,6.8-6.5,17.19,4.93,26.6,5.54,4.56,10.46,5.7,14.01,5.7.58,0,1.12-.03,1.61-.08,4.58-.46,8.7-2.8,11.91-6.77.28-.34.52-.7.77-1.06l-3.98-2.92Z"/>
</svg>