<?xml version="1.0" encoding="UTF-8"?>
<svg id="Layer_1" xmlns="http://www.w3.org/2000/svg" version="1.1" viewBox="0 0 128 128">
  <!-- Generator: Adobe Illustrator 30.0.0, SVG Export Plug-In . SVG Version: 2.1.1 Build 123)  -->
  <defs>
    <style>
      .st0 {
        fill-rule: evenodd;
      }
    </style>
  </defs>
  <path class="st0" d="M126.19,109.68l-14.33,6.62c-1.05.48-2.25-.21-2.37-1.37-.42-4.13-.89-13.47,1.44-25.51-2.63-1.39-4.42-4.15-4.42-7.35s1.76-5.91,4.35-7.31c-.9-4.98-3.49-14.15-10.62-18.79l-31.31-9.79c.3-.45.48-.94.48-1.46,0-2.29-3.21-4.15-7.16-4.15s-7.16,1.86-7.16,4.15,3.21,4.15,7.16,4.15c.64,0,1.26-.07,1.85-.16l33.06,10.34c.31.2.62.42.91.64l-33.91,17.93c-1.19.63-2.62.63-3.82,0L2.04,46.8c-1.59-.84-1.59-3.13,0-3.97L60.33,12.02c1.19-.63,2.62-.63,3.82,0l58.29,30.82c1.59.84,1.59,3.13,0,3.97l-15.13,8c5.81,5.99,8.22,14.07,9.2,19.17,3.71.81,6.5,4.13,6.5,8.1,0,3.06-1.66,5.73-4.11,7.17.15,3.94,1.38,11.27,7.76,17.69.83.84.61,2.25-.46,2.74ZM29.76,68.59c15.28,8.08,30.39,16.07,30.39,16.07,1.31.69,2.87.69,4.18,0l30.39-16.07,3.75,25.58c.12.41.18.83.18,1.25,0,6.87-16.3,12.43-36.41,12.43s-36.41-5.57-36.41-12.43c0-.42.06-.84.18-1.25l3.75-25.58Z"/>
</svg>