<?xml version="1.0" encoding="UTF-8"?>
<svg id="Layer_1" xmlns="http://www.w3.org/2000/svg" version="1.1" viewBox="0 0 128 128">
  <!-- Generator: Adobe Illustrator 30.0.0, SVG Export Plug-In . SVG Version: 2.1.1 Build 123)  -->
  <path d="M113.85,68.77c-2.14-6.75-14.33-29.15-18.45-35.41-4.12-6.26-11.03-5.85-14.95-4.86-4.24,1.07-6.47,5.23-6.16,8.44.13,1.38.46,2.96,1.16,4.58,1.59,3.72-.41,1.89-3.52-2.91-1.67-2.59-4.51-4.34-7.59-4.28-.52,0-1.04.07-1.55.18-4.28.99-8.18,1.95-9.47,6.57-.99,3.54,2.55,12.62,2.55,12.62,0,0-16.06-26.19-19.76-34.34-3.71-8.15-11.86-8.15-17.05-5.44-5.19,2.72-9.14,10.62-2.96,23.47,6.18,12.85,30.88,44.47,30.88,44.47,0,0-4.41.31-9.35-4.14-1.87-1.69-9.45-12.6-9.45-12.6,0,0-8.22,10.77-6.04,22.88,1.64,9.14,12.02,20.43,25.04,23.39,13.01,2.96,25.08,5.16,31.59,3.99,10.09-1.82,28.29-15.54,33.43-25.03,2.96-5.45,3.79-14.82,1.65-21.58Z"/>
</svg>