<?xml version="1.0" encoding="UTF-8"?>
<svg id="Layer_1" xmlns="http://www.w3.org/2000/svg" version="1.1" viewBox="0 0 128 128">
  <!-- Generator: Adobe Illustrator 30.0.0, SVG Export Plug-In . SVG Version: 2.1.1 Build 123)  -->
  <path d="M64.16,112.76c-5.8,0-11.66-1.2-16.44-3.58-14.6-7.27-39.29-23.99-40.7-54.22-.52-11.08,3.35-21.77,10.61-29.34,6.42-6.69,14.8-10.38,23.58-10.38,11.17,0,18.53,5.99,22.79,11.14,4.26-5.15,11.61-11.14,22.79-11.14,8.78,0,17.16,3.69,23.58,10.38,7.26,7.57,11.13,18.26,10.61,29.34-1.42,30.49-26.47,47.24-41.27,54.51-4.49,2.2-10,3.3-15.55,3.3ZM41.21,25.34c-5.98,0-11.74,2.58-16.23,7.25-5.35,5.58-8.2,13.56-7.81,21.89.61,13.15,7.2,31.75,35.1,45.66,6.53,3.25,16.61,3.37,22.94.26,15.63-7.67,34.5-21.87,35.62-45.91.39-8.33-2.46-16.31-7.81-21.89-4.49-4.68-10.25-7.25-16.23-7.25-12.45,0-17.91,11.86-18.14,12.36-.82,1.82-2.64,3.01-4.64,3.01,0,0-.02,0-.03,0-2.01-.01-3.84-1.19-4.64-3.03-.22-.48-5.68-12.34-18.13-12.34Z"/>
</svg>