<?xml version="1.0" encoding="UTF-8"?>
<svg id="Layer_1" xmlns="http://www.w3.org/2000/svg" version="1.1" viewBox="0 0 128 128">
  <!-- Generator: Adobe Illustrator 30.0.0, SVG Export Plug-In . SVG Version: 2.1.1 Build 123)  -->
  <path d="M109.01,72.4c-1.9-24.57-12.13-41.07-15.74-46.21-.5-.72.01-1.7.89-1.7h2.19c1.02,0,1.84-.83,1.84-1.84v-9.64c0-1.02-.83-1.84-1.84-1.84h-17.73c-1.04,0-1.87.84-1.87,1.87v9.72s12.75,23.57,12.75,43.92c0,.63-.02,1.25-.05,1.86-1.76,32.81-50.89,32.11-50.97-.74,0-.37,0-.74.02-1.12.65-20.34,12.75-43.92,12.75-43.92v-9.72c0-1.04-.84-1.87-1.87-1.87h-17.73c-1.02,0-1.84.83-1.84,1.84v9.64c0,1.02.83,1.84,1.84,1.84h2.19c.88,0,1.39.99.89,1.7-3.61,5.13-13.84,21.64-15.74,46.21-2.32,29.94,24.92,44.43,45.01,44.43s47.33-14.49,45.01-44.43ZM29.22,71.04c-2.41,0-4.37-1.96-4.37-4.37s1.96-4.37,4.37-4.37,4.37,1.96,4.37,4.37-1.96,4.37-4.37,4.37ZM36.95,97.47c-2.41,0-4.37-1.96-4.37-4.37s1.96-4.37,4.37-4.37,4.37,1.96,4.37,4.37-1.96,4.37-4.37,4.37ZM64,109.41c-2.41,0-4.37-1.96-4.37-4.37s1.96-4.37,4.37-4.37,4.37,1.96,4.37,4.37-1.96,4.37-4.37,4.37ZM91.05,97.47c-2.41,0-4.37-1.96-4.37-4.37s1.96-4.37,4.37-4.37,4.37,1.96,4.37,4.37-1.96,4.37-4.37,4.37ZM98.78,71.04c-2.41,0-4.37-1.96-4.37-4.37s1.96-4.37,4.37-4.37,4.37,1.96,4.37,4.37-1.96,4.37-4.37,4.37Z"/>
</svg>