<?xml version="1.0" encoding="UTF-8"?>
<svg id="Layer_1" xmlns="http://www.w3.org/2000/svg" version="1.1" viewBox="0 0 128 128">
  <!-- Generator: Adobe Illustrator 30.0.0, SVG Export Plug-In . SVG Version: 2.1.1 Build 123)  -->
  <defs>
    <style>
      .st0 {
        fill-rule: evenodd;
      }
    </style>
  </defs>
  <path class="st0" d="M111.25,79.1c-11.98,11.99-29.41,15.16-44.29,9.53l-30.64,30.74c-1.14,1.15-2.99,1.15-4.13,0l-19.51-19.57c-1.14-1.14-1.14-3,0-4.15l6.68-6.7-13.98-14.03c-1.14-1.14-1.14-3,0-4.15l14.2-14.25c1.14-1.15,2.99-1.15,4.13,0l13.98,14.03,5.33-5.35c-6.07-15.07-3.01-32.98,9.19-45.19,16.3-16.32,42.72-16.32,59.02,0,16.3,16.32,16.3,42.77,0,59.09ZM96.98,34.29c-8.42-8.43-22.07-8.43-30.49,0-8.42,8.43-8.42,22.09,0,30.52,8.42,8.43,22.07,8.43,30.49,0,8.42-8.43,8.42-22.09,0-30.52Z"/>
</svg>