<?xml version="1.0" encoding="UTF-8"?>
<svg id="Layer_1" xmlns="http://www.w3.org/2000/svg" version="1.1" viewBox="0 0 128 128">
  <!-- Generator: Adobe Illustrator 30.0.0, SVG Export Plug-In . SVG Version: 2.1.1 Build 123)  -->
  <defs>
    <style>
      .st0 {
        fill-rule: evenodd;
      }
    </style>
  </defs>
  <path class="st0" d="M92.28,96.15c-8.93,5.27-18.58,6.74-26.38,6.8.92,3.23,3.17,10.42,6.56,16.66.49.9.01,2.02-.97,2.3-2.7.77-7.77,2.02-12.25,2.11-.82.02-1.52-.57-1.64-1.38-.6-4.15-2.23-16.86-1.17-25.32h.02c1.7-45.91,24.1-70.68,24.1-70.68-32.94,23.17-33.22,61.58-32.46,73.39-8.26-4.67-36.42-23.27-22.42-53.2,7.03-15.02,26.24-30.35,52.01-36.81,6.89-1.73,11.74-3.88,14.92-5.65,2.01-1.12,4.45.43,4.29,2.73-.58,8.08-.59,22.82,4.89,36.53,4.87,12.18,9.8,41.13-9.49,52.53Z"/>
</svg>