<?xml version="1.0" encoding="UTF-8"?>
<svg id="Layer_1" xmlns="http://www.w3.org/2000/svg" version="1.1" viewBox="0 0 128 128">
  <!-- Generator: Adobe Illustrator 30.0.0, SVG Export Plug-In . SVG Version: 2.1.1 Build 123)  -->
  <path d="M121.27,63.02l-13.11-3.89c-.97-8.58-4.39-16.42-9.54-22.82l6.28-11.57c.57-1.06-.58-2.21-1.64-1.64l-11.6,6.29c-6.39-5.1-14.21-8.47-22.75-9.42l-3.93-13.25c-.29-.98-1.67-.98-1.96,0l-3.93,13.25c-8.54.94-16.36,4.32-22.75,9.42l-11.6-6.29c-1.06-.57-2.21.58-1.64,1.64l6.28,11.57c-5.15,6.39-8.57,14.24-9.54,22.82l-13.11,3.89c-.98.29-.98,1.67,0,1.96l13.07,3.88c.91,8.64,4.32,16.55,9.48,23l-6.19,11.4c-.57,1.06.58,2.21,1.64,1.64l11.38-6.17c6.45,5.22,14.39,8.66,23.07,9.6l3.84,12.94c.29.98,1.67.98,1.96,0l3.84-12.94c8.68-.94,16.61-4.39,23.07-9.6l11.38,6.17c1.06.57,2.21-.58,1.64-1.64l-6.19-11.4c5.16-6.45,8.57-14.36,9.48-23l13.07-3.88c.98-.29.98-1.67,0-1.96ZM100.81,56.95l-14.18-4.2c-5.47-1.62-9.75-5.9-11.38-11.38l-4.17-14.06c14.97,2.87,26.81,14.68,29.73,29.64ZM56.92,27.32l-4.17,14.06c-1.62,5.47-5.9,9.75-11.38,11.38l-14.18,4.2c2.92-14.96,14.75-26.76,29.73-29.64ZM27.13,71.03l14.24,4.22c5.47,1.62,9.75,5.9,11.38,11.38l4.26,14.37c-15.12-2.86-27.05-14.83-29.87-29.96ZM70.99,100.99l4.26-14.37c1.62-5.47,5.9-9.75,11.38-11.38l14.24-4.22c-2.82,15.14-14.75,27.1-29.87,29.96Z"/>
</svg>