<?xml version="1.0" encoding="UTF-8"?>
<svg id="Layer_1" xmlns="http://www.w3.org/2000/svg" version="1.1" viewBox="0 0 128 128">
  <!-- Generator: Adobe Illustrator 30.0.0, SVG Export Plug-In . SVG Version: 2.1.1 Build 123)  -->
  <defs>
    <style>
      .st0 {
        fill-rule: evenodd;
      }
    </style>
  </defs>
  <path class="st0" d="M101.56,94.25l2.5,5.8c2.15,5-1.52,10.58-6.97,10.58-2.22,0-4.32-.97-5.76-2.65l-5.29-6.18c-1.49.46-3.02.89-4.64,1.27-11.42,2.71-23.37,2.71-34.79,0-1.62-.38-3.16-.82-4.64-1.27l-5.29,6.18c-1.44,1.68-3.55,2.65-5.76,2.65-5.45,0-9.12-5.57-6.97-10.58l2.5-5.8c-13.3-9.74-16.33-23.95-15.45-35.37.63-8.12,4.21-16.04,8.02-22.36h89.97c3.81,6.32,7.39,14.24,8.02,22.36.88,11.41-2.15,25.63-15.45,35.37ZM112.77,28.35c-.22,1.13-1.2,1.94-2.35,1.94H17.58c-1.15,0-2.13-.81-2.35-1.94l-1.57-8.13c-.29-1.48.85-2.85,2.35-2.85h95.99c1.5,0,2.63,1.37,2.35,2.85l-1.57,8.13Z"/>
</svg>