<?xml version="1.0" encoding="UTF-8"?>
<svg id="Layer_1" xmlns="http://www.w3.org/2000/svg" version="1.1" viewBox="0 0 128 128">
  <!-- Generator: Adobe Illustrator 30.0.0, SVG Export Plug-In . SVG Version: 2.1.1 Build 123)  -->
  <defs>
    <style>
      .st0 {
        fill-rule: evenodd;
      }
    </style>
  </defs>
  <path class="st0" d="M101.22,64l15.81,26.66c1.33,2.24-.3,5.08-2.92,5.08h-31.71l-15.48,26.11c-1.31,2.21-4.52,2.21-5.83,0l-15.48-26.11H13.9c-2.62,0-4.25-2.83-2.92-5.08l15.81-26.66-15.81-26.66c-1.33-2.24.3-5.08,2.92-5.08h31.71l15.48-26.11c1.31-2.21,4.53-2.21,5.84,0l15.48,26.11h31.71c2.62,0,4.25,2.83,2.92,5.08l-15.81,26.66ZM100.05,84.39l-5.46-9.21-5.46,9.21h10.92ZM87.96,64l-12.09-20.39h-23.75l-12.09,20.39,12.09,20.39h23.75l12.09-20.39ZM64,104.42l5.15-8.68h-10.29l5.15,8.68ZM27.95,84.39h10.92l-5.46-9.21-5.46,9.21ZM27.95,43.61l5.46,9.21,5.46-9.21h-10.92ZM64,23.58l-5.15,8.68h10.29l-5.15-8.68ZM89.13,43.61l5.46,9.21,5.46-9.21h-10.92Z"/>
</svg>