<?xml version="1.0" encoding="UTF-8"?>
<svg id="Layer_1" xmlns="http://www.w3.org/2000/svg" version="1.1" viewBox="0 0 128 128">
  <!-- Generator: Adobe Illustrator 30.0.0, SVG Export Plug-In . SVG Version: 2.1.1 Build 123)  -->
  <defs>
    <style>
      .st0 {
        fill-rule: evenodd;
      }
    </style>
  </defs>
  <path class="st0" d="M101.31,94.79c-9.15,9.98-22.18,15.71-35.75,15.71h-3.12c-13.57,0-26.6-5.73-35.74-15.71-9.15-9.98-13.69-23.43-12.46-36.9l1.52-16.71,22.99,2.08-1.52,16.71c-.65,7.15,1.66,14,6.52,19.3,4.86,5.3,11.5,8.22,18.7,8.22h3.12c7.2,0,13.85-2.92,18.7-8.22,4.86-5.3,7.17-12.16,6.52-19.3l-1.52-16.71,22.99-2.08,1.52,16.71c1.23,13.46-3.31,26.91-12.46,36.9ZM87.1,19.58l22.99-2.08,1.52,16.71-22.99,2.08-1.52-16.71ZM16.39,34.21l1.52-16.71,22.99,2.08-1.52,16.71-22.99-2.08Z"/>
</svg>