<?xml version="1.0" encoding="UTF-8"?>
<svg id="Layer_1" xmlns="http://www.w3.org/2000/svg" version="1.1" viewBox="0 0 128 128">
  <!-- Generator: Adobe Illustrator 30.0.0, SVG Export Plug-In . SVG Version: 2.1.1 Build 123)  -->
  <defs>
    <style>
      .st0 {
        fill-rule: evenodd;
      }
    </style>
  </defs>
  <path class="st0" d="M86.13,79.01l29.48-20.13v49.84c0,.39-.05.76-.11,1.13l-29.36-30.84ZM12.62,50.56c.37-1.38,1.2-2.6,2.38-3.46L60.26,14.17c2.23-1.62,5.25-1.62,7.48,0l45.26,32.93c1.18.86,2.01,2.09,2.38,3.46l-51.38,35.08L12.62,50.56ZM12.51,109.85c-.07-.37-.11-.74-.11-1.13v-49.84l29.48,20.13-29.36,30.84ZM62.02,92.77c.6.41,1.29.61,1.98.61s1.38-.2,1.98-.61l14.28-9.75,30.36,31.88c-.44.1-.89.15-1.36.15H18.74c-.47,0-.92-.06-1.36-.15l30.36-31.88,14.28,9.75Z"/>
</svg>