<?xml version="1.0" encoding="UTF-8"?>
<svg id="Layer_1" xmlns="http://www.w3.org/2000/svg" version="1.1" viewBox="0 0 128 128">
  <!-- Generator: Adobe Illustrator 30.0.0, SVG Export Plug-In . SVG Version: 2.1.1 Build 123)  -->
  <defs>
    <style>
      .st0 {
        fill-rule: evenodd;
      }
    </style>
  </defs>
  <path class="st0" d="M101.24,58.42h0c-6.46,26.39-27.39,50.58-34.71,58.37-1.37,1.46-3.69,1.46-5.06,0-7.32-7.79-28.25-31.98-34.71-58.37h0c-.81-3.11-1.24-6.38-1.24-9.75,0-21.3,17.23-38.57,38.48-38.57s38.48,17.27,38.48,38.57c0,3.37-.43,6.63-1.24,9.75ZM64,35.46c-7.28,0-13.19,5.92-13.19,13.22s5.9,13.22,13.19,13.22,13.19-5.92,13.19-13.22-5.9-13.22-13.19-13.22Z"/>
</svg>