<?xml version="1.0" encoding="UTF-8"?>
<svg id="Layer_1" xmlns="http://www.w3.org/2000/svg" version="1.1" viewBox="0 0 128 128">
  <!-- Generator: Adobe Illustrator 30.0.0, SVG Export Plug-In . SVG Version: 2.1.1 Build 123)  -->
  <defs>
    <style>
      .st0 {
        fill-rule: evenodd;
      }
    </style>
  </defs>
  <path class="st0" d="M120.89,73.1c-.39,3.42-1.61,5.95-3.61,7.51-9.17,7.19-30.32-6.33-43.56-22.96-10.89-13.67-17.13-29.08-15.9-39.25.41-3.39,1.63-5.9,3.63-7.44,7.46-5.77,26.62,1.96,43.27,22.67,11.01,13.7,17.36,29.2,16.18,39.47ZM97.84,40.26c-4.43-5.55-10.75-7.91-14.12-5.27-3.38,2.64-2.55,9.29,1.88,14.86,4.43,5.58,10.78,7.96,14.16,5.3,3.38-2.66,2.52-9.33-1.92-14.89ZM68.48,61.83c13.62,17.1,30.23,27.32,42.56,27.34-9.49,6.36-25.38,15.84-36.19,16.02-11.46.19-20.6-.86-28.98-7.2-4.37,2.87-9.95,6.67-11.52,8.37-2.69,2.9-.56,5.77-4.81,10.35-4.26,4.58-10.45,1.3-11.73-3.34-.68-2.47-1.06-4.61-1.28-6.09-1.39-.56-3.4-1.46-5.66-2.72-4.21-2.37-5.93-9.14-.45-12.15,5.47-3,7.76-.25,11.24-2.15,1.91-1.04,6.48-5.07,10.22-8.48-6.57-10.93-7.81-23.18-4.34-36.13,2.75-10.26,15.72-23.22,24.14-30.79-.22.88-.4,1.78-.52,2.74-1.45,12.05,5.18,29,17.31,44.23Z"/>
</svg>