<?xml version="1.0" encoding="UTF-8"?>
<svg id="Layer_1" xmlns="http://www.w3.org/2000/svg" version="1.1" viewBox="0 0 128 128">
  <!-- Generator: Adobe Illustrator 30.0.0, SVG Export Plug-In . SVG Version: 2.1.1 Build 123)  -->
  <path d="M114.92,52.22l-20.27,17.4c-4.98-9.47-14.25-16.34-25.21-18.01l23.35-36.18c.4-.63,1.33-.6,1.7.04l20.63,35.49c.24.42.15.95-.21,1.26h.01ZM41.45,14.06h45.1l-22.55,34.93L41.45,14.06ZM33.69,69.91l-20.6-17.69c-.37-.31-.45-.84-.21-1.26L33.5,15.47c.37-.64,1.3-.67,1.7-.04l23.4,36.26c-10.88,1.8-20.04,8.74-24.92,18.22h0ZM64.24,57.21c15.66,0,28.36,12.7,28.36,28.36s-12.7,28.36-28.36,28.36-28.36-12.7-28.36-28.36,12.7-28.36,28.36-28.36Z"/>
</svg>