<?xml version="1.0" encoding="UTF-8"?>
<svg id="Layer_1" xmlns="http://www.w3.org/2000/svg" version="1.1" viewBox="0 0 128 128">
  <!-- Generator: Adobe Illustrator 30.0.0, SVG Export Plug-In . SVG Version: 2.1.1 Build 123)  -->
  <defs>
    <style>
      .st0 {
        fill-rule: evenodd;
      }
    </style>
  </defs>
  <path class="st0" d="M105.43,92.82l-26.56-26.57c2.32-1.59,4.98-2.69,7.84-3.12,3.74-.56,7.51-.05,10.9,1.49.47.21.87.02,1.01-.07.15-.09.5-.37.5-.9v-25.16c0-.18-.1-.28-.16-.33-.06-.05-.19-.12-.36-.07l-38.12,9.75-17.29-17.3c.36-2.62,2.26-4.81,4.89-5.48l55.28-14.15c1.33-.34,2.73-.06,3.82.78,1.09.84,1.72,2.11,1.72,3.48v67.13c0,.08,0,.16-.02.24-.11,3.8-1.37,7.34-3.43,10.28ZM107.11,115.01L15.64,23.51l6.45-6.45,91.48,91.5-6.45,6.45ZM30.69,79.29c3.74-.56,7.51-.05,10.9,1.49.47.21.87.02,1.01-.07.15-.09.49-.37.49-.9v-21.25l9.77,9.77v30.13c0,.08,0,.16-.02.23-.3,10.23-8.87,18.52-19.19,18.52-5.44,0-10.65-2.31-14.3-6.33-3.69-4.08-5.4-9.35-4.81-14.85.91-8.44,7.7-15.48,16.14-16.75ZM75.38,94.73c-2.17-2.4-3.63-5.22-4.37-8.24l13.96,13.97c-3.66-.92-7.02-2.88-9.6-5.72Z"/>
</svg>