<?xml version="1.0" encoding="UTF-8"?>
<svg id="Layer_1" xmlns="http://www.w3.org/2000/svg" version="1.1" viewBox="0 0 128 128">
  <!-- Generator: Adobe Illustrator 30.0.0, SVG Export Plug-In . SVG Version: 2.1.1 Build 123)  -->
  <defs>
    <style>
      .st0 {
        fill-rule: evenodd;
      }
    </style>
  </defs>
  <path class="st0" d="M113.12,16.34l-.34,1.12c-5.74,18.98-21.57,32.6-40.59,35.67l-.97,4.15c13.42,3.24,23.39,15.29,23.39,29.67,0,16.86-13.7,30.53-30.61,30.53s-30.61-13.67-30.61-30.53c0-14.4,9.99-26.46,23.44-29.68l-.97-4.16c-18.92-3.19-35.08-17.25-40.91-36.52l-.08-.25c-.31-1.02-.2-2.09.3-3.03.5-.94,1.33-1.62,2.34-1.93l2.24-.68c2.09-.64,4.3.55,4.93,2.65l.12.38c4.38,14.47,15.99,25.27,29.91,28.65.1-.09.18-.19.29-.27,5.1-3.45,12.98-3.45,18.08,0,.11.08.2.18.29.28,13.93-3.28,25.32-13.71,29.62-27.92l.34-1.13c.63-2.1,2.85-3.29,4.93-2.65l2.24.68c1.01.31,1.84,1,2.34,1.94.5.94.6,2.01.29,3.03ZM60.12,108.25c2.16.31,4.42.31,6.75-.09,9.55-1.64,16.97-9.64,17.82-19.27.37-4.18-.47-8.14-2.2-11.58-.57-1.13-2.25-.72-2.23.54,0,.17,0,.34,0,.51,0,12.97-8.56,23.94-20.35,27.62-1.19.37-1.02,2.1.21,2.28Z"/>
</svg>