<?xml version="1.0" encoding="UTF-8"?>
<svg id="Layer_1" xmlns="http://www.w3.org/2000/svg" version="1.1" viewBox="0 0 128 128">
  <!-- Generator: Adobe Illustrator 30.0.0, SVG Export Plug-In . SVG Version: 2.1.1 Build 123)  -->
  <path d="M119.29,32.47c0-.06,0-.12-.01-.18-.01-.24-.04-.47-.09-.7,0-.05-.02-.1-.03-.14-.06-.26-.15-.51-.25-.76-.02-.05-.05-.11-.07-.16-.11-.24-.24-.48-.4-.7,0,0,0-.01-.01-.02-.15-.22-.34-.42-.53-.62-.05-.05-.09-.09-.14-.14-.18-.17-.37-.32-.58-.46-.02-.01-.04-.02-.06-.03-.04-.03-.09-.05-.14-.08-.23-.14-.46-.26-.71-.36-.02,0-.04-.03-.07-.03l-50.45-19.43c-.1-.04-.21-.05-.31-.09-.17-.05-.34-.11-.51-.14-.15-.03-.3-.04-.45-.06-.16-.02-.32-.03-.48-.03-.16,0-.32.02-.48.03-.15.02-.3.03-.45.06-.17.03-.34.09-.51.14-.1.03-.21.05-.31.09L11.87,28.06s-.02,0-.02,0l-.06.02s-.03.02-.05.02c-.25.1-.5.23-.73.37-.04.03-.09.05-.13.08-.02.01-.04.02-.06.03-.21.14-.4.3-.58.46-.05.05-.1.09-.14.14-.19.19-.37.39-.53.61,0,0,0,.01-.01.02-.15.22-.28.46-.4.7-.03.05-.05.11-.07.16-.1.24-.19.49-.25.75-.01.05-.02.1-.03.15-.05.23-.07.45-.09.69,0,.06-.01.12-.01.18,0,.02,0,.05,0,.07v62.9c0,1.97,1.22,3.74,3.08,4.45l50.45,19.43s.09.02.14.04c.19.07.37.12.57.16.08.02.16.04.24.05.27.05.54.08.82.08s.55-.03.82-.08c.08-.01.16-.04.24-.05.19-.04.38-.09.56-.16.05-.02.09-.02.14-.04l50.45-19.43c1.86-.72,3.08-2.48,3.08-4.45v-62.9s0-.05,0-.07ZM64,46.85l-37.13-14.3,37.13-14.3,37.13,14.3-37.13,14.3ZM18.39,39.54l40.77,15.7v52.63l-40.77-15.7v-52.63ZM109.61,92.18l-40.77,15.7v-52.63l40.77-15.7v52.63Z"/>
</svg>