<?xml version="1.0" encoding="UTF-8"?>
<svg id="Layer_1" xmlns="http://www.w3.org/2000/svg" version="1.1" viewBox="0 0 128 128">
  <!-- Generator: Adobe Illustrator 30.0.0, SVG Export Plug-In . SVG Version: 2.1.1 Build 123)  -->
  <defs>
    <style>
      .st0 {
        fill-rule: evenodd;
      }
    </style>
  </defs>
  <path class="st0" d="M110.52,60.27l-10.59-6.88,5.74,14.62c-1.53,1.95-3.29,3.82-5.28,5.56l-9.47-7.57,5.02,10.96c-5.03,3.32-11.27,5.93-19.02,7.38l-5,7.12-7.65,1.35,6.52-9.26c-.89-5.26-2.62-22.17,8.73-35.57,11.87-14.01,19.15-17.37,36.02-21.01.69,3.74,1.91,19.19-5.02,33.3ZM92.12,29.16c-4.3,3.36-9.17,7.93-15.86,14.46-12.86,12.55-12.25,32.47-11.18,41.48l-8.92,12.43,17.43-1.75,5.28-7.52c4.93-.95,9.34-2.26,13.25-3.88v14.62c0,6.53,4.54,12.38,6,13.81H24.29c-8.84-3.07-9.6-11-9.6-16.21V25.77c0-8.2-2.77-10.58-2.77-10.58h71c9.8,0,9.2,8.04,9.2,10.58v3.39ZM26.09,87.6h32.8v-6H26.09v6ZM59.91,67.19v-6H26.11v6h33.8ZM66.92,41.38H26.11v6h40.81v-6Z"/>
</svg>