<?xml version="1.0" encoding="UTF-8"?>
<svg id="Layer_1" xmlns="http://www.w3.org/2000/svg" version="1.1" viewBox="0 0 128 128">
  <!-- Generator: Adobe Illustrator 30.0.0, SVG Export Plug-In . SVG Version: 2.1.1 Build 123)  -->
  <path d="M49.66,46.8c6.64-.37,11.56-8.19,10.99-17.46-.58-9.27-6.43-16.49-13.07-16.12-6.64.37-11.56,8.19-10.99,17.46.58,9.27,6.43,16.49,13.07,16.12ZM26.53,69.57c6.49-1.33,10-9.48,7.83-18.19-2.17-8.72-9.18-14.7-15.67-13.37-6.49,1.33-10,9.48-7.83,18.19,2.17,8.72,9.18,14.7,15.67,13.37ZM78.34,46.8c6.64.37,12.5-6.85,13.07-16.12.58-9.27-4.34-17.09-10.99-17.46-6.64-.37-12.5,6.85-13.07,16.12-.58,9.27,4.34,17.09,10.99,17.46ZM109.31,38.01c-6.49-1.33-13.51,4.65-15.67,13.37-2.17,8.72,1.34,16.86,7.83,18.19,6.49,1.33,13.51-4.65,15.67-13.37,2.17-8.72-1.34-16.86-7.83-18.19ZM96.79,80.19c-4.56-3.25-14.88-12.91-18.87-18.48-4-5.57-9.21-7.92-13.67-7.92-4.9,0-9.67,2.35-13.67,7.92-4,5.57-14.32,15.23-18.87,18.48-4.56,3.25-9.48,10.31-7.07,19.32,2.42,9.01,9.11,14.68,18.22,15.23,9.11.56,21.38-3.25,21.38-3.25,0,0,12.27,3.81,21.38,3.25,9.11-.56,15.81-6.22,18.22-15.23,2.42-9.01-2.51-16.07-7.07-19.32Z"/>
</svg>