<?xml version="1.0" encoding="UTF-8"?>
<svg id="Layer_1" xmlns="http://www.w3.org/2000/svg" version="1.1" viewBox="0 0 128 128">
  <!-- Generator: Adobe Illustrator 30.0.0, SVG Export Plug-In . SVG Version: 2.1.1 Build 123)  -->
  <defs>
    <style>
      .st0 {
        fill-rule: evenodd;
      }
    </style>
  </defs>
  <path class="st0" d="M115.06,74.56c-4.96-5.7-16.54-18.12-31.35-28.3l9.27-19.33c8.13,7.43,23.1,24.05,24.59,46.64.09,1.35-1.62,2.02-2.51.99ZM78.79,45.84c-.57,1.18-2.02,1.62-3.16.96l-19.82-11.44h0l-.46-.27c-1.14-.66-1.48-2.14-.75-3.22l14.57-21.31c.66-.97,1.97-1.26,2.99-.67l16.87,9.74c1.02.59,1.42,1.87.92,2.92l-11.17,23.28ZM11.6,14.83c-1.34-.26-1.62-2.07-.4-2.67,20.31-10.01,42.19-5.35,52.69-2.03l-12.1,17.69c-16.23-7.74-32.77-11.55-40.19-13ZM55.56,40.28l15.54,8.97-38.6,71.08c-.7,1.29-2.25,1.9-3.64,1.41-6.42-2.25-12-6.35-14.84-8.67-1.17-.96-1.45-2.62-.66-3.9L55.56,40.28Z"/>
</svg>