<?xml version="1.0" encoding="UTF-8"?>
<svg id="Layer_1" xmlns="http://www.w3.org/2000/svg" version="1.1" viewBox="0 0 128 128">
  <!-- Generator: Adobe Illustrator 30.0.0, SVG Export Plug-In . SVG Version: 2.1.1 Build 123)  -->
  <defs>
    <style>
      .st0 {
        fill-rule: evenodd;
      }
    </style>
  </defs>
  <path class="st0" d="M119.99,73.46c-1.92,7.02-9.88,30.04-13.63,37.35-.39.76-1.18,1.23-2.03,1.23h-13.37c-1.12,0-2.08-.82-2.26-1.93l-1.59-9.8h-22.65l-5,11.23c-.34.75-1.08,1.24-1.9,1.24h-12.52c-1.02,0-1.89-.74-2.05-1.75l-2.05-12.33s-22.79-8.51-28.64-24.2c-.02-.05-.03-.1-.05-.15h-2.94c-2.06,0-3.73-1.68-3.73-3.74v-16.71c0-2.07,1.67-3.75,3.73-3.75h8.65c4.49-8.51,11.19-18.9,11.19-18.9-2.41-3.06-5.19-6.55-7.57-9.36-1.84-2.18-.46-5.52,2.37-5.77,8.49-.73,23.76-1.54,40.49,0,25.42,2.35,43.98,11.29,52.45,22.59,8.47,11.29,5.11,27.28,3.07,34.76ZM35.25,48.24c-3.15,0-5.7,2.56-5.7,5.72s2.55,5.72,5.7,5.72,5.7-2.56,5.7-5.72-2.55-5.72-5.7-5.72ZM74.96,22.33l-1.18,6.09c9.81,1.92,18.35,4.94,25.37,8.97l3.07-5.39c-7.61-4.36-16.78-7.62-27.26-9.67Z"/>
</svg>