<?xml version="1.0" encoding="UTF-8"?>
<svg id="Layer_1" xmlns="http://www.w3.org/2000/svg" version="1.1" viewBox="0 0 128 128">
  <!-- Generator: Adobe Illustrator 30.0.0, SVG Export Plug-In . SVG Version: 2.1.1 Build 123)  -->
  <defs>
    <style>
      .st0 {
        fill-rule: evenodd;
      }
    </style>
  </defs>
  <path class="st0" d="M42.71,45.03c-1.84,3.59-5.19,6.15-9.55,7.34-.86.23-1.45,1.01-1.45,1.89v40.07c0,.71.58,1.28,1.29,1.28h14.69c.71,0,1.29-.57,1.29-1.28v-47.91c0-.77-.63-1.39-1.4-1.39h-4.86ZM103.57,99.79H24.43c-1.98,0-3.59,1.6-3.59,3.58v8.63h86.32v-8.63c0-1.97-1.61-3.58-3.59-3.58ZM52.98,46.42v47.91c0,.71.58,1.28,1.29,1.28h18.47c.71,0,1.29-.57,1.29-1.28v-47.91c0-.77-.63-1.39-1.4-1.39h-18.24c-.77,0-1.4.62-1.4,1.39ZM85.29,45.03h-5.86c-.77,0-1.4.62-1.4,1.39v47.91c0,.71.58,1.28,1.29,1.28h15.68c.71,0,1.29-.57,1.29-1.28v-40.07c0-.88-.59-1.66-1.45-1.89-4.36-1.19-7.71-3.75-9.55-7.34ZM116.56,31.34c-.67-10.1-7.34-15.26-19.81-15.33h0s-32.74,0-32.74,0H31.26c-12.47.08-19.14,5.24-19.81,15.34-.44,6.64,2.03,10.7,4.18,12.94,3.51,3.65,8.38,4.94,11.89,4.94.1,0,.2,0,.3,0,6.7-.14,11.31-3.39,12.35-8.67,1.12-5.74-1.51-11.09-6.26-12.72-4.11-1.41-8.03-.15-8.46,0-2.04.7-3.12,2.91-2.42,4.93.7,2.02,2.89,3.1,4.92,2.42.51-.16,2.09-.47,3.43-.01,1,.34,1.5,2.05,1.14,3.88-.39,2-3.22,2.36-4.87,2.4-1.44.03-4.4-.47-6.39-2.54-1.56-1.62-2.94-4.33-2.73-7.39.41-6.12,4.83-8.75,13.67-8.26,1.25.07,2.48.39,3.61.92l.08.04c5.49,2.15,9.08,9.18,8.27,15.82-.07.55.33,1.05.89,1.05,2.79.01,10.7.02,18.96.03,8.26-.01,16.17-.02,18.96-.03.56,0,.96-.5.89-1.05-.82-6.64,2.78-13.67,8.27-15.82.03-.01.05-.02.08-.04,1.14-.53,2.37-.85,3.62-.92,8.82-.49,13.24,2.14,13.65,8.26.2,3.06-1.18,5.77-2.73,7.39-1.99,2.07-4.96,2.57-6.39,2.54-1.65-.04-4.48-.39-4.87-2.4-.36-1.84.14-3.54,1.14-3.88,1.33-.46,2.92-.15,3.43.01,2.03.68,4.22-.41,4.92-2.42.7-2.03-.38-4.24-2.42-4.93-.43-.15-4.35-1.41-8.46,0-4.75,1.63-7.39,6.98-6.26,12.72,1.03,5.29,5.65,8.53,12.35,8.67.1,0,.2,0,.3,0,3.51,0,8.39-1.29,11.89-4.94,2.15-2.24,4.62-6.31,4.18-12.94Z"/>
</svg>