<?xml version="1.0" encoding="UTF-8"?>
<svg id="Layer_1" xmlns="http://www.w3.org/2000/svg" version="1.1" viewBox="0 0 128 128">
  <!-- Generator: Adobe Illustrator 30.0.0, SVG Export Plug-In . SVG Version: 2.1.1 Build 123)  -->
  <path d="M100.04,29.3l6.26-7.68c1.17-1.43.76-3.57-.86-4.51l-21.76-12.56c-1.62-.94-3.68-.22-4.34,1.51l-3.51,9.26c-3.79-1.94-12.46-5.14-17.2,3.07-2.57,4.45-1.04,10.07.13,13.08l-7.3,12.64h-.02s-28.22,48.86-28.22,48.86c-5.65,9.79-2.21,22.4,7.68,28.11,9.88,5.71,22.53,2.39,28.18-7.4l28.22-48.87h0s7.3-12.65,7.3-12.65c3.19-.49,8.82-1.98,11.39-6.43,3.33-5.76,1.04-11.98-5.94-16.43ZM34.85,114.25h0s0,0,0,0,0,0,0,0ZM99.11,41.75c-.97,1.69-4.88,2.65-7.19,2.78l-2.15.1-2.5,4.32-6.86,11.87-.51.88-22.08-12.75.51-.88h0s6.68-11.58,6.68-11.58l2.66-4.61-.97-1.9c-1.06-2.08-2.17-5.94-1.2-7.63.52-.89,1.72-2.99,7.42.3l22.2,12.82c5.69,3.29,4.4,5.54,3.97,6.27Z"/>
</svg>