<?xml version="1.0" encoding="UTF-8"?>
<svg id="Layer_1" xmlns="http://www.w3.org/2000/svg" version="1.1" viewBox="0 0 128 128">
  <!-- Generator: Adobe Illustrator 30.0.0, SVG Export Plug-In . SVG Version: 2.1.1 Build 123)  -->
  <path d="M51.69,26.5c1.54,3.44,2.17,7.26,4.96,7.14,2.29-.09,12.83-.14,16.54-.15.82,0,1.56-.42,1.99-1.12,1.7-2.78,5.46-9.93,5.65-11.98.49-5.19-1.67-6.46-2.5-7.31-1.39-1.42-4.46-2.37-8.18-1.87-3.71.5-6.13,3.34-6.13,3.34,0,0-5.94-5.47-10.13-5.3-4.19.17-9.11,3.37-7.9,7.28,1.21,3.92,4.16,6.53,5.7,9.96ZM106.86,96.99c-3.5-4.73-5.01-21.14-5.36-26.61-.35-5.47-3.6-27.75-20.62-30.19-20.88-2.99-31.13-1.05-31.13-1.05,0,0-13.8,3.26-18.57,13.8-4.78,10.54-6.13,32.58-7.3,37.53-1.17,4.94-6.29,13.67-6.99,15.99-.7,2.31-.12,10.94,10.61,11.89s27.58-1.45,36.95-1.66c9.64-.22,28.44,2.25,33.45,2.06,5.01-.19,12.54-1.62,13.29-8.81.67-6.49-.82-8.2-4.31-12.94ZM64.21,71.48l1.98.56c9.1,2.5,13.64,6.54,13.64,13.09s-4.88,11.98-12.22,13.27v5.31h-7.04v-5.19c-4.69-.62-9.32-2.59-13.02-5.74l6.11-7.78c3.09,2.69,6.57,4.04,10.12,4.01,3.61.03,5.71-1.39,5.68-3.64.03-1.88-1.36-2.87-5.86-3.95l-1.91-.49c-8.21-2.01-12.68-6.42-12.65-12.65-.03-6.27,4.66-11.23,11.54-12.78v-5.37h7.04v5.06c4.38.56,8.58,2.41,12.22,5.31l-5.99,7.84c-2.99-2.41-5.83-3.55-8.83-3.52-3.21-.03-5.59,1.39-5.62,3.4.03,1.45,1.39,2.31,4.81,3.27Z"/>
</svg>