<?xml version="1.0" encoding="UTF-8"?>
<svg id="Layer_1" xmlns="http://www.w3.org/2000/svg" version="1.1" viewBox="0 0 128 128">
  <!-- Generator: Adobe Illustrator 30.0.0, SVG Export Plug-In . SVG Version: 2.1.1 Build 123)  -->
  <defs>
    <style>
      .st0 {
        fill-rule: evenodd;
      }
    </style>
  </defs>
  <path class="st0" d="M111.17,109.93c-.74,7.19-8.28,8.63-13.29,8.81-5.01.19-23.81-2.28-33.45-2.06-9.37.22-26.22,2.61-36.95,1.66-10.72-.95-11.31-9.57-10.61-11.89.7-2.31,5.83-11.04,6.99-15.99,1.17-4.94,2.52-26.99,7.3-37.53,4.78-10.54,18.57-13.8,18.57-13.8,0,0,1.86-.35,5.58-.52-2.81,3.99-6.69,10.66-7.77,18.38-1.6,11.38-2.75,25.67-2.79,26.27-.12,1.93,2.15,3.64,4.08,3.76.07,0,.15,0,.22,0,1.84,0,4.61-1.33,4.72-3.19,0-.14-.72-14.65.84-25.75.85-6.04,3.86-11.85,6.18-15.6.05-.02.11-.07.16-.15.66-1,2.87-3.99,4.91-1.14,1.1,1.85,2.37,4.85,2.86,9.28,1.07,9.69.39,25.06.39,25.22.05,1.9,2.97,3.44,4.86,3.44.03,0,.06,0,.09,0,1.93-.05,4.7-1.69,4.65-3.62-.02-.64-1.67-15.74-2.78-25.73-.5-4.49-1.75-7.95-3.09-10.53,2.46.24,5.11.55,7.97.96,17.03,2.44,20.27,24.72,20.62,30.19.35,5.47,1.86,21.88,5.36,26.61,3.5,4.73,4.98,6.45,4.31,12.94ZM75.19,32.37c-.43.7-1.17,1.12-1.99,1.12-3.71.01-14.25.05-16.55.15-2.79.12-3.42-3.71-4.96-7.14-1.54-3.44-4.49-6.05-5.7-9.96-1.21-3.92,3.71-7.11,7.9-7.28,4.19-.17,10.13,5.3,10.13,5.3,0,0,2.41-2.83,6.13-3.34,3.71-.5,6.78.46,8.18,1.87.84.85,2.99,2.12,2.5,7.31-.19,2.05-3.95,9.2-5.65,11.98Z"/>
</svg>