<?xml version="1.0" encoding="UTF-8"?>
<svg id="Layer_1" xmlns="http://www.w3.org/2000/svg" version="1.1" viewBox="0 0 128 128">
  <!-- Generator: Adobe Illustrator 30.0.0, SVG Export Plug-In . SVG Version: 2.1.1 Build 123)  -->
  <path d="M104.41,49.82h-4.35v-20.63c0-2.35-1.9-4.25-4.24-4.25h-20.57v-2.68c0-7.68-6.21-13.9-13.86-13.9s-13.86,6.22-13.86,13.9v2.68h-20.57c-2.34,0-4.24,1.9-4.24,4.25v20.63h3.43c7.66,0,13.86,6.22,13.86,13.9s-6.21,13.9-13.86,13.9h-3.43v20.63c0,2.35,1.9,4.25,4.24,4.25h20.57v3.25c0,7.68,6.21,13.9,13.86,13.9s13.86-6.22,13.86-13.9v-3.25h20.57c2.34,0,4.24-1.9,4.24-4.25v-20.63h4.35c7.66,0,13.86-6.22,13.86-13.9s-6.21-13.9-13.86-13.9Z"/>
</svg>