<?xml version="1.0" encoding="UTF-8"?>
<svg id="Layer_1" xmlns="http://www.w3.org/2000/svg" version="1.1" viewBox="0 0 128 128">
  <!-- Generator: Adobe Illustrator 30.0.0, SVG Export Plug-In . SVG Version: 2.1.1 Build 123)  -->
  <defs>
    <style>
      .st0 {
        fill-rule: evenodd;
      }
    </style>
  </defs>
  <path class="st0" d="M64.86,10.77c-16.45,0-29.97,8.3-35.58,23.09-.4,1.3.27,2.21,1.47,2.59l18.6,4.28c1.2.26,2.01-.26,2.81-1.3,2.41-4.67,6.15-7.13,11.5-7.13,6.43,0,10.44,3.76,10.44,9.6,0,7.27-4.55,12.2-17.4,12.2h-4.01c-1.2,0-2.01.78-2.01,2.07l.4,23.55c0,1.29.8,2.07,2.14,2.07h19c1.2,0,2.14-.78,2.14-2.07l.14-11.49c15.52-3.5,24.35-15.18,24.35-28.93,0-17.25-14.05-28.54-33.98-28.54ZM62.76,87.74c-7.59,0-13.75,6.16-13.75,13.75s6.15,13.75,13.75,13.75,13.75-6.15,13.75-13.75-6.15-13.75-13.75-13.75Z"/>
</svg>