<?xml version="1.0" encoding="UTF-8"?>
<svg id="Layer_1" xmlns="http://www.w3.org/2000/svg" version="1.1" viewBox="0 0 128 128">
  <!-- Generator: Adobe Illustrator 30.0.0, SVG Export Plug-In . SVG Version: 2.1.1 Build 123)  -->
  <defs>
    <style>
      .st0 {
        fill-rule: evenodd;
      }
    </style>
  </defs>
  <path class="st0" d="M70.85,17.38c-13.8-.8-26.38,4.35-35.46,13.12l-12.07-13.51c-.55-.62-1.57-.34-1.73.48l-8.64,44.7c-.13.65.4,1.24,1.06,1.19l45.39-3.54c.83-.06,1.22-1.05.67-1.66l-12.26-13.74c4.83-5.15,11.84-8.24,19.57-7.74,12.26.79,22.22,10.77,22.98,23.03.89,14.33-10.47,26.23-24.61,26.23-5.94,0-11.38-2.12-15.63-5.62-.66-.54-1.64-.38-2.11.33l-11.23,17.14c-.39.6-.29,1.4.24,1.87,8.28,7.27,19.13,11.69,31.02,11.69,26.58,0,48.01-22.05,46.99-48.86-.91-24-20.2-43.71-44.18-45.11Z"/>
</svg>