<?xml version="1.0" encoding="UTF-8"?>
<svg id="Layer_1" xmlns="http://www.w3.org/2000/svg" version="1.1" viewBox="0 0 128 128">
  <!-- Generator: Adobe Illustrator 30.0.0, SVG Export Plug-In . SVG Version: 2.1.1 Build 123)  -->
  <defs>
    <style>
      .st0 {
        fill-rule: evenodd;
      }
    </style>
  </defs>
  <path class="st0" d="M107.2,102.56c-.02-9.83-2.31-19.39-6.6-27.65-2.14-4.11-4.72-7.82-7.67-11.02,2.94-3.23,5.5-6.96,7.62-11.09,4.25-8.29,6.48-17.86,6.45-27.69l-.02-6.75c0-1.55-1.26-2.8-2.81-2.8l-6.7.03-67.22.28-6.68.03c-1.55,0-2.79,1.26-2.79,2.81l.02,6.72c.02,9.83,2.31,19.39,6.6,27.65,2.14,4.11,4.72,7.82,7.67,11.02-2.94,3.23-5.5,6.96-7.62,11.09-4.25,8.29-6.48,17.86-6.45,27.69l.02,6.75c0,1.55,1.26,2.8,2.81,2.8l6.7-.03,67.22-.28,6.68-.03c1.55,0,2.79-1.26,2.79-2.81l-.02-6.72ZM64.41,87.26s-14.43,1.28-33.91,15.34c.04-17.07,8-31.79,19.48-38.54-11.57-6.69-19.64-21.46-19.68-38.64l67.22-.28c.04,17.19-7.95,32.02-19.49,38.81,11.41,6.59,19.39,21.04,19.66,37.9-19.19-13.43-33.27-14.58-33.27-14.58ZM86.07,37.17l-44.62.18c.03,13.17,10.05,23.81,22.37,23.76,12.32-.05,22.29-10.77,22.25-23.94Z"/>
</svg>