<?xml version="1.0" encoding="UTF-8"?>
<svg id="Layer_1" xmlns="http://www.w3.org/2000/svg" version="1.1" viewBox="0 0 128 128">
  <!-- Generator: Adobe Illustrator 30.0.0, SVG Export Plug-In . SVG Version: 2.1.1 Build 123)  -->
  <defs>
    <style>
      .st0 {
        fill-rule: evenodd;
      }
    </style>
  </defs>
  <path class="st0" d="M109.53,87.79c-3.68-3.32-10.77-9.72-17.47-15.19,7.3-15.05,4.69-33.71-7.83-46.23-15.8-15.8-41.37-15.83-57.13-.07-15.75,15.75-15.72,41.33.07,57.13,12.52,12.52,31.17,15.12,46.21,7.84,5.03,6.31,11.15,13.55,15.07,17.97,4.49,5.06,12.59,4.49,17.43-.24,1.13-1.1,2.33-2.33,3.61-3.69,4.51-4.82,4.92-13.08.03-17.5ZM38.95,71.65c-9.28-9.28-9.3-24.3-.04-33.55,9.25-9.25,24.28-9.23,33.55.04,9.28,9.28,9.3,24.3.04,33.55-9.25,9.25-24.28,9.23-33.55-.04Z"/>
</svg>