<?xml version="1.0" encoding="UTF-8"?>
<svg id="Layer_1" xmlns="http://www.w3.org/2000/svg" version="1.1" viewBox="0 0 128 128">
  <!-- Generator: Adobe Illustrator 30.0.0, SVG Export Plug-In . SVG Version: 2.1.1 Build 123)  -->
  <defs>
    <style>
      .st0 {
        fill-rule: evenodd;
      }
    </style>
  </defs>
  <path class="st0" d="M100.78,50.81c-1.64-4.44-4.05-8.5-7.06-12.03l6.68-11.59-22.79-13.19-6.7,11.63c-2.29-.42-4.64-.64-7.04-.64s-4.59.21-6.79.59l-6.67-11.59-22.79,13.19,6.57,11.4c-3.09,3.57-5.56,7.7-7.23,12.22h-12.94v26.38h12.59c1.6,4.75,4.08,9.09,7.23,12.84l-6.21,10.78,22.79,13.19,6.13-10.65c2.38.45,4.83.69,7.33.69s5.13-.26,7.59-.74l6.16,10.69,22.79-13.19-6.33-10.98c3.08-3.7,5.5-7.97,7.07-12.64h12.86v-26.38h-13.22ZM63.87,80.7c-8.89,0-16.1-7.24-16.1-16.17s7.21-16.17,16.1-16.17,16.1,7.24,16.1,16.17-7.21,16.17-16.1,16.17Z"/>
</svg>