<?xml version="1.0" encoding="UTF-8"?>
<svg id="Layer_1" xmlns="http://www.w3.org/2000/svg" version="1.1" viewBox="0 0 128 128">
  <!-- Generator: Adobe Illustrator 30.0.0, SVG Export Plug-In . SVG Version: 2.1.1 Build 123)  -->
  <defs>
    <style>
      .st0 {
        fill-rule: evenodd;
      }
    </style>
  </defs>
  <path class="st0" d="M112.45,76.91c.54,3.04.61,6.1.28,9.09l11.36,4.71-5.93,14.31-10.87-4.51c-1.83,2.66-4.06,5.06-6.68,7.08l4.38,10.59-14.31,5.92-4.29-10.36c-3.38.56-6.76.53-10.05.02l-4.28,10.33-14.31-5.93,4.34-10.46c-2.61-1.97-4.94-4.35-6.87-7.11l-10.63,4.4-5.92-14.31,11.03-4.57c-.38-3.16-.25-6.3.3-9.36l-11.32-4.69,5.93-14.31,11.76,4.88c1.81-2.28,3.93-4.33,6.36-6.07l-4.95-11.97,14.31-5.92,5.06,12.22c2.85-.37,5.69-.33,8.47.07l5.09-12.28,14.31,5.93-5.06,12.2c2.29,1.68,4.37,3.67,6.17,5.95l12.05-4.99,5.92,14.31-11.64,4.82ZM93.99,77.13c-2.92-7.06-11.01-10.43-18.06-7.51-7.05,2.92-10.4,11.01-7.47,18.08,2.92,7.07,11.01,10.43,18.06,7.51s10.4-11.01,7.47-18.08ZM51.61,44.17l5.91,5.91-7.44,7.44-5.65-5.65c-1.84,1.19-3.86,2.12-6.03,2.71v7.79h-10.52v-7.62c-2.26-.53-4.38-1.42-6.31-2.6l-5.38,5.38-7.44-7.44,5.44-5.44c-1.12-1.91-1.97-4.01-2.46-6.24H3.91v-10.52h8.13c.58-2.08,1.48-4.02,2.61-5.79l-5.9-5.9,7.44-7.44,6.12,6.12c1.72-.96,3.59-1.7,5.57-2.16V3.91h10.52v8.99c1.88.51,3.66,1.27,5.3,2.24l6.39-6.39,7.44,7.44-6.35,6.35c1,1.65,1.79,3.43,2.32,5.33h8.87v10.52h-8.57c-.45,2.05-1.2,3.99-2.19,5.77ZM32.77,24.33c-5.18,0-9.39,4.21-9.39,9.41s4.2,9.41,9.39,9.41,9.39-4.21,9.39-9.41-4.2-9.41-9.39-9.41Z"/>
</svg>