<?xml version="1.0" encoding="UTF-8"?>
<svg id="Layer_1" xmlns="http://www.w3.org/2000/svg" version="1.1" viewBox="0 0 128 128">
  <!-- Generator: Adobe Illustrator 30.0.0, SVG Export Plug-In . SVG Version: 2.1.1 Build 123)  -->
  <path d="M91.74,77.53c-5.2,0-9.91,2.12-13.32,5.53l-24.11-14.28c.49-1.67.76-3.44.76-5.27s-.26-3.43-.7-5.03l23.88-13.73c3.42,3.52,8.19,5.71,13.48,5.71,10.39,0,18.82-8.44,18.82-18.84s-8.42-18.84-18.82-18.84-18.82,8.44-18.82,18.84c0,1.75.26,3.43.7,5.03l-23.88,13.73c-3.42-3.52-8.19-5.71-13.48-5.71-10.39,0-18.82,8.44-18.82,18.84s8.42,18.84,18.82,18.84c5.2,0,9.91-2.12,13.32-5.53l24.11,14.28c-.49,1.67-.76,3.44-.76,5.27,0,10.41,8.42,18.84,18.82,18.84s18.82-8.44,18.82-18.84-8.42-18.84-18.82-18.84Z"/>
</svg>