<?xml version="1.0" encoding="UTF-8"?>
<svg id="Layer_1" xmlns="http://www.w3.org/2000/svg" version="1.1" viewBox="0 0 128 128">
  <!-- Generator: Adobe Illustrator 30.0.0, SVG Export Plug-In . SVG Version: 2.1.1 Build 123)  -->
  <defs>
    <style>
      .st0 {
        fill-rule: evenodd;
      }
    </style>
  </defs>
  <path class="st0" d="M104.94,42.28c-3.23-.07-47.6-.88-52.65-1.69-5.05-.81-4.38-4.65-4.67-9.99-.29-5.35,4.2-7.15,6.69-7.37,0,0,47.94.68,53.38,1.45,5.44.77,6.71,3.41,6.66,10.94-.05,7.53-6.17,6.75-9.4,6.67ZM54.58,46.82c10.48.73,47.42,1.41,50.36,1.47.99.02,2.24.11,3.52,0,.06,13.59.29,33.33,1.12,41.6.76,7.55,1.21,13.69-8.05,14.51-7.29.64-65.72.36-75.95-.08-10.28-.44-11.21-5.48-11.81-12.27-.6-6.78,1.09-17.43,10.69-23.34,9.61-5.91,30.42-14.77,30.42-14.77l-.3-7.13Z"/>
</svg>