<?xml version="1.0" encoding="UTF-8"?>
<svg id="Layer_1" xmlns="http://www.w3.org/2000/svg" version="1.1" viewBox="0 0 128 128">
  <!-- Generator: Adobe Illustrator 30.0.0, SVG Export Plug-In . SVG Version: 2.1.1 Build 123)  -->
  <path d="M111.65,32.07c-5.24-.66-15.15-2.83-19.39-9.93-.8-1.34-1.5-2.69-2.03-4.07-.52-1.37-2.03-2.27-3.69-2.27h-45.08c-1.66,0-3.17.91-3.69,2.28-.52,1.37-1.21,2.72-2.03,4.05-4.31,6.99-14.21,9.21-19.42,9.9-1.92.26-3.35,1.68-3.35,3.38v11.24l.03-.02c.58,29.08,20.69,54.01,49.41,65.25,1.01.4,2.18.4,3.19,0,28.72-11.24,48.83-36.17,49.41-65.25l.03.02v-11.21c0-1.71-1.44-3.14-3.38-3.38ZM100.63,46.43c-.42,21.25-13.84,40.77-34.72,51.28-.59.3-1.25.44-1.91.44s-1.32-.15-1.91-.44c-20.89-10.51-34.3-30.04-34.72-51.28l-.03-1.24v-.23c0-1.4.98-2.65,2.47-3.16,7.54-2.6,13.49-6.67,17.38-11.94.71-.97,1.95-1.54,3.27-1.54h27.07c1.33,0,2.57.58,3.28,1.56,3.86,5.33,9.82,9.42,17.35,12,1.5.51,2.49,1.78,2.48,3.19v1.36ZM76.43,33.7h-24.88c-4.19,5.41-10.42,9.72-18.09,12.53v.5c.38,18.73,12.06,36.22,30.55,45.84,18.49-9.62,30.17-27.11,30.54-45.84v-.42c-7.69-2.79-13.93-7.13-18.11-12.61Z"/>
</svg>