<?xml version="1.0" encoding="UTF-8"?>
<svg id="Layer_1" xmlns="http://www.w3.org/2000/svg" version="1.1" viewBox="0 0 128 128">
  <!-- Generator: Adobe Illustrator 30.0.0, SVG Export Plug-In . SVG Version: 2.1.1 Build 123)  -->
  <defs>
    <style>
      .st0 {
        fill-rule: evenodd;
      }
    </style>
  </defs>
  <path class="st0" d="M101.82,68.18c-8.67,0-15.71-7.06-15.71-15.77v-8.26h31.41v8.26c0,8.71-7.03,15.77-15.71,15.77ZM86.11,12.18c15.04,0,26.44-.03,26.52-.12l4.9,26.72h-31.41V12.18ZM79.71,38.78h-31.41V12.14c10.22.02,21.33.03,31.41.04v26.6ZM64,68.18h0c-8.67,0-15.71-7.06-15.71-15.77v-8.26h31.41v8.26c0,8.71-7.03,15.77-15.71,15.77ZM64,73.37c8.37,0,15.59-4.98,18.92-12.14,3.32,7.16,10.53,12.14,18.9,12.14,3.52,0,6.83-.89,9.74-2.43v40.07c0,2.73-2.2,4.94-4.92,4.94h-23.73v-28.67h-37.82v28.67h-24.43c-2.72,0-4.92-2.21-4.92-4.94v-40.47c3.08,1.79,6.64,2.84,10.44,2.84,8.37,0,15.58-4.99,18.9-12.14,3.33,7.16,10.54,12.14,18.92,12.14ZM26.18,68.18c-8.67,0-15.71-7.06-15.71-15.77v-8.26h31.41v8.26c0,8.71-7.03,15.77-15.71,15.77ZM13.27,12.06s12.5.03,28.62.06v26.65H10.48l2.79-26.72Z"/>
</svg>