<?xml version="1.0" encoding="UTF-8"?>
<svg id="Layer_1" xmlns="http://www.w3.org/2000/svg" version="1.1" viewBox="0 0 128 128">
  <!-- Generator: Adobe Illustrator 30.0.0, SVG Export Plug-In . SVG Version: 2.1.1 Build 123)  -->
  <defs>
    <style>
      .st0 {
        fill-rule: evenodd;
      }
    </style>
  </defs>
  <path class="st0" d="M103.5,20.05l-24.46,42.36-13.67-7.89,24.46-42.36c2.18-3.78,7.02-5.08,10.79-2.9,3.78,2.18,5.06,7.01,2.88,10.8ZM78.08,66.95c.81.47,1.05,1.55.51,2.32-9.63,13.5-18.13,16.44-21.28,17.08-.77.16-1.54-.29-1.79-1.04-1.02-3.05-2.73-11.88,4.15-26.97.39-.86,1.45-1.19,2.26-.72l8.08,4.67,8.08,4.67ZM52.05,86.48c.42,1.25,1.27,2.24,2.34,2.86,1.07.62,2.35.86,3.64.6,3.43-.7,12.17-3.69,21.88-16.31l14.21,8.21c1.26.72,1.8,2.4,1.16,3.7-3.19,6.55-9.5,15.86-15.37,23.11-2.8,3.46-6.57,5.99-10.84,7.23-7.16,2.08-19.19,4.8-30.32,3.66-1.08-.11-2.07-.68-2.71-1.56-6.55-9.06-10.21-20.84-11.99-28.09-1.06-4.32-.75-8.84.85-13,3.34-8.71,8.25-18.83,12.33-24.87.81-1.2,2.53-1.57,3.79-.85l14.21,8.21c-6.08,14.72-4.3,23.78-3.19,27.1Z"/>
</svg>