<?xml version="1.0" encoding="UTF-8"?>
<svg id="Layer_1" xmlns="http://www.w3.org/2000/svg" version="1.1" viewBox="0 0 128 128">
  <!-- Generator: Adobe Illustrator 30.0.0, SVG Export Plug-In . SVG Version: 2.1.1 Build 123)  -->
  <path d="M97.82,49.48c-10.66,0-19.3-8.65-19.3-19.31v-5.07S49.49,2.59,49.49,2.59v27.58c0,10.67-8.65,19.31-19.31,19.31h-5.06S2.61,78.52,2.61,78.52h27.57c10.66,0,19.3,8.65,19.3,19.31v5.07s29.03,22.51,29.03,22.51v-27.58c0-10.67,8.65-19.31,19.31-19.31h5.06l22.51-29.04h-27.57ZM64,76.72c-7.19,0-13.02-5.83-13.02-13.02,0-7.19,5.83-13.02,13.02-13.02,7.19,0,13.02,5.83,13.02,13.02,0,7.19-5.83,13.02-13.02,13.02Z"/>
</svg>