<?xml version="1.0" encoding="UTF-8"?>
<svg id="Layer_1" xmlns="http://www.w3.org/2000/svg" version="1.1" viewBox="0 0 128 128">
  <!-- Generator: Adobe Illustrator 30.0.0, SVG Export Plug-In . SVG Version: 2.1.1 Build 123)  -->
  <defs>
    <style>
      .st0 {
        fill-rule: evenodd;
      }
    </style>
  </defs>
  <path class="st0" d="M114,34.95c-2.35.2-9.34-.55-9.34-.55l-.83.82c-2.85-3.24-6.18-6.13-9.9-8.57l2.1-2.06s-1.52-6.03-.46-9.73c1.06-3.69,4.43-5.82,7.76-5.56,2.52.2,4.34,1.93,5.53,5.81,1.04,3.39.11,5.77,2.23,6.53,2.12.76,7.36-.12,7.64,6.38.19,4.46-2.37,6.72-4.72,6.92ZM108.47,63.99c0,14.68-8.82,27.5-21.95,34.42.02.37.04.75.04,1.14,0,6.59-3.39,11.92-7.58,11.92-3.36,0-6.21-3.44-7.2-8.21-.26.04-.52.06-.78.09-1.01,4.71-3.84,8.11-7.18,8.11s-6.2-3.44-7.2-8.2c-.29-.04-.58-.08-.87-.13-.97,4.83-3.84,8.33-7.23,8.33-4.19,0-7.58-5.34-7.58-11.92,0-.53.03-1.05.07-1.56-12.69-7.01-21.16-19.62-21.16-34,0-22.02,19.84-39.87,44.31-39.87s44.31,17.85,44.31,39.87ZM55.83,62.24c-2.03-1.65-5.31-3.13-10.58-3.31-4.81-.16-7.96.92-10.02,2.32-2.79,1.9-4.01,5.53-3.11,8.89,1.19,4.42,4.35,11.45,12.54,12.26.51.05,1.03.04,1.54-.02,2.55-.31,9.6-2.03,12.19-11.74.82-3.07-.15-6.45-2.56-8.4ZM65.4,79.67c-.83-.5-1.87-.5-2.7,0-1.58.96-4.14,2.98-5.33,6.55-.37,1.12.51,2.26,1.67,2.15l5.01-.48,5.01.48c1.16.11,2.05-1.03,1.67-2.15-1.19-3.58-3.75-5.6-5.33-6.55ZM93.31,61.25c-2.06-1.4-5.21-2.48-10.02-2.32-4.92.17-8.11,1.47-10.16,2.99-2.78,2.06-3.83,5.76-2.84,9.17,2.69,9.31,9.56,10.99,12.07,11.29.51.06,1.03.07,1.54.02,8.18-.81,11.35-7.84,12.54-12.26.9-3.35-.32-6.99-3.11-8.89ZM24.33,35.39l-.99-.99s-6.99.75-9.34.55c-2.35-.2-4.9-2.46-4.72-6.92.27-6.51,5.52-5.63,7.64-6.38,2.12-.76,1.19-3.14,2.23-6.53,1.19-3.89,3.02-5.62,5.53-5.81,3.33-.26,6.7,1.86,7.76,5.56,1.06,3.69-.46,9.73-.46,9.73l2.22,2.18c-3.71,2.46-7.02,5.36-9.86,8.61ZM15.06,96.27c4.25-.6,9.66-1.49,9.66-1.49l1.37-1.35c3.17,3.26,6.85,6.1,10.92,8.44l-4.58,4.57s1.62,6.76-.7,9.51c-2.32,2.74-5.82,3.41-9.04,2.18s-4.5-3.91-4.9-5.68c-.4-1.77-1.41-3.49-2.95-3.98-1.54-.49-5.01-1.07-5.48-4.39-.46-3.32,1.45-7.21,5.7-7.81ZM102.07,93.59l1.21,1.19s5.41.89,9.66,1.49c4.25.6,6.17,4.49,5.7,7.81-.46,3.32-3.94,3.9-5.48,4.39-1.54.49-2.55,2.21-2.95,3.98s-1.68,4.46-4.9,5.68-6.71.56-9.04-2.18c-2.33-2.74-.7-9.51-.7-9.51l-4.47-4.46c4.09-2.32,7.78-5.15,10.96-8.39Z"/>
</svg>