<?xml version="1.0" encoding="UTF-8"?>
<svg id="Layer_1" xmlns="http://www.w3.org/2000/svg" version="1.1" viewBox="0 0 128 128">
  <!-- Generator: Adobe Illustrator 30.0.0, SVG Export Plug-In . SVG Version: 2.1.1 Build 123)  -->
  <defs>
    <style>
      .st0 {
        fill-rule: evenodd;
      }
    </style>
  </defs>
  <path class="st0" d="M118.46,55.09c2.61.25,4.52,2.54,4.27,5.13-.22,2.23-1.98,3.94-4.14,4.21-11.52,1.27-23.08,1.38-34.64.47-2.74-.25-4.76-2.66-4.5-5.37.08-.84.37-1.58.79-2.26,6.15-10.26,13.49-19.71,21.41-28.68-5.77-.04-11.53-.46-17.29-1.29-2.61-.42-4.37-2.85-3.95-5.43.34-2.06,1.98-3.58,3.95-3.9,10.23-1.47,20.51-1.7,30.79-.68,4.15.39,6.47,5.34,4.17,8.74-6.47,10.4-14.29,19.9-22.9,28.64,1.57-.05,3.14-.09,4.71-.12,5.77-.07,11.55,0,17.33.55ZM65.69,109.7c-17.79,1.95-35.62,2.13-53.46.73-4.23-.39-7.34-4.1-6.95-8.29.12-1.29.57-2.44,1.22-3.49,9.49-15.84,20.83-30.42,33.04-44.26-8.91-.06-17.8-.71-26.68-1.99-4.02-.65-6.75-4.4-6.09-8.38.52-3.17,3.05-5.53,6.09-6.03,15.8-2.27,31.66-2.63,47.52-1.05,6.41.61,9.98,8.24,6.44,13.49-9.99,16.05-22.06,30.71-35.35,44.19,2.42-.08,4.84-.15,7.26-.19,8.91-.1,17.82,0,26.74.85,4.03.39,6.97,3.93,6.59,7.91-.34,3.44-3.06,6.08-6.38,6.49Z"/>
</svg>