<?xml version="1.0" encoding="UTF-8"?>
<svg id="Layer_1" xmlns="http://www.w3.org/2000/svg" version="1.1" viewBox="0 0 128 128">
  <!-- Generator: Adobe Illustrator 30.0.0, SVG Export Plug-In . SVG Version: 2.1.1 Build 123)  -->
  <defs>
    <style>
      .st0 {
        fill-rule: evenodd;
      }
    </style>
  </defs>
  <path class="st0" d="M113.67,49.23l-4.18,7.99-12.89-6.92-9.07,5.21v16.97l9.07,5.21,12.89-6.92,4.18,7.99-7.86,4.22,7.97,4.58-4.26,7.61-7.97-4.58.46,9-8.91.47-.75-14.75-8.94-5.13-15.08,8.82v10.48l12.3,7.94-4.8,7.62-7.5-4.84v9.28h-8.63v-9.28l-7.5,4.84-4.8-7.62,12.3-7.94v-10.48l-15.09-8.82-8.94,5.13-.75,14.75-8.91-.47.46-9-7.97,4.58-4.26-7.61,7.97-4.58-7.86-4.22,4.18-7.99,12.89,6.92,9.07-5.21v-16.98l-9.07-5.21-12.89,6.92-4.18-7.99,7.86-4.22-7.97-4.58,4.26-7.61,7.97,4.58-.46-9,8.91-.47.75,14.75,8.94,5.13,15.09-8.82v-10.48l-12.3-7.94,4.8-7.62,7.5,4.84v-9.28h8.63v9.28l7.5-4.84,4.8,7.62-12.3,7.94v10.48l15.08,8.82,8.94-5.13.75-14.75,8.91.47-.46,9,7.97-4.58,4.26,7.61-7.97,4.58,7.86,4.22ZM78.6,55.46l-14.6-8.54-14.6,8.54v17.08l14.6,8.54,14.6-8.54v-17.08Z"/>
</svg>