<?xml version="1.0" encoding="UTF-8"?>
<svg id="Layer_1" xmlns="http://www.w3.org/2000/svg" version="1.1" viewBox="0 0 128 128">
  <!-- Generator: Adobe Illustrator 30.0.0, SVG Export Plug-In . SVG Version: 2.1.1 Build 123)  -->
  <path d="M39.59,97.95c-.27-.27-.66-.38-1.03-.29-3.32.79-6.63,1.36-9.87,1.65.29-3.24.85-6.55,1.65-9.87.09-.37-.02-.76-.29-1.03l-4.55-4.55c-.44-.44-1.2-.27-1.42.31-2.88,7.86-4.8,15.73-5.69,23.41-.13,1.16.86,2.15,2.02,2.02,7.67-.89,15.54-2.8,23.41-5.69.59-.21.75-.97.31-1.41l-4.55-4.55ZM116.89,12.27c.07-.66-.49-1.22-1.15-1.15-19.51,2.03-40.39,10.68-59.08,25.38h-11.57c-7.07-.02-13.84,2.78-18.84,7.78l-14.81,14.81c-.69.69-.2,1.86.77,1.86l20.14.02c-1.38,1.78-2.71,3.57-3.98,5.39-1.75,2.51-1.43,5.92.73,8.08l24.48,24.48c2.16,2.16,5.57,2.49,8.08.73,1.81-1.27,3.61-2.6,5.39-3.98l.03,20.14c0,.97,1.18,1.46,1.86.77l14.81-14.81c5-5,7.8-11.78,7.79-18.84v-11.57c14.69-18.7,23.33-39.58,25.36-59.08ZM82.66,45.34c-3.3-3.3-3.3-8.66,0-11.97,3.3-3.3,8.66-3.3,11.97,0,3.3,3.3,3.3,8.66,0,11.97-3.3,3.31-8.66,3.31-11.97,0Z"/>
</svg>