<?xml version="1.0" encoding="UTF-8"?>
<svg id="Layer_1" xmlns="http://www.w3.org/2000/svg" version="1.1" viewBox="0 0 128 128">
  <!-- Generator: Adobe Illustrator 30.0.0, SVG Export Plug-In . SVG Version: 2.1.1 Build 123)  -->
  <defs>
    <style>
      .st0 {
        fill-rule: evenodd;
      }
    </style>
  </defs>
  <path class="st0" d="M64,115.74c-28.72,0-52-23.16-52-51.74S35.28,12.26,64,12.26s52,23.16,52,51.74-23.28,51.74-52,51.74ZM96.45,52.16l-18.82-5.63-11.2-16.26c-1.54-2.24-4.85-2.24-6.39,0l-11.2,16.26-18.82,5.63c-2.7.81-3.66,4.12-1.8,6.23l12.08,13.74-1.31,19.77c-.19,2.89,2.76,4.94,5.42,3.78l18.81-8.22,18.81,8.22c2.66,1.16,5.61-.9,5.42-3.78l-1.31-19.77,12.08-13.74c1.86-2.11.9-5.42-1.8-6.23Z"/>
</svg>