<?xml version="1.0" encoding="UTF-8"?>
<svg id="Layer_1" xmlns="http://www.w3.org/2000/svg" version="1.1" viewBox="0 0 128 128">
  <!-- Generator: Adobe Illustrator 30.0.0, SVG Export Plug-In . SVG Version: 2.1.1 Build 123)  -->
  <path d="M64,37.85c-14.44,0-26.15,11.71-26.15,26.15s11.71,26.15,26.15,26.15,26.15-11.71,26.15-26.15-11.71-26.15-26.15-26.15ZM54.7,29.03h18.62c.88,0,1.45-1.14,1.07-2.12l-9.31-24.07c-.43-1.12-1.71-1.12-2.15,0l-9.31,24.07c-.38.98.2,2.12,1.07,2.12ZM73.32,98.97h-18.62c-.88,0-1.45,1.14-1.07,2.12l9.31,24.07c.43,1.12,1.71,1.12,2.15,0l9.31-24.07c.38-.98-.2-2.12-1.07-2.12ZM125.16,62.99l-24.07-8.87c-.98-.36-2.12.19-2.12,1.02v17.73c0,.84,1.14,1.38,2.12,1.02l24.07-8.87c1.12-.41,1.12-1.63,0-2.04ZM29.03,72.87v-17.73c0-.84-1.14-1.38-2.12-1.02L2.84,62.99c-1.12.41-1.12,1.63,0,2.04l24.07,8.87c.98.36,2.12-.19,2.12-1.02ZM31.35,41.83c.22.89,1.32,1.2,1.97.55l4.53-4.53,4.53-4.53c.65-.65.34-1.76-.55-1.97l-11.95-2.89c-.85-.21-1.63.56-1.42,1.42l2.89,11.95ZM90.16,37.86l4.53,4.53c.65.65,1.76.34,1.97-.55l2.89-11.95c.21-.85-.56-1.63-1.42-1.42l-11.95,2.89c-.89.22-1.2,1.32-.55,1.97l4.53,4.53ZM96.66,86.18c-.22-.89-1.32-1.2-1.97-.55l-4.53,4.53-4.53,4.53c-.65.65-.34,1.76.55,1.97l11.95,2.89c.85.21,1.63-.56,1.42-1.42l-2.89-11.95ZM37.86,90.16l-4.53-4.53c-.65-.65-1.76-.34-1.97.55l-2.89,11.95c-.21.85.56,1.63,1.42,1.42l11.95-2.89c.89-.22,1.2-1.32.55-1.97l-4.53-4.53Z"/>
</svg>