<?xml version="1.0" encoding="UTF-8"?>
<svg id="Layer_1" xmlns="http://www.w3.org/2000/svg" version="1.1" viewBox="0 0 128 128">
  <!-- Generator: Adobe Illustrator 30.0.0, SVG Export Plug-In . SVG Version: 2.1.1 Build 123)  -->
  <defs>
    <style>
      .st0 {
        fill-rule: evenodd;
      }
    </style>
  </defs>
  <path class="st0" d="M108.36,87.38l-21.13,6.96v-38.12c0-1.97-.88-3.81-2.4-5.05l-23.35-18.95,2.08-3.27c.51-.8,1.52-1.13,2.41-.79l.15.06c-.09-7.48-6.2-13.54-13.71-13.54s-13.71,6.15-13.71,13.71c0,.42.03.84.06,1.25.01.13.03.27.05.4.03.28.08.56.13.84.03.14.05.29.08.43.42,1.92,1.24,3.68,2.37,5.2l7.85-6.37c.73-.6,1.79-.6,2.52,0l30.23,24.54c.47.38.74.95.74,1.55v61.11c0,1.1-.9,2-2,2H20.27c-1.1,0-2-.9-2-2v-61.11c0-.6.27-1.17.74-1.55l17.73-14.39c-2.09-2.75-3.48-6.05-3.89-9.65,0-.05-.02-.1-.02-.16-.07-.69-.11-1.38-.11-2.09,0-10.87,8.84-19.71,19.71-19.71s19.71,8.84,19.71,19.71c0,.71-.04,1.41-.11,2.1l21.68,8.35c.56.22.99.67,1.18,1.24l14.75,44.78c.35,1.05-.22,2.18-1.27,2.53ZM50.75,52.74c3.86,0,6.99-3.14,6.99-7.01s-3.13-7.01-6.99-7.01c-1.8,0-3.43.69-4.67,1.8,1.9.99,4.05,1.56,6.34,1.56v6c-3.1,0-6.02-.74-8.64-2.02.18,3.71,3.23,6.66,6.97,6.66Z"/>
</svg>