<?xml version="1.0" encoding="UTF-8"?>
<svg id="Layer_1" xmlns="http://www.w3.org/2000/svg" version="1.1" viewBox="0 0 128 128">
  <!-- Generator: Adobe Illustrator 30.0.0, SVG Export Plug-In . SVG Version: 2.1.1 Build 123)  -->
  <defs>
    <style>
      .st0 {
        fill-rule: evenodd;
      }
    </style>
  </defs>
  <path class="st0" d="M40.14,5.29c.18.03.37.06.56.1,12.15,2.17,49.8,9.27,70.88,17.45.12.05.23.09.35.14.91.38,1.77,1.49.33,3.29-.05.06-.1.13-.16.19-6.35,7.83-25.46,31.29-32.33,38.35,0,0,15.57,5.1,22.05,8.38.04.02.08.03.11.06.51.33.93,1.21-.07,2.01-.04.03-.07.06-.11.09-8.44,6.41-46.65,35.45-60.7,46.45-.09.07-.18.14-.27.21-1.89,1.5-2.64,1.02-2.43-1.29.01-.15.05-.3.07-.45,1.41-8.73,4.76-29.22,7.08-40.6,0,0-18.45-4.81-27.44-7.62-.11-.03-.23-.06-.33-.1-1.85-.72-3.57-1.95-2.35-5.31.05-.14.09-.3.14-.45,3.51-11.41,12.97-41.67,19.81-58.04.08-.18.16-.37.23-.55.87-2.14,1.9-2.74,4.59-2.29Z"/>
</svg>