<?xml version="1.0" encoding="UTF-8"?>
<svg id="Layer_1" xmlns="http://www.w3.org/2000/svg" version="1.1" viewBox="0 0 128 128">
  <!-- Generator: Adobe Illustrator 30.0.0, SVG Export Plug-In . SVG Version: 2.1.1 Build 123)  -->
  <defs>
    <style>
      .st0 {
        fill-rule: evenodd;
      }
    </style>
  </defs>
  <path class="st0" d="M64,116c-28.72,0-52-23.28-52-52S35.28,12,64,12s52,23.28,52,52-23.28,52-52,52ZM64,24.24c-21.96,0-39.76,17.8-39.76,39.76s17.8,39.76,39.76,39.76,39.76-17.8,39.76-39.76-17.8-39.76-39.76-39.76ZM64,94.56c-16.88,0-30.56-13.68-30.56-30.56s13.68-30.56,30.56-30.56,30.56,13.68,30.56,30.56-13.68,30.56-30.56,30.56ZM82.41,54.79h-12.28v-14.9h-12.28v27.18h24.55v-12.27Z"/>
</svg>