<?xml version="1.0" encoding="UTF-8"?>
<svg id="Layer_1" xmlns="http://www.w3.org/2000/svg" version="1.1" viewBox="0 0 128 128">
  <!-- Generator: Adobe Illustrator 30.0.0, SVG Export Plug-In . SVG Version: 2.1.1 Build 123)  -->
  <defs>
    <style>
      .st0 {
        fill-rule: evenodd;
      }
    </style>
  </defs>
  <path class="st0" d="M112.76,73.53c0,26.93-21.83,48.77-48.76,48.77S15.24,100.47,15.24,73.53c0-23.92,17.22-43.8,39.93-47.96h-.34s-8.02-1.92-8.02-10.7,13.2-9.18,17.16-9.18h0s.01,0,.02,0,.01,0,.02,0h0c3.96,0,17.16.42,17.16,9.18s-8.02,10.69-8.02,10.69h-.32c22.71,4.16,39.93,24.05,39.93,47.97ZM64,36.24c-20.59,0-37.29,16.7-37.29,37.29s16.69,37.29,37.29,37.29,37.29-16.7,37.29-37.29-16.69-37.29-37.29-37.29ZM63.98,102.19c-15.83,0-28.66-12.83-28.66-28.66s12.83-28.66,28.66-28.66,28.66,12.83,28.66,28.66-12.83,28.66-28.66,28.66ZM81.21,66.36c0-.8-.64-1.44-1.44-1.44h-10.03v-12.9c0-.8-.64-1.44-1.44-1.44h-8.59c-.8,0-1.44.64-1.44,1.44v22.94c0,.8.64,1.44,1.44,1.44h20.07c.8,0,1.44-.64,1.44-1.44v-8.6Z"/>
</svg>