<?xml version="1.0" encoding="UTF-8"?>
<svg id="Layer_1" xmlns="http://www.w3.org/2000/svg" version="1.1" viewBox="0 0 128 128">
  <!-- Generator: Adobe Illustrator 30.0.0, SVG Export Plug-In . SVG Version: 2.1.1 Build 123)  -->
  <defs>
    <style>
      .st0 {
        fill-rule: evenodd;
      }
    </style>
  </defs>
  <path class="st0" d="M108.76,57.45c-1.03,4.61-5.13,8.05-10.05,8.05-.7,0-1.37-.07-2.03-.2-3.16,10.72-13.53,17.14-13.53,17.14.66,9.35.37,17.97.19,21.73,11.2.96,20.75,2.63,27.24,4.85,1.58.54,2.48,2.12,2.13,3.76-.33,1.54-1.64,2.58-3.17,2.58-.1,0-.21,0-.31-.01-14.43-1.33-31.34-2.03-48.9-2.03s-34.48.7-48.89,2.02c-1.65.15-3.14-.93-3.49-2.57-.35-1.64.54-3.22,2.13-3.76,5.24-1.79,12.49-3.23,20.99-4.22.45-5.84,1.09-12.13,1.56-16.6-1.31.72-2.82,1.13-4.42,1.13-5.08,0-9.2-4.12-9.2-9.2,0-.12.01-.23.02-.34-2.97-.91-5.13-3.64-5.13-6.91s2.37-6.26,5.54-7.03c-.27-.87-.42-1.8-.42-2.77,0-5.08,4.12-9.2,9.2-9.2.54,0,1.07.06,1.58.14.8-3.13,3.62-5.46,7.01-5.46,2.42,0,4.55,1.2,5.87,3.03.15-.63.34-1.25.58-1.85-1.97-1.88-3.2-4.52-3.2-7.45,0-5.22,3.89-9.53,8.93-10.2.58-6.67,6.17-11.91,12.99-11.91,2.01,0,3.91.47,5.61,1.28.72-4.99,5-8.82,10.18-8.82,4.71,0,8.67,3.16,9.9,7.47,1.83-.98,3.93-1.54,6.16-1.54,7.16,0,12.97,5.77,13.04,12.91.09,0,.17-.01.26-.01,7.21,0,13.05,5.84,13.05,13.05,0,6.64-4.97,12.11-11.39,12.93ZM41.64,89.84c.37,5.22.64,10.5.8,13.94,5.67-.36,11.68-.56,17.87-.56,2.17,0,4.3.03,6.42.07.88-11.56,2.13-21.77,2.61-25.44-3.41-3.05-5.86-7.99-7.43-12.01-1.23.72-2.57,1.25-4.01,1.53,2.04,1.68,3.37,4.21,3.37,7.07,0,4.41-3.11,8.1-7.26,8.99-.69,3.71-3.94,6.53-7.85,6.53-1.25,0-2.43-.3-3.49-.81-.63.46-1.02.69-1.02.69ZM78.73,59.11c-.48.05-.96.08-1.46.08-1.83,0-3.58-.33-5.21-.92-.77,1.59-1.85,3-3.17,4.15,1.98,4.37,4.7,7.78,6.6,9.84,5.56-1.7,9.15-5.46,11.23-8.4-3.36-.23-6.28-2.06-7.99-4.75Z"/>
</svg>