<?xml version="1.0" encoding="UTF-8"?>
<svg id="Layer_1" xmlns="http://www.w3.org/2000/svg" version="1.1" viewBox="0 0 128 128">
  <!-- Generator: Adobe Illustrator 30.0.0, SVG Export Plug-In . SVG Version: 2.1.1 Build 123)  -->
  <path d="M64,80.57h0c19.47,0,35.26-15.79,35.26-35.26s-15.79-35.26-35.26-35.26h0c-19.47,0-35.26,15.79-35.26,35.26s15.79,35.26,35.26,35.26Z"/>
  <path d="M87.86,81.08c-6.83,4.57-15.03,7.23-23.86,7.23-8.83,0-17.04-2.67-23.86-7.23-5.35,11.28-8.55,21.9-9.74,28.45-1.23,4.73.88,8.42,5.2,8.42h56.81c4.33,0,6.44-3.69,5.2-8.42-1.2-6.55-4.39-17.17-9.74-28.45Z"/>
</svg>