<?xml version="1.0" encoding="UTF-8"?>
<svg id="Layer_1" xmlns="http://www.w3.org/2000/svg" version="1.1" viewBox="0 0 128 128">
  <!-- Generator: Adobe Illustrator 30.0.0, SVG Export Plug-In . SVG Version: 2.1.1 Build 123)  -->
  <defs>
    <style>
      .st0 {
        fill-rule: evenodd;
      }
    </style>
  </defs>
  <path class="st0" d="M110.44,99.49c-2.95,0-5.35-2.39-5.35-5.35v-22.83c0-2.95,2.39-5.35,5.35-5.35s5.35,2.4,5.35,5.35v22.83c0,2.95-2.4,5.35-5.35,5.35ZM91.02,111.52h-55.44c-3.28,0-5.94-2.66-5.94-5.94V22.42c0-3.28,2.66-5.94,5.94-5.94h55.44c3.28,0,5.94,2.66,5.94,5.94v83.17c0,3.28-2.66,5.94-5.94,5.94ZM71.86,96.47c0-2.19-1.77-3.96-3.96-3.96h-9.19c-2.19,0-3.96,1.77-3.96,3.96v.64c0,2.19,1.77,3.96,3.96,3.96h9.19c2.19,0,3.96-1.77,3.96-3.96v-.64ZM17.56,62.4c-2.95,0-5.35-2.4-5.35-5.35v-22.83c0-2.95,2.4-5.35,5.35-5.35s5.35,2.4,5.35,5.35v22.83c0,2.95-2.4,5.35-5.35,5.35Z"/>
</svg>