<?xml version="1.0" encoding="UTF-8"?>
<svg id="Layer_1" xmlns="http://www.w3.org/2000/svg" version="1.1" viewBox="0 0 128 128">
  <!-- Generator: Adobe Illustrator 30.0.0, SVG Export Plug-In . SVG Version: 2.1.1 Build 123)  -->
  <defs>
    <style>
      .st0 {
        fill-rule: evenodd;
      }
    </style>
  </defs>
  <path class="st0" d="M111.86,99.58l-6.77-6.77v-21.2c0-2.95,2.39-5.35,5.35-5.35s5.35,2.4,5.35,5.35v22.83c0,2.46-1.67,4.51-3.93,5.13ZM35.58,16.78h55.44c3.28,0,5.94,2.66,5.94,5.94v61.96L31.13,18.82c1.09-1.24,2.67-2.04,4.45-2.04ZM106.44,113.59L13.41,20.52l6.11-6.11,93.03,93.06-6.11,6.11ZM15.35,29.66l7.56,7.56v20.13c0,2.95-2.4,5.35-5.35,5.35s-5.35-2.4-5.35-5.35v-22.83c0-2.16,1.29-4.02,3.14-4.86ZM91.02,111.82h-55.44c-3.28,0-5.94-2.66-5.94-5.94v-61.93l65.82,65.84c-1.09,1.23-2.66,2.03-4.44,2.03ZM71.86,96.77c0-2.19-1.77-3.96-3.96-3.96h-9.19c-2.19,0-3.96,1.77-3.96,3.96v.64c0,2.19,1.77,3.96,3.96,3.96h9.19c2.19,0,3.96-1.77,3.96-3.96v-.64Z"/>
</svg>