<?xml version="1.0" encoding="UTF-8"?>
<svg id="Layer_1" xmlns="http://www.w3.org/2000/svg" version="1.1" viewBox="0 0 128 128">
  <!-- Generator: Adobe Illustrator 30.0.0, SVG Export Plug-In . SVG Version: 2.1.1 Build 123)  -->
  <defs>
    <style>
      .st0 {
        fill-rule: evenodd;
      }
    </style>
  </defs>
  <path class="st0" d="M107.36,107.09H20.64c-4.12,0-7.46-3.36-7.46-7.51v-52.99h101.64v52.99c0,4.15-3.34,7.51-7.46,7.51ZM102.52,60.39H25.48v6.42h20.52v25.93h6.37v-25.93h50.14v-6.42ZM106.12,20.91h8.7v18.3h-20.46l11.75-18.3ZM68.85,39.21l11.75-18.3h16.15l-11.75,18.3h-16.15ZM43.15,39.21l11.75-18.3h16.33l-11.75,18.3h-16.33ZM13.18,39.21v-18.3h32.35l-11.75,18.3H13.18ZM23.57,24.75c-2.91,0-5.27,2.38-5.27,5.31s2.36,5.31,5.27,5.31,5.27-2.38,5.27-5.31-2.36-5.31-5.27-5.31Z"/>
</svg>