<?xml version="1.0" encoding="UTF-8"?>
<svg id="Layer_1" xmlns="http://www.w3.org/2000/svg" version="1.1" viewBox="0 0 128 128">
  <!-- Generator: Adobe Illustrator 30.0.0, SVG Export Plug-In . SVG Version: 2.1.1 Build 123)  -->
  <path d="M64,21.09C17.38,21.09,3.36,64,3.36,64c0,0,14.03,42.91,60.64,42.91s60.64-42.91,60.64-42.91c0,0-14.03-42.91-60.64-42.91ZM64,92c-15.38,0-27.85-12.54-27.85-28s12.47-28,27.85-28,27.85,12.53,27.85,28-12.47,28-27.85,28ZM64,49.37c-8.04,0-14.55,6.55-14.55,14.63s6.52,14.63,14.55,14.63,14.55-6.55,14.55-14.63-6.52-14.63-14.55-14.63Z"/>
</svg>