<?xml version="1.0" encoding="UTF-8"?>
<svg id="Layer_1" xmlns="http://www.w3.org/2000/svg" version="1.1" viewBox="0 0 128 128">
  <!-- Generator: Adobe Illustrator 30.0.0, SVG Export Plug-In . SVG Version: 2.1.1 Build 123)  -->
  <defs>
    <style>
      .st0 {
        fill-rule: evenodd;
      }
    </style>
  </defs>
  <path class="st0" d="M86.76,96.19c-.73.16-1.41-.42-1.41-1.16v-16.04l-7.58-6.92c3.4-3.55,5.5-8.35,5.5-13.65s-2.1-10.1-5.5-13.65l7.58-6.92v-16.04c0-.74.68-1.32,1.41-1.16,17.44,3.74,30.52,19.21,30.52,37.77s-13.08,34.02-30.52,37.77ZM64.74,120.06c-.63.74-1.78.74-2.41,0l-10.33-12.13c-.46-.54-.48-1.33-.03-1.88,2.75-3.36,4.27-7.57,4.27-11.94v-.61h14.61v.61c0,4.36,1.52,8.58,4.27,11.94.45.55.43,1.34-.03,1.88l-10.33,12.13ZM70.84,89.5h-14.61v-49.66h14.61v49.66ZM66.53,34.82h-6l-6.9-11.21c-.21-.34-.21-.76,0-1.09l9.01-14.64c.41-.66,1.37-.66,1.78,0l9.01,14.64c.21.34.21.76,0,1.09l-6.9,11.21ZM66.75,22.9l-2.92-4.74c-.13-.21-.44-.21-.58,0l-2.92,4.74c-.07.11-.07.25,0,.35l2.92,4.74c.13.21.44.21.58,0l2.92-4.74c.07-.11.07-.25,0-.35ZM42.65,78.99v16.04c0,.74-.68,1.32-1.41,1.16-17.44-3.74-30.52-19.21-30.52-37.77s13.08-34.02,30.52-37.77c.73-.16,1.41.42,1.41,1.16v16.04l7.09,6.47c-3.66,3.58-5.94,8.57-5.94,14.1s2.28,10.52,5.94,14.1l-7.09,6.47Z"/>
</svg>