<?xml version="1.0" encoding="UTF-8"?>
<svg id="Layer_1" xmlns="http://www.w3.org/2000/svg" version="1.1" viewBox="0 0 128 128">
  <!-- Generator: Adobe Illustrator 30.0.0, SVG Export Plug-In . SVG Version: 2.1.1 Build 123)  -->
  <defs>
    <style>
      .st0 {
        fill-rule: evenodd;
      }
    </style>
  </defs>
  <path class="st0" d="M117.56,38.52l-9.01,10.82c-12.05-9.15-27.6-14.67-44.55-14.67-4.67,0-9.22.43-13.63,1.23l-16.86-16.87c9.43-3.77,19.72-5.87,30.5-5.87,20.22,0,38.73,7.31,53.03,19.41,1.78,1.51,2.03,4.15.53,5.94ZM88.02,73.57l-28.65-28.66c1.53-.11,3.07-.17,4.63-.17,14.51,0,27.8,4.65,38.1,12.35l-12.96,15.56c-.32.39-.71.69-1.13.92ZM103.37,110.51L13.23,20.34l6.79-6.79,90.14,90.17-6.79,6.79ZM28.45,43.56c-3.17,1.72-6.18,3.65-9,5.78l-9.01-10.82c-1.49-1.79-1.24-4.44.53-5.94,1.18-1,2.39-1.95,3.62-2.88l13.85,13.86ZM52.87,67.99c-3.03,1.25-5.81,2.97-8.23,5.11-1.71,1.51-4.33,1.3-5.79-.45l-12.95-15.56c3.09-2.31,6.45-4.33,10.03-6.05l16.94,16.95ZM60.37,75.49l23.08,23.09c-1.73,9.14-9.77,16.06-19.45,16.06-10.94,0-19.81-8.84-19.81-19.75,0-9.67,6.97-17.7,16.18-19.4Z"/>
</svg>