<?xml version="1.0" encoding="UTF-8"?>
<svg id="Layer_1" xmlns="http://www.w3.org/2000/svg" version="1.1" viewBox="0 0 128 128">
  <!-- Generator: Adobe Illustrator 30.0.0, SVG Export Plug-In . SVG Version: 2.1.1 Build 123)  -->
  <path d="M108.18,17.57c-29.76,11.67-39.69,34.55-43.41,47.63-.27.96-.53,2-.77,3.08-.25-1.09-.51-2.14-.78-3.11-3.71-13.08-13.65-35.96-43.41-47.63-8.43-3.3-21.29-.9-18.37,12.8,2.92,13.7,11.76,22.85,23.35,28.47,0,0-13.12-2.26-12.74,7.85.26,7.09,11.24,16.61,27.33,19.99,0,0-10.17-.8-10.46,4.43-.34,6.19,7.59,13.06,25.82,11.45,0,0,3.77,5.85,5.59,7.64.14.14.3.26.45.39.95,1,2.38,1.39,3.81,1.17.84-.08,1.63-.38,2.26-.9.27-.19.54-.39.79-.63,1.83-1.79,5.59-7.64,5.59-7.64,18.23,1.61,26.16-5.26,25.82-11.45-.29-5.23-10.46-4.43-10.46-4.43,16.09-3.38,27.07-12.91,27.33-19.99.38-10.11-12.74-7.85-12.74-7.85,11.59-5.62,20.43-14.77,23.35-28.47,2.92-13.7-9.94-16.11-18.37-12.8Z"/>
</svg>